<svg xmlns="http://www.w3.org/2000/svg" viewBox="0 0 109.18 109.18"><defs><style>.cls-1{fill:#e6f4f2;}.cls-2{fill:#229390;}</style></defs><title>Asset 27</title><g id="Layer_2" data-name="Layer 2"><g id="Layer_1-2" data-name="Layer 1"><circle class="cls-1" cx="54.59" cy="54.59" r="54.59"/><path class="cls-2" d="M97.61,59.25a12.09,12.09,0,0,0-11.06-12,5.8,5.8,0,0,0-4.17-4.06,28.32,28.32,0,0,0-56.55,1,5.81,5.81,0,0,0-3.2,3.73,12.09,12.09,0,0,0,0,24.09A5.8,5.8,0,0,0,34,70.36v-21A5.8,5.8,0,0,0,30.37,44a23.78,23.78,0,0,1,47.51-.16,5.79,5.79,0,0,0-2.72,4.91v21a5.81,5.81,0,0,0,4.63,5.69c-.17,3.41-1.27,6.05-3.29,7.86-3.49,3.13-9,3.24-12.3,3a4.65,4.65,0,0,0-4.4-3.14H51.34a4.65,4.65,0,1,0,0,9.3h8.48a4.65,4.65,0,0,0,4.58-3.85c.64,0,1.35.08,2.1.08,3.59,0,8.21-.69,11.53-3.65,2.52-2.25,3.88-5.46,4.06-9.55a5.8,5.8,0,0,0,4.48-4.14A12.09,12.09,0,0,0,97.61,59.25Z"/></g></g></svg>