<svg xmlns="http://www.w3.org/2000/svg" viewBox="0 0 109.18 109.18"><defs><style>.cls-1{fill:#ffeae6;}.cls-2{fill:#dd694a;}.cls-3{fill:#ea826e;}</style></defs><title>Asset 26</title><g id="Layer_2" data-name="Layer 2"><g id="Layer_1-2" data-name="Layer 1"><circle class="cls-1" cx="54.59" cy="54.59" r="54.59"/><path class="cls-2" d="M95.36,50.31V75.09a6.64,6.64,0,0,1-6.64,6.64H20.46a6.64,6.64,0,0,1-6.64-6.64V50.31"/><path class="cls-3" d="M69.16,29.25H67V24.45a1.21,1.21,0,0,0-1.21-1.21H43.42a1.21,1.21,0,0,0-1.21,1.21v4.81H40a.83.83,0,0,0-.83.83v3.8h8.46v-3.8a.83.83,0,0,0-.83-.83H44.63v-3.6H64.56v3.6H62.37a.83.83,0,0,0-.83.83v3.8H70v-3.8A.83.83,0,0,0,69.16,29.25Z"/><path class="cls-2" d="M20.43,33.88H88.75a6.61,6.61,0,0,1,6.61,6.61v7.62a0,0,0,0,1,0,0H13.82a0,0,0,0,1,0,0V40.5A6.61,6.61,0,0,1,20.43,33.88Z"/><rect class="cls-3" x="68.8" y="40.26" width="10.67" height="16.49" rx="1.49" ry="1.49"/><rect class="cls-3" x="30.41" y="40.26" width="10.67" height="16.49" rx="1.49" ry="1.49"/></g></g></svg>