<svg xmlns="http://www.w3.org/2000/svg" viewBox="0 0 434.71 471.4"><defs><style>.cls-1,.cls-10,.cls-16,.cls-17,.cls-8{fill:none;}.cls-1{stroke:#f4bc4a;stroke-linejoin:round;}.cls-1,.cls-10,.cls-17{stroke-linecap:round;}.cls-1,.cls-16,.cls-17{stroke-width:8px;}.cls-2,.cls-6{fill:#ddd;}.cls-3{fill:#8e8e8e;}.cls-4{fill:#aed1cf;}.cls-18,.cls-5{fill:#168787;}.cls-6{stroke:#8e8e8e;}.cls-10,.cls-16,.cls-17,.cls-6,.cls-8{stroke-miterlimit:10;}.cls-7{fill:#fff;}.cls-8{stroke:#d6d6d6;stroke-width:3px;}.cls-9{fill:#d6d6d6;}.cls-10,.cls-17{stroke:#168787;}.cls-10{stroke-width:3.52px;}.cls-11{fill:#6daf9e;}.cls-12{fill:#127774;}.cls-13{fill:#44a097;}.cls-14{fill:#b6d3cc;}.cls-15{fill:#8c8c8c;fill-opacity:0.5;}.cls-16{stroke:#ebb835;}.cls-18{font-size:25.53px;font-family:Montserrat-SemiBold, Montserrat;font-weight:700;letter-spacing:0.05em;}</style></defs><title>Asset 14</title><g id="Layer_2" data-name="Layer 2"><g id="Layer_1-2" data-name="Layer 1"><line class="cls-1" x1="247.97" y1="189.36" x2="322" y2="81.78"/><line class="cls-1" x1="360.77" y1="95.19" x2="322" y2="81.78"/><line class="cls-1" x1="428.46" y1="4.5" x2="360.77" y2="95.19"/><line class="cls-1" x1="429.01" y1="4.05" x2="430.71" y2="21.23"/><line class="cls-1" x1="411.87" y1="5.71" x2="429.04" y2="4"/><rect class="cls-2" y="4.58" width="296.1" height="427.5" rx="22.89" ry="22.89"/><rect class="cls-3" x="5.82" y="45.69" width="284" height="337.3"/><rect class="cls-4" x="9.88" y="49.74" width="275.88" height="329.35"/><rect class="cls-5" x="9.88" y="49.66" width="275.88" height="31.36"/><circle class="cls-6" cx="147.82" cy="407.74" r="13"/><rect class="cls-3" x="109.05" y="27.89" width="78" height="5.75" rx="2.88" ry="2.88"/><circle class="cls-3" cx="148.05" cy="19.21" r="3.76"/><rect class="cls-7" x="14.02" y="88.32" width="267.39" height="176.51"/><rect class="cls-7" x="13.91" y="272.33" width="267.39" height="47.76"/><rect class="cls-7" x="13.91" y="326.6" width="267.39" height="47.76"/><line class="cls-8" x1="13.97" y1="138.34" x2="282.4" y2="138.34"/><rect class="cls-9" x="24.97" y="100" width="130.25" height="7.37"/><rect class="cls-9" x="45.27" y="161.77" width="101.92" height="7.37"/><rect class="cls-9" x="54.17" y="283.9" width="130.25" height="7.37"/><rect class="cls-9" x="54.17" y="301.29" width="80.63" height="7.37"/><rect class="cls-9" x="144.11" y="301.29" width="60.92" height="7.37"/><rect class="cls-9" x="151.78" y="356.26" width="27.64" height="7.37"/><rect class="cls-9" x="50.94" y="338.99" width="60.92" height="7.37"/><rect class="cls-9" x="50.94" y="356.26" width="92.2" height="7.37"/><rect class="cls-9" x="24.97" y="118" width="74.07" height="8"/><rect class="cls-9" x="44.72" y="147.31" width="74.07" height="8"/><rect class="cls-9" x="107.31" y="117.51" width="74.07" height="8"/><circle class="cls-9" cx="28.99" cy="156.82" r="8.63"/><circle class="cls-9" cx="30.01" cy="296.48" r="8.63"/><circle class="cls-9" cx="30.01" cy="350.63" r="8.63"/><line class="cls-10" x1="153.15" y1="200.96" x2="191.26" y2="183.16"/><line class="cls-10" x1="216.04" y1="196.33" x2="191.26" y2="183.16"/><line class="cls-10" x1="247.42" y1="171.04" x2="216.04" y2="196.33"/><circle class="cls-5" cx="248.95" cy="169.66" r="3.26"/><circle class="cls-5" cx="216.04" cy="196.01" r="3.26"/><circle class="cls-5" cx="191.26" cy="183.16" r="3.26"/><circle class="cls-5" cx="153.15" cy="200.96" r="3.26"/><circle class="cls-5" cx="117.77" cy="210.38" r="3.26"/><circle class="cls-5" cx="92.91" cy="199.62" r="3.26" transform="translate(-116.38 268.04) rotate(-83.14)"/><circle class="cls-5" cx="47.44" cy="235.89" r="3.26"/><circle class="cls-5" cx="71.69" cy="224.92" r="3.26"/><rect class="cls-11" x="181.99" y="195.36" width="18.55" height="60.08" rx="1.15" ry="1.15"/><rect class="cls-12" x="229.56" y="191.15" width="18.55" height="64.29" rx="1.15" ry="1.15"/><rect class="cls-13" x="158.62" y="208.88" width="18.55" height="46.56" rx="1.15" ry="1.15"/><rect class="cls-14" x="205.35" y="203.62" width="18.55" height="51.82" rx="1.15" ry="1.15"/><rect class="cls-11" x="87.02" y="213.96" width="18.55" height="42.98" rx="0.98" ry="0.98"/><rect class="cls-12" x="134.6" y="210.38" width="18.55" height="46.56" rx="0.98" ry="0.98"/><rect class="cls-13" x="63.65" y="238.39" width="18.55" height="18.55" rx="0.73" ry="0.73"/><rect class="cls-14" x="41.12" y="243.92" width="18.55" height="13.02" rx="0.61" ry="0.61"/><rect class="cls-14" x="110.39" y="219" width="18.55" height="37.94" rx="0.99" ry="0.99"/><line class="cls-10" x1="117.77" y1="210.38" x2="153.15" y2="200.96"/><line class="cls-10" x1="92.75" y1="199.46" x2="117.77" y2="210.38"/><line class="cls-10" x1="71.1" y1="225.5" x2="92.75" y2="199.46"/><line class="cls-10" x1="48.43" y1="235.45" x2="71.1" y2="225.5"/><path class="cls-7" d="M127.89,62.69l-.48,1a3.61,3.61,0,0,0-1.77-.54c-.52,0-.9.17-.9.61,0,1.13,3.27.52,3.26,2.75,0,1.26-1.12,1.82-2.36,1.82a3.8,3.8,0,0,1-2.47-.85l.47-.95a3.35,3.35,0,0,0,2.06.76c.57,0,1-.2,1-.66,0-1.26-3.23-.55-3.22-2.77,0-1.25,1.09-1.78,2.26-1.78A3.88,3.88,0,0,1,127.89,62.69Z"/><path class="cls-7" d="M135.49,68.27h-1.33v-1.2A2.26,2.26,0,0,1,132,68.32a2.13,2.13,0,0,1-2.25-2.37V62.13H131v3.45a1.35,1.35,0,0,0,1.43,1.49,1.74,1.74,0,0,0,1.69-1.92v-3h1.33Z"/><path class="cls-7" d="M144.5,65.22a2.85,2.85,0,0,1-2.91,3.09,2.41,2.41,0,0,1-2.17-1.11v1.06h-1.33V59.7h1.33v3.49a2.4,2.4,0,0,1,2.15-1.11A2.89,2.89,0,0,1,144.5,65.22Zm-1.34,0a1.88,1.88,0,1,0-1.87,2A1.86,1.86,0,0,0,143.16,65.17Z"/><path class="cls-7" d="M151.52,63.08l-.73.85a2.32,2.32,0,0,0-1.76-.69,2,2,0,0,0,0,3.93,2.29,2.29,0,0,0,1.81-.74l.74.74A3.13,3.13,0,0,1,149,68.32a3.12,3.12,0,0,1,0-6.24A3.24,3.24,0,0,1,151.52,63.08Z"/><path class="cls-7" d="M159.51,64.45v3.82h-1.33V64.82a1.37,1.37,0,0,0-1.48-1.49,1.76,1.76,0,0,0-1.76,1.92v3h-1.33V59.7h1.33v3.63a2.32,2.32,0,0,1,2.27-1.25A2.15,2.15,0,0,1,159.51,64.45Z"/><path class="cls-7" d="M165.55,67.52a2.49,2.49,0,0,1-2,.81,1.94,1.94,0,0,1-2.16-1.91c0-1.12.84-1.84,2.32-1.85h1.86v-.18c0-.77-.5-1.24-1.47-1.24a3.24,3.24,0,0,0-1.81.62l-.54-.92a4.5,4.5,0,0,1,2.64-.77c1.58,0,2.47.81,2.48,2.16v4h-1.3Zm0-1.41v-.57h-1.66c-.87,0-1.27.23-1.27.82s.45.91,1.19.91C164.74,67.28,165.47,66.78,165.54,66.11Z"/><path class="cls-7" d="M175.09,64.45v3.82h-1.33V64.82a1.37,1.37,0,0,0-1.48-1.49A1.72,1.72,0,0,0,170.54,65v3.27h-1.33V62.13h1.33V63.3a2.32,2.32,0,0,1,2.26-1.22A2.15,2.15,0,0,1,175.09,64.45Z"/><path class="cls-7" d="M183.32,64.45v3.82H182V64.82a1.37,1.37,0,0,0-1.48-1.49A1.72,1.72,0,0,0,178.77,65v3.27h-1.33V62.13h1.33V63.3A2.32,2.32,0,0,1,181,62.08,2.15,2.15,0,0,1,183.32,64.45Z"/><path class="cls-7" d="M191.08,65.71h-4.64a1.87,1.87,0,0,0,1.91,1.54,2.39,2.39,0,0,0,1.73-.72l.7.75a3.34,3.34,0,0,1-2.54,1,3.12,3.12,0,1,1,0-6.24C190.37,62.08,191.25,63.49,191.08,65.71Zm-1.15-1a1.58,1.58,0,0,0-1.71-1.59,1.75,1.75,0,0,0-1.8,1.59Z"/><path class="cls-7" d="M193.11,68.27V59.7h1.33v8.57Z"/><path class="cls-7" d="M109.69,55.59a9.76,9.76,0,1,0,9.76,9.76A9.76,9.76,0,0,0,109.69,55.59Zm4.56,4.73v4.07l-5-4.07Zm-9.65,10v-4.2l5.36,4.2Zm8.35-.26a2.48,2.48,0,0,1-.41.14,3.8,3.8,0,0,1-.48.08l-.66,0-1.47-1-1-.74q-1-.71-1.86-1.47a13.75,13.75,0,0,1-1.4-1.29,4.66,4.66,0,0,1-.73-.95,3.32,3.32,0,0,1-.27-.74,3.06,3.06,0,0,1-.1-.75,2.92,2.92,0,0,1,.37-1.47l8.89,7.66A3.13,3.13,0,0,1,112.95,70.11ZM114.36,69l-8.93-7.69a3.18,3.18,0,0,1,1-.64,3.62,3.62,0,0,1,.69-.19,6.67,6.67,0,0,1,.89-.06l5.39,4.42a4.31,4.31,0,0,1,1.1,1.2,2.73,2.73,0,0,1,.34,1.35A2.85,2.85,0,0,1,114.36,69Z"/><rect class="cls-15" x="235.59" y="126.36" width="187.89" height="342.03" rx="23.1" ry="23.1"/><rect class="cls-2" x="239.2" y="129.36" width="187.89" height="342.03" rx="23.1" ry="23.1"/><rect class="cls-3" x="244.02" y="164.77" width="178.07" height="266.67"/><rect class="cls-4" x="246.79" y="167.53" width="172.55" height="261.15"/><circle class="cls-6" cx="334.37" cy="451.77" r="13"/><rect class="cls-3" x="297.8" y="151.77" width="78" height="5.75" rx="2.88" ry="2.88"/><circle class="cls-3" cx="335.59" cy="143.09" r="3.76"/><rect class="cls-7" x="250.22" y="376.49" width="165.67" height="47.76"/><rect class="cls-7" x="249.87" y="194.17" width="165.67" height="175.92"/><rect class="cls-9" x="275.27" y="211.8" width="79.67" height="5.76"/><rect class="cls-9" x="274.84" y="200.51" width="57.91" height="6.25"/><circle class="cls-9" cx="262.55" cy="208.93" r="6.75"/><rect class="cls-9" x="277.27" y="403.14" width="79.67" height="5.76"/><rect class="cls-9" x="276.84" y="391.84" width="57.91" height="6.25"/><circle class="cls-9" cx="264.55" cy="400.27" r="6.75"/><rect class="cls-5" x="246.79" y="167.53" width="172.55" height="20.08"/><path class="cls-7" d="M321,176.09l-.27.55a2,2,0,0,0-1-.3c-.29,0-.5.1-.5.34,0,.63,1.83.29,1.82,1.54,0,.7-.63,1-1.32,1a2.13,2.13,0,0,1-1.38-.48l.27-.53a1.87,1.87,0,0,0,1.15.43c.32,0,.56-.11.56-.37,0-.7-1.81-.31-1.8-1.55,0-.7.61-1,1.27-1A2.17,2.17,0,0,1,321,176.09Z"/><path class="cls-7" d="M325.28,179.21h-.74v-.67a1.27,1.27,0,0,1-1.23.7,1.19,1.19,0,0,1-1.26-1.33v-2.14h.74v1.93a.76.76,0,0,0,.8.83,1,1,0,0,0,.94-1.07v-1.69h.74Z"/><path class="cls-7" d="M330.33,177.5a1.59,1.59,0,0,1-1.63,1.73,1.35,1.35,0,0,1-1.22-.62v.59h-.74v-4.8h.74v2a1.34,1.34,0,0,1,1.2-.62A1.62,1.62,0,0,1,330.33,177.5Zm-.75,0a1.05,1.05,0,1,0-1,1.13A1,1,0,0,0,329.58,177.48Z"/><path class="cls-7" d="M334.26,176.31l-.41.48a1.3,1.3,0,0,0-1-.39,1.1,1.1,0,0,0,0,2.2,1.28,1.28,0,0,0,1-.41l.41.41a1.75,1.75,0,0,1-1.46.64,1.75,1.75,0,0,1,0-3.49A1.82,1.82,0,0,1,334.26,176.31Z"/><path class="cls-7" d="M338.73,177.07v2.14H338v-1.93a.77.77,0,0,0-.83-.83,1,1,0,0,0-1,1.07v1.69h-.74v-4.8h.74v2a1.3,1.3,0,0,1,1.27-.7A1.2,1.2,0,0,1,338.73,177.07Z"/><path class="cls-7" d="M342.11,178.79a1.4,1.4,0,0,1-1.14.45,1.09,1.09,0,0,1-1.21-1.07c0-.63.47-1,1.3-1h1V177c0-.43-.28-.69-.82-.69a1.81,1.81,0,0,0-1,.35l-.3-.52a2.52,2.52,0,0,1,1.48-.43c.89,0,1.38.45,1.39,1.21v2.26h-.73Zm0-.79v-.32h-.93c-.48,0-.71.13-.71.46s.25.51.67.51S342.07,178.38,342.11,178Z"/><path class="cls-7" d="M347.46,177.07v2.14h-.74v-1.93a.77.77,0,0,0-.83-.83,1,1,0,0,0-1,.94v1.83h-.74v-3.44h.74v.66a1.3,1.3,0,0,1,1.27-.69A1.2,1.2,0,0,1,347.46,177.07Z"/><path class="cls-7" d="M352.07,177.07v2.14h-.74v-1.93a.77.77,0,0,0-.83-.83,1,1,0,0,0-1,.94v1.83h-.74v-3.44h.74v.66a1.3,1.3,0,0,1,1.27-.69A1.2,1.2,0,0,1,352.07,177.07Z"/><path class="cls-7" d="M356.41,177.78h-2.6a1,1,0,0,0,1.07.86,1.34,1.34,0,0,0,1-.4l.39.42a1.87,1.87,0,0,1-1.42.58,1.75,1.75,0,1,1,0-3.49C356,175.75,356.5,176.53,356.41,177.78Zm-.65-.54a.88.88,0,0,0-1-.89,1,1,0,0,0-1,.89Z"/><path class="cls-7" d="M357.55,179.21v-4.8h.74v4.8Z"/><path class="cls-7" d="M310.83,172.11a5.46,5.46,0,1,0,5.46,5.46A5.46,5.46,0,0,0,310.83,172.11Zm2.55,2.65V177l-2.78-2.28ZM308,180.39V178l3,2.35Zm4.67-.15-.23.08-.27,0-.37,0-.82-.57-.57-.41q-.54-.4-1-.82a7.7,7.7,0,0,1-.78-.72,2.61,2.61,0,0,1-.41-.53,1.86,1.86,0,0,1-.15-.41,1.71,1.71,0,0,1-.06-.42,1.64,1.64,0,0,1,.21-.82l5,4.29A1.75,1.75,0,0,1,312.66,180.24Zm.79-.64-5-4.31a1.78,1.78,0,0,1,.56-.36,2,2,0,0,1,.39-.11,3.73,3.73,0,0,1,.5,0l3,2.47a2.42,2.42,0,0,1,.61.67,1.53,1.53,0,0,1,.19.76A1.59,1.59,0,0,1,313.45,179.6Z"/><circle class="cls-16" cx="332.7" cy="297.19" r="58.74"/><path class="cls-17" d="M391.44,297.19a58.69,58.69,0,1,1-35.88-54.12"/><text class="cls-18" transform="translate(295.5 305.87)">2,780</text></g></g></svg>