<svg xmlns="http://www.w3.org/2000/svg" viewBox="0 0 109.18 109.18"><defs><style>.cls-1{fill:#ffeae6;}.cls-2{fill:#dd694a;}</style></defs><title>Asset 22</title><g id="Layer_2" data-name="Layer 2"><g id="Layer_1-2" data-name="Layer 1"><circle class="cls-1" cx="54.59" cy="54.59" r="54.59"/><path class="cls-2" d="M88.17,60.21A4,4,0,0,0,83.26,63a28.25,28.25,0,0,1-52,6.08l8.55-2.7A1.27,1.27,0,0,0,39.94,64l-16.8-7.5a1.27,1.27,0,0,0-1.6.51L12.08,72.83a1.27,1.27,0,0,0,1.47,1.86l10-3.14A36.25,36.25,0,0,0,91,65.13,4,4,0,0,0,88.17,60.21Z"/><path class="cls-2" d="M97.1,35.3,88,38.16a36.26,36.26,0,0,0-67.73,5.89A4,4,0,0,0,28,46.17a28.24,28.24,0,0,1,52.27-5.57l-9.44,3a1.27,1.27,0,0,0-.13,2.36l16.8,7.5a1.27,1.27,0,0,0,1.6-.51l9.45-15.79A1.27,1.27,0,0,0,97.1,35.3Z"/></g></g></svg>