  
  


<svg width="1463" height="957" xmlns="http://www.w3.org/2000/svg" xmlns:xlink="http://www.w3.org/1999/xlink"><defs>        <style>
        #svgBG {
            width: 1400px;
            height: 740px;
        }

        .balloon2 {
            animation: 10s downUp infinite;
        }

        .balloon1 {
        animation: 8.5s upDown infinite; 
}

        .flicker1 {
        animation: 2.5s onOff infinite;
        }

         .flicker2 {
        animation: 2.5s offOn infinite;
        }

@keyframes onOff {
    0%,
    50% {
    opacity: 0;
    }
    100% {
    opacity: 1;
    }
}



@keyframes offOn {
    0%,
    50% {
    opacity: 1;
    }
    100% {
    opacity: 0;
    }
}

@keyframes downUp {
  0%,
  40%,
  80%,
  100%
 {
    transform: translate(1200px, 200px);
    
  }
  20%,
  60%
 {
    transform: translate(1200px, 175px);
}
}

@keyframes upDown {
  0%,
  40%,
  80%,
  100%
 {
    transform: translate(169px, 125px);
    
  }
  20%,
  60%
 {
    transform: translate(169px, 150px);
}
}


        </style><path d="M.237 123.36c0-46.742 40.611-84.64 90.715-84.64 6.026 0 11.917.56 17.612 1.609 9.327-23.5 33.553-40.25 61.977-40.25 27.693 0 51.384 15.905 61.211 38.45 5.325-2.377 11.278-3.71 17.565-3.71 22.511 0 40.76 17.028 40.76 38.028 0 .927-.048 1.845-.118 2.755 30.07 2.401 53.682 25.917 53.682 54.592H.551c-.188-2.255-.314-4.534-.314-6.834" id="path-1"/><path d="M243.407 87.302c0-33.1-28.755-59.935-64.228-59.935-4.276 0-8.443.399-12.483 1.142C160.103 11.868 142.939.004 122.819.004c-19.603 0-36.384 11.262-43.342 27.23a30.477 30.477 0 0 0-12.44-2.625c-15.94 0-28.855 12.054-28.855 26.924 0 .658.03 1.308.083 1.954C16.97 55.185.258 71.835.258 92.141h242.927c.13-1.597.222-3.21.222-4.839" id="path-3"/><path d="M163.725 58.938c0-22.224-19.31-40.238-43.119-40.238-2.87 0-5.67.268-8.382.763C107.8 8.295 96.284.332 82.773.332c-13.163 0-24.427 7.56-29.1 18.278a20.468 20.468 0 0 0-8.355-1.763c-10.694 0-19.367 8.093-19.367 18.075 0 .443.022.882.052 1.317C11.713 37.376.483 48.553.483 62.184h163.09c.091-1.073.152-2.153.152-3.246" id="path-5"/><path d="M91.208 32.908c0-12.407-10.785-22.467-24.083-22.467-1.598 0-3.166.15-4.676.43C59.975 4.636 53.54.187 45.999.187c-7.35 0-13.642 4.222-16.246 10.206a11.45 11.45 0 0 0-4.663-.983c-5.983 0-10.82 4.518-10.82 10.096l.03.731C6.32 20.87.05 27.111.05 34.724h91.072c.052-.597.087-1.202.087-1.816" id="path-7"/><path d="M91.194 33.088c0-12.408-10.772-22.468-24.048-22.468-1.606 0-3.16.15-4.676.427C60.005 4.811 53.579.362 46.046.362c-7.345 0-13.624 4.225-16.228 10.21a11.417 11.417 0 0 0-4.659-.988c-5.96 0-10.803 4.522-10.803 10.096l.03.732C6.415 21.046.158 27.29.158 34.904h90.946c.057-.601.091-1.203.091-1.816" id="path-9"/><path d="M147.703 53.114c0-20.054-17.426-36.314-38.922-36.314-2.59 0-5.116.24-7.563.691C97.22 7.411 86.828.224 74.63.224c-11.882 0-22.045 6.822-26.26 16.495a18.45 18.45 0 0 0-7.533-1.588c-9.657 0-17.486 7.3-17.486 16.312 0 .398.017.792.052 1.182C10.5 33.653.366 43.745.366 56.051h147.197c.083-.97.14-1.95.14-2.937" id="path-11"/></defs><g id="LoginBackground2" fill="none" fill-rule="evenodd" transform="translate(-494 -217)"><g id="Group-3" transform="translate(494 217)"><g id="Group"><g id="D_45" transform="translate(0 .504)"><path id="Fill-1" fill="#FFFFFE" d="M0 955.658h1462.939H0"/><path id="Fill-2" fill="#FFFFFE" d="M0 955.658h1462.939v-49.002H0z"/><path id="Fill-3" fill="#FFFEFD" d="M0 906.656h1462.939v-24.498H0z"/><path id="Fill-4" fill="#FDFDFD" d="M0 882.158h1462.939v-24.503H0z"/><path id="Fill-5" fill="#FCFDFB" d="M0 857.655h1462.939v-24.507H0z"/><path id="Fill-6" fill="#FAFBFB" d="M0 833.148h1462.939v-24.495H0z"/><path id="Fill-7" fill="#F9FBFA" d="M0 808.653h1462.939v-24.499H0z"/><path id="Fill-8" fill="#F7FAF8" d="M0 784.154h1462.939v-24.498H0z"/><path id="Fill-9" fill="#F6FAF8" d="M0 759.656h1462.939v-24.507H0z"/><path id="Fill-10" fill="#F4F9F7" d="M0 735.149h1462.939v-24.5H0z"/><path id="Fill-11" fill="#F3F9F7" d="M0 710.65h1462.939V686.15H0z"/><path id="Fill-12" fill="#F1F7F6" d="M0 686.151h1462.939v-24.507H0z"/><path id="Fill-13" fill="#EFF7F5" d="M0 661.644h1462.939v-24.499H0z"/><path id="Fill-14" fill="#EDF5F4" d="M0 637.145h1462.939v-24.499H0z"/><path id="Fill-15" fill="#ECF5F2" d="M0 612.646h1462.939v-24.498H0z"/><path id="Fill-16" fill="#EAF4F2" d="M0 588.148h1462.939V563.64H0z"/><path id="Fill-17" fill="#E8F4F2" d="M0 563.64h1462.939v-24.498H0z"/><path id="Fill-18" fill="#E7F2F0" d="M0 539.142h1462.939v-24.499H0z"/><path id="Fill-19" fill="#E5F2F0" d="M0 514.643h1462.939v-24.507H0z"/><path id="Fill-20" fill="#E4F1EF" d="M0 490.136h1462.939v-24.495H0z"/><path id="Fill-21" fill="#E1EFEE" d="M0 465.641h1462.939V441.14H0z"/><path id="Fill-22" fill="#DFEFEE" d="M0 441.139h1462.939v-24.5H0z"/><path id="Fill-23" fill="#DEEEEC" d="M0 416.64h1462.939v-24.503H0z"/><path id="Fill-24" fill="#DDEEEC" d="M0 392.137h1462.939v-24.503H0z"/><path id="Fill-25" fill="#DBECEC" d="M0 367.634h1462.939v-24.499H0z"/><path id="Fill-26" fill="#DAEDEB" d="M0 343.135h1462.939v-24.499H0z"/><path id="Fill-27" fill="#D9EBEB" d="M0 318.636h1462.939v-24.502H0z"/><path id="Fill-28" fill="#D8ECEA" d="M0 294.138h1462.939v-24.503H0z"/><path id="Fill-29" fill="#D7EBE9" d="M0 269.635h1462.939v-24.503H0z"/><path id="Fill-30" fill="#D6EBE9" d="M0 245.128h1462.939v-24.495H0z"/><path id="Fill-31" fill="#D4E9E8" d="M0 220.633h1462.939V196.13H0z"/><path id="Fill-32" fill="#D3EAE8" d="M0 196.13h1462.939v-24.499H0z"/><path id="Fill-33" fill="#D2E8E6" d="M0 171.631h1462.939V147.13H0z"/><path id="Fill-34" fill="#D1E9E7" d="M0 147.125h1462.939v-24.5H0z"/><path id="Fill-35" fill="#D0E7E6" d="M0 122.626h1462.939V98.123H0z"/><path id="Fill-36" fill="#CFE7E5" d="M0 73.628l1462.939-.004v24.499H0V73.628"/><path id="Fill-37" fill="#CEE6E5" d="M0 49.125h1462.939v24.499L0 73.628V49.125"/><path id="Fill-38" fill="#CDE6E4" d="M0 49.125h1462.939V24.622H0z"/><path id="Fill-39" fill="#CCE5E3" d="M0 24.622h1462.939V.124H0z"/><path id="Fill-40" fill="#CCE5E3" d="M1462.939.124H0h1462.939"/><path id="Fill-42" fill="#019095" d="M195.933 784.573h188.314V529.074H195.933z"/><path id="Fill-43" fill="#FFFFFE" d="M218.87 571.23h16.12v-21.996h-16.12z"/><path id="Fill-44" fill="#ABC4C3" d="M250.748 571.23h16.123v-21.996h-16.123z"/><path id="Fill-46" fill="#ABC4C3" d="M314.501 571.23h16.124v-21.996H314.5z"/><path id="Fill-47" fill="#FFFFFE" d="M346.378 571.23h16.124v-21.996h-16.124z"/><path id="Fill-48" fill="#ABC4C3" d="M218.87 608.535h16.12v-21.992h-16.12z"/><path id="Fill-49" fill="#ABC4C3" d="M250.748 608.535h16.123v-21.992h-16.123z"/><path id="Fill-50" fill="#FFFFFE" d="M282.625 608.535h16.119v-21.992h-16.12z"/><path id="Fill-51" fill="#ABC4C3" d="M314.501 608.535h16.124v-21.992H314.5z"/><path id="Fill-52" fill="#FFFFFE" d="M346.378 608.535h16.124v-21.992h-16.124z"/><path id="Fill-53" fill="#FFFFFE" d="M218.87 644.015h16.12v-21.988h-16.12z"/><path id="Fill-55" fill="#FFFFFE" d="M282.625 644.015h16.119v-21.988h-16.12z"/><path id="Fill-56" fill="#FFFFFE" d="M314.501 644.015h16.124v-21.988H314.5z"/><path id="Fill-57" fill="#ABC4C3" d="M346.378 644.015h16.124v-21.988h-16.124z"/><path id="Fill-58" fill="#ABC4C3" d="M218.87 720.45h16.12v-21.997h-16.12z"/><path id="Fill-59" fill="#ABC4C3" d="M250.748 720.45h16.123v-21.997h-16.123z"/><path id="Fill-60" fill="#FFFFFE" d="M282.625 720.45h16.119v-21.997h-16.12z"/><path id="Fill-61" fill="#FFFFFE" d="M314.501 720.45h16.124v-21.997H314.5z"/><path id="Fill-62" fill="#FFFFFE" d="M346.378 720.45h16.124v-21.997h-16.124z"/><path id="Fill-63" fill="#FFFFFE" d="M218.87 683.157h16.12v-21.988h-16.12z"/><path id="Fill-64" fill="#FFFFFE" d="M250.748 683.157h16.123v-21.988h-16.123z"/><path id="Fill-65" fill="#ABC4C3" d="M282.625 683.157h16.119v-21.988h-16.12z"/><path id="Fill-66" fill="#FFFFFE" d="M314.501 683.157h16.124v-21.988H314.5z"/><path id="Fill-67" fill="#FFFFFE" d="M346.378 683.157h16.124v-21.988h-16.124z"/><path id="Fill-68" fill="#FFFFFE" d="M218.87 757.778h16.12v-21.987h-16.12z"/><path id="Fill-69" fill="#FFFFFE" d="M250.748 757.778h16.123v-21.987h-16.123z"/><path id="Fill-70" fill="#FFFFFE" d="M282.625 757.778h16.119v-21.987h-16.12z"/><path id="Fill-71" fill="#ABC4C3" d="M314.501 757.778h16.124v-21.987H314.5z"/><path id="Fill-72" fill="#F7C171" d="M346.378 757.778h16.124v-21.987h-16.124z"/><path id="Fill-73" fill="#152F44" d="M834.028 560.943h3.139v-37.43h-3.14z"/><path id="Fill-74" fill="#D1584A" d="M877.36 543.51h-40.193v-19.998h40.193l-5.712 9.934 5.712 10.063"/><path id="Fill-75" fill="#CCE5E3" d="M26.983 785.186h131.835v-213.31H26.983z"/><path id="Fill-76" fill="#019095" d="M21.105 571.876H164.7v-12.188H21.105z"/><path id="Fill-77" fill="#D1584A" d="M1243.898 476.23h210.698v-12.19h-210.698z"/><path id="Fill-78" fill="#FFFFFE" d="M97.856 725.438h46.01v-36.106h-46.01z"/><path id="Fill-79" fill="#F7C171" d="M41.935 725.438h46.006v-36.106H41.935z"/><path id="Fill-80" fill="#FFFFFE" d="M97.856 681.162h46.01v-36.11h-46.01z"/><path id="Fill-81" fill="#FFFFFE" d="M41.935 681.162h46.006v-36.11H41.935z"/><path id="Fill-82" fill="#FFFFFE" d="M97.856 636.885h46.01v-36.11h-46.01z"/><path id="Fill-83" fill="#FFFFFE" d="M41.935 636.885h46.006v-36.11H41.935z"/><path id="Fill-84" fill="#152F44" d="M41.935 785.186h46.006V738.18H41.935z"/><path id="Fill-85" fill="#D1584A" d="M1036.923 783.96h176.47V573.033h-176.47z"/><path id="Fill-86" fill="#D1584A" d="M416.933 784.638h133.843V617.644H416.933z"/><path id="Fill-87" fill="#152F44" d="M1027.004 573.034h196.3v-11.563h-196.3z"/><path id="Fill-88" fill="#152F44" d="M409.875 617.644h147.968V606.08H409.875z"/><path id="Fill-89" fill="#152F44" d="M550.876 730.11h77.661v-11.562h-77.66z"/><path id="Fill-90" fill="#478488" d="M1058.228 767.424h24.344v-30.077h-24.344z"/><path id="Fill-91" fill="#E9AEA4" d="M435.186 766.351h24.335v-30.069h-24.335z"/><path id="Fill-93" fill="#E9AEA4" d="M508.188 766.351h24.335v-30.069h-24.335z"/><path id="Fill-94" fill="#FFFFFE" d="M435.186 717.093h24.335v-30.069h-24.335z"/><path id="Fill-95" fill="#E9AEA4" d="M471.687 717.093h24.34v-30.069h-24.34z"/><path id="Fill-96" fill="#EFA23F" d="M508.188 717.093h24.335v-30.069h-24.335z"/><path id="Fill-98" fill="#FFFFFE" d="M471.687 667.828h24.34v-30.07h-24.34z"/><path id="Fill-99" fill="#FFFFFE" d="M508.188 667.828h24.335v-30.07h-24.335z"/><path id="Fill-100" fill="#152F44" d="M1100.864 783.96h48.58v-46.613h-48.58z"/><path id="Fill-101" fill="#CCE5E3" d="M1167.74 767.424h24.335v-30.077h-24.335z"/><path id="Fill-102" fill="#FFFFFE" d="M1058.228 718.154h24.344v-30.065h-24.344z"/><path id="Fill-103" fill="#CCE5E3" d="M1094.738 718.154h24.335v-30.065h-24.335z"/><path id="Fill-104" fill="#CCE5E3" d="M1131.239 718.154h24.335v-30.065h-24.335z"/><path id="Fill-105" fill="#CCE5E3" d="M1167.74 718.154h24.335v-30.065h-24.335z"/><path id="Fill-106" fill="#CCE5E3" d="M1058.228 668.896h24.344v-30.065h-24.344z"/><path id="Fill-107" fill="#CCE5E3" d="M1094.738 668.896h24.335v-30.065h-24.335z"/><path id="Fill-108" fill="#FFFFFE" d="M1131.239 668.896h24.335v-30.065h-24.335z"/><path id="Fill-109" fill="#FFFFFE" d="M1167.74 668.896h24.335v-30.065h-24.335z"/><path id="Fill-110" fill="#CCE5E3" d="M1058.228 619.63h24.344v-30.064h-24.344z"/><path id="Fill-111" fill="#FFFFFE" d="M1094.738 619.63h24.335v-30.064h-24.335z"/><path id="Fill-112" fill="#CCE5E3" d="M1131.239 619.63h24.335v-30.064h-24.335z"/><path id="Fill-113" fill="#CCE5E3" d="M1167.74 619.63h24.335v-30.064h-24.335z"/><path id="Fill-114" fill="#CCE5E3" d="M1058.228 767.424h24.344v-30.077h-21.784l-2.56 2.389v27.688"/><path id="Fill-115" fill="#386B72" d="M1082.572 717.028l-1.215 1.126h1.215v-1.126"/><path id="Fill-116" fill="#152F44" d="M41.935 636.885h46.006v-9.568H41.935z"/><path id="Fill-117" fill="#152F44" d="M97.856 636.885h46.01v-9.568h-46.01z"/><path id="Fill-118" fill="#152F44" d="M41.935 681.162h46.006v-9.572H41.935z"/><path id="Fill-119" fill="#152F44" d="M97.856 681.162h46.01v-9.572h-46.01z"/><path id="Fill-120" fill="#152F44" d="M41.935 725.784h46.006v-9.568H41.935z"/><path id="Fill-121" fill="#152F44" d="M97.856 725.784h46.01v-9.568h-46.01z"/><path id="Fill-122" fill="#CCE5E3" d="M1252.254 784.305h190.634V476.229h-190.634z"/><path id="Fill-123" fill="#FFFFFE" d="M1272.701 526.99h29.4v-21.403h-29.4z"/><path id="Fill-124" fill="#EFF7F5" d="M1272.701 558.322h29.4V536.92h-29.4z"/><path id="Fill-125" fill="#FFFFFE" d="M1272.701 589.659h29.4v-21.403h-29.4z"/><g id="flicker1" class="flicker1" transform="translate(282 549)"><path id="Fill-45" fill="#F7C171" d="M.625 22.23h16.119V.234H.624z"/><path id="Fill-92" fill="#F7C171" d="M189.687 217.351h24.34v-30.069h-24.34z"/><path id="Fill-97" fill="#EFA23F" d="M153.186 118.828h24.335v-30.07h-24.335z"/><path id="Fill-126" fill="#F7C171" d="M990.701 71.991h29.4V50.593h-29.4z"/></g><path id="Fill-127" fill="#EFF7F5" d="M1272.701 664.256h29.4V642.85h-29.4z"/><path id="Fill-128" fill="#FFFFFE" d="M1272.701 695.589h29.4v-21.403h-29.4z"/><path id="Fill-129" fill="#FFFFFE" d="M1272.701 726.925h29.4v-21.407h-29.4z"/><path id="Fill-130" fill="#FFFFFE" d="M1272.701 758.258h29.4v-21.403h-29.4z"/><path id="Fill-132" fill="#FFFFFE" d="M1312.816 558.322h29.4V536.92h-29.4z"/><path id="Fill-133" fill="#FFFFFE" d="M1312.816 589.659h29.4v-21.403h-29.4z"/><path id="Fill-134" fill="#FFFFFE" d="M1312.816 620.991h29.4v-21.398h-29.4z"/><path id="Fill-135" fill="#FFFFFE" d="M1312.816 664.256h29.4V642.85h-29.4z"/><path id="Fill-136" fill="#EFF7F5" d="M1312.816 695.589h29.4v-21.403h-29.4z"/><path id="Fill-137" fill="#FFFFFE" d="M1312.816 726.925h29.4v-21.407h-29.4z"/><path id="Fill-139" fill="#FFFFFE" d="M1352.927 526.99h29.395v-21.403h-29.395z"/><path id="Fill-140" fill="#EFF7F5" d="M1352.927 558.322h29.395V536.92h-29.395z"/><path id="Fill-141" fill="#FFFFFE" d="M1352.927 589.659h29.395v-21.403h-29.395z"/><path id="Fill-142" fill="#EFF7F5" d="M1352.927 620.991h29.395v-21.398h-29.395z"/><path id="Fill-143" fill="#FFFFFE" d="M1352.927 664.256h29.395V642.85h-29.395z"/><path id="Fill-144" fill="#FFFFFE" d="M1352.927 695.589h29.395v-21.403h-29.395z"/><path id="Fill-145" fill="#FFFFFE" d="M1352.927 726.925h29.395v-21.407h-29.395z"/><path id="Fill-146" fill="#FFFFFE" d="M1352.927 758.258h29.395v-21.403h-29.395z"/><path id="Fill-147" fill="#FFFFFE" d="M1393.046 526.99h29.395v-21.403h-29.395z"/><path id="Fill-148" fill="#FFFFFE" d="M1393.046 558.322h29.395V536.92h-29.395z"/><path id="Fill-150" fill="#EFF7F5" d="M1393.046 620.991h29.395v-21.398h-29.395z"/><g id="flicker2" class="flicker2" transform="translate(250 505)" fill="#F7C171"><path id="Fill-54" d="M.748 139.015H16.87v-21.988H.748z"/><path id="Fill-131" d="M1062.816 21.99h29.4V.587h-29.4z"/><path id="Fill-138" d="M1062.816 253.258h29.4v-21.403h-29.4z"/><path id="Fill-149" d="M1143.046 84.659h29.395V63.256h-29.395z"/><path id="Fill-151" d="M1143.046 159.256h29.395V137.85h-29.395z"/></g><path id="Fill-152" fill="#FFFFFE" d="M1393.046 695.589h29.395v-21.403h-29.395z"/><path id="Fill-153" fill="#FFFFFE" d="M1393.046 726.925h29.395v-21.407h-29.395z"/><path id="Fill-154" fill="#EFF7F5" d="M1393.046 758.258h29.395v-21.403h-29.395z"/><path id="Fill-155" fill="#4E5E6F" d="M550.58 784.76h77.957v-54.377H550.58z"/><path id="Fill-156" fill="#FFFFFE" d="M605.168 766.562h14.756v-13.769h-14.756z"/><path id="Fill-157" fill="#FFFFFE" d="M583.58 766.562h14.757v-13.769H583.58z"/><path id="Fill-158" fill="#FFFFFE" d="M561.988 766.562h14.76v-13.769h-14.76z"/><path id="Fill-159" fill="#EFA23F" d="M657.706 784.91h127.99V629.125h-127.99z"/><path id="Fill-160" fill="#4E5E6F" d="M705.01 784.91h33.383v-44.138h-33.384z"/><path id="Fill-161" fill="#EFA23F" d="M885.868 784.91h128.004V629.125H885.868z"/><path id="Fill-162" fill="#4E5E6F" d="M933.176 784.91h33.392v-44.138h-33.392z"/><path id="Fill-163" fill="#F7C171" d="M771.785 784.91h128.004V561.617H771.785z"/><path id="Fill-164" fill="#F8D59B" d="M679.964 725.199h27.828v-36.35h-27.828z"/><path id="Fill-165" fill="#F8D59B" d="M735.61 725.199h27.828v-36.35H735.61z"/><path id="Fill-166" fill="#FFFFFE" d="M679.964 678.456h27.828v-36.35h-27.828z"/><path id="Fill-167" fill="#FFFFFE" d="M735.61 678.456h27.828v-36.35H735.61z"/><path id="Fill-168" fill="#FFFFFE" d="M908.127 725.199h27.832v-36.35h-27.832z"/><path id="Fill-169" fill="#FFFFFE" d="M963.782 725.199h27.823v-36.35h-27.823z"/><path id="Fill-170" fill="#FFFFFE" d="M908.127 678.456h27.832v-36.35h-27.832z"/><path id="Fill-171" fill="#FCE8C5" d="M963.782 678.456h27.823v-36.35h-27.823z"/><path id="Fill-172" fill="#FFFFFE" d="M794.048 629.564h27.823V593.21h-27.823z"/><path id="Fill-173" fill="#FFFFFE" d="M849.698 629.564h27.823V593.21h-27.823z"/><path id="Fill-174" fill="#FFFFFE" d="M794.048 725.199h27.823v-36.35h-27.823z"/><path id="Fill-175" fill="#FFFFFE" d="M849.698 725.199h27.823v-36.35h-27.823z"/><path id="Fill-176" fill="#FAD79D" d="M794.048 678.456h27.823v-36.35h-27.823z"/><path id="Fill-177" fill="#FFFFFE" d="M849.698 678.456h27.823v-36.35h-27.823z"/><path id="Fill-178" fill="#4E5E6F" d="M819.084 784.91h33.397v-44.138h-33.397z"/><g id="Group-232" transform="translate(55.644 87.12)"><mask id="mask-2" fill="#fff"><use xlink:href="#path-1"/></mask><path d="M190.714 130.194H.55c-.187-2.255-.313-4.534-.313-6.834 0-.719.009-1.442.03-2.161h187.439c.84 2.966 1.85 5.964 3.008 8.995" id="Fill-223" fill="#F9FBFA" mask="url(#mask-2)"/><path d="M187.706 121.199H.267A79.172 79.172 0 0 1 4.831 96.7h180.127c-.087 1.84-.135 3.701-.135 5.578 0 6.034 1.032 12.384 2.883 18.921" id="Fill-224" fill="#F9FBFA" mask="url(#mask-2)"/><path d="M184.958 96.7H4.831c3.165-8.918 7.885-17.177 13.85-24.503h170.292c-2.225 7.683-3.601 15.874-4.015 24.503" id="Fill-225" fill="#F7FBF8" mask="url(#mask-2)"/><path d="M188.973 72.197H18.68c8.347-10.25 19.141-18.668 31.568-24.502h149.653c-4.664 7.434-8.36 15.633-10.93 24.502" id="Fill-226" fill="#F7FBF8" mask="url(#mask-2)"/><path d="M199.902 47.695H50.249c12.244-5.741 26.068-8.975 40.703-8.975 6.026 0 11.917.56 17.612 1.609 2.482-6.253 6.022-12.026 10.411-17.137h103.107c-8.73 6.793-16.237 15.024-22.18 24.503" id="Fill-227" fill="#F7FAF8" mask="url(#mask-2)"/><path d="M222.082 23.192H118.975C131.08 9.098 149.681.078 170.541.078c20.857 0 39.445 9.02 51.55 23.11-.005 0-.005.004-.01.004" id="Fill-228" fill="#F7FAF8" mask="url(#mask-2)"/><path d="M219.056 130.194h-28.342a106.823 106.823 0 0 1-3.008-8.995c-1.85-6.537-2.883-12.887-2.883-18.92 0-1.878.048-3.738.135-5.579.414-8.63 1.79-16.82 4.015-24.503 2.569-8.869 6.265-17.068 10.929-24.502 5.943-9.48 13.45-17.71 22.18-24.503.004 0 .004-.004.008-.004a61.114 61.114 0 0 1 8.996 13.862c-10.14 16.966-16.21 39.247-16.21 65.228 0 8.768 1.541 18.198 4.18 27.916" id="Fill-229" fill="#FFF" mask="url(#mask-2)"/><path d="M343.641 130.194h-23.09c1.224-9.718 1.938-19.148 1.938-27.916 0-4.944-.1-9.75-.3-14.418 13.097 10.051 21.452 25.278 21.452 42.334m-87.423 0h-37.162c-2.639-9.718-4.18-19.148-4.18-27.916 0-25.981 6.07-48.262 16.21-65.228.227.492.449.98.666 1.479 5.325-2.377 11.278-3.71 17.565-3.71 4.393 0 8.626.646 12.592 1.849-4.772 17.011-7.628 39.43-7.628 65.61 0 8.768.714 18.198 1.937 27.916" id="Fill-230" fill="#FFFFFE" mask="url(#mask-2)"/><path d="M320.551 130.194h-64.333c-1.223-9.718-1.937-19.148-1.937-27.916 0-26.18 2.856-48.599 7.628-65.61 16.346 4.949 28.167 19.278 28.167 36.18 0 .926-.047 1.844-.117 2.754 12.183.975 23.308 5.416 32.23 12.258.2 4.668.3 9.474.3 14.418 0 8.768-.714 18.198-1.938 27.916" id="Fill-231" fill="#F9FBFA" mask="url(#mask-2)"/></g><path d="M1418.535 303.17h-231.402c0-3.117.41-6.144 1.189-9.036h230.244c.117 1.458.178 2.933.178 4.42 0 1.556-.082 3.092-.209 4.615" id="Fill-193" fill="#FFFFFE"/><path d="M1418.566 294.134h-230.244c2.921-10.877 10.994-19.843 21.662-24.5h200.365c4.581 7.285 7.485 15.61 8.217 24.5" id="Fill-194" fill="#FFFFFE"/><path d="M1410.35 269.635h-200.366a41.539 41.539 0 0 1 13.354-3.332 24.085 24.085 0 0 1-.083-1.86c0-7.7 3.623-14.606 9.366-19.311h146.762c13.058 4.656 23.97 13.375 30.966 24.503" id="Fill-195" fill="#FFFFFE"/><path d="M1379.383 245.132H1232.62c4.838-3.97 11.182-6.375 18.126-6.375 4.241 0 8.26.898 11.852 2.503 3.806-8.755 10.707-16.024 19.437-20.627h43.695c9.135 4.815 16.267 12.546 19.95 21.842a65.612 65.612 0 0 1 11.879-1.089c7.689 0 15.043 1.329 21.823 3.746" id="Fill-196" fill="#FFFFFE"/><path d="M1325.73 220.633h-43.694c6.453-3.4 13.908-5.342 21.845-5.342 7.938 0 15.392 1.942 21.85 5.342" id="Fill-197" fill="#FFFFFE"/><path d="M863.17 304.278H604.093c0-3.49.426-6.882 1.228-10.144h263.205c-3.083 2.494-5.103 6.098-5.356 10.144" id="Fill-198" fill="#F1F7F6"/><path d="M868.526 294.134H605.32c2.399-9.751 8.185-18.295 16.14-24.5h258.777a66.23 66.23 0 0 1 4.185 10.8c-4.124 1.426-7.058 5.127-7.058 9.47l.03.731c-3.379.269-6.453 1.54-8.87 3.499" id="Fill-199" fill="#F1F7F6"/><path d="M880.238 269.635H621.461c7.403-5.773 16.681-9.52 26.857-10.328a29.43 29.43 0 0 1 2.412-14.175H860.18c8.499 6.63 15.392 14.988 20.06 24.503" id="Fill-200" fill="#F0F7F6"/><path d="M860.179 245.132H650.73c2.774-6.302 7.685-11.567 13.89-15.024h133.076l.053.134.74-.134h.792l.013-.134a80.04 80.04 0 0 1 12.971-1.06c18.231 0 34.938 6.093 47.914 16.218" id="Fill-201" fill="#F0F7F6"/><path d="M284.802 364.201H168.95c0-9.678 7.973-17.625 18.127-18.433l-.04-.93c0-.577.04-1.146.123-1.703h90.23c4.686 5.018 7.525 11.58 7.525 18.758 0 .78-.044 1.548-.113 2.308" id="Fill-202" fill="#FFFFFE"/><path d="M277.39 343.135h-90.23c.892-6.289 6.661-11.14 13.641-11.14 2.12 0 4.137.451 5.93 1.255 3.318-7.613 11.321-12.988 20.674-12.988 9.597 0 17.782 5.655 20.926 13.594a32.957 32.957 0 0 1 5.948-.54c9.226 0 17.495 3.802 23.112 9.82" id="Fill-203" fill="#FFFFFE"/><path d="M1164.779 364.201h-115.86c0-9.678 7.98-17.625 18.135-18.433l-.04-.93c0-.577.04-1.146.118-1.703h90.232c4.685 5.018 7.524 11.58 7.524 18.758 0 .78-.048 1.548-.11 2.308" id="Fill-204" fill="#FFFFFE"/><path d="M1157.364 343.135h-90.232c.893-6.289 6.658-11.14 13.642-11.14 2.12 0 4.14.451 5.93 1.255 3.314-7.613 11.325-12.988 20.67-12.988 9.6 0 17.777 5.655 20.921 13.594a33.03 33.03 0 0 1 5.961-.54c9.218 0 17.49 3.802 23.108 9.82" id="Fill-205" fill="#FFFFFE"/><path d="M597.374 356.018h-129.81c0-4.87 1.798-9.348 4.81-12.883H595.68a30.017 30.017 0 0 1 1.812 10.295c0 .874-.044 1.735-.118 2.588" id="Fill-206" fill="#F1F7F6"/><path d="M595.68 343.135H472.375c3.697-4.343 9.226-7.272 15.496-7.772l-.043-1.044c0-7.947 6.905-14.39 15.418-14.39 2.382 0 4.633.507 6.649 1.405.405-.93.875-1.832 1.397-2.698h43.525a22.526 22.526 0 0 1 1.685 3.377 36.719 36.719 0 0 1 6.666-.606c15.096 0 27.919 9.093 32.512 21.728" id="Fill-207" fill="#F1F7F6"/><path d="M554.817 318.636h-43.525c4.294-7.073 12.427-11.855 21.762-11.855 9.336 0 17.47 4.778 21.763 11.855" id="Fill-208" fill="#F0F7F6"/><path d="M1191.836 232.139H945.15c0-3.977.562-7.833 1.611-11.506h236.466c2.635 3.97 5.6 7.862 8.609 11.506" id="Fill-209" fill="#E1F1EE"/><path d="M1183.227 220.633H946.761c2.852-9.982 9.327-18.58 18.035-24.503h208.896v.3c0 7.35 4.05 15.94 9.535 24.203" id="Fill-210" fill="#DFEFEE"/><path d="M1173.692 196.13H964.796c6.845-4.66 15.074-7.658 24.005-8.37a27.448 27.448 0 0 1-.105-2.246c0-4.993 1.272-9.71 3.523-13.883h190.26c-5.439 6.355-8.722 14.724-8.787 24.5" id="Fill-211" fill="#DFEFEE"/><path d="M1182.478 171.631h-190.26c5.457-10.1 16.669-17.03 29.622-17.03 5.108 0 9.954 1.084 14.278 3.014a49.203 49.203 0 0 1 6.235-10.486h87.066a49.044 49.044 0 0 1 6.844 11.952 79.007 79.007 0 0 1 14.321-1.308c13.39 0 25.942 3.328 36.767 9.15a35.855 35.855 0 0 0-4.873 4.708" id="Fill-212" fill="#DEEEEC"/><path d="M1129.419 147.129h-87.066c9.753-12.583 25.607-20.774 43.528-20.774 17.918 0 33.78 8.187 43.538 20.774" id="Fill-213" fill="#DDEEEC"/><g id="balloon2" class="balloon1" transform="translate(1176 129)"><g id="Group-2"><path d="M67.745 149.285c0 1.526-1.326 2.772-2.965 2.772h-3.66c.27-.825.401-1.801.401-2.772v-12.174h6.224v12.174m-15.087 2.772c-.207-.304-.57-1.234-.57-2.772v-12.174h7.169v12.174c0 1.538-.357 2.468-.563 2.772h-6.036m-9.058-2.772v-12.174h6.224v12.174c0 .97.125 1.947.4 2.772H46.56c-1.633 0-2.959-1.246-2.959-2.772m26.466-25.277H67.82v10.987H43.6v-10.987h-2.27v25.277c0 2.696 2.345 4.882 5.229 4.882H64.78c2.884 0 5.23-2.186 5.23-4.882v-13.232h.056v-12.045" id="Fill-186" fill="#152F44"/><path d="M70.053 124.236c16.576-17.167 41.934-47.034 41.934-69.112 0-32.802-25.058-54.717-55.97-54.717C25.123.407.058 22.322.058 55.124c0 22.078 25.359 51.945 41.935 69.112h28.06" id="Fill-187" fill="#EFA23F"/><path d="M65.981 124.236c11.778-17.167 29.768-47.034 29.768-69.112C95.75 22.322 77.96.407 56.017.407c-21.937 0-39.72 21.915-39.72 54.717 0 22.078 17.996 51.945 29.768 69.112H65.98" id="Fill-188" fill="#FFFFFE"/><path d="M60.645 124.236C66.1 107.07 74.45 77.202 74.45 55.124 74.45 22.322 66.2.407 56.017.407c-10.177 0-18.428 21.915-18.428 54.717 0 22.078 8.35 51.945 13.811 69.112h9.245" id="Fill-189" fill="#EFA23F"/><path d="M43.6 149.285v-12.174h6.224v12.174c0 .97.125 1.947.4 2.772H46.56c-1.633 0-2.959-1.246-2.959-2.772" id="Fill-190" fill="#538386"/><path d="M52.658 152.057c-.207-.304-.57-1.234-.57-2.772v-12.174h7.169v12.174c0 1.538-.357 2.468-.563 2.772h-6.036" id="Fill-191" fill="#538386"/><path d="M67.745 149.285c0 1.526-1.326 2.772-2.965 2.772h-3.66c.27-.825.401-1.801.401-2.772v-12.174h6.224v12.174" id="Fill-192" fill="#538386"/><path d="M34.8 106.514h-8.677c-4.322-5.245-8.582-10.847-12.366-16.56C5.876 78.063.058 65.702.058 55.125v-.433c.094-14.068 4.81-26.113 12.623-35.258a51.55 51.55 0 0 1 7-6.776 107.294 107.294 0 0 1 7.212 4.25c-6.574 9.49-10.596 22.623-10.596 38.217 0 15.652 9.045 35.21 18.502 51.39" id="Fill-214" fill="#F4BC42"/></g><path d="M72.634 107h-6.631c2.05-7.523 4.057-15.78 5.622-24.031A93.055 93.055 0 0 1 73 98.972c0 2.701-.139 5.374-.366 8.028m-26.5 0h-11.47C25.123 90.75 16 71.106 16 55.384 16 39.722 20.057 26.531 26.688 17a106.141 106.141 0 0 1 13.225 10.013c-1.552 8.034-2.435 17.624-2.435 28.371 0 15.722 4.227 35.366 8.656 51.616" id="Fill-215" fill="#FFFFFE"/><path d="M65.402 106H45.62C41.21 89.95 37 70.549 37 55.021c0-10.614.88-20.086 2.425-28.021C55.815 41.443 67.218 60.677 71 82.265c-1.558 8.15-3.556 16.305-5.598 23.735" id="Fill-216" fill="#F4BC42"/></g><path d="M651.17 207.027H467.045c0-3.82.701-7.488 1.995-10.897h194.004a16.952 16.952 0 0 0-1.333 8.032c-3.779.301-7.34 1.3-10.541 2.865" id="Fill-217" fill="#DBEDEB"/><path d="M603.84 147.129h-67.267c.378-.585.78-1.158 1.193-1.719h64.881c.414.56.81 1.134 1.193 1.719" id="Fill-220" fill="#D9EBEB"/><g id="Group-241" transform="translate(437.841 24.83)"><mask id="mask-4" fill="#fff"><use xlink:href="#path-3"/></mask><path d="M243.185 92.14h-34.837c-7.102-9.62-18.98-15.925-32.443-15.925-13.463 0-25.337 6.31-32.439 15.926H39.924c-2.538-8.211-6.057-15.833-10.415-22.784H240.48a56.26 56.26 0 0 1 2.926 17.945c0 1.63-.091 3.242-.222 4.839" id="Fill-233" fill="#F7FBF8" mask="url(#mask-4)"/><path d="M240.481 69.357H29.51a94.688 94.688 0 0 0-8.081-11.023c5.05-2.661 10.754-4.363 16.837-4.847a24.2 24.2 0 0 1-.083-1.954c0-2.304.31-4.542.893-6.68h185.448c7.272 6.761 12.81 15.139 15.958 24.504" id="Fill-235" fill="#F7FAF8" mask="url(#mask-4)"/><path d="M224.523 44.854H39.075c3.183-11.64 14.495-20.245 27.962-20.245 4.455 0 8.67.942 12.44 2.624a42.785 42.785 0 0 1 3.793-6.878h79.106a42.266 42.266 0 0 1 4.32 8.154 68.892 68.892 0 0 1 12.483-1.142c17.695 0 33.723 6.684 45.344 17.487" id="Fill-236" fill="#F7FAF8" mask="url(#mask-4)"/><path d="M83.27 20.355C91.482 8.24 105.903.155 122.36.008h.915c16.459.147 30.893 8.232 39.1 20.347H83.27" id="Fill-237" fill="#F7FAF8" mask="url(#mask-4)"/><path d="M39.924 92.14H11.221c-1.467-6.69-3.396-12.988-5.734-18.855 3.731-6.248 9.261-11.432 15.94-14.95a94.688 94.688 0 0 1 8.082 11.022c4.358 6.951 7.877 14.573 10.415 22.784" id="Fill-238" fill="#F7FBF8" mask="url(#mask-4)"/><path d="M11.221 92.14H.258c0-6.845 1.898-13.272 5.229-18.855 2.338 5.867 4.267 12.164 5.734 18.856" id="Fill-239" fill="#FFFFFE" mask="url(#mask-4)"/><path d="M208.348 92.14h-64.882c7.102-9.616 18.976-15.925 32.439-15.925 13.463 0 25.34 6.305 32.443 15.926" id="Fill-240" fill="#FAFBFB" mask="url(#mask-4)"/></g><path d="M214.77 290.16H47.172c0-8.243 3.993-15.617 10.272-20.525h153.484a38.858 38.858 0 0 1 3.997 17.186c0 1.125-.06 2.234-.157 3.34" id="Fill-242" fill="#FFFFFE"/><path d="M210.929 269.635H57.445c4.393-3.437 9.905-5.664 15.949-6.147-.03-.443-.057-.894-.057-1.345 0-7.602 4.894-14.135 11.9-17.011h16.015c.196.077.387.158.575.244.034-.082.074-.163.108-.244h59.596c.165.37.322.743.474 1.121a47.917 47.917 0 0 1 8.609-.784c17.9 0 33.322 9.905 40.315 24.166" id="Fill-243" fill="#FFFFFE"/><path d="M161.53 245.132h-59.595c4.86-10.884 16.368-18.539 29.796-18.539s24.936 7.65 29.8 18.539m-60.28 0H85.238a21.032 21.032 0 0 1 8.007-1.568c2.852 0 5.56.56 8.008 1.568" id="Fill-244" fill="#FFFFFE"/><g id="Group-255" transform="translate(635.708 167.924)"><mask id="mask-6" fill="#fff"><use xlink:href="#path-5"/></mask><path d="M162.78 62.184h-.792a49.627 49.627 0 0 0-5.06-9.474h6.284c.335 2.03.513 4.107.513 6.228 0 1.048-.056 2.084-.139 3.112l-.805.134m-133.87 0H.484c0-3.344.675-6.537 1.907-9.474h62.666a49.859 49.859 0 0 0-4.494 8.125A35.499 35.499 0 0 0 46.09 57.78c-6.274 0-12.153 1.609-17.177 4.404" id="Fill-247" fill="#F9FBFA" mask="url(#mask-6)"/><path d="M163.212 52.71h-6.283c-9.658-14.155-26.626-23.553-45.941-23.553-19.32 0-36.28 9.398-45.932 23.553H2.39c2.46-5.871 7.137-10.706 13.072-13.607H35.8c.104-1.345.187-2.702.187-4.07a47.1 47.1 0 0 0-.492-6.826h112.943c7.742 6.114 13.145 14.727 14.774 24.503" id="Fill-248" fill="#F9FBFA" mask="url(#mask-6)"/><path d="M148.438 28.207H35.495a47.03 47.03 0 0 0-1.798-7.744c3.24-2.271 7.263-3.616 11.621-3.616 2.991 0 5.826.634 8.356 1.763 2.795-6.41 7.95-11.693 14.456-14.902h29.286c6.797 3.352 12.117 8.958 14.808 15.755a46.586 46.586 0 0 1 8.382-.763c10.607 0 20.321 3.575 27.832 9.507" id="Fill-249" fill="#F9FBFA" mask="url(#mask-6)"/><path d="M97.416 3.708H68.13C72.5 1.555 77.482.332 82.773.332c5.286 0 10.271 1.218 14.643 3.376" id="Fill-250" fill="#F7FBF8" mask="url(#mask-6)"/><path d="M163.573 62.184h-.792l.805-.134-.013.134m-1.585 0H28.912c5.024-2.795 10.903-4.404 17.177-4.404a35.499 35.499 0 0 1 14.473 3.055 49.859 49.859 0 0 1 4.494-8.125h91.873a49.627 49.627 0 0 1 5.06 9.474" id="Fill-251" fill="#FFFEFD" mask="url(#mask-6)"/><path d="M156.929 52.71H65.056c9.653-14.155 26.612-23.553 45.932-23.553 19.315 0 36.283 9.398 45.94 23.553" id="Fill-252" fill="#FFFEFD" mask="url(#mask-6)"/><path d="M35.8 39.103H15.462a29.258 29.258 0 0 1 10.541-2.864 16.952 16.952 0 0 1 1.332-8.032h8.16a47.1 47.1 0 0 1 .492 6.825c0 1.37-.083 2.726-.187 4.071" id="Fill-253" fill="#FAFBFB" mask="url(#mask-6)"/><path d="M35.495 28.207h-8.16c1.328-3.096 3.55-5.77 6.362-7.744a47.03 47.03 0 0 1 1.798 7.744" id="Fill-254" fill="#FAFBFB" mask="url(#mask-6)"/></g><g id="Group-261" transform="translate(863.095 270.399)"><mask id="mask-8" fill="#fff"><use xlink:href="#path-7"/></mask><path d="M91.12 34.724H.05c0-.284.009-.564.026-.845H23.64c.161-1.86.261-3.737.261-5.635 0-1.515-.052-3.018-.152-4.51h65.365a21.124 21.124 0 0 1 2.094 9.174c0 .614-.035 1.22-.087 1.816" id="Fill-256" fill="#FFFFFE" mask="url(#mask-8)"/><path d="M89.114 23.735H23.749a65.591 65.591 0 0 0-2.421-13.7 11.463 11.463 0 0 1 3.762-.626c1.667 0 3.248.354 4.663.983C32.357 4.408 38.65.186 46 .186c7.541 0 13.976 4.45 16.45 10.686 1.51-.28 3.078-.431 4.676-.431 9.797 0 18.227 5.456 21.989 13.294" id="Fill-258" fill="#FFFFFE" mask="url(#mask-8)"/><path d="M23.64 33.88H.075c.253-4.047 2.273-7.65 5.356-10.145h18.318c.1 1.49.152 2.994.152 4.51 0 1.897-.1 3.774-.261 5.634" id="Fill-259" fill="#FFFFFE" mask="url(#mask-8)"/><path d="M23.749 23.735H5.43c2.416-1.959 5.49-3.23 8.87-3.499l-.031-.73c0-4.344 2.934-8.045 7.058-9.471a65.591 65.591 0 0 1 2.42 13.7" id="Fill-260" fill="#FFFFFE" mask="url(#mask-8)"/></g><g id="Group-265" transform="translate(1256.425 81.709)"><mask id="mask-10" fill="#fff"><use xlink:href="#path-9"/></mask><path d="M91.103 34.904H.157c0-7.614 6.257-13.858 14.23-14.492l-.03-.732c0-1.141.204-2.242.578-3.266h68.326c4.872 4.112 7.933 10.06 7.933 16.674 0 .61-.034 1.215-.091 1.816" id="Fill-262" fill="#FFFFFE" mask="url(#mask-10)"/><path d="M83.261 16.414H14.935c1.455-3.97 5.487-6.83 10.224-6.83 1.668 0 3.248.358 4.659.988C32.422 4.587 38.701.362 46.046.362c7.533 0 13.96 4.449 16.424 10.685a25.983 25.983 0 0 1 4.676-.427c6.196 0 11.852 2.194 16.115 5.794" id="Fill-264" fill="#FFFFFE" mask="url(#mask-10)"/></g><g id="Group-271" transform="translate(733.925 88.477)"><mask id="mask-12" fill="#fff"><use xlink:href="#path-11"/></mask><path d="M147.563 56.051H.366c0-9.966 6.645-18.477 16.024-21.902h125.587c3.631 5.521 5.726 12.013 5.726 18.965 0 .987-.057 1.966-.14 2.937" id="Fill-268" fill="#FFFFFE" mask="url(#mask-12)"/><path d="M141.977 34.149H16.39a26.576 26.576 0 0 1 7.014-1.524c-.035-.39-.052-.784-.052-1.182 0-9.012 7.829-16.312 17.486-16.312 2.691 0 5.252.568 7.533 1.588a26.177 26.177 0 0 1 4.576-7.073H96.32a26.101 26.101 0 0 1 4.899 7.845 41.682 41.682 0 0 1 7.563-.69c14.046 0 26.351 6.943 33.196 17.348" id="Fill-269" fill="#FFFFFE" mask="url(#mask-12)"/><path d="M96.32 9.646H52.946C58.142 3.885 65.927.224 74.631.224s16.49 3.66 21.688 9.422" id="Fill-270" fill="#FFFFFE" mask="url(#mask-12)"/></g><g id="balloon1" class="balloon2" transform="translate(243.02 109)"><path d="M107.72 236.468c0 2.423-2.114 4.395-4.714 4.395h-5.828c.422-1.302.632-2.848.632-4.395V217.18h9.91v19.288zm-24.002 4.395c-.325-.482-.909-1.951-.909-4.395V217.18h11.413v19.288c0 2.447-.58 3.913-.909 4.395h-9.595zm-14.398-4.395V217.18h9.898v19.288c0 1.547.21 3.093.636 4.395H74.03c-2.6 0-4.71-1.972-4.71-4.395zm42.087-40.06h-3.59v17.418H69.32v-17.418h-3.595v40.06c0 4.27 3.726 7.746 8.305 7.746h28.976c4.578 0 8.304-3.477 8.304-7.746v-20.967h.097v-19.093z" id="Fill-179" fill="#EFA23F"/><path d="M178.045 87.244c0-51.983-39.835-86.706-88.97-86.706C39.936.538.101 35.26.101 87.244c0 11.375 4.26 24.054 10.915 36.921 13.818 26.718 37.966 54.25 55.753 72.613h44.609c26.353-27.208 66.667-74.538 66.667-109.534z" id="Fill-180" fill="#019095"/><path d="M104.91 196.778c18.707-27.208 47.317-74.538 47.317-109.534 0-51.983-28.273-86.706-63.152-86.706C54.192.538 25.92 35.26 25.92 87.244c0 34.996 28.613 82.326 47.32 109.534h31.67" id="Fill-181" fill="#FFFFFE"/><path d="M69.32 236.468V217.18h9.898v19.288c0 1.547.21 3.093.636 4.395H74.03c-2.6 0-4.71-1.972-4.71-4.395" id="Fill-183" fill="#F7C171"/><path d="M83.718 240.863c-.325-.482-.909-1.951-.909-4.395V217.18h11.413v19.288c0 2.447-.58 3.913-.909 4.395h-9.595" id="Fill-184" fill="#F7C171"/><path d="M107.72 236.468c0 2.423-2.114 4.395-4.714 4.395h-5.828c.422-1.302.632-2.848.632-4.395V217.18h9.91v19.288" id="Fill-185" fill="#F7C171"/><path d="M96.422 196.778c8.679-27.208 21.95-74.538 21.95-109.534 0-51.983-13.114-86.706-29.297-86.706-16.182 0-29.301 34.723-29.301 86.706 0 34.996 13.272 82.326 21.954 109.534h14.694" id="Fill-182" fill="#019095"/></g><path id="Fill-272" fill="#65B8B5" d="M218.87 529.074h16.12v-13.643h-16.12z"/><path id="Fill-273" fill="#65B8B5" d="M314.501 529.074h16.124v-13.643H314.5z"/><path d="M1364.892 780.144h92.574v-21.963h-92.574v21.963zm-98.052 0h92.574v-21.963h-92.574v21.963zm-98.051 0h92.57v-21.963h-92.57v21.963zm-98.06 0h92.582v-21.963h-92.582v21.963zm-98.056 0h92.574v-21.963h-92.574v21.963zm-98.047 0H967.2v-21.963h-92.574v21.963zm-98.056 0h92.578v-21.963H776.57v21.963zm-98.043 0h92.565v-21.963h-92.565v21.963zm-98.051 0h92.574v-21.963h-92.574v21.963zm-98.052 0h92.574v-21.963h-92.574v21.963zm-88.198 0h82.72v-21.963h-82.72v21.963zm-98.06 0h92.574v-21.963h-92.574v21.963zm-98.051 0h92.574v-21.963h-92.574v21.963zm-98.052 0h92.578v-21.963h-92.578v21.963zm-94.585 0h89.108v-21.963H5.478v21.963zm1457.461-27.017H0v64.131h5.478v-32.072h89.108v32.072h5.477v-32.072h92.578v32.072h5.474v-32.072h92.574v32.072h5.477v-32.072h92.574v32.072h5.486v-32.072h82.72v32.072h5.478v-32.072h92.574v32.072h5.478v-32.072h92.574v32.072h5.477v-32.072h92.565v32.072h5.478v-32.072h92.578v32.072h5.478v-32.072H967.2v32.072h5.473v-32.072h92.574v32.072h5.482v-32.072h92.582v32.072h5.478v-32.072h92.57v32.072h5.481v-32.072h92.574v32.072h5.478v-32.072h92.574v32.072h5.473v-64.131z" id="Fill-367" fill="#097F83"/><path id="Fill-368" fill="#A3B2B5" d="M0 839.693h1462.939v-22.435H0z"/><path id="Fill-369" fill="#152F44" d="M0 955.658h1462.939V839.693H0z"/><path d="M112.098 888.406c-8.774 0-16.955-3.433-21.888-9.19-.366-.418-.292-1.032.156-1.369.196-.142.427-.215.653-.215.31 0 .61.126.82.365 4.54 5.298 12.112 8.455 20.259 8.455 8.116 0 15.675-3.14 20.225-8.414a.924.924 0 0 0 .03 1.178c.266.309.536.606.82.902-5 5.213-12.772 8.288-21.075 8.288m21.928-10.364a1.071 1.071 0 0 0 0 0" id="Fill-370" fill="#C0CACB"/><path d="M154.246 888.406c-8.303 0-16.08-3.075-21.074-8.288a23.454 23.454 0 0 1-.818-.902.924.924 0 0 1-.03-1.178.93.93 0 0 1 .195-.191c.192-.142.422-.215.653-.215a1.071 1.071 0 0 1 .854.41c4.55 5.27 12.104 8.41 20.22 8.41 8.143 0 15.715-3.157 20.256-8.455a1.079 1.079 0 0 1 .165-.15.932.932 0 0 0-.165 1.37c.266.308.535.605.819.901-4.995 5.213-12.776 8.288-21.075 8.288m21.014-10.77h.008-.008m.117 0h-.004.004m-.109 0c.009-.004.013-.004.018-.004-.005 0-.009 0-.018.004m.092-.004h-.009.009m-.07 0h0m.057 0h-.01.01m-.044 0h.004-.004m.03 0h-.012.013" id="Fill-371" fill="#C0CACB"/><path d="M196.395 888.406c-8.3 0-16.08-3.075-21.074-8.288a23.454 23.454 0 0 1-.82-.902.932.932 0 0 1 .166-1.369c.175-.13.384-.2.588-.211H175.268c.009-.004.013-.004.018-.004h.074c.004 0 .008 0 .013.004h.013c.283.016.557.138.749.361 4.546 5.298 12.117 8.455 20.26 8.455 8.138 0 15.714-3.157 20.26-8.455.204-.24.51-.365.814-.365h.022a1.074 1.074 0 0 0-.636.215.934.934 0 0 0-.161 1.37c.257.3.522.592.797.88-4.999 5.226-12.784 8.31-21.096 8.31" id="Fill-372" fill="#C0CACB"/><path d="M238.582 888.406c-8.312 0-16.097-3.083-21.091-8.308a22.32 22.32 0 0 1-.797-.882.934.934 0 0 1 .16-1.369c.188-.142.41-.211.637-.215h.017c.305 0 .61.126.819.365 4.541 5.298 12.113 8.455 20.255 8.455 8.143 0 15.714-3.157 20.26-8.455.205-.24.51-.365.814-.365h.022a1.1 1.1 0 0 0-.631.215c-.449.337-.523.95-.161 1.37.252.3.518.588.792.877-4.994 5.225-12.784 8.312-21.096 8.312" id="Fill-373" fill="#C0CACB"/><path d="M280.774 888.406c-8.316 0-16.106-3.087-21.096-8.312-.274-.289-.54-.577-.792-.878-.362-.418-.288-1.032.16-1.369a1.1 1.1 0 0 1 .632-.215h.022c.305 0 .61.126.814.365 4.542 5.298 12.118 8.455 20.26 8.455 8.112 0 15.662-3.136 20.216-8.398a.908.908 0 0 0 .044 1.162c.261.309.536.606.814.902-4.994 5.213-12.775 8.288-21.074 8.288m21.888-10.409a1.078 1.078 0 0 0-.814-.365h.005c.226 0 .457.073.653.215a.885.885 0 0 1 .156.15" id="Fill-374" fill="#C0CACB"/><path d="M322.922 888.406c-8.299 0-16.075-3.075-21.074-8.288a23.334 23.334 0 0 1-.814-.902.908.908 0 0 1-.044-1.162c.057-.077.127-.146.205-.207.192-.142.422-.215.653-.215.305 0 .605.126.814.365h.005c4.541 5.298 12.113 8.455 20.255 8.455 8.143 0 15.715-3.157 20.26-8.455a1.046 1.046 0 0 1 .161-.15c-.448.337-.522.95-.16 1.37.26.304.535.605.814.897-4.995 5.213-12.771 8.292-21.075 8.292m21.545-10.669" id="Fill-375" fill="#C0CACB"/><path d="M365.07 888.406c-8.303 0-16.08-3.08-21.073-8.292a23.226 23.226 0 0 1-.815-.898c-.361-.418-.287-1.032.161-1.369.083-.061.17-.11.266-.146a1.115 1.115 0 0 1 .858.037h.004c.13.06.244.15.34.26 4.546 5.297 12.122 8.454 20.26 8.454 8.142 0 15.714-3.157 20.26-8.455a1.076 1.076 0 0 1 .165-.15c-.453.337-.527.95-.165 1.37.26.304.53.605.814.897-4.994 5.213-12.775 8.292-21.074 8.292m21.923-10.364c-.009-.016-.022-.028-.035-.045a.71.71 0 0 0 .035.045m-.553-.37c-.004 0-.009-.004-.013-.004.004 0 .009.004.013.004m-.496-.02h.004-.004m.213-.02h-.013.013" id="Fill-376" fill="#C0CACB"/><path d="M407.223 888.406c-8.307 0-16.084-3.08-21.078-8.292a20.145 20.145 0 0 1-.814-.898c-.362-.418-.288-1.032.165-1.369a1.01 1.01 0 0 1 .44-.195h.013a.934.934 0 0 1 .183-.02h.03c.087.004.179.016.266.036.004 0 .009.004.013.004h.004a1.067 1.067 0 0 1 .514.325c.013.017.026.029.035.045 4.55 5.27 12.109 8.41 20.23 8.41 8.124 0 15.692-3.149 20.238-8.434a.915.915 0 0 0 .021 1.198c.262.305.532.606.815.898-4.995 5.213-12.776 8.292-21.075 8.292m21.902-10.392a.987.987 0 0 0-.196-.183c.009.008.013.012.022.016a.932.932 0 0 1 .174.167m-.806-.382h-.004.004m-.043 0h.009-.01m.031 0h-.008.008m-.013 0h.005-.005" id="Fill-377" fill="#C0CACB"/><path d="M449.372 888.406c-8.304 0-16.08-3.08-21.074-8.292a20.145 20.145 0 0 1-.815-.898.915.915 0 0 1-.021-1.198.54.54 0 0 1 .07-.07.874.874 0 0 1 .112-.101c.188-.138.41-.211.627-.215h.048c.218.004.431.073.61.199.07.048.13.105.183.166.004.008.009.013.013.017 4.546 5.285 12.109 8.438 20.247 8.438s15.71-3.157 20.255-8.455c.21-.24.51-.365.819-.365.23 0 .461.073.653.215.449.337.518.95.161 1.37-4.937 5.756-13.119 9.19-21.888 9.19" id="Fill-378" fill="#C0CACB"/><path d="M1022.567 919.467c-8.778 0-16.96-3.438-21.897-9.19-.366-.423-.287-1.028.166-1.366.196-.15.422-.22.653-.22.305 0 .61.127.814.37 4.537 5.294 12.122 8.46 20.264 8.46 8.138 0 15.715-3.166 20.256-8.46a.954.954 0 0 1 .287-.23.781.781 0 0 0-.122.08c-.452.338-.53.943-.165 1.365.261.305.535.606.814.898-4.994 5.209-12.77 8.293-21.07 8.293m21.937-10.353c-.018-.02-.03-.036-.048-.052-.205-.24-.51-.37-.814-.37h.004a1.068 1.068 0 0 1 .858.422" id="Fill-379" fill="#798E98"/><path d="M1064.711 919.467c-8.299 0-16.08-3.084-21.074-8.293a23.223 23.223 0 0 1-.814-.898c-.366-.422-.287-1.027.165-1.365a1.049 1.049 0 0 1 .649-.22h.005c.304 0 .61.13.814.37.017.017.03.033.048.053 4.541 5.266 12.096 8.406 20.207 8.406 8.112 0 15.658-3.144 20.217-8.406a.92.92 0 0 0 .048 1.162c.26.305.53.602.814.894-4.994 5.213-12.775 8.297-21.079 8.297m21.701-10.576" id="Fill-380" fill="#798E98"/><path d="M1106.864 919.467c-8.303 0-16.084-3.084-21.074-8.297-.283-.292-.553-.589-.814-.894a.92.92 0 0 1-.048-1.162.937.937 0 0 1 .204-.203c.192-.15.423-.22.653-.22h.005c.222 0 .44.07.622.2.07.049.135.106.192.17 4.546 5.294 12.122 8.46 20.26 8.46 8.142 0 15.705-3.166 20.26-8.46.205-.243.51-.37.814-.37h.018a1.049 1.049 0 0 0-.632.22c-.453.338-.527.943-.165 1.365.257.297.522.59.797.878-4.995 5.22-12.78 8.313-21.092 8.313" id="Fill-381" fill="#798E98"/><path d="M1149.052 919.467c-8.317 0-16.107-3.092-21.096-8.313-.275-.288-.54-.581-.797-.878-.362-.422-.288-1.027.165-1.365.187-.146.41-.215.632-.22h.017c.305 0 .61.127.81.37 4.554 5.294 12.126 8.46 20.269 8.46 8.137 0 15.714-3.166 20.26-8.46.195-.23.483-.357.779-.37a1.042 1.042 0 0 0-.575.212c-.453.346-.522.95-.157 1.373.253.297.519.59.788.874-4.994 5.225-12.783 8.317-21.095 8.317" id="Fill-382" fill="#798E98"/><path d="M1191.243 919.467c-8.325 0-16.114-3.092-21.096-8.317-.27-.284-.535-.577-.788-.874-.365-.422-.296-1.027.157-1.373.17-.13.37-.199.575-.211h.07c.309 0 .618.126.827.37 4.537 5.293 12.104 8.458 20.255 8.458 8.134 0 15.71-3.165 20.256-8.458.205-.244.51-.37.819-.37.23 0 .461.069.653.22a.926.926 0 0 1 .16 1.364c-4.941 5.753-13.123 9.19-21.888 9.19" id="Fill-383" fill="#798E98"/><path d="M879.028 888.04a.94.94 0 0 1 .165-1.373c.444-.333 1.11-.268 1.468.15 1.968 2.296 5.264 3.665 8.813 3.665 3.548 0 6.844-1.369 8.808-3.664.361-.419 1.015-.484 1.472-.15.448.337.527.95.165 1.373-2.368 2.754-6.27 4.392-10.445 4.392-4.185 0-8.077-1.638-10.446-4.392z" id="Fill-384" fill="#FFFFFE"/><path d="M908.719 892.433c-4.18 0-8.068-1.638-10.437-4.392-.366-.423-.287-1.036.165-1.374.445-.333 1.106-.268 1.468.15 1.968 2.296 5.26 3.665 8.804 3.665 3.553 0 6.845-1.369 8.817-3.664.362-.419 1.019-.484 1.467-.15.453.337.527.95.166 1.373-2.364 2.754-6.27 4.392-10.45 4.392" id="Fill-385" fill="#FFFFFE"/><path d="M588.714 917.07c-4.176 0-8.082-1.642-10.446-4.4-.357-.42-.283-1.028.166-1.366a1.094 1.094 0 0 1 1.471.155c1.968 2.291 5.26 3.664 8.809 3.664 3.544 0 6.84-1.373 8.813-3.664a1.082 1.082 0 0 1 1.463-.155c.452.338.526.947.165 1.365-2.36 2.76-6.261 4.4-10.441 4.4" id="Fill-386" fill="#FFFFFE"/><path d="M597.522 912.67c-.361-.42-.283-1.028.166-1.366a1.089 1.089 0 0 1 1.467.155c1.968 2.291 5.26 3.664 8.804 3.664 3.549 0 6.85-1.373 8.817-3.664a1.093 1.093 0 0 1 1.472-.155.933.933 0 0 1 .157 1.365c-2.364 2.76-6.27 4.4-10.446 4.4-4.171 0-8.072-1.64-10.437-4.4z" id="Fill-387" fill="#FFFFFE"/><path d="M1317.71 892.433c-4.175 0-8.086-1.638-10.445-4.392a.936.936 0 0 1 .165-1.374c.192-.142.422-.21.653-.21.305 0 .61.121.81.36 1.968 2.296 5.264 3.665 8.817 3.665 3.544 0 6.836-1.369 8.804-3.664a1.076 1.076 0 0 1 .166-.15.94.94 0 0 0-.166 1.373c.257.296.532.58.819.853-2.39 2.234-5.9 3.539-9.623 3.539" id="Fill-388" fill="#798E98"/><path d="M1336.96 892.433c-3.727 0-7.232-1.305-9.627-3.54a11.996 11.996 0 0 1-.819-.852.94.94 0 0 1 .166-1.374c.191-.142.422-.21.653-.21.309 0 .614.121.818.36 1.96 2.296 5.256 3.665 8.809 3.665 3.549 0 6.836-1.369 8.808-3.664.21-.24.51-.362.815-.362.23 0 .461.07.657.211.453.338.523.951.166 1.374-2.37 2.754-6.266 4.392-10.446 4.392" id="Fill-389" fill="#798E98"/></g></g></g></g></svg>