<?xml version="1.0" encoding="UTF-8"?>
<svg width="140px" height="121px" viewBox="0 0 140 121" version="1.1" xmlns="http://www.w3.org/2000/svg" xmlns:xlink="http://www.w3.org/1999/xlink">
    <!-- Generator: Sketch 49.1 (51147) - http://www.bohemiancoding.com/sketch -->
    <title>if_004_064_video_media_film_movie_strip_play_1808358</title>
    <desc>Created with Sketch.</desc>
    <defs></defs>
    <g id="Page-1" stroke="none" stroke-width="1" fill="none" fill-rule="evenodd">
        <g id="MarketingSiteIllustrations" transform="translate(-840.000000, -2425.000000)">
            <g id="if_004_064_video_media_film_movie_strip_play_1808358" transform="translate(840.000000, 2425.000000)">
                <rect id="Rectangle-38" fill="#F7F7F7" x="0" y="0" width="140" height="121" rx="3"></rect>
                <rect id="Rectangle-path" fill="#E1AF32" fill-rule="nonzero" x="36.2" y="3" width="66.6" height="31.08"></rect>
                <rect id="Rectangle-path" fill="#019095" fill-rule="nonzero" x="36.2" y="34.08" width="66.6" height="53.28"></rect>
                <rect id="Rectangle-path" fill="#EC5E39" fill-rule="nonzero" x="36.2" y="87.36" width="66.6" height="31.08"></rect>
                <g id="Group" transform="translate(36.200000, 31.860000)" fill="#414154" fill-rule="nonzero">
                    <rect id="Rectangle-path" x="0" y="53.28" width="64.38" height="4.44"></rect>
                    <rect id="Rectangle-path" x="0" y="0" width="64.38" height="4.44"></rect>
                </g>
                <polygon id="Shape" fill="#FFFFFF" fill-rule="nonzero" points="56.9200015 78.48 56.9200015 42.96 86.5200027 60.72"></polygon>
                <path d="M100.58,3 L100.58,118.44 L125,118.44 L125,3 L100.58,3 Z M118.34,109.56 L107.24,109.56 L107.24,100.68 L118.34,100.68 L118.34,109.56 Z M118.34,91.8 L107.24,91.8 L107.24,82.92 L118.34,82.92 L118.34,91.8 Z M118.34,74.04 L107.24,74.04 L107.24,65.16 L118.34,65.16 L118.34,74.04 Z M118.34,56.28 L107.24,56.28 L107.24,47.4 L118.34,47.4 L118.34,56.28 Z M118.34,38.52 L107.24,38.52 L107.24,29.64 L118.34,29.64 L118.34,38.52 Z M118.34,20.76 L107.24,20.76 L107.24,11.88 L118.34,11.88 L118.34,20.76 Z" id="Shape" fill="#414154" fill-rule="nonzero"></path>
                <path d="M14,3 L14,118.44 L38.42,118.44 L38.42,3 L14,3 Z M31.76,109.56 L20.66,109.56 L20.66,100.68 L31.76,100.68 L31.76,109.56 Z M31.76,91.8 L20.66,91.8 L20.66,82.92 L31.76,82.92 L31.76,91.8 Z M31.76,74.04 L20.66,74.04 L20.66,65.16 L31.76,65.16 L31.76,74.04 Z M31.76,56.28 L20.66,56.28 L20.66,47.4 L31.76,47.4 L31.76,56.28 Z M31.76,38.52 L20.66,38.52 L20.66,29.64 L31.76,29.64 L31.76,38.52 Z M31.76,20.76 L20.66,20.76 L20.66,11.88 L31.76,11.88 L31.76,20.76 Z" id="Shape" fill="#414154" fill-rule="nonzero"></path>
            </g>
        </g>
    </g>
</svg>