<svg xmlns="http://www.w3.org/2000/svg" viewBox="0 0 119.58 119.58"><defs><style>.cls-1{fill:#ffeae6;}.cls-2{fill:#dd694a;}</style></defs><title>Asset 19</title><g id="Layer_2" data-name="Layer 2"><g id="Layer_1-2" data-name="Layer 1"><circle class="cls-1" cx="59.79" cy="59.79" r="59.79"/><path class="cls-2" d="M71.24,28.74"/><rect class="cls-2" x="51.57" y="46.91" width="17.67" height="3"/><path class="cls-2" d="M77.49,103.24H38.32A4.26,4.26,0,0,1,34.07,99V75.07h3V99a1.25,1.25,0,0,0,1.25,1.25H77.49A1.25,1.25,0,0,0,78.74,99V82.07h3V99A4.26,4.26,0,0,1,77.49,103.24Z"/><path class="cls-2" d="M93.49,83.57H80.24v-3H93.49a1.25,1.25,0,0,0,1.25-1.25V31.49a1.25,1.25,0,0,0-1.25-1.25H70.74V47.75h-3V27.24H93.49a4.26,4.26,0,0,1,4.25,4.25V79.32A4.26,4.26,0,0,1,93.49,83.57Z"/><path class="cls-2" d="M71.24,48.41"/><rect class="cls-2" x="78.74" y="58.83" width="3" height="23.24"/><path class="cls-2" d="M51.57,75.07"/><rect class="cls-2" x="38.32" y="46.91" width="13.25" height="3"/><path class="cls-2" d="M37.07,76.57H29.32a4.26,4.26,0,0,1-4.25-4.25V24.49a4.26,4.26,0,0,1,4.25-4.25H66.49a4.26,4.26,0,0,1,4.25,4.25v4.25h-3V24.49a1.25,1.25,0,0,0-1.25-1.25H29.32a1.25,1.25,0,0,0-1.25,1.25V72.32a1.25,1.25,0,0,0,1.25,1.25h4.75V51.16h3Z"/><path class="cls-2" d="M37.07,75.07h-3V51.16a4.26,4.26,0,0,1,4.25-4.25H51.57v3H38.32a1.25,1.25,0,0,0-1.25,1.25Z"/><path class="cls-2" d="M37.07,51.16h-3a4.26,4.26,0,0,1,4.25-4.25v3A1.25,1.25,0,0,0,37.07,51.16Z"/><rect class="cls-2" x="51.57" y="46.91" width="18.36" height="3"/><path class="cls-2" d="M72.47,60.42a3.69,3.69,0,0,1-3.69-3.69V48.79a1.5,1.5,0,0,1,2.56-1.06l10,10a1.5,1.5,0,0,1-1,2.56l-7.72.17h-.08Zm-.69-8v4.32a.69.69,0,0,0,.21.5.65.65,0,0,0,.5.2l4.21-.09Z"/><rect class="cls-2" x="41.36" y="60.36" width="24.63" height="3"/><rect class="cls-2" x="41.36" y="66.61" width="33" height="3"/><rect class="cls-2" x="41.36" y="72.97" width="33" height="3"/><rect class="cls-2" x="41.36" y="79.32" width="33" height="3"/><rect class="cls-2" x="41.36" y="85.68" width="33" height="3"/><rect class="cls-2" x="41.36" y="92.03" width="33" height="3"/></g></g></svg>