<svg xmlns="http://www.w3.org/2000/svg" xmlns:xlink="http://www.w3.org/1999/xlink" viewBox="0 0 456.44 379.28"><defs><style>.cls-1,.cls-9{fill:none;}.cls-2{fill:#919191;}.cls-3{fill:#a0a0a0;}.cls-4{fill:#666;}.cls-5{fill:#e6f4f2;}.cls-6{fill:#232323;}.cls-7{fill:#dd694a;}.cls-8{font-size:18px;fill:#fff;font-family:Montserrat-Light, Montserrat;letter-spacing:0.1em;}.cls-9{stroke:#f77969;stroke-linecap:round;stroke-miterlimit:10;stroke-width:2px;}.cls-10{fill:#7bc6c1;}.cls-11{fill:#fad589;}.cls-12{clip-path:url(#clip-path);}.cls-13{fill:#168787;}.cls-14{fill:#aed1cf;}</style><clipPath id="clip-path"><path class="cls-1" d="M201.88,205.6s-64.16-70.22,0-160c0,0,26.69-39.48,55.63,0,0,0,62.44,76.42,0,160"/></clipPath></defs><title>Asset 13</title><g id="Layer_2" data-name="Layer 2"><g id="Layer_1-2" data-name="Layer 1"><rect class="cls-2" x="169.22" y="298.99" width="118" height="65.65"/><rect class="cls-3" x="134.62" y="364.64" width="187.2" height="14.64" rx="7.32" ry="7.32"/><path class="cls-4" d="M4.05,0H452.39a4.05,4.05,0,0,1,4.05,4.05V253.72a0,0,0,0,1,0,0H0a0,0,0,0,1,0,0V4.05A4.05,4.05,0,0,1,4.05,0Z"/><path class="cls-3" d="M21.13,253.72H435.31a21.13,21.13,0,0,1,21.13,21.13v31.23a0,0,0,0,1,0,0H0a0,0,0,0,1,0,0V274.85A21.13,21.13,0,0,1,21.13,253.72Z" transform="translate(456.44 559.81) rotate(180)"/><rect class="cls-5" x="13.29" y="12.42" width="429.87" height="227.66"/><circle class="cls-6" cx="228.22" cy="279.9" r="11.98"/><rect class="cls-7" x="24.8" y="22.72" width="56.34" height="24"/><text class="cls-8" transform="translate(31.14 41.2)">LIVE</text><circle class="cls-7" cx="91.89" cy="26.21" r="3.49"/><path class="cls-9" d="M277.74,176.57"/><path class="cls-9" d="M212.74,176.57"/><path class="cls-9" d="M245.43,185.9"/><path class="cls-10" d="M443.15,249.08H13.29V192.84a1814.68,1814.68,0,0,1,429.87,0Z"/><path class="cls-11" d="M251.65,159.57h85.78a4.54,4.54,0,0,0,4.75-4.29V21.42H328.59v119a4.54,4.54,0,0,1-4.75,4.29H134.28a4.54,4.54,0,0,1-4.75-4.29v-119H115.94V155.28a4.54,4.54,0,0,0,4.75,4.29H229.29"/><g class="cls-12"><path class="cls-13" d="M201.88,205.6s-64.16-70.22,0-160c0,0,26.69-39.48,55.63,0,0,0,62.44,76.42,0,160"/><rect class="cls-14" x="175.47" y="56.86" width="107.69" height="20.41"/><rect class="cls-14" x="175.47" y="175.92" width="107.69" height="20.41"/></g><rect class="cls-14" x="227.37" y="87" width="3.89" height="77.28" rx="1.94" ry="1.94"/><rect class="cls-14" x="227.37" y="86.51" width="3.89" height="20.23" rx="1.94" ry="1.94" transform="translate(325.94 -132.69) rotate(90)"/><rect class="cls-14" x="227.37" y="98.16" width="3.89" height="20.23" rx="1.94" ry="1.94" transform="translate(337.59 -121.04) rotate(90)"/><rect class="cls-14" x="227.37" y="109.8" width="3.89" height="20.23" rx="1.94" ry="1.94" transform="translate(349.23 -109.4) rotate(90)"/><rect class="cls-14" x="227.37" y="121.45" width="3.89" height="20.23" rx="1.94" ry="1.94" transform="translate(360.88 -97.75) rotate(90)"/><rect class="cls-14" x="227.37" y="133.09" width="3.89" height="20.23" rx="1.94" ry="1.94" transform="translate(372.52 -86.11) rotate(90)"/><rect class="cls-14" x="227.37" y="144.74" width="3.89" height="20.23" rx="1.94" ry="1.94" transform="translate(384.17 -74.46) rotate(90)"/><rect class="cls-11" x="191.38" y="205.6" width="75.87" height="12.84" rx="6.42" ry="6.42"/></g></g></svg>