<svg xmlns="http://www.w3.org/2000/svg" viewBox="0 0 119.58 119.58"><defs><style>.cls-1{fill:#e6f4f2;}.cls-2{fill:#168787;}.cls-3{fill:#7bc6c1;}</style></defs><title>Asset 17</title><g id="Layer_2" data-name="Layer 2"><g id="Layer_1-2" data-name="Layer 1"><circle class="cls-1" cx="59.79" cy="59.79" r="59.79"/><path class="cls-2" d="M47.74,22A21.38,21.38,0,1,0,69.12,43.36,21.38,21.38,0,0,0,47.74,22Zm0,37.68A16.3,16.3,0,1,1,64,43.36,16.29,16.29,0,0,1,47.74,59.65Z"/><circle class="cls-2" cx="47.74" cy="43.36" r="8.09"/><polygon class="cls-2" points="44.61 23.3 35.68 26.84 34.68 19.18 39.58 17.11 44.61 23.3"/><polygon class="cls-2" points="51.41 23.3 60.34 26.84 61.34 19.18 56.44 17.11 51.41 23.3"/><polygon class="cls-2" points="50.86 63.93 59.79 60.39 60.79 68.04 55.89 70.11 50.86 63.93"/><polygon class="cls-2" points="64.72 32.22 68.36 41.1 74.57 36.51 72.66 31.54 64.72 32.22"/><polygon class="cls-2" points="68.36 46.67 64.77 55.58 72.42 56.62 74.51 51.73 68.36 46.67"/><polygon class="cls-2" points="44.61 63.93 35.68 60.39 34.68 68.04 39.58 70.11 44.61 63.93"/><polygon class="cls-2" points="31.28 31.16 27.63 40.04 21.43 35.46 23.34 30.49 31.28 31.16"/><polygon class="cls-2" points="27.64 46.48 31.23 55.38 23.58 56.42 21.48 51.53 27.64 46.48"/><path class="cls-3" d="M74.95,63.26a17,17,0,1,0,20.21,13A17,17,0,0,0,74.95,63.26Zm6.33,29.28a13,13,0,1,1,9.92-15.4A13,13,0,0,1,81.28,92.54Z"/><circle class="cls-3" cx="78.54" cy="79.87" r="6.43" transform="translate(-15.11 18.42) rotate(-12.21)"/><polygon class="cls-3" points="72.74 64.81 66.4 69.06 64.33 63.29 67.8 60.85 72.74 64.81"/><polygon class="cls-3" points="78.03 63.67 85.55 64.92 85.05 58.8 80.89 58.02 78.03 63.67"/><polygon class="cls-3" points="84.43 95.33 90.77 91.08 92.83 96.86 89.37 99.29 84.43 95.33"/><polygon class="cls-3" points="89.86 68.36 94.19 74.65 98.24 70.04 95.92 66.5 89.86 68.36"/><polygon class="cls-3" points="95.12 78.98 93.83 86.5 99.95 86.03 100.76 81.88 95.12 78.98"/><polygon class="cls-3" points="79.57 96.38 72.04 95.13 72.55 101.25 76.7 102.03 79.57 96.38"/><polygon class="cls-3" points="63.7 73.17 62.37 80.68 56.77 78.16 57.42 73.98 63.7 73.17"/><polygon class="cls-3" points="63.45 85.67 67.73 91.99 61.97 94.09 59.52 90.64 63.45 85.67"/></g></g></svg>