<?xml version="1.0" encoding="UTF-8"?>
<svg width="877px" height="855px" viewBox="0 0 877 855" version="1.1" xmlns="http://www.w3.org/2000/svg" xmlns:xlink="http://www.w3.org/1999/xlink">
    <!-- Generator: Sketch 49 (51002) - http://www.bohemiancoding.com/sketch -->
    <title>Flat Construction Site Vectors-01</title>
    <desc>Created with Sketch.</desc>
    <defs></defs>
    <g id="Page-1" stroke="none" stroke-width="1" fill="none" fill-rule="evenodd">
        <g id="Flat-Construction-Site-Vectors-01" fill-rule="nonzero">
            <g id="Group">
                <path d="M648.5,105.4 C645.9,105.4 643.3,105.9 641,106.7 C642.4,101.2 640.5,95 635.6,91.3 C631.8,88.4 627,87.7 622.6,88.9 C619,75.2 606.5,65.2 591.7,65.2 C574.1,65.2 559.8,79.5 559.8,97.1 C559.8,100.2 560.3,103.2 561.1,106.1 C559.3,105.6 557.4,105.4 555.4,105.4 C542.1,105.4 531.5,116.2 531.5,129.3 C531.5,142.6 542.2,153.2 555.4,153.2 L648.5,153.2 C661.7,153.2 672.4,142.4 672.4,129.3 C672.4,116.1 661.8,105.4 648.5,105.4 Z" id="Shape" fill-opacity="0.130576313" fill="#04DEFF"></path>
                <path d="M270.1,123.6 C268.5,123.6 266.9,123.9 265.4,124.4 C266.3,121 265.1,117.2 262,114.9 C259.6,113.1 256.6,112.7 254,113.4 C251.8,104.9 244,98.7 234.9,98.7 C224,98.7 215.1,107.5 215.1,118.5 C215.1,120.4 215.4,122.3 215.9,124.1 C214.8,123.8 213.6,123.7 212.3,123.7 C204.1,123.7 197.5,130.4 197.5,138.5 C197.5,146.7 204.1,153.3 212.3,153.3 L270,153.3 C278.2,153.3 284.8,146.6 284.8,138.5 C285,130.2 278.4,123.6 270.1,123.6 Z" id="Shape" fill-opacity="0.130576313" fill="#04DEFF"></path>
                <path d="M397.6,225.6 C395,225.6 392.4,226.1 390,226.9 C391.4,221.3 389.5,215.2 384.5,211.5 C380.7,208.6 375.8,207.9 371.5,209.1 C367.9,195.4 355.3,185.3 340.5,185.3 C322.8,185.3 308.5,199.6 308.5,217.3 C308.5,220.4 309,223.5 309.8,226.4 C308,225.9 306.1,225.7 304,225.7 C290.7,225.7 280,236.5 280,249.7 C280,263 290.7,273.7 304,273.7 L397.5,273.7 C410.7,273.7 421.5,262.9 421.5,249.7 C421.6,236.4 410.9,225.6 397.6,225.6 Z" id="Shape" fill-opacity="0.130576313" fill="#04DEFF"></path>
                <path d="M331.6,288.9 C329,288.9 326.4,289.4 324,290.2 C325.4,284.6 323.5,278.5 318.5,274.8 C314.7,271.9 309.8,271.2 305.5,272.4 C301.9,258.7 289.3,248.6 274.5,248.6 C256.8,248.6 242.5,262.9 242.5,280.6 C242.5,283.7 243,286.8 243.8,289.7 C242,289.2 240.1,289 238,289 C224.7,289 214,299.8 214,313 C214,326.3 224.7,337 238,337 L331.5,337 C344.7,337 355.5,326.2 355.5,313 C355.6,299.7 344.9,288.9 331.6,288.9 Z" id="Shape" fill-opacity="0.130576313" fill="#04DEFF"></path>
                <path d="M490.4,246.7 C487.8,246.7 485.2,247.2 482.8,248 C484.2,242.4 482.3,236.3 477.3,232.6 C473.5,229.7 468.6,229 464.3,230.2 C460.7,216.5 448.1,206.4 433.3,206.4 C415.6,206.4 401.3,220.7 401.3,238.4 C401.3,241.5 401.8,244.6 402.6,247.5 C400.8,247 398.9,246.8 396.8,246.8 C383.5,246.8 372.8,257.6 372.8,270.8 C372.8,284.1 383.5,294.8 396.8,294.8 L490.3,294.8 C503.5,294.8 514.3,284 514.3,270.8 C514.4,257.5 503.7,246.7 490.4,246.7 Z" id="Shape" fill-opacity="0.130576313" fill="#04DEFF"></path>
                <path d="M106.3,697.4 C185.1,793.3 304.7,854.4 438.5,854.4 C572.3,854.4 691.9,793.2 770.7,697.4 L106.3,697.4 Z" id="Shape" fill="#7F8285"></path>
                <path d="M860.2,697.4 L17,697.4 C7.9,697.4 0.6,690.1 0.6,681 C0.6,671.9 7.9,664.6 17,664.6 L860.2,664.6 C869.3,664.6 876.6,671.9 876.6,681 C876.6,690.1 869.2,697.4 860.2,697.4 Z" id="Shape" fill="#B36F44"></path>
                <path d="M614.6,801.9 L265.1,801.9 C255.2,801.9 247.1,793.8 247.1,783.9 C247.1,774 255.2,765.9 265.1,765.9 L614.5,765.9 C624.4,765.9 632.5,774 632.5,783.9 C632.6,793.8 624.5,801.9 614.6,801.9 Z" id="Shape" fill="#000000" opacity="0.1"></path>
                <path d="M8.6,424.5 C8.6,513.4 35.6,596 81.8,664.6 L795.2,664.6 C841.4,596 868.4,513.4 868.4,424.5 C868.4,419.3 868.3,414.2 868.1,409 L8.9,409 C8.7,414.2 8.6,419.4 8.6,424.5 Z" id="Shape" fill="#E48E57"></path>
                <path d="M764.9,613.6 L574.5,613.6 C569.1,613.6 564.7,609.2 564.7,603.8 C564.7,598.4 569.1,594 574.5,594 L764.9,594 C770.3,594 774.7,598.4 774.7,603.8 C774.7,609.2 770.3,613.6 764.9,613.6 Z" id="Shape" fill="#000000" opacity="0.1"></path>
                <path d="M91.4,446.4 L72,446.4 C69.1,446.4 66.8,444 66.8,441.2 C66.8,438.3 69.2,436 72,436 L91.4,436 C94.3,436 96.6,438.4 96.6,441.2 C96.7,444 94.3,446.4 91.4,446.4 Z" id="Shape" fill="#CE804F"></path>
                <path d="M220.8,426.9 L201.4,426.9 C198.5,426.9 196.2,424.5 196.2,421.7 C196.2,418.8 198.6,416.5 201.4,416.5 L220.8,416.5 C223.7,416.5 226,418.9 226,421.7 C226.1,424.6 223.7,426.9 220.8,426.9 Z" id="Shape" fill="#CE804F"></path>
                <path d="M325.1,469.4 L305.7,469.4 C302.8,469.4 300.5,467 300.5,464.2 C300.5,461.3 302.9,459 305.7,459 L325.1,459 C328,459 330.3,461.4 330.3,464.2 C330.4,467 328,469.4 325.1,469.4 Z" id="Shape" fill="#CE804F"></path>
                <path d="M431.1,438.5 L411.7,438.5 C408.8,438.5 406.5,436.1 406.5,433.3 C406.5,430.4 408.9,428.1 411.7,428.1 L431.1,428.1 C434,428.1 436.3,430.5 436.3,433.3 C436.4,436.1 434,438.5 431.1,438.5 Z" id="Shape" fill="#CE804F"></path>
                <path d="M405.5,611.8 L386.1,611.8 C383.2,611.8 380.9,609.4 380.9,606.6 C380.9,603.7 383.3,601.4 386.1,601.4 L405.5,601.4 C408.4,601.4 410.7,603.8 410.7,606.6 C410.8,609.4 408.4,611.8 405.5,611.8 Z" id="Shape" fill="#CE804F"></path>
                <path d="M336.6,599.2 L317.2,599.2 C314.3,599.2 312,596.8 312,594 C312,591.1 314.4,588.8 317.2,588.8 L336.6,588.8 C339.5,588.8 341.8,591.2 341.8,594 C341.9,596.8 339.5,599.2 336.6,599.2 Z" id="Shape" fill="#CE804F"></path>
                <path d="M76.5,519.8 L57.1,519.8 C54.2,519.8 51.9,517.4 51.9,514.6 C51.9,511.7 54.3,509.4 57.1,509.4 L76.5,509.4 C79.4,509.4 81.7,511.8 81.7,514.6 C81.8,517.4 79.4,519.8 76.5,519.8 Z" id="Shape" fill="#CE804F"></path>
                <path d="M248.5,611.8 L229.1,611.8 C226.2,611.8 223.9,609.4 223.9,606.6 C223.9,603.7 226.3,601.4 229.1,601.4 L248.5,601.4 C251.4,601.4 253.7,603.8 253.7,606.6 C253.7,609.4 251.4,611.8 248.5,611.8 Z" id="Shape" fill="#CE804F"></path>
                <path d="M830.9,452.2 L811.5,452.2 C808.6,452.2 806.3,449.8 806.3,447 C806.3,444.1 808.7,441.8 811.5,441.8 L830.9,441.8 C833.8,441.8 836.1,444.2 836.1,447 C836.1,449.8 833.8,452.2 830.9,452.2 Z" id="Shape" fill="#CE804F"></path>
                <path d="M584.2,476.6 L564.8,476.6 C561.9,476.6 559.6,474.2 559.6,471.4 C559.6,468.5 562,466.2 564.8,466.2 L584.2,466.2 C587.1,466.2 589.4,468.6 589.4,471.4 C589.4,474.2 587.1,476.6 584.2,476.6 Z" id="Shape" fill="#CE804F"></path>
                <path d="M787.7,490.6 L768.3,490.6 C765.4,490.6 763.1,488.2 763.1,485.4 C763.1,482.5 765.5,480.2 768.3,480.2 L787.7,480.2 C790.6,480.2 792.9,482.6 792.9,485.4 C793,488.3 790.6,490.6 787.7,490.6 Z" id="Shape" fill="#CE804F"></path>
                <path d="M787.7,625.6 L768.3,625.6 C765.4,625.6 763.1,623.2 763.1,620.4 C763.1,617.5 765.5,615.2 768.3,615.2 L787.7,615.2 C790.6,615.2 792.9,617.6 792.9,620.4 C793,623.2 790.6,625.6 787.7,625.6 Z" id="Shape" fill="#CE804F"></path>
                <path d="M660.2,600.4 L640.8,600.4 C637.9,600.4 635.6,598 635.6,595.2 C635.6,592.3 638,590 640.8,590 L660.2,590 C663.1,590 665.4,592.4 665.4,595.2 C665.5,598.1 663.1,600.4 660.2,600.4 Z" id="Shape" fill="#CE804F"></path>
                <path d="M708.8,546.2 L689.4,546.2 C686.5,546.2 684.2,543.8 684.2,541 C684.2,538.1 686.6,535.8 689.4,535.8 L708.8,535.8 C711.7,535.8 714,538.2 714,541 C714.1,543.9 711.7,546.2 708.8,546.2 Z" id="Shape" fill="#CE804F"></path>
                <path d="M203.4,567.4 L33,567.4 C37.3,579.7 42.2,591.7 47.5,603.4 L203.4,603.4 C213.3,603.4 221.4,595.3 221.4,585.4 C221.4,575.5 213.3,567.4 203.4,567.4 Z" id="Shape" fill="#000000" opacity="0.1"></path>
                <g transform="translate(125.000000, 636.000000)" id="Shape">
                    <path d="M15.6,11.3 L6.4,11.3 L6.4,4.8 C6.4,2.3 8.4,0.3 10.9,0.3 L11.1,0.3 C13.6,0.3 15.6,2.3 15.6,4.8 L15.6,11.3 Z" fill="#D66F5B"></path>
                    <path d="M16.6,12.2 L5.4,12.2 L5.4,11.1 C5.4,10.5 5.8,10.1 6.4,10.1 L15.6,10.1 C16.2,10.1 16.6,10.5 16.6,11.1 L16.6,12.2 Z" fill="#3D4B5E"></path>
                    <path d="M9.8,3.4 C9.2,4 8.3,4.2 8,3.9 C7.6,3.5 7.9,2.8 8.5,2.2 C9.1,1.6 10,1.4 10.3,1.7 C10.7,2 10.5,2.8 9.8,3.4 Z" fill="#FFFFFF"></path>
                    <path d="M78.6,11.3 L69.4,11.3 L69.4,4.8 C69.4,2.3 71.4,0.3 73.9,0.3 L74.1,0.3 C76.6,0.3 78.6,2.3 78.6,4.8 L78.6,11.3 Z" fill="#D66F5B"></path>
                    <path d="M79.6,12.2 L68.4,12.2 L68.4,11.1 C68.4,10.5 68.8,10.1 69.4,10.1 L78.6,10.1 C79.2,10.1 79.6,10.5 79.6,11.1 L79.6,12.2 Z" fill="#3D4B5E"></path>
                    <path d="M72.8,3.4 C72.2,4 71.3,4.2 71,3.9 C70.6,3.5 70.9,2.8 71.5,2.2 C72.1,1.6 73,1.4 73.3,1.7 C73.7,2 73.5,2.8 72.8,3.4 Z" fill="#FFFFFF"></path>
                    <polygon fill="#343D4E" points="67.1 39.5 74 39.5 74 73.7 67.1 73.7"></polygon>
                    <path d="M78.4,73.7 L78.4,71.9 C78.4,70.8 77.5,69.8 76.3,69.8 L64.9,69.8 C63.8,69.8 62.8,70.7 62.8,71.9 L62.8,73.7 L78.4,73.7 Z" fill="#3D4B5E"></path>
                    <polygon fill="#343D4E" points="11 39.5 18 39.5 18 73.7 11 73.7"></polygon>
                    <path d="M83.4,12.3 L1.7,12.3 C1.2,12.3 0.7,12.7 0.7,13.3 L0.7,38.5 C0.7,39 1.1,39.5 1.7,39.5 L83.4,39.5 C83.9,39.5 84.4,39.1 84.4,38.5 L84.4,13.3 C84.4,12.7 83.9,12.3 83.4,12.3 Z" fill="#FFFFFF"></path>
                    <polygon fill="#D66F5B" points="79.6 39.5 71.2 39.5 65.5 12.3 73.9 12.3"></polygon>
                    <polygon fill="#D66F5B" points="59.6 39.5 51.2 39.5 45.5 12.3 53.9 12.3"></polygon>
                    <polygon fill="#D66F5B" points="39.6 39.5 31.1 39.5 25.5 12.3 33.9 12.3"></polygon>
                    <polygon fill="#D66F5B" points="19.6 39.5 11.1 39.5 5.4 12.3 13.9 12.3"></polygon>
                    <path d="M22.3,73.7 L22.3,71.9 C22.3,70.8 21.4,69.8 20.2,69.8 L8.8,69.8 C7.7,69.8 6.7,70.7 6.7,71.9 L6.7,73.7 L22.3,73.7 Z" fill="#3D4B5E"></path>
                </g>
                <g transform="translate(231.000000, 636.000000)" id="Shape">
                    <path d="M15.6,11.3 L6.4,11.3 L6.4,4.8 C6.4,2.3 8.4,0.3 10.9,0.3 L11.1,0.3 C13.6,0.3 15.6,2.3 15.6,4.8 L15.6,11.3 Z" fill="#D66F5B"></path>
                    <path d="M16.6,12.2 L5.4,12.2 L5.4,11.1 C5.4,10.5 5.8,10.1 6.4,10.1 L15.6,10.1 C16.2,10.1 16.6,10.5 16.6,11.1 L16.6,12.2 Z" fill="#3D4B5E"></path>
                    <path d="M9.8,3.4 C9.2,4 8.3,4.2 8,3.9 C7.6,3.5 7.9,2.8 8.5,2.2 C9.1,1.6 10,1.4 10.3,1.7 C10.7,2 10.5,2.8 9.8,3.4 Z" fill="#FFFFFF"></path>
                    <path d="M78.6,11.3 L69.4,11.3 L69.4,4.8 C69.4,2.3 71.4,0.3 73.9,0.3 L74.1,0.3 C76.6,0.3 78.6,2.3 78.6,4.8 L78.6,11.3 Z" fill="#D66F5B"></path>
                    <path d="M79.6,12.2 L68.4,12.2 L68.4,11.1 C68.4,10.5 68.8,10.1 69.4,10.1 L78.6,10.1 C79.2,10.1 79.6,10.5 79.6,11.1 L79.6,12.2 Z" fill="#3D4B5E"></path>
                    <path d="M72.8,3.4 C72.2,4 71.3,4.2 71,3.9 C70.6,3.5 70.9,2.8 71.5,2.2 C72.1,1.6 73,1.4 73.3,1.7 C73.7,2 73.5,2.8 72.8,3.4 Z" fill="#FFFFFF"></path>
                    <polygon fill="#343D4E" points="67.1 39.5 74 39.5 74 73.7 67.1 73.7"></polygon>
                    <path d="M78.4,73.7 L78.4,71.9 C78.4,70.8 77.5,69.8 76.3,69.8 L64.9,69.8 C63.8,69.8 62.8,70.7 62.8,71.9 L62.8,73.7 L78.4,73.7 Z" fill="#3D4B5E"></path>
                    <polygon fill="#343D4E" points="11 39.5 18 39.5 18 73.7 11 73.7"></polygon>
                    <path d="M83.4,12.3 L1.7,12.3 C1.2,12.3 0.7,12.7 0.7,13.3 L0.7,38.5 C0.7,39 1.1,39.5 1.7,39.5 L83.4,39.5 C83.9,39.5 84.4,39.1 84.4,38.5 L84.4,13.3 C84.4,12.7 83.9,12.3 83.4,12.3 Z" fill="#FFFFFF"></path>
                    <polygon fill="#D66F5B" points="79.6 39.5 71.2 39.5 65.5 12.3 73.9 12.3"></polygon>
                    <polygon fill="#D66F5B" points="59.6 39.5 51.2 39.5 45.5 12.3 53.9 12.3"></polygon>
                    <polygon fill="#D66F5B" points="39.6 39.5 31.1 39.5 25.5 12.3 33.9 12.3"></polygon>
                    <polygon fill="#D66F5B" points="19.6 39.5 11.1 39.5 5.4 12.3 13.9 12.3"></polygon>
                    <path d="M22.3,73.7 L22.3,71.9 C22.3,70.8 21.4,69.8 20.2,69.8 L8.8,69.8 C7.7,69.8 6.7,70.7 6.7,71.9 L6.7,73.7 L22.3,73.7 Z" fill="#3D4B5E"></path>
                </g>
                <g transform="translate(337.000000, 636.000000)" id="Shape">
                    <path d="M15.6,11.3 L6.4,11.3 L6.4,4.8 C6.4,2.3 8.4,0.3 10.9,0.3 L11.1,0.3 C13.6,0.3 15.6,2.3 15.6,4.8 L15.6,11.3 Z" fill="#D66F5B"></path>
                    <path d="M16.6,12.2 L5.4,12.2 L5.4,11.1 C5.4,10.5 5.8,10.1 6.4,10.1 L15.6,10.1 C16.2,10.1 16.6,10.5 16.6,11.1 L16.6,12.2 Z" fill="#3D4B5E"></path>
                    <path d="M9.8,3.4 C9.2,4 8.3,4.2 8,3.9 C7.6,3.5 7.9,2.8 8.5,2.2 C9.1,1.6 10,1.4 10.3,1.7 C10.7,2 10.5,2.8 9.8,3.4 Z" fill="#FFFFFF"></path>
                    <path d="M78.6,11.3 L69.4,11.3 L69.4,4.8 C69.4,2.3 71.4,0.3 73.9,0.3 L74.1,0.3 C76.6,0.3 78.6,2.3 78.6,4.8 L78.6,11.3 Z" fill="#D66F5B"></path>
                    <path d="M79.6,12.2 L68.4,12.2 L68.4,11.1 C68.4,10.5 68.8,10.1 69.4,10.1 L78.6,10.1 C79.2,10.1 79.6,10.5 79.6,11.1 L79.6,12.2 Z" fill="#3D4B5E"></path>
                    <path d="M72.8,3.4 C72.2,4 71.3,4.2 71,3.9 C70.6,3.5 70.9,2.8 71.5,2.2 C72.1,1.6 73,1.4 73.3,1.7 C73.7,2 73.5,2.8 72.8,3.4 Z" fill="#FFFFFF"></path>
                    <polygon fill="#343D4E" points="67.1 39.5 74 39.5 74 73.7 67.1 73.7"></polygon>
                    <path d="M78.4,73.7 L78.4,71.9 C78.4,70.8 77.5,69.8 76.3,69.8 L64.9,69.8 C63.8,69.8 62.8,70.7 62.8,71.9 L62.8,73.7 L78.4,73.7 Z" fill="#3D4B5E"></path>
                    <polygon fill="#343D4E" points="11 39.5 18 39.5 18 73.7 11 73.7"></polygon>
                    <path d="M83.4,12.3 L1.7,12.3 C1.2,12.3 0.7,12.7 0.7,13.3 L0.7,38.5 C0.7,39 1.1,39.5 1.7,39.5 L83.4,39.5 C83.9,39.5 84.4,39.1 84.4,38.5 L84.4,13.3 C84.4,12.7 83.9,12.3 83.4,12.3 Z" fill="#FFFFFF"></path>
                    <polygon fill="#D66F5B" points="79.6 39.5 71.2 39.5 65.5 12.3 73.9 12.3"></polygon>
                    <polygon fill="#D66F5B" points="59.6 39.5 51.2 39.5 45.5 12.3 53.9 12.3"></polygon>
                    <polygon fill="#D66F5B" points="39.6 39.5 31.1 39.5 25.5 12.3 33.9 12.3"></polygon>
                    <polygon fill="#D66F5B" points="19.6 39.5 11.1 39.5 5.4 12.3 13.9 12.3"></polygon>
                    <path d="M22.3,73.7 L22.3,71.9 C22.3,70.8 21.4,69.8 20.2,69.8 L8.8,69.8 C7.7,69.8 6.7,70.7 6.7,71.9 L6.7,73.7 L22.3,73.7 Z" fill="#3D4B5E"></path>
                </g>
                <g transform="translate(443.000000, 636.000000)" id="Shape">
                    <path d="M15.6,11.3 L6.4,11.3 L6.4,4.8 C6.4,2.3 8.4,0.3 10.9,0.3 L11.1,0.3 C13.6,0.3 15.6,2.3 15.6,4.8 L15.6,11.3 Z" fill="#D66F5B"></path>
                    <path d="M16.6,12.2 L5.4,12.2 L5.4,11.1 C5.4,10.5 5.8,10.1 6.4,10.1 L15.6,10.1 C16.2,10.1 16.6,10.5 16.6,11.1 L16.6,12.2 Z" fill="#3D4B5E"></path>
                    <path d="M9.8,3.4 C9.2,4 8.3,4.2 8,3.9 C7.6,3.5 7.9,2.8 8.5,2.2 C9.1,1.6 10,1.4 10.3,1.7 C10.7,2 10.5,2.8 9.8,3.4 Z" fill="#FFFFFF"></path>
                    <path d="M78.6,11.3 L69.4,11.3 L69.4,4.8 C69.4,2.3 71.4,0.3 73.9,0.3 L74.1,0.3 C76.6,0.3 78.6,2.3 78.6,4.8 L78.6,11.3 Z" fill="#D66F5B"></path>
                    <path d="M79.6,12.2 L68.4,12.2 L68.4,11.1 C68.4,10.5 68.8,10.1 69.4,10.1 L78.6,10.1 C79.2,10.1 79.6,10.5 79.6,11.1 L79.6,12.2 Z" fill="#3D4B5E"></path>
                    <path d="M72.8,3.4 C72.2,4 71.3,4.2 71,3.9 C70.6,3.5 70.9,2.8 71.5,2.2 C72.1,1.6 73,1.4 73.3,1.7 C73.7,2 73.5,2.8 72.8,3.4 Z" fill="#FFFFFF"></path>
                    <polygon fill="#343D4E" points="67.1 39.5 74 39.5 74 73.7 67.1 73.7"></polygon>
                    <path d="M78.4,73.7 L78.4,71.9 C78.4,70.8 77.5,69.8 76.3,69.8 L64.9,69.8 C63.8,69.8 62.8,70.7 62.8,71.9 L62.8,73.7 L78.4,73.7 Z" fill="#3D4B5E"></path>
                    <polygon fill="#343D4E" points="11 39.5 18 39.5 18 73.7 11 73.7"></polygon>
                    <path d="M83.4,12.3 L1.7,12.3 C1.2,12.3 0.7,12.7 0.7,13.3 L0.7,38.5 C0.7,39 1.1,39.5 1.7,39.5 L83.4,39.5 C83.9,39.5 84.4,39.1 84.4,38.5 L84.4,13.3 C84.4,12.7 83.9,12.3 83.4,12.3 Z" fill="#FFFFFF"></path>
                    <polygon fill="#D66F5B" points="79.6 39.5 71.2 39.5 65.5 12.3 73.9 12.3"></polygon>
                    <polygon fill="#D66F5B" points="59.6 39.5 51.2 39.5 45.5 12.3 53.9 12.3"></polygon>
                    <polygon fill="#D66F5B" points="39.6 39.5 31.1 39.5 25.5 12.3 33.9 12.3"></polygon>
                    <polygon fill="#D66F5B" points="19.6 39.5 11.1 39.5 5.4 12.3 13.9 12.3"></polygon>
                    <path d="M22.3,73.7 L22.3,71.9 C22.3,70.8 21.4,69.8 20.2,69.8 L8.8,69.8 C7.7,69.8 6.7,70.7 6.7,71.9 L6.7,73.7 L22.3,73.7 Z" fill="#3D4B5E"></path>
                </g>
                <g transform="translate(549.000000, 636.000000)" id="Shape">
                    <path d="M15.6,11.3 L6.4,11.3 L6.4,4.8 C6.4,2.3 8.4,0.3 10.9,0.3 L11.1,0.3 C13.6,0.3 15.6,2.3 15.6,4.8 L15.6,11.3 Z" fill="#D66F5B"></path>
                    <path d="M16.6,12.2 L5.4,12.2 L5.4,11.1 C5.4,10.5 5.8,10.1 6.4,10.1 L15.6,10.1 C16.2,10.1 16.6,10.5 16.6,11.1 L16.6,12.2 Z" fill="#3D4B5E"></path>
                    <path d="M9.8,3.4 C9.2,4 8.3,4.2 8,3.9 C7.6,3.5 7.9,2.8 8.5,2.2 C9.1,1.6 10,1.4 10.3,1.7 C10.7,2 10.5,2.8 9.8,3.4 Z" fill="#FFFFFF"></path>
                    <path d="M78.6,11.3 L69.4,11.3 L69.4,4.8 C69.4,2.3 71.4,0.3 73.9,0.3 L74.1,0.3 C76.6,0.3 78.6,2.3 78.6,4.8 L78.6,11.3 Z" fill="#D66F5B"></path>
                    <path d="M79.6,12.2 L68.4,12.2 L68.4,11.1 C68.4,10.5 68.8,10.1 69.4,10.1 L78.6,10.1 C79.2,10.1 79.6,10.5 79.6,11.1 L79.6,12.2 Z" fill="#3D4B5E"></path>
                    <path d="M72.8,3.4 C72.2,4 71.3,4.2 71,3.9 C70.6,3.5 70.9,2.8 71.5,2.2 C72.1,1.6 73,1.4 73.3,1.7 C73.7,2 73.5,2.8 72.8,3.4 Z" fill="#FFFFFF"></path>
                    <polygon fill="#343D4E" points="67.1 39.5 74 39.5 74 73.7 67.1 73.7"></polygon>
                    <path d="M78.4,73.7 L78.4,71.9 C78.4,70.8 77.5,69.8 76.3,69.8 L64.9,69.8 C63.8,69.8 62.8,70.7 62.8,71.9 L62.8,73.7 L78.4,73.7 Z" fill="#3D4B5E"></path>
                    <polygon fill="#343D4E" points="11 39.5 18 39.5 18 73.7 11 73.7"></polygon>
                    <path d="M83.4,12.3 L1.7,12.3 C1.2,12.3 0.7,12.7 0.7,13.3 L0.7,38.5 C0.7,39 1.1,39.5 1.7,39.5 L83.4,39.5 C83.9,39.5 84.4,39.1 84.4,38.5 L84.4,13.3 C84.4,12.7 83.9,12.3 83.4,12.3 Z" fill="#FFFFFF"></path>
                    <polygon fill="#D66F5B" points="79.6 39.5 71.2 39.5 65.5 12.3 73.9 12.3"></polygon>
                    <polygon fill="#D66F5B" points="59.6 39.5 51.2 39.5 45.5 12.3 53.9 12.3"></polygon>
                    <polygon fill="#D66F5B" points="39.6 39.5 31.1 39.5 25.5 12.3 33.9 12.3"></polygon>
                    <polygon fill="#D66F5B" points="19.6 39.5 11.1 39.5 5.4 12.3 13.9 12.3"></polygon>
                    <path d="M22.3,73.7 L22.3,71.9 C22.3,70.8 21.4,69.8 20.2,69.8 L8.8,69.8 C7.7,69.8 6.7,70.7 6.7,71.9 L6.7,73.7 L22.3,73.7 Z" fill="#3D4B5E"></path>
                </g>
                <g transform="translate(655.000000, 636.000000)" id="Shape">
                    <path d="M15.6,11.3 L6.4,11.3 L6.4,4.8 C6.4,2.3 8.4,0.3 10.9,0.3 L11.1,0.3 C13.6,0.3 15.6,2.3 15.6,4.8 L15.6,11.3 Z" fill="#D66F5B"></path>
                    <path d="M16.6,12.2 L5.4,12.2 L5.4,11.1 C5.4,10.5 5.8,10.1 6.4,10.1 L15.6,10.1 C16.2,10.1 16.6,10.5 16.6,11.1 L16.6,12.2 Z" fill="#3D4B5E"></path>
                    <path d="M9.8,3.4 C9.2,4 8.3,4.2 8,3.9 C7.6,3.5 7.9,2.8 8.5,2.2 C9.1,1.6 10,1.4 10.3,1.7 C10.7,2 10.5,2.8 9.8,3.4 Z" fill="#FFFFFF"></path>
                    <path d="M78.6,11.3 L69.4,11.3 L69.4,4.8 C69.4,2.3 71.4,0.3 73.9,0.3 L74.1,0.3 C76.6,0.3 78.6,2.3 78.6,4.8 L78.6,11.3 Z" fill="#D66F5B"></path>
                    <path d="M79.6,12.2 L68.4,12.2 L68.4,11.1 C68.4,10.5 68.8,10.1 69.4,10.1 L78.6,10.1 C79.2,10.1 79.6,10.5 79.6,11.1 L79.6,12.2 Z" fill="#3D4B5E"></path>
                    <path d="M72.8,3.4 C72.2,4 71.3,4.2 71,3.9 C70.6,3.5 70.9,2.8 71.5,2.2 C72.1,1.6 73,1.4 73.3,1.7 C73.7,2 73.5,2.8 72.8,3.4 Z" fill="#FFFFFF"></path>
                    <polygon fill="#343D4E" points="67.1 39.5 74 39.5 74 73.7 67.1 73.7"></polygon>
                    <path d="M78.4,73.7 L78.4,71.9 C78.4,70.8 77.5,69.8 76.3,69.8 L64.9,69.8 C63.8,69.8 62.8,70.7 62.8,71.9 L62.8,73.7 L78.4,73.7 Z" fill="#3D4B5E"></path>
                    <polygon fill="#343D4E" points="11 39.5 18 39.5 18 73.7 11 73.7"></polygon>
                    <path d="M83.4,12.3 L1.7,12.3 C1.2,12.3 0.7,12.7 0.7,13.3 L0.7,38.5 C0.7,39 1.1,39.5 1.7,39.5 L83.4,39.5 C83.9,39.5 84.4,39.1 84.4,38.5 L84.4,13.3 C84.4,12.7 83.9,12.3 83.4,12.3 Z" fill="#FFFFFF"></path>
                    <polygon fill="#D66F5B" points="79.6 39.5 71.2 39.5 65.5 12.3 73.9 12.3"></polygon>
                    <polygon fill="#D66F5B" points="59.6 39.5 51.2 39.5 45.5 12.3 53.9 12.3"></polygon>
                    <polygon fill="#D66F5B" points="39.6 39.5 31.1 39.5 25.5 12.3 33.9 12.3"></polygon>
                    <polygon fill="#D66F5B" points="19.6 39.5 11.1 39.5 5.4 12.3 13.9 12.3"></polygon>
                    <path d="M22.3,73.7 L22.3,71.9 C22.3,70.8 21.4,69.8 20.2,69.8 L8.8,69.8 C7.7,69.8 6.7,70.7 6.7,71.9 L6.7,73.7 L22.3,73.7 Z" fill="#3D4B5E"></path>
                </g>
                <path d="M258.2,744.3 L248.5,744.3 C247.1,744.3 245.9,743.1 245.9,741.7 C245.9,740.3 247.1,739.1 248.5,739.1 L258.2,739.1 C259.6,739.1 260.8,740.3 260.8,741.7 C260.8,743.1 259.6,744.3 258.2,744.3 Z" id="Shape" fill="#6D6F72"></path>
                <path d="M415.9,741.7 L406.2,741.7 C404.8,741.7 403.6,740.5 403.6,739.1 C403.6,737.7 404.8,736.5 406.2,736.5 L415.9,736.5 C417.3,736.5 418.5,737.7 418.5,739.1 C418.5,740.5 417.3,741.7 415.9,741.7 Z" id="Shape" fill="#6D6F72"></path>
                <path d="M539.7,814.1 L530,814.1 C528.6,814.1 527.4,812.9 527.4,811.5 C527.4,810.1 528.6,808.9 530,808.9 L539.7,808.9 C541.1,808.9 542.3,810.1 542.3,811.5 C542.4,812.9 541.2,814.1 539.7,814.1 Z" id="Shape" fill="#6D6F72"></path>
                <path d="M576.2,744.3 L566.5,744.3 C565.1,744.3 563.9,743.1 563.9,741.7 C563.9,740.3 565.1,739.1 566.5,739.1 L576.2,739.1 C577.6,739.1 578.8,740.3 578.8,741.7 C578.8,743.1 577.6,744.3 576.2,744.3 Z" id="Shape" fill="#6D6F72"></path>
                <path d="M609.1,790.7 L599.4,790.7 C598,790.7 596.8,789.5 596.8,788.1 C596.8,786.7 598,785.5 599.4,785.5 L609.1,785.5 C610.5,785.5 611.7,786.7 611.7,788.1 C611.7,789.6 610.5,790.7 609.1,790.7 Z" id="Shape" fill="#6D6F72"></path>
                <path d="M407.3,822.2 L397.6,822.2 C396.2,822.2 395,821 395,819.6 C395,818.2 396.2,817 397.6,817 L407.3,817 C408.7,817 409.9,818.2 409.9,819.6 C409.9,821.1 408.8,822.2 407.3,822.2 Z" id="Shape" fill="#6D6F72"></path>
                <path d="M457,770.6 L447.3,770.6 C445.9,770.6 444.7,769.4 444.7,768 C444.7,766.6 445.9,765.4 447.3,765.4 L457,765.4 C458.4,765.4 459.6,766.6 459.6,768 C459.6,769.4 458.5,770.6 457,770.6 Z" id="Shape" fill="#6D6F72"></path>
                <path d="M298.6,788.1 L288.9,788.1 C287.5,788.1 286.3,786.9 286.3,785.5 C286.3,784.1 287.5,782.9 288.9,782.9 L298.6,782.9 C300,782.9 301.2,784.1 301.2,785.5 C301.2,786.9 300,788.1 298.6,788.1 Z" id="Shape" fill="#6D6F72"></path>
                <path d="M361.4,768 L351.7,768 C350.3,768 349.1,766.8 349.1,765.4 C349.1,764 350.3,762.8 351.7,762.8 L361.4,762.8 C362.8,762.8 364,764 364,765.4 C364.1,766.8 362.9,768 361.4,768 Z" id="Shape" fill="#6D6F72"></path>
                <path d="M692.4,739.1 L682.7,739.1 C681.3,739.1 680.1,737.9 680.1,736.5 C680.1,735.1 681.3,733.9 682.7,733.9 L692.4,733.9 C693.8,733.9 695,735.1 695,736.5 C695,737.9 693.8,739.1 692.4,739.1 Z" id="Shape" fill="#6D6F72"></path>
                <g transform="translate(603.000000, 15.000000)">
                    <rect id="Rectangle-path" fill="#A1CEB9" x="13.1" y="219.9" width="188.1" height="258.3"></rect>
                    <rect id="Rectangle-path" fill="#A1CEB9" x="13.1" y="26.8" width="188.1" height="16.4"></rect>
                    <rect id="Rectangle-path" fill="#A1CEB9" x="13.1" y="175.2" width="188.1" height="16.4"></rect>
                    <rect id="Rectangle-path" fill="#A1CEB9" x="13.1" y="97.1" width="188.1" height="16.4"></rect>
                    <path d="M67.1,286.1 L48.5,286.1 C44.9,286.1 42,283.2 42,279.6 L42,261 C42,257.4 44.9,254.5 48.5,254.5 L67.1,254.5 C70.7,254.5 73.6,257.4 73.6,261 L73.6,279.6 C73.6,283.1 70.7,286.1 67.1,286.1 Z" id="Shape" fill="#8FB8A5"></path>
                    <path d="M116.5,286.1 L97.9,286.1 C94.3,286.1 91.4,283.2 91.4,279.6 L91.4,261 C91.4,257.4 94.3,254.5 97.9,254.5 L116.5,254.5 C120.1,254.5 123,257.4 123,261 L123,279.6 C123,283.1 120.1,286.1 116.5,286.1 Z" id="Shape" fill="#8FB8A5"></path>
                    <path d="M165.9,286.1 L147.3,286.1 C143.7,286.1 140.8,283.2 140.8,279.6 L140.8,261 C140.8,257.4 143.7,254.5 147.3,254.5 L165.9,254.5 C169.5,254.5 172.4,257.4 172.4,261 L172.4,279.6 C172.4,283.1 169.5,286.1 165.9,286.1 Z" id="Shape" fill="#8FB8A5"></path>
                    <path d="M67.1,349 L48.5,349 C44.9,349 42,346.1 42,342.5 L42,323.9 C42,320.3 44.9,317.4 48.5,317.4 L67.1,317.4 C70.7,317.4 73.6,320.3 73.6,323.9 L73.6,342.5 C73.6,346.1 70.7,349 67.1,349 Z" id="Shape" fill="#8FB8A5"></path>
                    <path d="M116.5,349 L97.9,349 C94.3,349 91.4,346.1 91.4,342.5 L91.4,323.9 C91.4,320.3 94.3,317.4 97.9,317.4 L116.5,317.4 C120.1,317.4 123,320.3 123,323.9 L123,342.5 C123,346.1 120.1,349 116.5,349 Z" id="Shape" fill="#8FB8A5"></path>
                    <path d="M165.9,349 L147.3,349 C143.7,349 140.8,346.1 140.8,342.5 L140.8,323.9 C140.8,320.3 143.7,317.4 147.3,317.4 L165.9,317.4 C169.5,317.4 172.4,320.3 172.4,323.9 L172.4,342.5 C172.4,346.1 169.5,349 165.9,349 Z" id="Shape" fill="#8FB8A5"></path>
                    <path d="M67.1,411.9 L48.5,411.9 C44.9,411.9 42,409 42,405.4 L42,386.8 C42,383.2 44.9,380.3 48.5,380.3 L67.1,380.3 C70.7,380.3 73.6,383.2 73.6,386.8 L73.6,405.4 C73.6,409 70.7,411.9 67.1,411.9 Z" id="Shape" fill="#8FB8A5"></path>
                    <path d="M116.5,411.9 L97.9,411.9 C94.3,411.9 91.4,409 91.4,405.4 L91.4,386.8 C91.4,383.2 94.3,380.3 97.9,380.3 L116.5,380.3 C120.1,380.3 123,383.2 123,386.8 L123,405.4 C123,409 120.1,411.9 116.5,411.9 Z" id="Shape" fill="#8FB8A5"></path>
                    <path d="M165.9,411.9 L147.3,411.9 C143.7,411.9 140.8,409 140.8,405.4 L140.8,386.8 C140.8,383.2 143.7,380.3 147.3,380.3 L165.9,380.3 C169.5,380.3 172.4,383.2 172.4,386.8 L172.4,405.4 C172.4,409 169.5,411.9 165.9,411.9 Z" id="Shape" fill="#8FB8A5"></path>
                    <rect id="Rectangle-path" fill="#8FB8A5" x="102.9" y="0" width="8.5" height="219.8"></rect>
                    <rect id="Rectangle-path" fill="#8FB8A5" x="70.1" y="0.7" width="8.5" height="219.8"></rect>
                    <rect id="Rectangle-path" fill="#8FB8A5" x="36.5" y="0.7" width="8.5" height="219.8"></rect>
                    <rect id="Rectangle-path" fill="#8FB8A5" x="169.1" y="0.7" width="8.5" height="219.8"></rect>
                    <rect id="Rectangle-path" fill="#8FB8A5" x="135.5" y="0.7" width="8.5" height="219.8"></rect>
                    <path d="M206.7,491.5 L7.6,491.5 C3.9,491.5 0.9,488.5 0.9,484.8 C0.9,481.1 3.9,478.1 7.6,478.1 L206.7,478.1 C210.4,478.1 213.4,481.1 213.4,484.8 C213.4,488.5 210.4,491.5 206.7,491.5 Z" id="Shape" fill="#DFD4B8"></path>
                    <path d="M123,478.1 L91.3,478.1 L91.3,444.6 C91.3,439.3 95.6,434.9 101,434.9 L113.3,434.9 C118.6,434.9 123,439.2 123,444.6 L123,478.1 Z" id="Shape" fill="#8FB8A5"></path>
                </g>
                <g transform="translate(91.000000, 123.000000)">
                    <rect id="Rectangle-path" fill="#A1CEB9" x="9.2" y="159.8" width="136.1" height="186.8"></rect>
                    <rect id="Rectangle-path" fill="#A1CEB9" x="9.2" y="20.2" width="136.1" height="11.8"></rect>
                    <rect id="Rectangle-path" fill="#A1CEB9" x="9.2" y="127.5" width="136.1" height="11.8"></rect>
                    <rect id="Rectangle-path" fill="#A1CEB9" x="9.2" y="71.1" width="136.1" height="11.8"></rect>
                    <path d="M48.2,207.7 L34.7,207.7 C32.1,207.7 30,205.6 30,203 L30,189.5 C30,186.9 32.1,184.8 34.7,184.8 L48.2,184.8 C50.8,184.8 52.9,186.9 52.9,189.5 L52.9,203 C52.9,205.6 50.8,207.7 48.2,207.7 Z" id="Shape" fill="#8FB8A5"></path>
                    <path d="M83.9,207.7 L70.4,207.7 C67.8,207.7 65.7,205.6 65.7,203 L65.7,189.5 C65.7,186.9 67.8,184.8 70.4,184.8 L83.9,184.8 C86.5,184.8 88.6,186.9 88.6,189.5 L88.6,203 C88.7,205.6 86.5,207.7 83.9,207.7 Z" id="Shape" fill="#8FB8A5"></path>
                    <path d="M119.7,207.7 L106.2,207.7 C103.6,207.7 101.5,205.6 101.5,203 L101.5,189.5 C101.5,186.9 103.6,184.8 106.2,184.8 L119.7,184.8 C122.3,184.8 124.4,186.9 124.4,189.5 L124.4,203 C124.4,205.6 122.3,207.7 119.7,207.7 Z" id="Shape" fill="#8FB8A5"></path>
                    <path d="M48.2,253.2 L34.7,253.2 C32.1,253.2 30,251.1 30,248.5 L30,235 C30,232.4 32.1,230.3 34.7,230.3 L48.2,230.3 C50.8,230.3 52.9,232.4 52.9,235 L52.9,248.5 C52.9,251.1 50.8,253.2 48.2,253.2 Z" id="Shape" fill="#8FB8A5"></path>
                    <path d="M83.9,253.2 L70.4,253.2 C67.8,253.2 65.7,251.1 65.7,248.5 L65.7,235 C65.7,232.4 67.8,230.3 70.4,230.3 L83.9,230.3 C86.5,230.3 88.6,232.4 88.6,235 L88.6,248.5 C88.7,251.1 86.5,253.2 83.9,253.2 Z" id="Shape" fill="#8FB8A5"></path>
                    <path d="M119.7,253.2 L106.2,253.2 C103.6,253.2 101.5,251.1 101.5,248.5 L101.5,235 C101.5,232.4 103.6,230.3 106.2,230.3 L119.7,230.3 C122.3,230.3 124.4,232.4 124.4,235 L124.4,248.5 C124.4,251.1 122.3,253.2 119.7,253.2 Z" id="Shape" fill="#8FB8A5"></path>
                    <path d="M48.2,298.8 L34.7,298.8 C32.1,298.8 30,296.7 30,294.1 L30,280.6 C30,278 32.1,275.9 34.7,275.9 L48.2,275.9 C50.8,275.9 52.9,278 52.9,280.6 L52.9,294 C52.9,296.6 50.8,298.8 48.2,298.8 Z" id="Shape" fill="#8FB8A5"></path>
                    <path d="M83.9,298.8 L70.4,298.8 C67.8,298.8 65.7,296.7 65.7,294.1 L65.7,280.6 C65.7,278 67.8,275.9 70.4,275.9 L83.9,275.9 C86.5,275.9 88.6,278 88.6,280.6 L88.6,294 C88.7,296.6 86.5,298.8 83.9,298.8 Z" id="Shape" fill="#8FB8A5"></path>
                    <path d="M119.7,298.8 L106.2,298.8 C103.6,298.8 101.5,296.7 101.5,294.1 L101.5,280.6 C101.5,278 103.6,275.9 106.2,275.9 L119.7,275.9 C122.3,275.9 124.4,278 124.4,280.6 L124.4,294 C124.4,296.6 122.3,298.8 119.7,298.8 Z" id="Shape" fill="#8FB8A5"></path>
                    <rect id="Rectangle-path" fill="#8FB8A5" x="74.1" y="0.8" width="6.1" height="159"></rect>
                    <rect id="Rectangle-path" fill="#8FB8A5" x="50.4" y="1.3" width="6.1" height="159"></rect>
                    <rect id="Rectangle-path" fill="#8FB8A5" x="26.1" y="1.3" width="6.1" height="159"></rect>
                    <rect id="Rectangle-path" fill="#8FB8A5" x="122" y="1.3" width="6.1" height="159"></rect>
                    <rect id="Rectangle-path" fill="#8FB8A5" x="97.7" y="1.3" width="6.1" height="159"></rect>
                    <path d="M149.2,356.3 L5.2,356.3 C2.5,356.3 0.4,354.1 0.4,351.5 C0.4,348.8 2.6,346.7 5.2,346.7 L149.2,346.7 C151.9,346.7 154,348.9 154,351.5 C154.1,354.2 151.9,356.3 149.2,356.3 Z" id="Shape" fill="#DFD4B8"></path>
                    <path d="M88.7,346.6 L65.8,346.6 L65.8,322.4 C65.8,318.5 68.9,315.4 72.8,315.4 L81.7,315.4 C85.6,315.4 88.7,318.5 88.7,322.4 L88.7,346.6 Z" id="Shape" fill="#8FB8A5"></path>
                </g>
                <g transform="translate(573.000000, 488.000000)">
                    <path d="M2.1,74.1 L12.9,97.4 L126.8,97.4 L135.9,74.1 L135.9,61.2 C135.9,56.5 132.4,52.4 127.7,51.8 L71,44 L12,44 L4.8,50.8 C3.1,52.4 2.1,54.7 2.1,57.1 L2.1,74.1 Z" id="Shape" fill="#EEBF39"></path>
                    <path d="M12,44 L19.5,7 L64,7 L70.9,44 L65.2,64.2 C64.5,66.6 62.3,68.3 59.8,68.3 L21.3,68.3 C18.6,68.3 16.2,66.4 15.7,63.7 L12,44 Z" id="Shape" fill="#363636"></path>
                    <polygon id="Shape" fill="#C7A031" points="2.2 74.9 135.6 74.9 126.5 97.4 12.7 97.4"></polygon>
                    <path d="M113.3,116.7 L15.4,116.7 C6.9,116.7 0.1,109.8 0.1,101.4 C0.1,92.9 7,86.1 15.4,86.1 L113.3,86.1 C121.8,86.1 128.6,93 128.6,101.4 C128.6,109.9 121.7,116.7 113.3,116.7 Z" id="Shape" fill="#363636"></path>
                    <path d="M110.7,111.7 L18,111.7 C12.3,111.7 7.7,107.1 7.7,101.4 C7.7,95.7 12.3,91.1 18,91.1 L110.7,91.1 C116.4,91.1 121,95.7 121,101.4 C121,107.1 116.4,111.7 110.7,111.7 Z" id="Shape" fill="#555555"></path>
                    <circle id="Oval" fill="#EEBF39" cx="107.8" cy="101.4" r="8.8"></circle>
                    <circle id="Oval" fill="#EEBF39" cx="64.3" cy="101.4" r="8.8"></circle>
                    <circle id="Oval" fill="#EEBF39" cx="20.9" cy="101.4" r="8.8"></circle>
                    <path d="M66.1,7 L16.6,7 C14.9,7 13.5,5.6 13.5,3.9 C13.5,2.2 14.9,0.8 16.6,0.8 L66.1,0.8 C67.8,0.8 69.2,2.2 69.2,3.9 C69.2,5.6 67.8,7 66.1,7 Z" id="Shape" fill="#EEBF39"></path>
                    <path d="M57.6,12.7 L63.6,43.3 C63.7,43.7 63.7,44.2 63.5,44.6 L61,53.8 C60.6,55.1 59.5,56 58.2,56 L41.7,56 L41.7,10.3 L54.8,10.3 C56.1,10.3 57.3,11.3 57.6,12.7 Z" id="Shape" fill="#C8E6EB"></path>
                    <path d="M37.7,10.3 L28.4,10.3 C26.2,10.3 24.3,12.1 24.3,14.4 L24.3,52 C24.3,54.2 26.1,56.1 28.4,56.1 L37.7,56.1 L37.7,10.3 Z" id="Shape" fill="#C8E6EB"></path>
                    <path d="M130.4,73.6 L127.7,77.1 C127.3,77.7 126.4,77.8 125.9,77.4 L100.1,57.8 C98.6,56.6 98.3,54.4 99.4,52.9 C100.6,51.4 102.8,51.1 104.3,52.2 L130.1,71.8 C130.7,72.2 130.8,73 130.4,73.6 Z" id="Shape" fill="#363636"></path>
                    <rect id="Rectangle-path" fill="#CBCBCB" transform="translate(151.701780, 92.474260) rotate(-52.786332) translate(-151.701780, -92.474260) " x="150.60176" y="64.0237479" width="2.2000396" height="56.9010242"></rect>
                    <path d="M173,106.1 L68.3,106.1 C66.1,106.1 64.3,104.3 64.3,102.1 C64.3,99.9 66.1,98.1 68.3,98.1 L173,98.1 L173,106.1 Z" id="Shape" fill="#C7A031"></path>
                    <path d="M160.8,79.5 L160.8,111.9 C160.8,115.6 163.8,118.5 167.4,118.5 L195.1,118.5 C197,118.5 198,116.2 196.6,114.8 L185.4,103.4 C184.1,102.1 183.4,100.3 183.4,98.5 L183.4,92.8 C183.4,82.9 175.4,74.9 165.5,74.9 C162.9,74.9 160.8,77 160.8,79.5 Z" id="Shape" fill="#CBCBCB"></path>
                    <path d="M166.7,111.9 L166.7,79.5 C166.7,77.6 167.8,76.1 169.4,75.3 C168.1,75 166.8,74.9 165.5,74.9 C162.9,74.9 160.9,77 160.9,79.5 L160.9,111.9 C160.9,115.6 163.9,118.5 167.5,118.5 L173.4,118.5 C169.7,118.5 166.7,115.6 166.7,111.9 Z" id="Shape" fill="#BBBBBB"></path>
                </g>
                <g transform="translate(254.000000, 578.000000)">
                    <circle id="Oval" fill="#CBCBCB" cx="74.7" cy="159.6" r="52.6"></circle>
                    <path d="M343.9,179.7 L343.9,120.3 C343.9,120.3 348.5,85.7 221.6,85.7 L121.5,85.7 C117.8,85.7 114.3,87.7 112.5,90.9 L109.9,95.5 C107.7,99.3 108.2,104 111.1,107.3 L144.9,145.1 L144.9,179.7 L343.9,179.7 Z" id="Shape" fill="#EEBF39"></path>
                    <path d="M121.5,85.7 L131.7,12.3 C132.6,5.7 138.2,0.9 144.8,0.9 L212.9,0.9 C220.2,0.9 226.2,6.8 226.2,14.2 L226.2,85.7 L121.5,85.7 Z" id="Shape" fill="#363636"></path>
                    <path d="M140.4,14.2 L131.8,69.2 C131.3,72.7 134,75.9 137.5,75.9 L160.4,75.9 L160.4,9.4 L146.1,9.4 C143.3,9.3 140.9,11.4 140.4,14.2 Z" id="Shape" fill="#C8E6EB"></path>
                    <path d="M210.4,75.9 L166.2,75.9 L166.2,9.4 L210.4,9.4 C214,9.4 216.9,12.3 216.9,15.9 L216.9,69.4 C217,72.9 214,75.9 210.4,75.9 Z" id="Shape" fill="#C8E6EB"></path>
                    <circle id="Oval" fill="#BF9024" cx="74.7" cy="159.6" r="43.9"></circle>
                    <path d="M313.2,145.1 C304.7,129.4 288.1,118.7 268.9,118.7 C249.8,118.7 233.1,129.4 224.6,145.1 L144.8,145.1 L144.8,179.7 L219.7,179.7 L318,179.7 L343.9,179.7 L343.9,145.1 L313.2,145.1 Z" id="Shape" fill="#BF9024"></path>
                    <path d="M320.5,153.2 L320.5,173.3 C320.5,179.8 325.7,185 332.2,185 L345.2,185 C347.7,185 350.2,184.3 352.3,182.9 L365.7,174.2 C368.1,172.6 369.6,169.9 369.6,167.1 L369.6,153.7 C369.6,149 365.8,145.2 361.1,145.2 L328.6,145.2 C324.1,145.1 320.5,148.7 320.5,153.2 Z" id="Shape" fill="#363636"></path>
                    <path d="M166.1,183 L7.2,178.6 C3.2,178.5 0,175.2 0,171.2 L0,160 C0,156 3.2,152.7 7.2,152.6 L166.1,148.2 C169.3,148.1 172,150.7 172,153.9 L172,177.4 C171.9,180.5 169.3,183.1 166.1,183 Z" id="Shape" fill="#EEBF39"></path>
                    <circle id="Oval" fill="#BF9024" cx="74.7" cy="165" r="5.4"></circle>
                    <circle id="Oval" fill="#2E333B" cx="268.9" cy="169" r="43.2"></circle>
                    <circle id="Oval" fill="#EEBF39" cx="268.9" cy="169" r="21.4"></circle>
                    <path d="M195.5,136.9 L169.3,136.9 C167.4,136.9 165.7,135.7 165.2,133.9 L163.3,128.1 C162.4,125.3 164.5,122.4 167.4,122.4 L197.3,122.4 C200.3,122.4 202.4,125.3 201.4,128.1 L199.5,133.9 C199.1,135.7 197.4,136.9 195.5,136.9 Z" id="Shape" fill="#BF9024"></path>
                    <path d="M227.3,118.7 C226.7,118.7 226.1,118.2 226.1,117.5 L226.1,91.7 C226.1,91.1 226.6,90.5 227.3,90.5 C227.9,90.5 228.5,91 228.5,91.7 L228.5,117.5 C228.5,118.1 228,118.7 227.3,118.7 Z" id="Shape" fill="#DBAF35"></path>
                    <path d="M231.6,118.7 C231,118.7 230.4,118.2 230.4,117.5 L230.4,91.7 C230.4,91.1 230.9,90.5 231.6,90.5 C232.2,90.5 232.8,91 232.8,91.7 L232.8,117.5 C232.8,118.1 232.3,118.7 231.6,118.7 Z" id="Shape" fill="#DBAF35"></path>
                    <path d="M235.9,118.7 C235.3,118.7 234.7,118.2 234.7,117.5 L234.7,91.7 C234.7,91.1 235.2,90.5 235.9,90.5 C236.5,90.5 237.1,91 237.1,91.7 L237.1,117.5 C237.1,118.1 236.5,118.7 235.9,118.7 Z" id="Shape" fill="#DBAF35"></path>
                    <path d="M240.2,118.7 C239.6,118.7 239,118.2 239,117.5 L239,91.7 C239,91.1 239.5,90.5 240.2,90.5 C240.8,90.5 241.4,91 241.4,91.7 L241.4,117.5 C241.3,118.1 240.8,118.7 240.2,118.7 Z" id="Shape" fill="#DBAF35"></path>
                </g>
                <g transform="translate(6.000000, 430.000000)">
                    <path d="M138.3,109.2 L139.4,108.4 C139.8,108.1 140,107.5 139.6,107 L133.5,98.4 C133.2,98 132.6,97.8 132.1,98.2 L131,99 C130.6,99.3 130.4,99.9 130.8,100.4 L136.9,109 C137.3,109.4 137.9,109.5 138.3,109.2 Z" id="Shape" fill="#363636"></path>
                    <rect id="Rectangle-path" fill="#CBCBCB" transform="translate(129.678750, 95.991100) rotate(144.351756) translate(-129.678750, -95.991100) " x="129.128757" y="92.7911406" width="1.09998603" height="6.39991872"></rect>
                    <path d="M69.2,90.7 C71.1,90.7 72.7,92 73.1,93.8 L77.5,115.2 L57.4,115.2 L57.4,89.8 L69.2,90.7 Z" id="Shape" fill="#363636"></path>
                    <path d="M9.7,99.2 L13,96.1 L20.3,78.1 C21,76.3 22.8,75.1 24.8,75.1 L53,75.1 C55.4,75.1 57.4,77.1 57.4,79.5 L57.4,126.8 L13,126.8 L10.3,126.8 C8.3,126.8 6.7,125.2 6.7,123.2 L6.7,106.4 C6.6,103.6 7.7,101.1 9.7,99.2 Z" id="Shape" fill="#EEBF39"></path>
                    <path d="M51.2,81.6 L51.2,91 C51.2,92.4 50.1,93.5 48.7,93.5 L21.4,93.5 C19.7,93.5 18.4,91.7 19.1,90.1 L22.7,80.7 C23.1,79.7 24,79.1 25,79.1 L48.7,79.1 C50.1,79.1 51.2,80.2 51.2,81.6 Z" id="Shape" fill="#C8E6EB"></path>
                    <path d="M57,126.7 L183.8,126.7 L183.8,122.4 C183.8,121.3 182.9,120.5 181.9,120.5 L57,120.5 L57,126.7 Z" id="Shape" fill="#BF9024"></path>
                    <path d="M13.7,134.9 L179,134.9 C181.6,134.9 183.8,132.8 183.8,130.1 L183.8,126.7 L9.8,126.7 L9.8,131 C9.8,133.2 11.5,134.9 13.7,134.9 Z" id="Shape" fill="#363636"></path>
                    <path d="M181.2,117 L181.2,120.5 L57.3,120.5 L57.3,114.7 L176.8,114.7 C179.2,114.7 181.2,114.5 181.2,117 Z" id="Shape" fill="#AF8421"></path>
                    <path d="M9.7,99.2 L11.3,97.7 L57.4,97.7 L57.4,99.3 L9.6,99.3 C9.6,99.3 9.6,99.3 9.7,99.2 Z" id="Shape" fill="#BF9024"></path>
                    <path d="M47.6,119.2 C38.6,119.2 31.1,125.4 29.1,133.8 C28.5,136.4 26.2,138.2 23.6,138.2 C23.4,138.2 23.2,138 23.2,137.8 C23.4,124.5 34.3,113.8 47.6,113.8 C61,113.8 71.8,124.5 72,137.8 C72,138 71.8,138.2 71.6,138.2 C68.9,138.2 66.7,136.4 66.1,133.8 C64.1,125.5 56.6,119.2 47.6,119.2 Z" id="Shape" fill="#D3A933"></path>
                    <path d="M29.1,133.9 C31.1,125.5 38.6,119.3 47.6,119.3 C56.6,119.3 64.1,125.5 66.1,133.9 C66.2,134.3 66.3,134.6 66.5,135 L28.7,135 C28.9,134.6 29,134.2 29.1,133.9 Z" id="Shape" fill="#BF9024"></path>
                    <circle id="Oval" fill="#2E333B" cx="47.6" cy="138.3" r="17.4"></circle>
                    <circle id="Oval" fill="#EEBF39" cx="47.6" cy="138.3" r="6"></circle>
                    <path d="M15.5,126.2 L15.5,131.7 C15.5,134.7 13.1,137.2 10,137.2 L6.1,137.2 C3.1,137.2 0.7,134.8 0.7,131.8 L0.7,128 C0.7,125 3.1,122.6 6.1,122.6 L11.8,122.6 C13.8,122.6 15.5,124.2 15.5,126.2 Z" id="Shape" fill="#CBCBCB"></path>
                    <path d="M121.3,113.8 L162.6,113.8 C176,113.8 186.8,124.5 187,137.8 C187,138 186.8,138.2 186.6,138.2 C183.9,138.2 181.7,136.4 181.1,133.8 C179.1,125.4 171.6,119.2 162.6,119.2 L162.6,119.3 L121.3,119.3 L121.3,119.2 C112.3,119.2 104.8,125.4 102.8,133.8 C102.2,136.4 99.9,138.2 97.3,138.2 C97.1,138.2 96.9,138 96.9,137.8 C97,124.6 107.9,113.8 121.3,113.8 Z" id="Shape" fill="#D3A933"></path>
                    <path d="M102.7,133.9 C104.7,125.5 112.2,119.3 121.2,119.3 L121.2,119.4 L162.5,119.4 L162.5,119.3 C171.5,119.3 179,125.5 181,133.9 C181.1,134.3 181.2,134.6 181.4,135 L102.3,135 C102.5,134.6 102.7,134.2 102.7,133.9 Z" id="Shape" fill="#AF8421"></path>
                    <circle id="Oval" fill="#2E333B" cx="122.4" cy="138.3" r="17.4"></circle>
                    <circle id="Oval" fill="#EEBF39" cx="122.4" cy="138.3" r="6"></circle>
                    <circle id="Oval" fill="#2E333B" cx="161.9" cy="138.3" r="17.4"></circle>
                    <circle id="Oval" fill="#EEBF39" cx="161.9" cy="138.3" r="6"></circle>
                    <path d="M136.9,113.8 L163.9,113.8 L163.9,110 C163.9,108.2 162.4,106.7 160.6,106.7 L140.2,106.7 C138.4,106.7 136.9,108.2 136.9,110 L136.9,113.8 Z" id="Shape" fill="#AF8421"></path>
                    <g transform="translate(53.000000, 0.000000)" id="Shape">
                        <path d="M116.9,111.2 L25.1,73.3 C22.5,72.2 21,69.6 21.2,66.8 L25.5,22.7 C25.8,19.7 24.1,16.9 21.3,15.8 L2.9,8.2 C1.5,7.6 0.5,6.2 0.5,4.7 C0.5,2.4 2.5,0.6 4.8,0.9 L29.8,3.7 C30.8,3.8 31.8,4.1 32.6,4.7 L154.7,78.6 C157.1,80.1 157.9,83.3 156.3,85.7 L145,102.9 L126.7,111.2 C123.7,112.5 120.1,112.5 116.9,111.2 Z" fill="#EEBF39"></path>
                        <path d="M31.1,68.8 L44.8,35.6 C45.1,34.8 44.8,34 44,33.7 L43.8,33.6 C43,33.3 42.2,33.6 41.9,34.4 L28.2,67.6 C27.9,68.4 28.2,69.2 29,69.5 L29.2,69.6 C29.9,69.9 30.8,69.5 31.1,68.8 Z" fill="#CEA533"></path>
                        <path d="M47,75.3 L60.7,42.1 C61,41.3 60.7,40.5 59.9,40.2 L59.7,40.1 C58.9,39.8 58.1,40.1 57.8,40.9 L44,74.1 C43.7,74.9 44,75.7 44.8,76 L45,76.1 C45.8,76.4 46.7,76 47,75.3 Z" fill="#CEA533"></path>
                        <path d="M62.8,81.8 L76.5,48.6 C76.8,47.8 76.5,47 75.7,46.7 L75.5,46.6 C74.7,46.3 73.9,46.6 73.6,47.4 L59.9,80.6 C59.6,81.4 59.9,82.2 60.7,82.5 L60.9,82.6 C61.7,82.9 62.5,82.6 62.8,81.8 Z" fill="#CEA533"></path>
                        <path d="M78.7,88.4 L92.4,55.2 C92.7,54.4 92.4,53.6 91.6,53.3 L91.4,53.2 C90.6,52.9 89.8,53.2 89.5,54 L75.8,87.2 C75.5,88 75.8,88.8 76.6,89.1 L76.8,89.2 C77.5,89.5 78.4,89.1 78.7,88.4 Z" fill="#CEA533"></path>
                        <path d="M94.6,94.9 L108.3,61.7 C108.6,60.9 108.3,60.1 107.5,59.8 L107.3,59.7 C106.5,59.4 105.7,59.7 105.4,60.5 L91.7,93.7 C91.4,94.5 91.7,95.3 92.5,95.6 L92.7,95.7 C93.4,96 94.2,95.7 94.6,94.9 Z" fill="#CEA533"></path>
                        <path d="M110.4,101.5 L124.1,68.3 C124.4,67.5 124.1,66.7 123.3,66.4 L123.1,66.3 C122.3,66 121.5,66.3 121.2,67.1 L107.5,100.3 C107.2,101.1 107.5,101.9 108.3,102.2 L108.5,102.3 C109.2,102.6 110.1,102.2 110.4,101.5 Z" fill="#CEA533"></path>
                        <path d="M126.3,108 L140,74.8 C140.3,74 140,73.2 139.2,72.9 L139,72.8 C138.2,72.5 137.4,72.8 137.1,73.6 L123.4,106.8 C123.1,107.6 123.4,108.4 124.2,108.7 L124.4,108.8 C125.1,109.1 126,108.8 126.3,108 Z" fill="#CEA533"></path>
                    </g>
                    <path d="M41.1,104.8 L45.3,104.8 C45.9,104.8 46.4,104.3 46.4,103.7 C46.4,103.1 45.9,102.6 45.3,102.6 L41.1,102.6 C40.5,102.6 40,103.1 40,103.7 C40,104.3 40.5,104.8 41.1,104.8 Z" id="Shape" fill="#BF9024"></path>
                </g>
                <g transform="translate(173.000000, 0.000000)">
                    <path d="M47,67 C46.5,67 45.9,66.7 45.7,66.2 C45.3,65.5 45.6,64.6 46.4,64.2 L168.5,2 C168.8,1.9 169.1,1.8 169.4,1.9 L385.7,37 C386.5,37.1 387.1,37.9 386.9,38.7 C386.8,39.5 386,40.1 385.2,39.9 L169.4,4.9 L47.6,66.9 C47.4,67 47.2,67 47,67 Z" id="Shape" fill="#446470"></path>
                    <rect id="Rectangle-path" fill="#EEBF39" x="62.3" y="63.5" width="104.6" height="14.1"></rect>
                    <path d="M69,85.2 L16.6,85.2 C7.9,85.2 0.9,78.2 0.9,69.5 L0.9,63.9 C0.9,61.3 3,59.3 5.5,59.3 L80.1,59.3 C82.7,59.3 84.7,61.4 84.7,63.9 L84.7,69.5 C84.7,78.1 77.7,85.2 69,85.2 Z" id="Shape" fill="#DC943A"></path>
                    <path d="M167.4,12.5 C167.7,10.8 170.2,10.8 170.5,12.5 L180.2,67.4 L183.7,67.4 L171.2,2.5 C170.7,-1.11022302e-16 167.2,-1.11022302e-16 166.7,2.5 L154.2,67.4 L157.7,67.4 L167.4,12.5 Z" id="Shape" fill="#EEBF39"></path>
                    <path d="M149.5,72.2 L149.5,113.3 L184.4,113.3 L184.4,72.2 L149.5,72.2 Z M181.1,109.4 L152.7,109.4 L152.7,76 L181.1,76 L181.1,109.4 Z" id="Shape" fill="#EEBF39"></path>
                    <g transform="translate(153.000000, 155.000000)" fill="#DC943A" id="Shape">
                        <path d="M28.1,27.4 C28.1,27.3 28,27.1 27.8,27.1 L3.4,18.6 L27.8,10.1 C28,10 28.1,9.9 28.1,9.8 C28.1,9.7 28,9.5 27.8,9.5 L2.5,0.7 C2.1,0.6 1.6,0.6 1.4,0.8 C1.2,1 1.2,1.2 1.6,1.4 L26,9.9 L1.6,18.4 C1.6,18.4 1.5,18.4 1.5,18.5 C1.5,18.5 1.4,18.5 1.4,18.6 C1.4,18.6 1.4,18.6 1.4,18.6 C1.4,18.6 1.4,18.6 1.3,18.7 C1.3,18.7 1.3,18.8 1.3,18.8 C1.3,18.8 1.3,18.8 1.3,18.8 C1.3,18.8 1.3,18.8 1.3,18.8 C1.3,18.9 1.4,19 1.6,19.1 L26,27.6 L1.6,36.1 C1.6,36.1 1.6,36.1 1.5,36.1 C1.5,36.1 1.4,36.1 1.4,36.2 C1.4,36.2 1.4,36.2 1.4,36.2 C1.4,36.2 1.4,36.2 1.3,36.3 C1.3,36.3 1.3,36.4 1.2,36.4 C1.2,36.4 1.2,36.4 1.2,36.4 C1.2,36.4 1.2,36.4 1.2,36.4 C1.2,36.5 1.2,36.5 1.3,36.6 C1.3,36.6 1.3,36.6 1.3,36.6 C1.3,36.6 1.3,36.6 1.4,36.6 C1.4,36.6 1.5,36.7 1.5,36.7 L25.9,45.2 L1.5,53.7 C1.5,53.7 1.5,53.7 1.4,53.7 C1.4,53.7 1.3,53.7 1.3,53.8 C1.3,53.8 1.3,53.8 1.3,53.8 C1.3,53.8 1.3,53.8 1.2,53.9 C1.2,53.9 1.2,54 1.1,54 C1.1,54 1.1,54 1.1,54 C1.1,54 1.1,54 1.1,54 C1.1,54.1 1.1,54.1 1.2,54.2 C1.2,54.2 1.2,54.2 1.2,54.2 C1.2,54.2 1.2,54.2 1.3,54.2 C1.3,54.2 1.4,54.3 1.4,54.3 L25.8,62.8 L1.4,71.3 C1.4,71.3 1.4,71.3 1.3,71.3 C1.3,71.3 1.2,71.3 1.2,71.4 C1.2,71.4 1.2,71.4 1.2,71.4 C1.2,71.4 1.2,71.4 1.1,71.5 C1.1,71.5 1.1,71.6 1,71.6 C1,71.6 1,71.6 1,71.6 C1,71.6 1,71.6 1,71.6 C1,71.7 1,71.7 1.1,71.8 C1.1,71.8 1.1,71.8 1.1,71.8 C1.1,71.8 1.1,71.8 1.2,71.8 C1.2,71.8 1.3,71.9 1.3,71.9 L25.7,80.4 L1.3,88.9 C1.3,88.9 1.3,88.9 1.2,88.9 C1.2,88.9 1.1,88.9 1.1,89 C1.1,89 1.1,89 1.1,89 C1.1,89 1.1,89 1,89.1 C1,89.1 1,89.2 0.9,89.2 C0.9,89.2 0.9,89.2 0.9,89.2 C0.9,89.2 0.9,89.2 0.9,89.2 C0.9,89.3 0.9,89.3 1,89.4 C1,89.4 1,89.4 1,89.4 C1,89.4 1,89.4 1.1,89.4 C1.1,89.4 1.2,89.5 1.2,89.5 L25.6,98 L1.2,106.5 C1.2,106.5 1.2,106.5 1.1,106.5 C1.1,106.5 1,106.5 1,106.6 C1,106.6 1,106.6 1,106.6 C1,106.6 1,106.6 0.9,106.7 C0.9,106.7 0.9,106.8 0.8,106.8 C0.8,106.8 0.8,106.8 0.8,106.8 C0.8,106.8 0.8,106.8 0.8,106.8 C0.8,106.9 0.8,106.9 0.9,107 C0.9,107 0.9,107 0.9,107 C0.9,107 0.9,107 1,107 C1,107 1.1,107.1 1.1,107.1 L25.5,115.6 L1.1,124.1 C0.9,124.2 0.8,124.3 0.8,124.4 C0.8,124.5 0.8,124.6 0.9,124.6 C1.2,124.8 1.6,124.8 2,124.7 L27.3,115.9 C27.5,115.8 27.6,115.7 27.6,115.6 C27.6,115.5 27.5,115.3 27.3,115.3 L2.9,106.8 L27.3,98.3 C27.5,98.2 27.6,98.1 27.6,98 C27.6,97.9 27.5,97.7 27.3,97.7 L2.9,89.2 L27.3,80.7 C27.5,80.6 27.6,80.5 27.6,80.4 C27.6,80.3 27.5,80.1 27.3,80.1 L2.9,71.6 L27.3,63.1 C27.5,63 27.6,62.9 27.6,62.8 C27.6,62.7 27.5,62.5 27.3,62.5 L2.9,54 L27.3,45.5 C27.5,45.4 27.6,45.3 27.6,45.2 C27.6,45.1 27.5,44.9 27.3,44.9 L2.9,36.4 L27.3,27.9 C28,27.7 28.1,27.6 28.1,27.4 Z"></path>
                        <path d="M28.1,133.6 C28.1,133.5 28,133.3 27.8,133.3 L2.5,124.5 C2.1,124.4 1.6,124.4 1.4,124.6 C1.1,124.8 1.2,125 1.6,125.2 L26,133.7 L1.6,142.2 C1.6,142.2 1.5,142.2 1.5,142.3 C1.5,142.3 1.4,142.3 1.4,142.4 C1.4,142.4 1.4,142.4 1.4,142.4 C1.4,142.4 1.4,142.4 1.3,142.5 C1.3,142.5 1.3,142.6 1.3,142.6 C1.3,142.6 1.3,142.6 1.3,142.6 C1.3,142.6 1.3,142.6 1.3,142.6 C1.3,142.7 1.4,142.8 1.6,142.9 L26,151.4 L1.6,159.9 C1.6,159.9 1.6,159.9 1.5,159.9 C1.5,159.9 1.4,159.9 1.4,160 C1.4,160 1.4,160 1.4,160 C1.4,160 1.4,160 1.3,160.1 C1.3,160.1 1.3,160.2 1.2,160.2 C1.2,160.2 1.2,160.2 1.2,160.2 C1.2,160.2 1.2,160.2 1.2,160.2 C1.2,160.3 1.2,160.3 1.3,160.4 C1.3,160.4 1.3,160.4 1.3,160.4 C1.3,160.4 1.3,160.4 1.4,160.4 C1.4,160.4 1.5,160.5 1.5,160.5 L25.9,169 L1.5,177.5 C1.5,177.5 1.5,177.5 1.4,177.5 C1.4,177.5 1.3,177.5 1.3,177.6 C1.3,177.6 1.3,177.6 1.3,177.6 C1.3,177.6 1.3,177.6 1.2,177.7 C1.2,177.7 1.2,177.8 1.1,177.8 C1.1,177.8 1.1,177.8 1.1,177.8 C1.1,177.8 1.1,177.8 1.1,177.8 C1.1,177.9 1.1,177.9 1.2,178 C1.2,178 1.2,178 1.2,178 C1.2,178 1.2,178 1.3,178 C1.3,178 1.4,178.1 1.4,178.1 L25.8,186.6 L1.4,195.1 C1.4,195.1 1.4,195.1 1.3,195.1 C1.3,195.1 1.2,195.1 1.2,195.2 C1.2,195.2 1.2,195.2 1.2,195.2 C1.2,195.2 1.2,195.2 1.1,195.3 C1.1,195.3 1.1,195.4 1,195.4 C1,195.4 1,195.4 1,195.4 C1,195.4 1,195.4 1,195.4 C1,195.5 1,195.5 1.1,195.6 C1.1,195.6 1.1,195.6 1.1,195.6 C1.1,195.6 1.1,195.6 1.2,195.6 C1.2,195.6 1.3,195.7 1.3,195.7 L25.7,204.2 L1.3,212.7 C1.3,212.7 1.3,212.7 1.2,212.7 C1.2,212.7 1.1,212.7 1.1,212.8 C1.1,212.8 1.1,212.8 1.1,212.8 C1.1,212.8 1.1,212.8 1,212.9 C1,212.9 1,213 0.9,213 C0.9,213 0.9,213 0.9,213 C0.9,213 0.9,213 0.9,213 C0.9,213.1 0.9,213.1 1,213.2 C1,213.2 1,213.2 1,213.2 C1,213.2 1,213.2 1.1,213.2 C1.1,213.2 1.2,213.3 1.2,213.3 L25.6,221.8 L1.2,230.3 C1.2,230.3 1.2,230.3 1.1,230.3 C1.1,230.3 1,230.3 1,230.4 C1,230.4 1,230.4 1,230.4 C1,230.4 1,230.4 0.9,230.5 C0.9,230.5 0.9,230.6 0.8,230.6 C0.8,230.6 0.8,230.6 0.8,230.6 C0.8,230.6 0.8,230.6 0.8,230.6 C0.8,230.7 0.8,230.7 0.9,230.8 C0.9,230.8 0.9,230.8 0.9,230.8 C0.9,230.8 0.9,230.8 1,230.8 C1,230.8 1.1,230.9 1.1,230.9 L25.5,239.4 L1.1,247.9 C0.9,248 0.8,248.1 0.8,248.2 C0.8,248.2 0.8,248.2 0.8,248.2 C0.7,248.4 0.8,248.5 1.1,248.6 L25.5,257.1 L1.1,265.6 C1.1,265.6 1.1,265.6 1,265.6 C1,265.6 0.9,265.6 0.9,265.7 C0.9,265.7 0.9,265.7 0.9,265.7 C0.9,265.7 0.9,265.7 0.8,265.8 C0.8,265.8 0.8,265.9 0.7,265.9 C0.7,265.9 0.7,265.9 0.7,265.9 C0.7,265.9 0.7,265.9 0.7,265.9 C0.7,266 0.7,266 0.8,266.1 C0.8,266.1 0.8,266.1 0.8,266.1 C0.8,266.1 0.8,266.1 0.9,266.1 C0.9,266.1 1,266.2 1,266.2 L25.4,274.7 L1,283.2 C1,283.2 1,283.2 0.9,283.2 C0.9,283.2 0.8,283.2 0.8,283.3 C0.8,283.3 0.8,283.3 0.8,283.3 C0.8,283.3 0.8,283.3 0.7,283.4 C0.7,283.4 0.7,283.5 0.6,283.5 C0.6,283.5 0.6,283.5 0.6,283.5 C0.6,283.5 0.6,283.5 0.6,283.5 C0.6,283.6 0.6,283.6 0.7,283.7 C0.7,283.7 0.7,283.7 0.7,283.7 C0.7,283.7 0.7,283.7 0.8,283.7 C0.8,283.7 0.9,283.8 0.9,283.8 L25.3,292.3 L0.9,300.8 C0.9,300.8 0.9,300.8 0.8,300.8 C0.8,300.8 0.7,300.8 0.7,300.9 C0.7,300.9 0.7,300.9 0.7,300.9 C0.7,300.9 0.7,300.9 0.6,301 C0.6,301 0.6,301.1 0.5,301.1 C0.5,301.1 0.5,301.1 0.5,301.1 C0.5,301.1 0.5,301.1 0.5,301.1 C0.5,301.2 0.5,301.2 0.6,301.3 C0.6,301.3 0.6,301.3 0.6,301.3 C0.6,301.3 0.6,301.3 0.7,301.3 C0.7,301.3 0.8,301.4 0.8,301.4 L25.2,309.9 L0.8,318.4 C0.6,318.5 0.5,318.6 0.5,318.7 C0.5,318.8 0.5,318.9 0.6,318.9 C0.9,319.1 1.3,319.1 1.7,319 L27,310.2 C27.2,310.1 27.3,310 27.3,309.9 C27.3,309.8 27.2,309.6 27,309.6 L2.6,301.1 L27,292.6 C27.2,292.5 27.3,292.4 27.3,292.3 C27.3,292.2 27.2,292 27,292 L2.6,283.5 L27,275 C27.2,274.9 27.3,274.8 27.3,274.7 C27.3,274.6 27.2,274.4 27,274.4 L2.6,265.9 L27,257.4 C27.2,257.3 27.3,257.2 27.3,257.1 C27.3,257 27.2,256.8 27,256.8 L2.4,248.3 L27,239.8 C27.2,239.7 27.3,239.6 27.3,239.5 C27.3,239.4 27.2,239.2 27,239.2 L2.6,230.7 L27,222.2 C27.2,222.1 27.3,222 27.3,221.9 C27.3,221.8 27.2,221.6 27,221.6 L2.6,213.1 L27,204.6 C27.2,204.5 27.3,204.4 27.3,204.3 C27.3,204.2 27.2,204 27,204 L2.6,195.5 L27,187 C27.2,186.9 27.3,186.8 27.3,186.7 C27.3,186.6 27.2,186.4 27,186.4 L2.6,177.9 L27,169.4 C27.2,169.3 27.3,169.2 27.3,169.1 C27.3,169 27.2,168.8 27,168.8 L2.6,160.3 L27,151.8 C27.2,151.7 27.3,151.6 27.3,151.5 C27.3,151.4 27.2,151.2 27,151.2 L2.6,142.7 L27,134.2 C28,133.9 28.1,133.8 28.1,133.6 Z"></path>
                    </g>
                    <g transform="translate(183.000000, 40.000000)" fill="#9B6B2C" id="Shape">
                        <path d="M292.5,0.5 C292.6,0.5 292.8,0.6 292.8,0.8 L301.3,25.2 L309.8,0.8 C309.9,0.6 310,0.5 310.1,0.5 C310.2,0.5 310.4,0.6 310.4,0.8 L319.2,26.1 C319.3,26.5 319.3,27 319.1,27.2 C318.9,27.5 318.7,27.4 318.5,27 L310,2.6 L301.5,27 C301.5,27 301.5,27.1 301.4,27.1 C301.4,27.1 301.4,27.2 301.3,27.2 C301.3,27.2 301.3,27.2 301.3,27.2 C301.3,27.2 301.3,27.2 301.2,27.3 C301.2,27.3 301.1,27.3 301.1,27.3 C301.1,27.3 301.1,27.3 301.1,27.3 C301.1,27.3 301.1,27.3 301.1,27.3 C301,27.3 300.9,27.2 300.8,27 L292.3,2.6 L283.8,27 C283.8,27 283.8,27 283.8,27.1 C283.8,27.1 283.8,27.2 283.7,27.2 C283.7,27.2 283.7,27.2 283.7,27.2 C283.7,27.2 283.7,27.2 283.6,27.3 C283.6,27.3 283.5,27.3 283.5,27.4 C283.5,27.4 283.5,27.4 283.5,27.4 C283.5,27.4 283.5,27.4 283.5,27.4 C283.4,27.4 283.4,27.4 283.3,27.3 C283.3,27.3 283.3,27.3 283.3,27.3 C283.3,27.3 283.3,27.3 283.3,27.2 C283.3,27.2 283.2,27.1 283.2,27.1 L274.7,2.7 L266.2,27.1 C266.2,27.1 266.2,27.1 266.2,27.2 C266.2,27.2 266.2,27.3 266.1,27.3 C266.1,27.3 266.1,27.3 266.1,27.3 C266.1,27.3 266.1,27.3 266,27.4 C266,27.4 265.9,27.4 265.9,27.5 C265.9,27.5 265.9,27.5 265.9,27.5 C265.9,27.5 265.9,27.5 265.9,27.5 C265.8,27.5 265.8,27.5 265.7,27.4 C265.7,27.4 265.7,27.4 265.7,27.4 C265.7,27.4 265.7,27.4 265.7,27.3 C265.7,27.3 265.6,27.2 265.6,27.2 L257.1,2.8 L248.6,27.2 C248.6,27.2 248.6,27.2 248.6,27.3 C248.6,27.3 248.6,27.4 248.5,27.4 C248.5,27.4 248.5,27.4 248.5,27.4 C248.5,27.4 248.5,27.4 248.4,27.5 C248.4,27.5 248.3,27.5 248.3,27.6 C248.3,27.6 248.3,27.6 248.3,27.6 C248.3,27.6 248.3,27.6 248.3,27.6 C248.2,27.6 248.2,27.6 248.1,27.5 C248.1,27.5 248.1,27.5 248.1,27.5 C248.1,27.5 248.1,27.5 248.1,27.4 C248.1,27.4 248,27.3 248,27.3 L239.5,2.9 L231,27.3 C231,27.3 231,27.3 231,27.4 C231,27.4 231,27.5 230.9,27.5 C230.9,27.5 230.9,27.5 230.9,27.5 C230.9,27.5 230.9,27.5 230.8,27.6 C230.8,27.6 230.7,27.6 230.7,27.7 C230.7,27.7 230.7,27.7 230.7,27.7 C230.7,27.7 230.7,27.7 230.7,27.7 C230.6,27.7 230.6,27.7 230.5,27.6 C230.5,27.6 230.5,27.6 230.5,27.6 C230.5,27.6 230.5,27.6 230.5,27.5 C230.5,27.5 230.4,27.4 230.4,27.4 L221.9,3 L213.4,27.4 C213.4,27.4 213.4,27.4 213.4,27.5 C213.4,27.5 213.4,27.6 213.3,27.6 C213.3,27.6 213.3,27.6 213.3,27.6 C213.3,27.6 213.3,27.6 213.2,27.7 C213.2,27.7 213.1,27.7 213.1,27.8 C213.1,27.8 213.1,27.8 213.1,27.8 C213.1,27.8 213.1,27.8 213.1,27.8 C213,27.8 213,27.8 212.9,27.7 C212.9,27.7 212.9,27.7 212.9,27.7 C212.9,27.7 212.9,27.7 212.9,27.6 C212.9,27.6 212.8,27.5 212.8,27.5 L204.3,3.1 L195.8,27.5 C195.7,27.7 195.6,27.8 195.5,27.8 C195.4,27.8 195.3,27.8 195.3,27.7 C195.1,27.4 195.1,27 195.2,26.6 L204,1.3 C204.1,1.1 204.2,1 204.3,1 C204.4,1 204.6,1.1 204.6,1.3 L213.1,25.7 L221.6,1.3 C221.7,1.1 221.8,1 221.9,1 C222,1 222.2,1.1 222.2,1.3 L230.7,25.7 L239.2,1.3 C239.3,1.1 239.4,1 239.5,1 C239.6,1 239.8,1.1 239.8,1.3 L248.3,25.7 L256.8,1.3 C256.9,1.1 257,1 257.1,1 C257.2,1 257.4,1.1 257.4,1.3 L265.9,25.7 L274.4,1.3 C274.5,1.1 274.6,1 274.7,1 C274.8,1 275,1.1 275,1.3 L283.5,25.7 L292,1.3 C292.3,0.6 292.4,0.5 292.5,0.5 Z"></path>
                        <path d="M186.3,0.5 C186.4,0.5 186.6,0.6 186.6,0.8 L195.4,26.1 C195.5,26.5 195.5,27 195.3,27.2 C195.1,27.5 194.9,27.4 194.7,27 L186.2,2.6 L177.7,27 C177.7,27 177.7,27.1 177.6,27.1 C177.6,27.1 177.6,27.2 177.5,27.2 C177.5,27.2 177.5,27.2 177.5,27.2 C177.5,27.2 177.5,27.2 177.4,27.3 C177.4,27.3 177.3,27.3 177.3,27.3 C177.3,27.3 177.3,27.3 177.3,27.3 C177.3,27.3 177.3,27.3 177.3,27.3 C177.2,27.3 177.1,27.2 177,27 L168.5,2.6 L160,27 C160,27 160,27 160,27.1 C160,27.1 160,27.2 159.9,27.2 C159.9,27.2 159.9,27.2 159.9,27.2 C159.9,27.2 159.9,27.2 159.8,27.3 C159.8,27.3 159.7,27.3 159.7,27.4 C159.7,27.4 159.7,27.4 159.7,27.4 C159.7,27.4 159.7,27.4 159.7,27.4 C159.6,27.4 159.6,27.4 159.5,27.3 C159.5,27.3 159.5,27.3 159.5,27.3 C159.5,27.3 159.5,27.3 159.5,27.2 C159.5,27.2 159.4,27.1 159.4,27.1 L150.9,2.7 L142.4,27.1 C142.4,27.1 142.4,27.1 142.4,27.2 C142.4,27.2 142.4,27.3 142.3,27.3 C142.3,27.3 142.3,27.3 142.3,27.3 C142.3,27.3 142.3,27.3 142.2,27.4 C142.2,27.4 142.1,27.4 142.1,27.5 C142.1,27.5 142.1,27.5 142.1,27.5 C142.1,27.5 142.1,27.5 142.1,27.5 C142,27.5 142,27.5 141.9,27.4 C141.9,27.4 141.9,27.4 141.9,27.4 C141.9,27.4 141.9,27.4 141.9,27.3 C141.9,27.3 141.8,27.2 141.8,27.2 L133.3,2.8 L124.8,27.2 C124.8,27.2 124.8,27.2 124.8,27.3 C124.8,27.3 124.8,27.4 124.7,27.4 C124.7,27.4 124.7,27.4 124.7,27.4 C124.7,27.4 124.7,27.4 124.6,27.5 C124.6,27.5 124.5,27.5 124.5,27.6 C124.5,27.6 124.5,27.6 124.5,27.6 C124.5,27.6 124.5,27.6 124.5,27.6 C124.4,27.6 124.4,27.6 124.3,27.5 C124.3,27.5 124.3,27.5 124.3,27.5 C124.3,27.5 124.3,27.5 124.3,27.4 C124.3,27.4 124.2,27.3 124.2,27.3 L115.7,2.9 L107.2,27.3 C107.2,27.3 107.2,27.3 107.2,27.4 C107.2,27.4 107.2,27.5 107.1,27.5 C107.1,27.5 107.1,27.5 107.1,27.5 C107.1,27.5 107.1,27.5 107,27.6 C107,27.6 106.9,27.6 106.9,27.7 C106.9,27.7 106.9,27.7 106.9,27.7 C106.9,27.7 106.9,27.7 106.9,27.7 C106.8,27.7 106.8,27.7 106.7,27.6 C106.7,27.6 106.7,27.6 106.7,27.6 C106.7,27.6 106.7,27.6 106.7,27.5 C106.7,27.5 106.6,27.4 106.6,27.4 L98.1,3 L89.6,27.4 C89.6,27.4 89.6,27.4 89.6,27.5 C89.6,27.5 89.6,27.6 89.5,27.6 C89.5,27.6 89.5,27.6 89.5,27.6 C89.5,27.6 89.5,27.6 89.4,27.7 C89.4,27.7 89.3,27.7 89.3,27.8 C89.3,27.8 89.3,27.8 89.3,27.8 C89.3,27.8 89.3,27.8 89.3,27.8 C89.2,27.8 89.2,27.8 89.1,27.7 C89.1,27.7 89.1,27.7 89.1,27.7 C89.1,27.7 89.1,27.7 89.1,27.6 C89.1,27.6 89,27.5 89,27.5 L80.5,3.1 L72,27.5 C71.9,27.7 71.8,27.8 71.7,27.8 C71.7,27.8 71.7,27.8 71.7,27.8 C71.5,27.9 71.4,27.8 71.3,27.5 L62.8,3.1 L54.3,27.5 C54.3,27.5 54.3,27.5 54.3,27.6 C54.3,27.6 54.3,27.7 54.2,27.7 C54.2,27.7 54.2,27.7 54.2,27.7 C54.2,27.7 54.2,27.7 54.1,27.8 C54.1,27.8 54,27.8 54,27.9 C54,27.9 54,27.9 54,27.9 C54,27.9 54,27.9 54,27.9 C53.9,27.9 53.9,27.9 53.8,27.8 C53.8,27.8 53.8,27.8 53.8,27.8 C53.8,27.8 53.8,27.8 53.8,27.7 C53.8,27.7 53.7,27.6 53.7,27.6 L45.2,3.2 L36.7,27.6 C36.7,27.6 36.7,27.6 36.7,27.7 C36.7,27.7 36.7,27.8 36.6,27.8 C36.6,27.8 36.6,27.8 36.6,27.8 C36.6,27.8 36.6,27.8 36.5,27.9 C36.5,27.9 36.4,27.9 36.4,28 C36.4,28 36.4,28 36.4,28 C36.4,28 36.4,28 36.4,28 C36.3,28 36.3,28 36.2,27.9 C36.2,27.9 36.2,27.9 36.2,27.9 C36.2,27.9 36.2,27.9 36.2,27.8 C36.2,27.8 36.1,27.7 36.1,27.7 L27.6,3.3 L19.1,27.7 C19.1,27.7 19.1,27.7 19.1,27.8 C19.1,27.8 19.1,27.9 19,27.9 C19,27.9 19,27.9 19,27.9 C19,27.9 19,27.9 18.9,28 C18.9,28 18.8,28 18.8,28.1 C18.8,28.1 18.8,28.1 18.8,28.1 C18.8,28.1 18.8,28.1 18.8,28.1 C18.7,28.1 18.7,28.1 18.6,28 C18.6,28 18.6,28 18.6,28 C18.6,28 18.6,28 18.6,27.9 C18.6,27.9 18.5,27.8 18.5,27.8 L10,3.4 L1.5,27.8 C1.4,28 1.3,28.1 1.2,28.1 C1.1,28.1 1,28.1 1,28 C0.8,27.7 0.8,27.3 0.9,26.9 L9.7,1.6 C9.8,1.4 9.9,1.3 10,1.3 C10.1,1.3 10.3,1.4 10.3,1.6 L18.8,26 L27.3,1.6 C27.4,1.4 27.5,1.3 27.6,1.3 C27.7,1.3 27.9,1.4 27.9,1.6 L36.4,26 L44.9,1.6 C45,1.4 45.1,1.3 45.2,1.3 C45.3,1.3 45.5,1.4 45.5,1.6 L54,26 L62.5,1.6 C62.6,1.4 62.7,1.3 62.8,1.3 C62.9,1.3 63.1,1.4 63.1,1.6 L71.6,26.2 L80.1,1.6 C80.2,1.4 80.3,1.3 80.4,1.3 C80.5,1.3 80.7,1.4 80.7,1.6 L89.2,26 L97.7,1.6 C97.8,1.4 97.9,1.3 98,1.3 C98.1,1.3 98.3,1.4 98.3,1.6 L106.8,26 L115.3,1.6 C115.4,1.4 115.5,1.3 115.6,1.3 C115.7,1.3 115.9,1.4 115.9,1.6 L124.4,26 L132.9,1.6 C133,1.4 133.1,1.3 133.2,1.3 C133.3,1.3 133.5,1.4 133.5,1.6 L142,26 L150.5,1.6 C150.6,1.4 150.7,1.3 150.8,1.3 C150.9,1.3 151.1,1.4 151.1,1.6 L159.6,26 L168.1,1.6 C168.2,1.4 168.3,1.3 168.4,1.3 C168.5,1.3 168.7,1.4 168.7,1.6 L177.2,26 L185.7,1.6 C186.1,0.6 186.2,0.5 186.3,0.5 Z"></path>
                    </g>
                    <path d="M151,153.1 L151,476.3 L184.4,476.3 L184.4,153.1 L151,153.1 Z M180.2,469.7 L155.2,469.7 L155.2,159.6 L180.2,159.6 L180.2,469.7 Z" id="Shape" fill="#EEBF39"></path>
                    <rect id="Rectangle-path" fill="#EEBF39" x="154.2" y="172.8" width="27.5" height="1.2"></rect>
                    <rect id="Rectangle-path" fill="#EEBF39" x="154.2" y="190.4" width="27.5" height="1.2"></rect>
                    <rect id="Rectangle-path" fill="#EEBF39" x="154.2" y="208.1" width="27.5" height="1.2"></rect>
                    <rect id="Rectangle-path" fill="#EEBF39" x="154.2" y="225.7" width="27.5" height="1.2"></rect>
                    <rect id="Rectangle-path" fill="#EEBF39" x="154.2" y="243.4" width="27.5" height="1.2"></rect>
                    <rect id="Rectangle-path" fill="#EEBF39" x="154.2" y="261" width="27.5" height="1.2"></rect>
                    <rect id="Rectangle-path" fill="#EEBF39" x="154.2" y="278.6" width="27.5" height="1.2"></rect>
                    <rect id="Rectangle-path" fill="#EEBF39" x="154.2" y="296.3" width="27.5" height="1.2"></rect>
                    <rect id="Rectangle-path" fill="#EEBF39" x="154.2" y="313.9" width="27.5" height="1.2"></rect>
                    <rect id="Rectangle-path" fill="#EEBF39" x="154.2" y="331.6" width="27.5" height="1.2"></rect>
                    <rect id="Rectangle-path" fill="#EEBF39" x="154.2" y="349.2" width="27.5" height="1.2"></rect>
                    <rect id="Rectangle-path" fill="#EEBF39" x="154.2" y="366.9" width="27.5" height="1.2"></rect>
                    <rect id="Rectangle-path" fill="#EEBF39" x="154.2" y="384.5" width="27.5" height="1.2"></rect>
                    <rect id="Rectangle-path" fill="#EEBF39" x="154.2" y="402.2" width="27.5" height="1.2"></rect>
                    <rect id="Rectangle-path" fill="#EEBF39" x="154.2" y="419.8" width="27.5" height="1.2"></rect>
                    <rect id="Rectangle-path" fill="#EEBF39" x="154.2" y="437.5" width="27.5" height="1.2"></rect>
                    <rect id="Rectangle-path" fill="#EEBF39" x="154.2" y="455.1" width="27.5" height="1.2"></rect>
                    <rect id="Rectangle-path" fill="#EEBF39" x="184.4" y="65.5" width="320.7" height="6.7"></rect>
                    <path d="M493.4,41.7 L192.8,41.7 C192.8,38 195.8,35 199.5,35 L493.4,35 L493.4,41.7 Z" id="Shape" fill="#EEBF39"></path>
                    <path d="M189.9,153.1 L145.5,153.1 C141.8,153.1 138.8,150.1 138.8,146.4 C138.8,142.7 141.8,139.7 145.5,139.7 L189.9,139.7 C193.6,139.7 196.6,142.7 196.6,146.4 C196.5,150.1 193.6,153.1 189.9,153.1 Z" id="Shape" fill="#DC943A"></path>
                    <path d="M146.9,115.2 L146.9,139.8 L191.1,139.8 L191.1,114.7 C191.1,111.8 188.8,109.5 185.9,109.5 L152.7,109.5 C149.5,109.4 146.9,112 146.9,115.2 Z" id="Shape" fill="#EEBF39"></path>
                    <polygon id="Shape" fill="#EEBF39" points="182.4 108.4 151.2 77.2 154 74.4 183.9 104.3"></polygon>
                    <path d="M180.9,114.5 L180.9,131.1 C180.9,133.1 182.6,134.8 184.6,134.8 L196,134.8 C199,134.8 201.4,132.4 201.4,129.4 L201.4,124.8 C201.4,116.3 194.5,109.4 186,109.4 C183.1,109.4 180.9,111.7 180.9,114.5 Z" id="Shape" fill="#4F737F"></path>
                    <path d="M185.5,77.6 L148.5,77.6 C144.6,77.6 141.4,74.4 141.4,70.5 C141.4,66.6 144.6,63.4 148.5,63.4 L185.5,63.4 C189.4,63.4 192.6,66.6 192.6,70.5 C192.5,74.5 189.4,77.6 185.5,77.6 Z" id="Shape" fill="#DC943A"></path>
                    <rect id="Rectangle-path" fill="#EEBF39" x="159.4" y="47.5" width="19.6" height="3.2"></rect>
                    <rect id="Rectangle-path" fill="#EEBF39" x="163.2" y="29.4" width="11.9" height="3.2"></rect>
                    <path d="M413.1,80.1 L376.3,80.1 C373.2,80.1 370.7,77.6 370.7,74.5 C370.7,71.4 373.2,68.9 376.3,68.9 L413.1,68.9 C416.2,68.9 418.7,71.4 418.7,74.5 C418.7,77.6 416.2,80.1 413.1,80.1 Z" id="Shape" fill="#DC943A"></path>
                    <path d="M196.8,495.5 L139.1,495.5 L139.1,485.3 C139.1,480.3 143.2,476.2 148.2,476.2 L187.7,476.2 C192.7,476.2 196.8,480.3 196.8,485.3 L196.8,495.5 Z" id="Shape" fill="#696965"></path>
                    <path d="M203.1,507 L132.9,507 C130.8,507 129.1,505.3 129.1,503.2 L129.1,499.8 C129.1,497.2 131.2,495.1 133.8,495.1 L202.1,495.1 C204.7,495.1 206.8,497.2 206.8,499.8 L206.8,503.2 C206.8,505.4 205.1,507 203.1,507 Z" id="Shape" fill="#40403E"></path>
                    <path d="M458.3,297.8 C458,297.8 457.7,297.7 457.4,297.5 L393.8,249 C393.1,248.5 393,247.6 393.5,246.9 C394,246.2 394.9,246.1 395.6,246.6 L459.2,295 C459.9,295.5 460,296.4 459.5,297.1 C459.2,297.6 458.7,297.8 458.3,297.8 Z" id="Shape" fill="#EEBF39"></path>
                    <path d="M399.5,235.2 C398.7,234.8 398.1,233.7 398.1,232.4 L398.1,223.6 L391.2,223.6 L391.2,232.4 C391.2,236.2 393.1,239.6 396.3,241.3 C397.4,241.9 398.2,243.1 398.2,244.4 C398.2,246.3 396.6,247.9 394.7,247.9 C392.8,247.9 391.2,246.3 391.2,244.4 C391.2,242.5 389.7,240.9 387.7,240.9 C385.8,240.9 384.2,242.4 384.2,244.4 C384.2,250.1 388.9,254.8 394.6,254.8 C400.3,254.8 405,250.1 405,244.4 C405,240.5 402.9,237 399.5,235.2 Z" id="Shape" fill="#4F737F"></path>
                    <rect id="Rectangle-path" fill="#4F737F" x="391.2" y="80.1" width="6.9" height="125.1"></rect>
                    <path d="M394.7,228.1 C390,228.1 386.3,224.3 386.3,219.7 L386.3,204.8 C386.3,200.1 390.1,196.4 394.7,196.4 C399.4,196.4 403.1,200.2 403.1,204.8 L403.1,219.7 C403.1,224.3 399.3,228.1 394.7,228.1 Z" id="Shape" fill="#EEBF39"></path>
                    <path d="M331,297.8 C330.6,297.8 330.1,297.6 329.8,297.2 C329.3,296.5 329.4,295.6 330.1,295.1 L393.7,246.7 C394.4,246.2 395.3,246.3 395.8,247 C396.3,247.7 396.2,248.6 395.5,249.1 L331.9,297.5 C331.6,297.7 331.3,297.8 331,297.8 Z" id="Shape" fill="#EEBF39"></path>
                    <path d="M461.3,302.8 L331,302.8 C329,302.8 327.4,301.2 327.4,299.2 L327.4,296.4 C327.4,294.4 329,292.8 331,292.8 L461.3,292.8 C463.3,292.8 464.9,294.4 464.9,296.4 L464.9,299.2 C464.9,301.2 463.3,302.8 461.3,302.8 Z" id="Shape" fill="#8F8F8A"></path>
                </g>
                <path d="M241.6,574 L301,533.1 C309.3,527.4 320.3,527.8 328.1,534.1 L377.6,574 L241.6,574 Z" id="Shape" fill="#F3D495"></path>
                <path d="M328.2,534.2 C320.4,527.9 309.4,527.5 301.1,533.2 L299.2,534.5 L348.4,574.1 L377.7,574.1 L328.2,534.2 Z" id="Shape" fill="#E1C58B"></path>
                <path d="M411.6,496 L453.8,466.9 C459.7,462.9 467.5,463.2 473.1,467.6 L508.2,495.9 L411.6,495.9 L411.6,496 Z" id="Shape" fill="#F3D495"></path>
                <path d="M473.1,467.7 C467.5,463.2 459.7,462.9 453.8,467 L452.5,467.9 L487.4,496 L508.2,496 L473.1,467.7 Z" id="Shape" fill="#E1C58B"></path>
            </g>
        </g>
    </g>
</svg>