<svg xmlns="http://www.w3.org/2000/svg" viewBox="0 0 199.63 199.63"><defs><style>.cls-1{fill:#efefef;fill-opacity:0.7;}.cls-2{fill:#fcdc95;}.cls-3{fill:#ebb835;}.cls-4,.cls-8{fill:none;stroke-linecap:round;stroke-miterlimit:10;stroke-width:3.31px;}.cls-4{stroke:#eb5e39;}.cls-5{fill:#fcf5e8;}.cls-6{fill:#fad589;}.cls-7{fill:#f4bc4a;}.cls-8{stroke:#fad589;}</style></defs><title>Asset 3</title><g id="Layer_2" data-name="Layer 2"><g id="Layer_1-2" data-name="Layer 1"><circle class="cls-1" cx="99.81" cy="99.81" r="99.81"/><circle class="cls-2" cx="98.71" cy="99.81" r="26.54"/><path class="cls-3" d="M98.2,61.51a38.3,38.3,0,1,0,38.3,38.3A38.3,38.3,0,0,0,98.2,61.51ZM90.63,91.72a1.55,1.55,0,1,1,1.55,1.55A1.55,1.55,0,0,1,90.63,91.72Zm.17,10.87A1.55,1.55,0,1,1,89.25,101,1.55,1.55,0,0,1,90.8,102.6ZM99,93.27A6.06,6.06,0,1,1,93,99.34,6.06,6.06,0,0,1,99,93.27ZM103.54,92a1.55,1.55,0,1,1,1.55,1.55A1.55,1.55,0,0,1,103.54,92Zm4.39,9a1.55,1.55,0,1,1-1.55,1.55A1.55,1.55,0,0,1,107.92,101ZM98.42,65.9A10.86,10.86,0,1,1,87.56,76.76,10.86,10.86,0,0,1,98.42,65.9ZM64.33,93.38a10.86,10.86,0,1,1,10.86,10.86A10.86,10.86,0,0,1,64.33,93.38Zm20.08,37a10.86,10.86,0,1,1,10.86-10.86A10.86,10.86,0,0,1,84.41,130.42ZM98.61,111a1.55,1.55,0,1,1,1.55-1.55A1.55,1.55,0,0,1,98.61,111Zm13.76,19.44a10.86,10.86,0,1,1,10.86-10.86A10.86,10.86,0,0,1,112.37,130.42ZM122,104.23a10.86,10.86,0,1,1,10.86-10.86A10.86,10.86,0,0,1,122,104.23Z"/><line class="cls-4" x1="98.2" y1="13.35" x2="98.2" y2="52.59"/><line class="cls-4" x1="104.5" y1="18.72" x2="98.2" y2="13.35"/><line class="cls-4" x1="91.89" y1="18.72" x2="98.2" y2="13.35"/><line class="cls-4" x1="184.62" y1="99.81" x2="145.39" y2="99.81"/><line class="cls-4" x1="179.25" y1="106.12" x2="184.62" y2="99.81"/><line class="cls-4" x1="179.25" y1="93.51" x2="184.62" y2="99.81"/><line class="cls-4" x1="166.5" y1="39.05" x2="138.75" y2="66.79"/><line class="cls-4" x1="167.16" y1="47.3" x2="166.5" y2="39.05"/><line class="cls-4" x1="158.24" y1="38.39" x2="166.5" y2="39.05"/><line class="cls-4" x1="36.54" y1="163.54" x2="64.29" y2="135.8"/><line class="cls-4" x1="35.88" y1="155.29" x2="36.54" y2="163.54"/><line class="cls-4" x1="44.8" y1="164.2" x2="36.54" y2="163.54"/><line class="cls-4" x1="161.71" y1="163.21" x2="133.97" y2="135.47"/><line class="cls-4" x1="153.45" y1="163.87" x2="161.71" y2="163.21"/><line class="cls-4" x1="162.37" y1="154.96" x2="161.71" y2="163.21"/><line class="cls-4" x1="36.36" y1="34.95" x2="64.1" y2="62.7"/><line class="cls-4" x1="44.62" y1="34.29" x2="36.36" y2="34.95"/><line class="cls-4" x1="35.7" y1="43.21" x2="36.36" y2="34.95"/><line class="cls-4" x1="98.71" y1="186.28" x2="98.71" y2="147.04"/><line class="cls-4" x1="92.41" y1="180.9" x2="98.71" y2="186.28"/><line class="cls-4" x1="105.02" y1="180.9" x2="98.71" y2="186.28"/><line class="cls-4" x1="10.85" y1="99.25" x2="50.08" y2="99.25"/><line class="cls-4" x1="16.22" y1="92.94" x2="10.85" y2="99.25"/><line class="cls-4" x1="16.22" y1="105.55" x2="10.85" y2="99.25"/><circle class="cls-5" cx="99.81" cy="99.81" r="99.81"/><circle class="cls-6" cx="98.71" cy="99.81" r="26.54"/><path class="cls-7" d="M98.2,61.51a38.3,38.3,0,1,0,38.3,38.3A38.3,38.3,0,0,0,98.2,61.51ZM90.63,91.72a1.55,1.55,0,1,1,1.55,1.55A1.55,1.55,0,0,1,90.63,91.72Zm.17,10.87A1.55,1.55,0,1,1,89.25,101,1.55,1.55,0,0,1,90.8,102.6ZM99,93.27A6.06,6.06,0,1,1,93,99.34,6.06,6.06,0,0,1,99,93.27ZM103.54,92a1.55,1.55,0,1,1,1.55,1.55A1.55,1.55,0,0,1,103.54,92Zm4.39,9a1.55,1.55,0,1,1-1.55,1.55A1.55,1.55,0,0,1,107.92,101ZM98.42,65.9A10.86,10.86,0,1,1,87.56,76.76,10.86,10.86,0,0,1,98.42,65.9ZM64.33,93.38a10.86,10.86,0,1,1,10.86,10.86A10.86,10.86,0,0,1,64.33,93.38Zm20.08,37a10.86,10.86,0,1,1,10.86-10.86A10.86,10.86,0,0,1,84.41,130.42ZM98.61,111a1.55,1.55,0,1,1,1.55-1.55A1.55,1.55,0,0,1,98.61,111Zm13.76,19.44a10.86,10.86,0,1,1,10.86-10.86A10.86,10.86,0,0,1,112.37,130.42ZM122,104.23a10.86,10.86,0,1,1,10.86-10.86A10.86,10.86,0,0,1,122,104.23Z"/><line class="cls-8" x1="98.2" y1="13.35" x2="98.2" y2="52.59"/><line class="cls-8" x1="104.5" y1="18.72" x2="98.2" y2="13.35"/><line class="cls-8" x1="91.89" y1="18.72" x2="98.2" y2="13.35"/><line class="cls-8" x1="184.62" y1="99.81" x2="145.39" y2="99.81"/><line class="cls-8" x1="179.25" y1="106.12" x2="184.62" y2="99.81"/><line class="cls-8" x1="179.25" y1="93.51" x2="184.62" y2="99.81"/><line class="cls-8" x1="166.5" y1="39.05" x2="138.75" y2="66.79"/><line class="cls-8" x1="167.16" y1="47.3" x2="166.5" y2="39.05"/><line class="cls-8" x1="158.24" y1="38.39" x2="166.5" y2="39.05"/><line class="cls-8" x1="36.54" y1="163.54" x2="64.29" y2="135.8"/><line class="cls-8" x1="35.88" y1="155.29" x2="36.54" y2="163.54"/><line class="cls-8" x1="44.8" y1="164.2" x2="36.54" y2="163.54"/><line class="cls-8" x1="161.71" y1="163.21" x2="133.97" y2="135.47"/><line class="cls-8" x1="153.45" y1="163.87" x2="161.71" y2="163.21"/><line class="cls-8" x1="162.37" y1="154.96" x2="161.71" y2="163.21"/><line class="cls-8" x1="36.36" y1="34.95" x2="64.1" y2="62.7"/><line class="cls-8" x1="44.62" y1="34.29" x2="36.36" y2="34.95"/><line class="cls-8" x1="35.7" y1="43.21" x2="36.36" y2="34.95"/><line class="cls-8" x1="98.71" y1="186.28" x2="98.71" y2="147.04"/><line class="cls-8" x1="92.41" y1="180.9" x2="98.71" y2="186.28"/><line class="cls-8" x1="105.02" y1="180.9" x2="98.71" y2="186.28"/><line class="cls-8" x1="10.85" y1="99.25" x2="50.08" y2="99.25"/><line class="cls-8" x1="16.22" y1="92.94" x2="10.85" y2="99.25"/><line class="cls-8" x1="16.22" y1="105.55" x2="10.85" y2="99.25"/></g></g></svg>