<svg xmlns="http://www.w3.org/2000/svg" xmlns:xlink="http://www.w3.org/1999/xlink" viewBox="0 0 456.44 379.28"><defs><style>.cls-1{fill:#919191;}.cls-2{fill:#a0a0a0;}.cls-3{fill:#666;}.cls-4{fill:#aed1cf;}.cls-5{fill:#232323;}.cls-6{fill:#168787;}.cls-7{fill:#fff;}.cls-8{fill:#d6d6d6;}.cls-10,.cls-9{font-size:8px;fill:#474645;font-family:Montserrat-SemiBold, Montserrat;font-weight:700;}.cls-11,.cls-9{letter-spacing:0.05em;}.cls-10{letter-spacing:0.03em;}.cls-12{letter-spacing:0.04em;}.cls-13{fill:#fad589;}.cls-14{fill:#ea826e;}.cls-15{fill:#edb4a9;fill-opacity:0.4;}.cls-16{fill:#3a3a3a;stroke:#fff;stroke-width:0.5px;}.cls-16,.cls-18,.cls-20,.cls-22,.cls-24{stroke-miterlimit:10;}.cls-17{fill:url(#linear-gradient);}.cls-18,.cls-20,.cls-22,.cls-24{fill:none;}.cls-18{stroke:url(#linear-gradient-2);}.cls-19{fill:url(#linear-gradient-3);}.cls-20{stroke:url(#linear-gradient-4);}.cls-21{fill:url(#linear-gradient-5);}.cls-22{stroke:url(#linear-gradient-6);}.cls-23{fill:url(#linear-gradient-7);}.cls-24{stroke:url(#linear-gradient-8);}</style><linearGradient id="linear-gradient" x1="467.56" y1="-100.84" x2="467.56" y2="-93.46" gradientTransform="translate(180.43 -327.02) rotate(90)" gradientUnits="userSpaceOnUse"><stop offset="0" stop-color="#fff"/><stop offset="1" stop-color="#f7f7f7"/></linearGradient><linearGradient id="linear-gradient-2" x1="285.18" y1="140.54" x2="267.51" y2="140.54" gradientTransform="matrix(1, 0, 0, 1, 0, 0)" xlink:href="#linear-gradient"/><linearGradient id="linear-gradient-3" x1="520.85" y1="-100.84" x2="520.85" y2="-93.46" xlink:href="#linear-gradient"/><linearGradient id="linear-gradient-4" x1="285.18" y1="193.83" x2="267.51" y2="193.83" gradientTransform="matrix(1, 0, 0, 1, 0, 0)" xlink:href="#linear-gradient"/><linearGradient id="linear-gradient-5" x1="520.85" y1="-202.31" x2="520.85" y2="-194.93" xlink:href="#linear-gradient"/><linearGradient id="linear-gradient-6" x1="386.65" y1="193.83" x2="368.99" y2="193.83" gradientTransform="matrix(1, 0, 0, 1, 0, 0)" xlink:href="#linear-gradient"/><linearGradient id="linear-gradient-7" x1="467.56" y1="-202.31" x2="467.56" y2="-194.93" xlink:href="#linear-gradient"/><linearGradient id="linear-gradient-8" x1="386.65" y1="140.54" x2="368.99" y2="140.54" gradientTransform="matrix(1, 0, 0, 1, 0, 0)" xlink:href="#linear-gradient"/></defs><title>Asset 16</title><g id="Layer_2" data-name="Layer 2"><g id="Layer_1-2" data-name="Layer 1"><rect class="cls-1" x="169.22" y="298.99" width="118" height="65.65"/><rect class="cls-2" x="134.62" y="364.64" width="187.2" height="14.64" rx="7.32" ry="7.32"/><path class="cls-3" d="M4.05,0H452.39a4.05,4.05,0,0,1,4.05,4.05V253.72a0,0,0,0,1,0,0H0a0,0,0,0,1,0,0V4.05A4.05,4.05,0,0,1,4.05,0Z"/><path class="cls-2" d="M21.13,253.72H435.31a21.13,21.13,0,0,1,21.13,21.13v31.23a0,0,0,0,1,0,0H0a0,0,0,0,1,0,0V274.85A21.13,21.13,0,0,1,21.13,253.72Z" transform="translate(456.44 559.81) rotate(180)"/><rect class="cls-4" x="13.29" y="12.42" width="429.87" height="227.66"/><circle class="cls-5" cx="228.22" cy="279.9" r="11.98"/><rect class="cls-6" x="13.29" y="12.47" width="429.87" height="31.36"/><rect class="cls-7" x="17.99" y="49.29" width="420.61" height="186.73"/><rect class="cls-8" x="71.99" y="73.18" width="288.5" height="4.63"/><rect class="cls-8" x="71.73" y="63.24" width="209.69" height="5.03"/><circle class="cls-8" cx="51.95" cy="70.72" r="12.85"/><path class="cls-7" d="M209,25.59l-.48,1a3.61,3.61,0,0,0-1.77-.54c-.52,0-.9.17-.9.61,0,1.13,3.27.52,3.26,2.75,0,1.26-1.12,1.82-2.36,1.82a3.8,3.8,0,0,1-2.47-.85l.47-.95a3.35,3.35,0,0,0,2.06.76c.57,0,1-.2,1-.66,0-1.26-3.23-.55-3.22-2.77,0-1.25,1.09-1.78,2.26-1.78A3.88,3.88,0,0,1,209,25.59Z"/><path class="cls-7" d="M216.6,31.17h-1.33V30a2.26,2.26,0,0,1-2.19,1.25,2.13,2.13,0,0,1-2.25-2.37V25h1.33v3.45A1.35,1.35,0,0,0,213.59,30,1.74,1.74,0,0,0,215.27,28V25h1.33Z"/><path class="cls-7" d="M225.61,28.12a2.85,2.85,0,0,1-2.91,3.09,2.41,2.41,0,0,1-2.17-1.11v1.06H219.2V22.6h1.33v3.49A2.4,2.4,0,0,1,222.68,25,2.89,2.89,0,0,1,225.61,28.12Zm-1.34,0a1.88,1.88,0,1,0-1.87,2A1.86,1.86,0,0,0,224.27,28.07Z"/><path class="cls-7" d="M232.63,26l-.73.85a2.32,2.32,0,0,0-1.76-.69,1.82,1.82,0,0,0-1.82,2,1.82,1.82,0,0,0,1.82,2,2.29,2.29,0,0,0,1.81-.74l.74.74a3.13,3.13,0,0,1-2.61,1.14A3,3,0,0,1,227,28.11,3,3,0,0,1,230.09,25,3.24,3.24,0,0,1,232.63,26Z"/><path class="cls-7" d="M240.61,27.34v3.82h-1.33V27.71a1.37,1.37,0,0,0-1.48-1.49,1.76,1.76,0,0,0-1.76,1.92v3h-1.33V22.6h1.33v3.63A2.32,2.32,0,0,1,238.33,25,2.15,2.15,0,0,1,240.61,27.34Z"/><path class="cls-7" d="M246.65,30.42a2.49,2.49,0,0,1-2,.81,1.94,1.94,0,0,1-2.16-1.91c0-1.12.84-1.84,2.32-1.85h1.86v-.18c0-.77-.5-1.24-1.47-1.24a3.24,3.24,0,0,0-1.81.62l-.54-.92a4.5,4.5,0,0,1,2.64-.77c1.58,0,2.47.81,2.48,2.16v4h-1.3Zm0-1.41v-.57H245c-.87,0-1.27.23-1.27.82s.45.91,1.19.91C245.85,30.17,246.57,29.68,246.64,29Z"/><path class="cls-7" d="M256.19,27.34v3.82h-1.33V27.71a1.37,1.37,0,0,0-1.48-1.49,1.72,1.72,0,0,0-1.74,1.67v3.27h-1.33V25h1.33V26.2A2.32,2.32,0,0,1,253.91,25,2.15,2.15,0,0,1,256.19,27.34Z"/><path class="cls-7" d="M264.43,27.34v3.82H263.1V27.71a1.37,1.37,0,0,0-1.48-1.49,1.72,1.72,0,0,0-1.74,1.67v3.27h-1.33V25h1.33V26.2A2.32,2.32,0,0,1,262.14,25,2.15,2.15,0,0,1,264.43,27.34Z"/><path class="cls-7" d="M272.19,28.6h-4.64a1.87,1.87,0,0,0,1.91,1.54,2.39,2.39,0,0,0,1.73-.72l.7.75a3.34,3.34,0,0,1-2.54,1,3,3,0,0,1-3.14-3.11A3,3,0,0,1,269.32,25C271.48,25,272.35,26.39,272.19,28.6Zm-1.15-1A1.58,1.58,0,0,0,269.33,26a1.75,1.75,0,0,0-1.8,1.59Z"/><path class="cls-7" d="M274.21,31.17V22.6h1.33v8.57Z"/><path class="cls-7" d="M190.8,18.49a9.76,9.76,0,1,0,9.76,9.76A9.76,9.76,0,0,0,190.8,18.49Zm4.56,4.73v4.07l-5-4.07Zm-9.65,10v-4.2l5.36,4.2Zm8.35-.26a2.48,2.48,0,0,1-.41.14,3.8,3.8,0,0,1-.48.08l-.66,0-1.47-1-1-.74q-1-.71-1.86-1.47a13.75,13.75,0,0,1-1.4-1.29,4.66,4.66,0,0,1-.73-.95,3.32,3.32,0,0,1-.27-.74,3.06,3.06,0,0,1-.1-.75,2.92,2.92,0,0,1,.37-1.47l8.89,7.66A3.13,3.13,0,0,1,194.06,33Zm1.41-1.14-8.93-7.69a3.18,3.18,0,0,1,1-.64,3.62,3.62,0,0,1,.69-.19,6.67,6.67,0,0,1,.89-.06l5.39,4.42a4.31,4.31,0,0,1,1.1,1.2,2.73,2.73,0,0,1,.34,1.35A2.85,2.85,0,0,1,195.46,31.87Z"/><text class="cls-9" transform="translate(71.99 104.41)">AD BANK</text><text class="cls-10" transform="translate(293.71 104.41)">Y<tspan class="cls-11" x="5.58" y="0">OUR </tspan><tspan class="cls-12" x="27.42" y="0">C</tspan><tspan class="cls-11" x="33.26" y="0">ONTENT</tspan></text><rect class="cls-13" x="234.36" y="118.24" width="83.98" height="44.6"/><rect class="cls-13" x="335.83" y="118.24" width="83.98" height="44.6"/><rect class="cls-13" x="335.83" y="171.53" width="83.98" height="44.6"/><rect class="cls-13" x="234.36" y="171.53" width="83.98" height="44.6"/><rect class="cls-14" x="37.46" y="118.24" width="45.79" height="27.54"/><rect class="cls-14" x="100.23" y="118.24" width="45.79" height="27.54"/><rect class="cls-14" x="100.23" y="154.6" width="45.79" height="27.54"/><rect class="cls-14" x="100.23" y="190.95" width="45.79" height="27.54"/><rect class="cls-14" x="37.46" y="154.6" width="45.79" height="27.54"/><rect class="cls-14" x="37.46" y="190.95" width="45.79" height="27.54"/><polygon class="cls-15" points="146.02 218.48 100.23 218.48 173.41 135.3 219.2 135.3 219.2 162.84 146.02 218.48"/><rect class="cls-14" x="173.41" y="135.3" width="45.79" height="27.54"/><polygon class="cls-16" points="200.24 160.56 192.87 152.63 192.37 163.45 195.45 162.32 197.39 167.62 199.01 167.03 197.07 161.72 200.24 160.56"/><polygon class="cls-17" points="281.26 140.54 273.89 136.28 273.89 144.8 281.26 140.54"/><circle class="cls-18" cx="276.35" cy="140.54" r="8.33"/><polygon class="cls-19" points="281.26 193.83 273.89 189.57 273.89 198.09 281.26 193.83"/><circle class="cls-20" cx="276.35" cy="193.83" r="8.33"/><polygon class="cls-21" points="382.74 193.83 375.36 189.57 375.36 198.09 382.74 193.83"/><circle class="cls-22" cx="377.82" cy="193.83" r="8.33"/><polygon class="cls-23" points="382.74 140.54 375.36 136.28 375.36 144.8 382.74 140.54"/><circle class="cls-24" cx="377.82" cy="140.54" r="8.33"/></g></g></svg>