<svg xmlns="http://www.w3.org/2000/svg" xmlns:xlink="http://www.w3.org/1999/xlink" viewBox="0 0 1343.73 449.62"><defs>

<style>.cls-1,.cls-16,.cls-18,.cls-8{fill:none;}.cls-2{fill:#168787;}.cls-3{fill:#919191;}.cls-4{fill:#a0a0a0;}.cls-5{fill:#666;}.cls-6{fill:#aed1cf;}.cls-7{fill:#232323;}.cls-8{stroke:#dd694a;}.cls-16,.cls-18,.cls-8{stroke-miterlimit:10;}.cls-9{fill:#fcf5e8;}.cls-10{fill:#dd694a;}.cls-11,.cls-12{font-size:28.6px;font-family:Montserrat-SemiBold, Montserrat;font-weight:700;}.cls-11,.cls-12,.cls-13,.cls-14{fill:#474645;}.cls-11{letter-spacing:0.05em;}.cls-12{letter-spacing:0.05em;}.cls-13,.cls-14{font-size:15.48px;font-family:Montserrat-Light, Montserrat;}.cls-13{letter-spacing:0.05em;}.cls-14{letter-spacing:0.05em;}.cls-15{fill:#fad589;}.cls-16{stroke:#fcf7e6;stroke-width:1.78px;}.cls-17{fill:#f4bc4a;}.cls-18{stroke:#f4bc4a;stroke-width:12px;}.cls-19{fill:#37a09d;}.cls-20{fill:#cfe5e3;}.cls-21{fill:#59aaa8;}.cls-22{clip-path:url(#clip-path);}.cls-23{fill:#c6e0de;}

.flash {
    animation: 2.5s flash infinite;
}

.second {

    animation: 5s tick infinite forward;
    
    
}

@keyframes flash {
 0%
     {
    opacity: 0;
    }
    100% {
    opacity: 1;
    }
}
}

@keyframes tick {
 20% {
    transform: rotate(45deg);
 }
 100% {
    transform: rotate(90deg);
 }
}

</style>

<clipPath id="clip-path"><rect class="cls-1" x="74.85" y="92.42" width="388.99" height="206.01"/></clipPath></defs><title>Asset 51</title><g id="Layer_2" data-name="Layer 2"><g id="Layer_1-2" data-name="Layer 1"><rect class="cls-2" x="32.8" y="420.04" width="1310.93" height="29.58" rx="14.79" ry="14.79"/><rect class="cls-3" x="215.96" y="352.18" width="106.78" height="59.41"/><rect class="cls-4" x="184.65" y="411.59" width="169.4" height="13.25" rx="6.62" ry="6.62"/><path class="cls-5" d="M66.5,81.63H472.2a3.67,3.67,0,0,1,3.67,3.67V311.22a0,0,0,0,1,0,0h-413a0,0,0,0,1,0,0V85.29A3.67,3.67,0,0,1,66.5,81.63Z"/><path class="cls-4" d="M81.95,311.22h374.8a19.12,19.12,0,0,1,19.12,19.12v28.26a0,0,0,0,1,0,0h-413a0,0,0,0,1,0,0V330.34A19.12,19.12,0,0,1,81.95,311.22Z" transform="translate(538.69 669.83) rotate(180)"/><rect class="cls-6" x="74.85" y="92.87" width="388.99" height="206.01"/><circle class="cls-7" cx="269.35" cy="334.91" r="10.84"/><circle class="cls-2 " cx="950.02" cy="155.19" r="59.5"/><circle class="cls-6 " cx="950.02" cy="155.19" r="50.18"/><circle class="cls-2 " cx="950.02" cy="155.19" r="5.4"/><path class="cls-2 " d="M976.1,180.92l-27.8-23.38A2.53,2.53,0,0,1,948,154h0a2.53,2.53,0,0,1,3.56-.31L979.35,177a2.53,2.53,0,0,1,.31,3.56h0A2.53,2.53,0,0,1,976.1,180.92Z"/><path class="cls-2 " d="M952.57,126.49l0,28.41a2.53,2.53,0,0,1-2.53,2.53h0a2.53,2.53,0,0,1-2.53-2.53l0-28.41A2.53,2.53,0,0,1,950,124h0A2.53,2.53,0,0,1,952.57,126.49Z"/><line class="cls-8 second" x1="950.01" y1="155.19" x2="931.5" y2="180.56"/><path class="cls-9" d="M1068.17,82.81h220.46a8.12,8.12,0,0,1,8.12,8.12V237.2a4.2,4.2,0,0,1-4.2,4.2H1064.25a4.2,4.2,0,0,1-4.2-4.2V90.93A8.12,8.12,0,0,1,1068.17,82.81Z"/><path class="cls-10" d="M1066.81,82.81H1290a6.76,6.76,0,0,1,6.76,6.76V116a0,0,0,0,1,0,0H1060.05a0,0,0,0,1,0,0V89.57A6.76,6.76,0,0,1,1066.81,82.81Z"/><text class="cls-11" transform="translate(1098 144.54)">M</text><text class="cls-11" transform="translate(1136.82 144.54)">T</text><text class="cls-12" transform="translate(1165.56 144.54)">W</text><text class="cls-11" transform="translate(1207.86 144.54)">T</text><text class="cls-11" transform="translate(1239.39 144.54)">F</text><text class="cls-12" transform="translate(1268.25 144.54)">S</text><text class="cls-12" transform="translate(1068.98 144.54)">S</text><text class="cls-13" transform="translate(1074.21 164.99)">1</text><text class="cls-13" transform="translate(1106.42 164.99)">2</text><text class="cls-13" transform="translate(1140.68 164.99)">3</text><text class="cls-14" transform="translate(1174.12 164.99)">4</text><text class="cls-14" transform="translate(1208.05 164.99)">5</text><text class="cls-14" transform="translate(1241.59 164.99)">6</text><text class="cls-13" transform="translate(1275.81 164.99)">7</text><text class="cls-14" transform="translate(1072.31 187.16)">8</text><text class="cls-14" transform="translate(1106.24 187.16)">9</text><text class="cls-13" transform="translate(1136.2 187.16)">10</text><text class="cls-13" transform="translate(1172.46 187.16)">11</text><text class="cls-13" transform="translate(1204.67 187.16)">12</text><text class="cls-13" transform="translate(1238.92 187.16)">13</text><text class="cls-13" transform="translate(1272.37 187.16)">14</text><text class="cls-13" transform="translate(1069.45 207.73)">15</text><text class="cls-13" transform="translate(1102.99 207.73)">16</text><text class="cls-13" transform="translate(1137.21 207.73)">17</text><text class="cls-13" transform="translate(1170.56 207.73)">18</text><text class="cls-13" transform="translate(1204.49 207.73)">19</text><text class="cls-13" transform="translate(1236.08 207.73)">20</text><text class="cls-13" transform="translate(1272.34 207.73)">21</text><text class="cls-13" transform="translate(1067.7 231.18)">22</text><text class="cls-13" transform="translate(1101.96 231.18)">23</text><text class="cls-13" transform="translate(1135.41 231.18)">24</text><text class="cls-13" transform="translate(1169.33 231.18)">25</text><text class="cls-13" transform="translate(1202.87 231.18)">26</text><text class="cls-13" transform="translate(1237.09 231.18)">27</text><text class="cls-13" transform="translate(1270.44 231.18)">28</text><rect class="cls-15" x="108.34" y="326.01" width="66.39" height="66.39" rx="2.31" ry="2.31"/><line class="cls-16" x1="117.82" y1="339.64" x2="165.21" y2="339.64"/><line class="cls-16" x1="117.82" y1="347.93" x2="165.21" y2="347.93"/><line class="cls-16" x1="117.82" y1="356.22" x2="165.21" y2="356.22"/><line class="cls-16" x1="134.19" y1="378.94" x2="163.63" y2="369.91"/><line class="cls-16" x1="135.64" y1="383.67" x2="165.09" y2="374.64"/><rect class="cls-17" x="504.34" y="311.49" width="84" height="113.46" rx="8.32" ry="8.32"/><circle class="cls-18 " cx="588.34" cy="366.22" r="30.82"/><path class="cls-15" d="M521.84,311.49h13.5a0,0,0,0,1,0,0v16.72a6.75,6.75,0,0,1-6.75,6.75h0a6.75,6.75,0,0,1-6.75-6.75V311.49A0,0,0,0,1,521.84,311.49Z"/><path class="cls-15" d="M547.84,311.49h13.5a0,0,0,0,1,0,0V337a6.75,6.75,0,0,1-6.75,6.75h0a6.75,6.75,0,0,1-6.75-6.75V311.49A0,0,0,0,1,547.84,311.49Z"/><path class="cls-15" d="M534.34,311.49h13.5a0,0,0,0,1,0,0v43.14a6.75,6.75,0,0,1-6.75,6.75h0a6.75,6.75,0,0,1-6.75-6.75V311.49A0,0,0,0,1,534.34,311.49Z"/><rect class="cls-17" x="1089.1" y="394.83" width="217" height="30.07" rx="3.97" ry="3.97"/><rect class="cls-6" x="1105.19" y="375.19" width="184.83" height="19.64" rx="2.52" ry="2.52"/><rect class="cls-10" x="1118.85" y="351.77" width="157.5" height="23.43" rx="2.81" ry="2.81"/><rect class="cls-6" x="1141.94" y="292" width="111.32" height="59.76" rx="11.4" ry="11.4"/><circle class="cls-19 " cx="1197.6" cy="322.8" r="24.52"/><circle class="cls-2 " cx="1197.6" cy="322.8" r="18.89"/><rect class="cls-20" x="1222.13" y="298.28" width="17.22" height="10.7" rx="0.94" ry="0.94"/><path class="cls-6" d="M1160.84,284.31h7.75a4.49,4.49,0,0,1,4.49,4.49V292a0,0,0,0,1,0,0h-16.73a0,0,0,0,1,0,0v-3.2A4.49,4.49,0,0,1,1160.84,284.31Z"/><circle class="cls-20" cx="1244.69" cy="300.61" r="2.33"/><path class="cls-2" d="M813.77,314.17a6.89,6.89,0,0,1-4.88-2l-31.43-31.43a6.91,6.91,0,0,1,9.77-9.77l31.43,31.43a6.91,6.91,0,0,1-4.88,11.79Z"/><path class="cls-2" d="M781.8,283H684.14a6.91,6.91,0,0,1,0-13.82H781.8a6.91,6.91,0,0,1,0,13.82Z"/><rect class="cls-6" x="659.66" y="301.6" width="206" height="123.56" rx="18.27" ry="18.27"/><path class="cls-6" d="M902,403.89l-43.21-14.75V337.63L902,322.88a6.27,6.27,0,0,1,8.3,5.94V398A6.27,6.27,0,0,1,902,403.89Z"/><path class="cls-21" d="M938.33,376.9a1.5,1.5,0,0,1-1.31-2.22c.79-1.43,19.57-35,44.63-39.89,9.54-1.85,18.72.76,27.29,7.75a1.5,1.5,0,0,1-1.9,2.32c-7.85-6.4-16.2-8.8-24.83-7.13-23.7,4.59-42.39,38.06-42.58,38.4A1.5,1.5,0,0,1,938.33,376.9Z"/><path class="cls-21" d="M939.77,352.41c5.38,1.27,8.86,6,7.78,10.58s-6.31,7.26-11.69,6c-4.42-1-12.44-8.86-15.13-11.59a.83.83,0,0,1,.32-1.38C924.69,354.77,935.35,351.36,939.77,352.41Z"/><path class="cls-21" d="M965.09,327.44c5.38,1.27,8.86,6,7.78,10.58s-6.31,7.26-11.69,6c-4.42-1-12.44-8.86-15.13-11.59a.83.83,0,0,1,.32-1.38C950,329.8,960.67,326.39,965.09,327.44Z"/><path class="cls-21" d="M1087.48,310.18c-5.45.92-10.49-2.1-11.28-6.73s3-9.14,8.45-10.06c4.48-.76,14.9,3.34,18.45,4.81a.83.83,0,0,1,.23,1.39C1100.46,302.14,1092,309.42,1087.48,310.18Z"/><path class="cls-21" d="M1080.44,336.61c-4-3.8-4.63-9.65-1.39-13.06s9.11-3.09,13.12.71c3.3,3.13,6.28,13.92,7.24,17.64a.83.83,0,0,1-1,1C1094.66,342.16,1083.73,339.74,1080.44,336.61Z"/><path class="cls-21" d="M1107.82,325.73c-5.49.61-10.36-2.68-10.88-7.35s3.5-9,9-9.57c4.52-.5,14.69,4.16,18.15,5.83a.83.83,0,0,1,.16,1.4C1121.23,318.43,1112.34,325.23,1107.82,325.73Z"/><path class="cls-21" d="M1092.29,274.42c-1.29,5.37-6,8.83-10.62,7.73s-7.23-6.35-5.94-11.72c1.06-4.42,8.91-12.39,11.66-15.08a.83.83,0,0,1,1.37.33C1090,259.32,1093.35,270,1092.29,274.42Z"/><path class="cls-21" d="M1055.61,329.29c-5.52.26-10.17-3.33-10.4-8s4.06-8.72,9.58-9c4.54-.22,14.4,5.08,17.75,7a.83.83,0,0,1,.07,1.41C1069.46,322.86,1060.15,329.08,1055.61,329.29Z"/><path class="cls-21" d="M997.88,289.61c5.51-.33,10.21,3.21,10.49,7.9s-4,8.77-9.47,9.1c-4.54.27-14.46-4.91-17.83-6.76a.83.83,0,0,1-.08-1.41C984.11,296.21,993.34,289.88,997.88,289.61Z"/><path class="cls-21" d="M1001.8,273.27c1.22,5.39-1.5,10.6-6.09,11.64s-9.3-2.48-10.52-7.86c-1-4.43,2.49-15.06,3.76-18.69a.83.83,0,0,1,1.38-.31C993,260.77,1000.8,268.84,1001.8,273.27Z"/><path class="cls-21" d="M1021.46,320.06c4,3.78,4.69,9.62,1.47,13.05s-9.09,3.15-13.12-.63c-3.32-3.11-6.37-13.88-7.35-17.59a.83.83,0,0,1,1-1C1007.2,314.59,1018.14,316.95,1021.46,320.06Z"/><path class="cls-21" d="M1044.46,317.23c1.94,5.17,0,10.7-4.45,12.36s-9.55-1.19-11.49-6.36c-1.6-4.25.42-15.26,1.19-19a.83.83,0,0,1,1.32-.5C1034.09,306,1042.87,313,1044.46,317.23Z"/><path class="cls-21" d="M1003.14,326.15c1.41,5.34-1.13,10.64-5.68,11.84s-9.38-2.15-10.79-7.49c-1.16-4.39,2-15.14,3.11-18.81a.83.83,0,0,1,1.37-.36C994,314,1002,321.76,1003.14,326.15Z"/><path class="cls-21" d="M1028.42,301.14c-1.52,5.31-6.41,8.57-10.93,7.28s-7-6.64-5.44-12c1.25-4.37,9.43-12,12.28-14.58a.83.83,0,0,1,1.36.39C1026.76,286,1029.67,296.77,1028.42,301.14Z"/><path class="cls-21" d="M1070,302.78c-1.52,5.31-6.41,8.57-10.93,7.28s-7-6.64-5.44-12c1.25-4.37,9.43-12,12.28-14.58a.83.83,0,0,1,1.36.39C1068.3,287.61,1071.21,298.41,1070,302.78Z"/><path class="cls-21" d="M951.91,361c-.64-5.49,2.64-10.37,7.31-10.91s9,3.47,9.61,9c.52,4.51-4.1,14.71-5.75,18.18a.83.83,0,0,1-1.4.16C959.27,374.43,952.43,365.56,951.91,361Z"/><path class="cls-21" d="M974.24,341.23c2.13-5.1,7.37-7.76,11.71-5.94s6.13,7.42,4,12.51c-1.75,4.19-10.77,10.82-13.91,13a.83.83,0,0,1-1.3-.55C974.11,356.5,972.49,345.42,974.24,341.23Z"/><path class="cls-21" d="M1027.47,345.59a1.5,1.5,0,0,1-1.49-1.34c-3-28.71-15.62-44.75-25.64-53.15-10.87-9.11-21.17-11.48-21.28-11.5a1.5,1.5,0,0,1,.65-2.93c.44.1,11,2.5,22.43,12,10.5,8.76,23.67,25.45,26.82,55.24a1.5,1.5,0,0,1-1.33,1.65Z"/><path class="cls-21" d="M1065.34,344.83a1.5,1.5,0,0,1-1.4-2c5-13.25,12.16-21,21.36-23,7-1.53,15.23.41,23.79,5.58a62.87,62.87,0,0,1,10.83,8.27,1.5,1.5,0,0,1-2.12,2.13c-.17-.16-16.68-16.35-31.88-13-8.14,1.78-14.6,8.88-19.18,21.11A1.5,1.5,0,0,1,1065.34,344.83Z"/><path class="cls-21" d="M1043.77,345.83a1.5,1.5,0,0,1-1.42-1c-.19-.57-4.54-14.12,1.78-25.19,3.59-6.28,9.87-10.44,18.66-12.36,17-3.71,17.17-16,16.81-19.74-.81-8.18-7.35-17.11-16.51-17.27a1.5,1.5,0,0,1,0-3h0c8.61.15,18.23,7.67,19.45,20,.88,8.9-3.7,19.6-19.15,23-7.92,1.72-13.53,5.39-16.68,10.9-5.67,9.9-1.59,22.65-1.54,22.78a1.5,1.5,0,0,1-1.43,2Z"/><polygon class="cls-5" points="1068.7 424.17 1005.44 424.17 998.44 343.33 1075.7 343.33 1068.7 424.17"/><rect class="cls-5" x="993.7" y="341.85" width="86" height="18.81"/><g class="cls-22"><rect class="cls-20" x="260.95" y="27.09" width="105.01" height="416.3" transform="translate(258.15 -152.75) rotate(45)"/><rect class="cls-20" x="377.53" y="74.69" width="17.33" height="416.3" transform="translate(313.11 -190.24) rotate(45)"/><rect class="cls-20" x="142.03" y="-48.51" width="35.22" height="416.3" transform="translate(159.63 -66.12) rotate(45)"/></g><rect class="cls-2" x="669.77" y="264.73" width="56" height="22.67" rx="11.33" ry="11.33"/><rect class="cls-23" x="684.14" y="339.24" width="101.51" height="64.99" rx="5.12" ry="5.12"/><rect class="cls-2" x="690.65" y="344.55" width="88" height="54.38" rx="4.36" ry="4.36"/><path class="cls-19" d="M690.65,354.62v-5.9a4.36,4.36,0,0,1,4.44-4.28h79.13a4.36,4.36,0,0,1,4.44,4.28v5.9"/><circle class="cls-10 flash" cx="833.69" cy="324.28" r="7.48"/><rect class="cls-23" x="684.14" y="325.79" width="101.63" height="7.89" rx="3.94" ry="3.94"/><circle class="cls-23" cx="714.74" cy="377.56" r="16.96"/><circle class="cls-23" cx="755.64" cy="377.56" r="16.96"/><circle class="cls-2" cx="714.74" cy="377.56" r="5.19"/><circle class="cls-2" cx="755.64" cy="377.56" r="5.19"/><path class="cls-4" d="M371.94,424.84h0a16.42,16.42,0,0,1,16.42-16.42h43.83a16.42,16.42,0,0,1,16.42,16.42h0"/></g></g></svg>