<?xml version="1.0" encoding="UTF-8"?>
<svg width="150px" height="150px" viewBox="0 0 150 150" version="1.1" xmlns="http://www.w3.org/2000/svg" xmlns:xlink="http://www.w3.org/1999/xlink">
    <!-- Generator: Sketch 49.1 (51147) - http://www.bohemiancoding.com/sketch -->
    <title>Group</title>
    <desc>Created with Sketch.</desc>
    <defs></defs>
    <g id="Page-1" stroke="none" stroke-width="1" fill="none" fill-rule="evenodd">
        <g id="MarketingMedia" transform="translate(-29.000000, -8.000000)" fill-rule="nonzero">
            <g id="Nav">
                <g id="Group" transform="translate(29.000000, 8.000000)">
                    <circle id="Oval" fill="#168787" cx="74.5733363" cy="74.87648" r="74.5733363"></circle>
                    <polygon id="Shape" fill="#FFFFFF" points="35.6572711 113.299937 35.6572711 81.2046036 76.581663 113.299937"></polygon>
                    <polygon id="Shape" fill="#FFFFFF" points="109.434855 67.6010325 71.5418999 36.4909161 109.434855 36.4909161"></polygon>
                    <g transform="translate(34.861519, 36.756167)" fill="#FFFFFF" id="Shape">
                        <path d="M79.0447051,53.5048531 C79.0447051,49.7155576 78.1731671,46.2672986 76.4679841,43.1979692 C74.7628011,40.1665328 71.9966154,37.0972034 68.093641,33.989981 L26.9039984,0.227357733 C24.0999197,0.265250688 21.8642353,0.41682251 20.1211593,0.682073198 C18.3780834,0.985216842 16.5971145,1.47782526 14.8161456,2.15989846 C11.7847091,3.37247304 9.24588113,5.03976308 7.12387563,7.04808972 L75.3690884,65.8579566 C77.7942376,62.144447 79.0447051,58.0520078 79.0447051,53.5048531 Z"></path>
                        <path d="M0.341036599,23.2662747 C0.341036599,25.0472436 0.606287287,26.9797843 1.13678866,29.0260039 C1.62939708,31.0722235 2.31147028,32.9668713 3.18300826,34.6720542 C4.28190397,36.7561668 6.13865878,39.1813159 8.75327271,41.9096087 C11.3678866,44.7894734 14.9298245,48.0861605 19.4011932,51.7996701 C23.9862408,55.7026445 28.7228602,59.4540471 33.6110515,63.0538779 C36.6424879,65.2516693 39.2571019,67.1463171 41.4548933,68.6999282 C43.6526847,70.2535394 47.4040873,72.8681533 52.6712081,76.54377 C54.6416418,76.4679841 56.3468248,76.3921982 57.7488641,76.2406264 C58.9993317,76.1269475 60.2119062,75.8995898 61.4623738,75.5964461 C62.3339117,75.4069814 63.3949145,75.0280518 64.645382,74.5354434 C67.1084241,73.5123336 69.2683226,72.1860802 71.1629704,70.594576 L3.18300826,12.0499598 C1.32625344,15.308754 0.341036599,19.0222636 0.341036599,23.2662747 Z"></path>
                    </g>
                </g>
            </g>
        </g>
    </g>
</svg>