<?xml version="1.0" encoding="UTF-8"?>
<svg width="140px" height="122px" viewBox="0 0 140 122" version="1.1" xmlns="http://www.w3.org/2000/svg" xmlns:xlink="http://www.w3.org/1999/xlink">
    <!-- Generator: Sketch 49.1 (51147) - http://www.bohemiancoding.com/sketch -->
    <title>D_28</title>
    <desc>Created with Sketch.</desc>
    <defs>
        <path d="M22.3682108,34.8772957 L0.178094073,12.6871789 L12.6369888,0.22868898 L21.7161437,9.30784388 L21.7161437,27.5220105 C21.7161437,28.4327188 22.4609007,29.1766663 23.3712043,29.1766663 L28.0688402,29.1766663 L22.3682108,34.8772957" id="path-1"></path>
        <path d="M6.8756455,22.0140465 L0.0841899255,22.0140465 L0.0841899255,15.7965395 L8.29756477,15.7965395 L8.29756477,20.5917225 C8.29756477,21.3773602 7.66087846,22.0140465 6.8756455,22.0140465 Z M0.0841899255,15.3917803 L8.29756477,15.3917803 L8.29756477,7.90373402 L0.0841899255,7.90373402 L0.0841899255,15.3917803 Z M8.29756477,7.49897476 L0.0841899255,7.49897476 L0.0841899255,0.216141443 L6.8756455,0.216141443 C7.66087846,0.216141443 8.29756477,0.852827755 8.29756477,1.63765595 L8.29756477,7.49897476 Z" id="path-3"></path>
    </defs>
    <g id="Page-1" stroke="none" stroke-width="1" fill="none" fill-rule="evenodd">
        <g id="D_28">
            <rect id="Rectangle" fill="#F7F7F7" x="0" y="0" width="140" height="122" rx="3"></rect>
            <path d="M112.912492,59.750526 C112.385091,59.750526 111.857285,59.7298832 111.331098,59.6885978 C115.931591,59.3275525 120.43049,57.3875414 123.949063,53.8689692 C124.161561,53.6564706 124.367584,53.4411387 124.568749,53.2213544 L127.732347,53.2213544 C127.531182,53.4411387 127.32516,53.6564706 127.112661,53.8689692 C123.191353,57.7902769 118.052125,59.750526 112.912492,59.750526 M128.092988,52.8165951 L124.929794,52.8165951 C126.868591,50.5827288 128.23263,48.0214122 129.021101,45.3285489 L132.184294,45.3285489 C131.395823,48.0214122 130.031785,50.5827288 128.092988,52.8165951 M132.298032,44.9237896 L129.134838,44.9237896 C129.795001,42.480258 129.985642,39.9375603 129.707573,37.4357434 L132.870766,37.4357434 C133.148836,39.9375603 132.958194,42.480258 132.298032,44.9237896 M132.82179,37.0309841 L129.658192,37.0309841 C129.315361,34.426763 128.461724,31.8767797 127.097685,29.5429378 L130.260878,29.5429378 C131.624917,31.8767797 132.478554,34.426763 132.82179,37.0309841 M130.018023,29.1381786 L126.854829,29.1381786 C126.049358,27.8324252 125.080769,26.5991238 123.948658,25.4670121 C122.148693,23.6670477 120.090088,22.279533 117.894269,21.3056822 L121.057462,21.3056822 C123.253281,22.279533 125.311887,23.6670477 127.112256,25.4670121 C128.244368,26.5991238 129.212552,27.8324252 130.018023,29.1381786 M120.074707,20.9009229 L116.911109,20.9009229 C115.10993,20.214856 113.227799,19.7967397 111.330288,19.6473835 C111.856475,19.6065028 112.384281,19.5854554 112.912087,19.5854554 C115.341857,19.5854554 117.773651,20.0242144 120.074707,20.9009229" id="Fill-13" fill="#7BB4A6"></path>
            <path d="M123.287686,50.809394 C124.661844,49.1430001 125.681432,47.2831313 126.346452,45.3285489 C125.681432,47.2831313 124.661844,49.1430001 123.287686,50.809394 M126.478403,44.9237896 C127.0139,43.2153008 127.281446,41.4416457 127.281446,39.6675859 C127.281446,38.9220193 127.234089,38.1764528 127.13978,37.4357434 C127.459135,39.9391794 127.238946,42.4976626 126.478403,44.9237896 M127.083518,37.0309841 C126.683211,34.3862871 125.678194,31.8160658 124.066443,29.5429378 L124.066848,29.5429378 C125.678194,31.8160658 126.683616,34.3862871 127.083518,37.0309841 M123.770969,29.1381786 C123.2804,28.4869209 122.738832,27.8619726 122.14586,27.2690003 C122.146265,27.2694051 122.146265,27.2694051 122.146265,27.2694051 C122.739237,27.8623774 123.280805,28.4869209 123.770969,29.1381786" id="Fill-20" fill="#7BB4A6"></path>
            <path d="M122.14586,27.2690003 C128.993577,34.1167174 128.993172,45.2180496 122.145455,52.0657667 C115.299357,58.9118648 104.19762,58.9122695 97.3499033,52.0645524 C90.5034004,45.2180496 90.5038052,34.1167174 97.3499033,27.2702146 C104.19762,20.4229023 115.299357,20.4224975 122.14586,27.2690003" id="Fill-24" fill="#ECEFF1"></path>
            <path d="M122.145455,52.0657667 C115.299357,58.9118648 104.19762,58.9122695 97.350308,52.0649572 C90.5034004,45.2180496 90.5038052,34.1167174 97.3499033,27.2702146 C104.19762,20.4229023 115.299357,20.4224975 122.146265,27.2694051 C128.993577,34.1167174 128.993172,45.2180496 122.145455,52.0657667 M95.547915,25.4674169 C87.7048949,33.3100322 87.7057044,46.0259491 95.547915,53.8677549 C103.39053,61.710775 116.106447,61.7111798 123.949063,53.8689692 C131.792083,46.0259491 131.791678,33.3096275 123.948658,25.4670121 C116.106852,17.6252063 103.39053,17.6248015 95.547915,25.4674169" id="Fill-25" fill="#FFFFFE"></path>
            <path d="M121.939433,51.8593395 C115.426856,58.3719159 104.866687,58.3731302 98.3516824,51.85853 C91.8395107,45.3463583 91.8395107,34.784975 98.3524919,28.2723985 C104.865473,21.7590126 115.426856,21.7586078 121.939028,28.2707795 C128.454033,34.7853797 128.452414,45.3463583 121.939433,51.8593395 M97.3499033,27.2702146 C90.5038052,34.1167174 90.5034004,45.2180496 97.3499033,52.0645524 C104.19762,58.9122695 115.299357,58.9118648 122.145455,52.0657667 C128.993172,45.2180496 128.993577,34.1167174 122.14586,27.2690003 C115.299357,20.4224975 104.19762,20.4229023 97.3499033,27.2702146" id="Fill-26" fill="#CDCED3"></path>
            <path d="M108.917923,48.6682175 C108.917923,51.7670544 106.405582,54.2797998 103.30715,54.2797998 C100.207504,54.2797998 97.6951629,51.7670544 97.6951629,48.6682175 C97.6951629,45.5693806 100.207504,43.0566352 103.30715,43.0566352 C106.405582,43.0566352 108.917923,45.5693806 108.917923,48.6682175" id="Fill-27" fill="#E98853"></path>
            <path d="M124.363536,44.5449349 C124.363536,47.6437718 121.851195,50.1561125 118.751954,50.1561125 C115.652712,50.1561125 113.140371,47.6437718 113.140371,44.5449349 C113.140371,41.4460981 115.652712,38.9329478 118.751954,38.9329478 C121.851195,38.9329478 124.363536,41.4460981 124.363536,44.5449349" id="Fill-28" fill="#E98853"></path>
            <path d="M105.883847,37.4446481 C105.883847,40.5434849 103.371507,43.0562304 100.27267,43.0562304 C97.1734282,43.0562304 94.6610875,40.5434849 94.6610875,37.4446481 C94.6610875,34.3458112 97.1734282,31.8330657 100.27267,31.8330657 C103.371507,31.8330657 105.883847,34.3458112 105.883847,37.4446481" id="Fill-29" fill="#E98853"></path>
            <path d="M120.971654,30.6871923 C120.971654,33.7860291 118.459313,36.2987746 115.360476,36.2987746 C112.26083,36.2987746 109.748489,33.7860291 109.748489,30.6871923 C109.748489,27.5883554 112.26083,25.0752052 115.360476,25.0752052 C118.459313,25.0752052 120.971654,27.5883554 120.971654,30.6871923" id="Fill-30" fill="#E98853"></path>
            <path d="M114.542862,31.7857089 C114.542862,35.4912799 111.538739,38.4958079 107.833168,38.4958079 C104.126788,38.4958079 101.122664,35.4912799 101.122664,31.7857089 C101.122664,28.0801379 104.126788,25.0748004 107.833168,25.0748004 C111.538739,25.0748004 114.542862,28.0801379 114.542862,31.7857089" id="Fill-31" fill="#A2C0A3"></path>
            <path d="M117.574914,48.2031491 C117.574914,51.9087201 114.570791,54.9132481 110.865624,54.9132481 C107.158839,54.9132481 104.154716,51.9087201 104.154716,48.2031491 C104.154716,44.4975781 107.158839,41.4926454 110.865624,41.4926454 C114.570791,41.4926454 117.574914,44.4975781 117.574914,48.2031491" id="Fill-32" fill="#A2C0A3"></path>
            <path d="M120.845369,52.2102658 L98.9572023,52.2102658 C98.2124452,52.2102658 97.6081397,51.6059602 97.6081397,50.8612032 L97.6081397,28.9730368 C97.6081397,28.2274703 98.2124452,27.6239742 98.9572023,27.6239742 L120.845369,27.6239742 C121.59134,27.6239742 122.194836,28.2274703 122.194836,28.9730368 L122.194836,50.8612032 C122.194836,51.6059602 121.59134,52.2102658 120.845369,52.2102658" id="Fill-33" fill="#F9DA39"></path>
            <path d="M123.573851,39.8307039 C123.573851,47.4721539 117.379415,53.6661848 109.73837,53.6661848 C102.09692,53.6661848 95.9024842,47.4721539 95.9024842,39.8307039 C95.9024842,32.1896586 102.09692,25.995223 109.73837,25.995223 C117.379415,25.995223 123.573851,32.1896586 123.573851,39.8307039" id="Fill-34" fill="#8D755B"></path>
            <path d="M109.748489,53.6928989 C108.991994,53.6928989 108.25007,53.632185 107.526765,53.5156144 L107.526765,53.4905193 C108.246832,53.6062804 108.985518,53.6661848 109.73837,53.6661848 C111.961308,53.6661848 114.061603,53.1420216 115.923091,52.2102658 L115.997162,52.2102658 C114.119079,53.1586167 111.996117,53.6928989 109.748489,53.6928989" id="Fill-35" fill="#89A190"></path>
            <path d="M123.516375,41.5788591 C123.502208,41.5557878 123.487637,41.5331213 123.473066,41.5104548 C123.539851,40.9599822 123.573851,40.3993906 123.573851,39.8307039 C123.573851,37.6696942 123.078425,35.6244457 122.194836,33.8022195 L122.194836,33.6755299 C123.11202,35.5252797 123.627279,37.6085756 123.627279,39.8145135 C123.627279,40.4119382 123.589636,41.0012677 123.516375,41.5788591" id="Fill-36" fill="#C0C4CC"></path>
            <path d="M122.194836,45.9628066 L122.194836,45.859593 C122.846094,44.5166018 123.286472,43.0529923 123.473066,41.5104548 C123.487637,41.5331213 123.502208,41.5557878 123.516375,41.5788591 C123.318852,43.1355632 122.863903,44.6109107 122.194836,45.9628066" id="Fill-37" fill="#BF734A"></path>
            <path d="M96.440814,35.8604203 C96.7302168,34.88576 97.1236428,33.9556233 97.6081397,33.0833671 L97.6081397,33.1703903 C97.1515712,34.0001468 96.7779784,34.8813077 96.497885,35.803754 L96.440814,35.8604203" id="Fill-38" fill="#BF734A"></path>
            <path d="M116.356588,27.6239742 L116.256613,27.6239742 C114.952883,26.9261692 113.525702,26.4315534 112.014736,26.1814122 C112.034164,26.1668409 112.053593,26.1526743 112.073021,26.1385077 C112.15033,26.1518648 112.227235,26.1660314 112.304139,26.1801979 C112.456328,26.2093406 112.606089,26.238888 112.754231,26.2712688 C113.035134,26.3340064 113.314013,26.4056488 113.58763,26.4845769 C113.809843,26.5485289 114.028413,26.6217903 114.245769,26.6942422 C114.287054,26.7088135 114.325507,26.7237896 114.365982,26.7387657 C115.056097,26.9824308 115.721521,27.2791193 116.356588,27.6239742" id="Fill-40" fill="#BF734A"></path>
            <path d="M103.219722,27.6239742 L103.108818,27.6239742 C105.08121,26.5473146 107.343409,25.9357233 109.748489,25.9357233 C110.178748,25.9357233 110.600507,25.9608184 111.019028,25.9992705 C111.094718,26.006961 111.171622,26.0114133 111.246503,26.0191037 C111.255003,26.0199133 111.263098,26.0207228 111.271193,26.0219371 C111.31005,26.0450083 111.348097,26.0684844 111.38655,26.0923652 C110.845791,26.0280085 110.296128,25.995223 109.73837,25.995223 C107.381052,25.995223 105.162162,26.5841477 103.219722,27.6239742" id="Fill-41" fill="#89A190"></path>
            <path d="M115.997162,52.2102658 L115.923091,52.2102658 C118.649954,50.8454175 120.863178,48.6054798 122.194836,45.859593 L122.194836,45.9628066 C120.861559,48.6568842 118.679097,50.8559413 115.997162,52.2102658 M122.194836,33.8022195 C120.917821,31.1688558 118.830072,29.0009652 116.256613,27.6239742 L116.356588,27.6239742 C118.872977,28.9888224 120.921059,31.1065229 122.194836,33.6755299 L122.194836,33.8022195 M97.6081397,33.1703903 L97.6081397,33.0833671 C98.8859646,30.783525 100.798452,28.8847993 103.108818,27.6239742 L103.219722,27.6239742 C100.854714,28.8892516 98.9001312,30.8223819 97.6081397,33.1703903" id="Fill-42" fill="#CDB736"></path>
            <path d="M109.73837,53.6661848 C108.985518,53.6661848 108.246832,53.6062804 107.526765,53.4905193 L107.526765,52.9570466 C108.249261,53.0792839 108.991184,53.1428311 109.748489,53.1428311 C117.11106,53.1428311 123.077616,47.1762749 123.077616,39.8145135 C123.077616,33.9090759 119.233617,28.9094896 113.913866,27.1593106 L113.906985,27.1585011 C107.892263,27.1585011 102.702035,30.6884065 100.295741,35.7899922 L100.092552,35.5868031 L99.907577,35.771778 L99.722602,35.5868031 L99.1555343,36.1530613 L98.5896809,35.5868031 L98.4038964,35.7725876 L98.2181119,35.5868031 L97.6518537,36.1530613 L97.0860002,35.5868031 L96.9006205,35.7725876 L96.714836,35.5868031 L96.497885,35.803754 C96.7779784,34.8813077 97.1515712,34.0001468 97.6081397,33.1703903 C98.9001312,30.8223819 100.854714,28.8892516 103.219722,27.6239742 C105.162162,26.5841477 107.381052,25.995223 109.73837,25.995223 C110.296128,25.995223 110.845791,26.0280085 111.38655,26.0923652 C111.597024,26.1174602 111.807094,26.1470077 112.014736,26.1814122 C113.525702,26.4315534 114.952883,26.9261692 116.256613,27.6239742 C118.830072,29.0009652 120.917821,31.1688558 122.194836,33.8022195 C123.078425,35.6244457 123.573851,37.6696942 123.573851,39.8307039 C123.573851,40.3993906 123.539851,40.9599822 123.473066,41.5104548 C123.286472,43.0529923 122.846094,44.5166018 122.194836,45.859593 C120.863178,48.6054798 118.649954,50.8454175 115.923091,52.2102658 C114.061603,53.1420216 111.961308,53.6661848 109.73837,53.6661848" id="Fill-43" fill="#776250"></path>
            <path d="M118.257743,41.1461715 C118.257743,41.3372178 117.952149,41.4926454 117.574914,41.4926454 C117.197273,41.4926454 116.89249,41.3372178 116.89249,41.1461715 C116.89249,40.9551251 117.197273,40.8001023 117.574914,40.8001023 C117.952149,40.8001023 118.257743,40.9551251 118.257743,41.1461715" id="Fill-44" fill="#F3E2C9"></path>
            <path d="M107.04834,35.815492 C107.183529,35.9506816 107.077482,36.2765128 106.810341,36.5432492 C106.54401,36.8099855 106.217774,36.9160325 106.082989,36.7812476 C105.947799,36.646058 106.054251,36.3202268 106.320987,36.0534905 C106.587724,35.7871589 106.913555,35.6803025 107.04834,35.815492" id="Fill-45" fill="#F3E2C9"></path>
            <path d="M107.04834,44.0580096 C107.183529,44.1931992 107.077482,44.5190304 106.810341,44.7853619 C106.54401,45.0525031 106.217774,45.15855 106.082989,45.0233604 C105.947799,44.8881708 106.054251,44.5627444 106.320987,44.296008 C106.587724,44.0292717 106.913555,43.92282 107.04834,44.0580096" id="Fill-46" fill="#F3E2C9"></path>
            <path d="M113.281228,36.2983698 C113.280823,36.4894162 112.97523,36.6448438 112.597994,36.644439 C112.221163,36.6448438 111.91557,36.4894162 111.91557,36.2983698 C111.91557,36.1073235 112.221163,35.9523007 112.597994,35.9518959 C112.97523,35.9523007 113.281228,36.1073235 113.281228,36.2983698" id="Fill-47" fill="#F3E2C9"></path>
            <path d="M104.83714,39.9169176 C104.836735,40.107964 104.531547,40.2633915 104.154716,40.2633915 C103.777076,40.2633915 103.471482,40.107964 103.471482,39.9169176 C103.471482,39.7258712 103.777076,39.5708484 104.154716,39.5708484 C104.531547,39.5708484 104.83714,39.7258712 104.83714,39.9169176" id="Fill-48" fill="#F3E2C9"></path>
            <path d="M113.963652,46.2578761 C113.963247,46.4489225 113.657654,46.6043501 113.281228,46.6039453 C112.903587,46.6043501 112.597994,46.4489225 112.597994,46.2578761 C112.597994,46.0668298 112.903587,45.911807 113.281228,45.9114022 C113.657654,45.911807 113.963652,46.0668298 113.963652,46.2578761" id="Fill-49" fill="#F3E2C9"></path>
            <path d="M108.515187,30.6867875 C108.514783,30.8778339 108.209189,31.0328567 107.832359,31.0328567 C107.455123,31.0328567 107.14953,30.8778339 107.14953,30.6867875 C107.14953,30.4957411 107.455123,30.3403136 107.832359,30.3403136 C108.209189,30.3403136 108.515187,30.4957411 108.515187,30.6867875" id="Fill-50" fill="#F3E2C9"></path>
            <path d="M110.420794,40.2633915 C110.420389,40.4544379 110.114796,40.6098655 109.73837,40.6094607 C109.360729,40.6098655 109.055136,40.4544379 109.055136,40.2633915 C109.055136,40.0723452 109.360729,39.9173224 109.73837,39.9169176 C110.114796,39.9173224 110.420794,40.0723452 110.420794,40.2633915" id="Fill-51" fill="#F3E2C9"></path>
            <path d="M102.488322,44.5408874 C102.487917,44.7319337 102.182324,44.8873613 101.805088,44.8869565 C101.427853,44.8873613 101.122664,44.7319337 101.122664,44.5408874 C101.122664,44.349841 101.427853,44.1948182 101.805088,44.1944134 C102.182324,44.1948182 102.488322,44.349841 102.488322,44.5408874" id="Fill-52" fill="#F3E2C9"></path>
            <path d="M112.597994,43.0558256 C112.597589,43.246872 112.292401,43.4018948 111.91557,43.4018948 C111.53793,43.4018948 111.232741,43.246872 111.232741,43.0558256 C111.232741,42.8647793 111.53793,42.7097565 111.91557,42.7093517 C112.292401,42.7097565 112.597994,42.8647793 112.597994,43.0558256" id="Fill-53" fill="#F3E2C9"></path>
            <path d="M113.936128,40.9454109 C113.744677,40.9373157 113.602202,40.6256511 113.617987,40.249225 C113.633368,39.8719893 113.800939,39.573277 113.991985,39.5809674 C114.182626,39.5890626 114.325102,39.9003225 114.309721,40.2775581 C114.293935,40.654389 114.12677,40.9535061 113.936128,40.9454109" id="Fill-54" fill="#F3E2C9"></path>
            <path d="M105.651111,33.8329812 C105.362518,33.8329812 105.128162,33.5986256 105.128162,33.3092227 C105.128162,33.0202246 105.362518,32.785869 105.651111,32.785869 C105.940918,32.785869 106.175274,33.0202246 106.175274,33.3092227 C106.175274,33.5986256 105.940918,33.8329812 105.651111,33.8329812" id="Fill-55" fill="#776250"></path>
            <path d="M113.671011,33.8337907 C113.382013,33.8337907 113.148062,33.5994351 113.148062,33.3100322 C113.148062,33.0210341 113.382013,32.7862738 113.671011,32.7862738 C113.960009,32.7862738 114.194769,33.0210341 114.194769,33.3100322 C114.194769,33.5994351 113.960009,33.8337907 113.671011,33.8337907" id="Fill-56" fill="#776250"></path>
            <path d="M111.194289,50.0893273 C110.9061,50.0893273 110.67134,49.8549716 110.67134,49.5659735 C110.67134,49.2761659 110.9061,49.0418103 111.194289,49.0418103 C111.484097,49.0418103 111.718452,49.2761659 111.718452,49.5659735 C111.718452,49.8549716 111.484097,50.0893273 111.194289,50.0893273" id="Fill-57" fill="#776250"></path>
            <path d="M116.287779,46.6383498 C115.999591,46.6383498 115.76483,46.4039942 115.76483,46.1149961 C115.76483,45.8251885 115.999591,45.5908329 116.287779,45.5908329 C116.577587,45.5908329 116.811538,45.8251885 116.811538,46.1149961 C116.811538,46.4039942 116.577587,46.6383498 116.287779,46.6383498" id="Fill-58" fill="#776250"></path>
            <path d="M116.811538,39.3219215 C116.52254,39.3219215 116.288994,39.0875659 116.288994,38.7985678 C116.288994,38.5091649 116.52254,38.2748093 116.811538,38.2748093 C117.100536,38.2748093 117.335701,38.5091649 117.335701,38.7985678 C117.335701,39.0875659 117.100536,39.3219215 116.811538,39.3219215" id="Fill-59" fill="#776250"></path>
            <path d="M110.672554,37.9582876 C110.383961,37.9582876 110.1492,37.7235272 110.1492,37.4341243 C110.1492,37.1451262 110.383961,36.9111754 110.672554,36.9111754 C110.962362,36.9111754 111.196313,37.1451262 111.196313,37.4341243 C111.196313,37.7235272 110.962362,37.9582876 110.672554,37.9582876" id="Fill-60" fill="#776250"></path>
            <path d="M113.409536,42.7724942 C113.120943,42.7724942 112.886183,42.5381386 112.886183,42.2491404 C112.886183,41.9597376 113.120943,41.7257867 113.409536,41.7257867 C113.699344,41.7257867 113.93289,41.9597376 113.93289,42.2491404 C113.93289,42.5381386 113.699344,42.7724942 113.409536,42.7724942" id="Fill-61" fill="#776250"></path>
            <path d="M108.103142,41.3368131 C107.814549,41.3368131 107.579384,41.1020527 107.579384,40.8130546 C107.579384,40.5240565 107.814549,40.2892961 108.103142,40.2892961 C108.392141,40.2892961 108.626496,40.5240565 108.626496,40.8130546 C108.626496,41.1020527 108.392141,41.3368131 108.103142,41.3368131" id="Fill-62" fill="#776250"></path>
            <path d="M36.55142,103.717096 C35.9321383,103.717096 35.3124519,103.524835 34.7915267,103.141123 C34.910526,103.05329 35.0242633,102.955743 35.1315245,102.848077 L37.0573691,100.922233 L40.5775603,100.922233 L38.6517158,102.848077 C38.0725053,103.427288 37.3119626,103.717096 36.55142,103.717096 M40.9823196,100.517474 L37.4621283,100.517474 L43.8540865,94.1255154 L47.3742778,94.1255154 L40.9823196,100.517474" id="Fill-63" fill="#7BB4A6"></path>
            <path d="M29.1135639,72.2300634 L25.8908707,69.0073702 L29.1135639,69.0073702 L29.1135639,72.2300634 M29.0063027,68.6026109 L25.4861114,68.6026109 L18.8703214,61.9868209 C18.7630602,61.8791549 18.6493228,61.7816079 18.5303236,61.6937752 C19.0516535,61.3092539 19.6709352,61.1165885 20.2906216,61.1165885 C21.0511642,61.1165885 21.8117069,61.4068008 22.3905126,61.9868209 L29.0063027,68.6026109" id="Fill-65" fill="#7BB4A6"></path>
            <path d="M35.1315245,102.848077 C33.973913,104.006498 32.0889492,104.006498 30.9313377,102.848077 L4.47020127,76.3873457 C3.31218503,75.2293295 3.31218503,73.3451751 4.47020127,72.1867541 L14.6701345,61.9868209 C15.8281508,60.8267808 17.7123051,60.8267808 18.8703214,61.9868209 L45.3314578,88.4479573 C46.489474,89.6059735 46.4898788,91.4901279 45.3314578,92.6485489 L35.1315245,102.848077" id="Fill-67" fill="#33383C"></path>
            <path d="M11.3701323,70.9805716 C11.2705615,71.0797376 11.1090626,71.0797376 11.0094918,70.9805716 C10.9103258,70.8818103 10.9103258,70.7195018 11.0098966,70.6199311 L13.0972401,68.5325876 C13.1968109,68.4334216 13.3583098,68.4334216 13.4574758,68.5325876 C13.5570466,68.6313488 13.5570466,68.7932525 13.4574758,68.8932281 L11.3701323,70.9805716" id="Fill-68" fill="#CDCED3"></path>
            <path d="M36.7157523,94.2331814 C35.9434716,95.0050573 35.9434716,96.2581919 36.7157523,97.0300678 C37.4884377,97.8027533 38.7411676,97.8027533 39.5134482,97.0304726 C40.2857289,96.2585967 40.2857289,95.0050573 39.5134482,94.2323718 C38.7407628,93.4604959 37.4880329,93.4604959 36.7157523,94.2331814" id="Fill-69" fill="#CDCED3"></path>
            <g id="Group-72" transform="translate(7.397420, 64.948849)">
                <mask id="mask-2" fill="white">
                    <use xlink:href="#path-1"></use>
                </mask>
                <g id="Clip-71"></g>
                <path d="M22.3682108,34.8772957 L0.178094073,12.6871789 L12.6369888,0.22868898 L21.7161437,9.30784388 L21.7161437,27.5220105 C21.7161437,28.4327188 22.4609007,29.1766663 23.3712043,29.1766663 L28.0688402,29.1766663 L22.3682108,34.8772957" id="Fill-70" mask="url(#mask-2)"></path>
            </g>
            <path d="M102.942867,94.1255154 L101.068022,94.1255154 C101.905873,94.1255154 102.602869,93.49571 102.708916,92.6857867 L104.583356,92.6857867 C104.477309,93.49571 103.780314,94.1255154 102.942867,94.1255154 Z M104.597523,92.2810275 L102.723082,92.2810275 L102.723082,91.0792972 L103.99686,91.0792972 C104.907568,91.0792972 105.65192,90.334945 105.65192,89.4242366 L105.65192,84.7929812 L107.526765,84.7929812 L107.526765,89.4242366 C107.526765,90.334945 106.782413,91.0792972 105.871705,91.0792972 L104.597523,91.0792972 L104.597523,92.2810275 Z M105.65192,84.388222 L107.526765,84.388222 L107.526765,76.9001757 L105.65192,76.9001757 L105.65192,84.388222 Z M105.65192,76.4954164 L107.526765,76.4954164 L107.526765,69.0073702 L105.65192,69.0073702 L105.65192,76.4954164 Z M105.65192,68.6026109 L107.526765,68.6026109 L107.526765,61.1157789 L105.65192,61.1157789 L105.65192,68.6026109 Z M107.526765,60.7102102 L105.65192,60.7102102 L105.65192,59.3303859 C106.272416,59.4590993 106.898579,59.5582653 107.526765,59.6278839 L107.526765,60.7102102 Z M88.4447948,36.338441 L87.8785366,35.7725876 L88.0643211,35.5868031 L88.6305793,36.1530613 L88.4447948,36.338441 Z M86.9411142,36.338441 L86.3752608,35.7725876 L86.5606405,35.5868031 L87.1268987,36.1530613 L86.9411142,36.338441 Z M85.4382431,36.338441 L84.8715801,35.7721828 L85.0569599,35.5868031 L85.6236228,36.1530613 L85.4382431,36.338441 Z M83.9341577,36.338441 L83.3678995,35.7725876 L83.553684,35.5868031 L84.1199422,36.1530613 L83.9341577,36.338441 Z M82.430477,36.338441 L81.8642188,35.7721828 L82.0500033,35.5868031 L82.6158568,36.1530613 L82.430477,36.338441 Z M80.9272012,36.338441 L80.360943,35.7725876 L80.5467275,35.5868031 L81.1125809,36.1530613 L80.9272012,36.338441 Z M79.4231158,36.338441 L78.8568576,35.7721828 L79.0422373,35.5868031 L79.6089003,36.1526565 L79.4231158,36.338441 Z M77.9198399,36.338441 L77.3535817,35.7725876 L77.5393662,35.5868031 L78.1056244,36.1530613 L77.9198399,36.338441 Z M76.416564,36.338441 L75.849901,35.7721828 L76.0352808,35.5868031 L76.6019437,36.1530613 L76.416564,36.338441 Z M74.9128834,36.338441 L74.3462204,35.7725876 L74.5320049,35.5868031 L75.0982631,36.1530613 L74.9128834,36.338441 Z M73.4092027,36.338441 L72.8433493,35.7725876 L73.0283243,35.5868031 L73.5945825,36.1530613 L73.4092027,36.338441 Z M71.9059268,36.338441 L71.3412877,35.7742066 L71.5282864,35.5868031 L72.0925208,36.151847 L71.9059268,36.338441 Z M70.4034605,36.338441 L69.8400356,35.7738018 L70.0266296,35.5868031 L70.5904592,36.1510375 L70.4034605,36.338441 Z M68.9026131,36.338441 L68.3387835,35.7742066 L68.5257823,35.5868031 L69.0896119,36.1514422 L68.9026131,36.338441 Z M67.399742,36.338441 L66.8351029,35.7738018 L67.0221016,35.5868031 L67.5867408,36.1514422 L67.399742,36.338441 Z M65.8960614,36.338441 L65.331827,35.7742066 L65.5192305,35.5868031 L66.0834649,36.1514422 L65.8960614,36.338441 Z M64.3927855,36.338441 L63.8281463,35.7738018 L64.0151451,35.5868031 L64.5797843,36.1514422 L64.3927855,36.338441 Z M62.8891049,36.338441 L62.3244657,35.7742066 L62.5118692,35.5868031 L63.0761036,36.1514422 L62.8891049,36.338441 Z M61.385829,36.338441 L60.8207851,35.7738018 L61.0077838,35.5868031 L61.5728278,36.1514422 L61.385829,36.338441 Z M59.8817436,36.338441 L59.3175092,35.7742066 L59.504508,35.5868031 L60.0691471,36.1514422 L59.8817436,36.338441 Z M58.3784677,36.338441 L57.8138285,35.7738018 L58.0008273,35.5868031 L58.5654665,36.1514422 L58.3784677,36.338441 Z M56.8747871,36.338441 L56.3101479,35.7742066 L56.4975514,35.5868031 L57.0617858,36.1514422 L56.8747871,36.338441 Z M55.3711064,36.338441 L54.8064673,35.7742066 L54.9938708,35.5868031 L55.55851,36.1514422 L55.3711064,36.338441 Z M53.8678305,36.338441 L53.3031914,35.7742066 L53.4901901,35.5868031 L54.0548293,36.1514422 L53.8678305,36.338441 Z M52.3637451,36.338441 L51.7995107,35.7742066 L51.9865095,35.5868031 L52.5511487,36.1514422 L52.3637451,36.338441 Z M50.8604693,36.338441 L50.2958301,35.7742066 L50.4832336,35.5868031 L51.0478728,36.1514422 L50.8604693,36.338441 Z M49.3567886,36.338441 L48.7925542,35.7738018 L48.979553,35.5868031 L49.5441921,36.1514422 L49.3567886,36.338441 Z M47.8535127,36.338441 L47.2888736,35.7742066 L47.4762771,35.5868031 L48.0405115,36.1514422 L47.8535127,36.338441 Z M46.3498321,36.338441 L45.7851929,35.7738018 L45.9717869,35.5868031 L46.5368309,36.1514422 L46.3498321,36.338441 Z M44.8461515,36.338441 L44.2815123,35.7742066 L44.4689158,35.5868031 L45.033555,36.1514422 L44.8461515,36.338441 Z M43.3424708,36.338441 L42.7778316,35.7738018 L42.9648304,35.5868031 L43.5298743,36.1514422 L43.3424708,36.338441 Z M41.8391949,36.338441 L41.2745558,35.7742066 L41.4619593,35.5868031 L42.0261937,36.1514422 L41.8391949,36.338441 Z M40.3355143,36.338441 L39.7708751,35.7738018 L39.9574691,35.5868031 L40.5225131,36.1514422 L40.3355143,36.338441 Z M38.8322384,36.338441 L38.2671945,35.7742066 L38.454598,35.5868031 L39.0192372,36.1514422 L38.8322384,36.338441 Z M37.328153,36.338441 L37.1229401,36.1332281 C37.1273924,36.0118003 37.1306305,35.8899678 37.1322495,35.76854 L37.5151518,36.1514422 L37.328153,36.338441 Z M89.9432136,36.3331791 L89.3822173,35.7725876 L89.5680018,35.5868031 L89.9986656,36.0174669 C89.9792372,36.1222996 89.9606183,36.2283465 89.9432136,36.3331791 Z" id="Fill-73" fill="#7BB4A6"></path>
            <path d="M107.526765,57.0600912 C106.89696,56.9799488 106.271607,56.8662115 105.65192,56.7176649 C106.271607,56.8658067 106.89696,56.9799488 107.526765,57.0600912 M107.526765,56.5383565 C106.895746,56.438381 106.270393,56.3023819 105.65192,56.1303592 L105.65192,53.7677794 C105.938895,53.6354231 106.212917,53.4795908 106.471153,53.3031158 C106.486129,53.3067586 106.50151,53.3104014 106.516486,53.3140443 C106.82977,53.5803758 107.167744,53.8191838 107.526765,54.0252063 L107.526765,56.5383565 M94.4599222,36.338441 L93.9993061,35.877825 C94.0244012,35.7810875 94.049901,35.6851596 94.0766151,35.5884221 L94.0782342,35.5868031 L94.6448971,36.1530613 L94.4599222,36.338441" id="Fill-80" fill="#C0C4CC"></path>
            <path d="M107.526765,59.6278839 C106.898579,59.5582653 106.272416,59.4590993 105.65192,59.3303859 L105.65192,56.7180696 C106.271607,56.8662115 106.89696,56.9799488 107.526765,57.0600912 L107.526765,59.6278839 M91.4521561,36.338441 L90.8858979,35.7721828 L91.0712777,35.5868031 L91.6375359,36.1530613 L91.4521561,36.338441 M89.9484755,36.338441 L89.9432136,36.3331791 C89.9606183,36.2283465 89.9792372,36.1222996 89.9986656,36.0174669 L90.13426,36.1530613 L89.9484755,36.338441 M92.6036962,35.9867052 L92.3895786,35.7725876 L92.5753631,35.5868031 L92.6716958,35.6831358 C92.6482197,35.7843256 92.6255532,35.8851106 92.6036962,35.9867052" id="Fill-81" fill="#CDCED3"></path>
            <path d="M107.526765,57.0600912 C106.89696,56.9799488 106.271607,56.8658067 105.65192,56.7176649 L105.65192,56.1303592 C106.270393,56.3023819 106.895746,56.438381 107.526765,56.5383565 L107.526765,57.0600912 M92.9558368,36.338441 L92.6036962,35.9867052 C92.6255532,35.8851106 92.6482197,35.7843256 92.6716958,35.6831358 L93.1416213,36.1530613 L92.9558368,36.338441 M93.9993061,35.877825 L93.8932592,35.771778 L94.0766151,35.5884221 C94.049901,35.6851596 94.0244012,35.7810875 93.9993061,35.877825" id="Fill-82" fill="#A9ACB8"></path>
            <path d="M105.65192,53.7677794 L105.65192,53.0772601 C105.92149,53.1606405 106.194703,53.2359257 106.471153,53.3031158 C106.212917,53.4795908 105.938895,53.6354231 105.65192,53.7677794" id="Fill-83" fill="#BF734A"></path>
            <polyline id="Fill-84" fill="#BF734A" points="95.9627933 36.338441 95.3969398 35.7725876 95.5827243 35.5868031 96.1485778 36.1526565 95.9627933 36.338441"></polyline>
            <path d="M107.526765,54.0252063 C107.167744,53.8191838 106.82977,53.5803758 106.516486,53.3140443 C106.848794,53.3933771 107.185553,53.4605671 107.526765,53.5156144 L107.526765,54.0252063" id="Fill-85" fill="#89A190"></path>
            <path d="M107.526765,52.9570466 C106.884817,52.8485711 106.258655,52.6935483 105.65192,52.4964306 L105.65192,37.2394351 C105.65192,36.7707239 105.65192,36.3461314 105.65192,36.0417525 L106.10687,35.5868031 L106.455772,35.9357055 C106.410034,35.9705148 106.364701,36.0097765 106.320987,36.0534905 C106.054251,36.3202268 105.947799,36.646058 106.082989,36.7812476 C106.122655,36.820914 106.178917,36.839533 106.245702,36.839533 C106.404773,36.839533 106.622533,36.7314622 106.810341,36.5432492 C106.949983,36.4036073 107.045911,36.2477749 107.085982,36.1117758 L107.526765,35.670993 C107.526765,35.9085867 107.526765,36.5226065 107.526765,37.2394351 L107.526765,52.9570466 M106.886436,43.9993195 C106.726961,43.9993195 106.5092,44.107795 106.320987,44.296008 C106.054251,44.5627444 105.947799,44.8881708 106.082989,45.0233604 C106.122655,45.0634316 106.178917,45.0820505 106.245297,45.0820505 C106.404773,45.0820505 106.622533,44.9739798 106.810341,44.7853619 C107.077482,44.5190304 107.183529,44.1931992 107.04834,44.0580096 C107.008673,44.0179384 106.952817,43.9993195 106.886436,43.9993195 M104.984472,36.338441 L104.417809,35.7725876 L104.603594,35.5868031 L105.169852,36.1530613 L104.984472,36.338441 M103.480792,36.338441 L102.914534,35.7721828 L103.099913,35.5868031 L103.666576,36.1526565 L103.480792,36.338441 M101.977921,36.338441 L101.411258,35.7725876 L101.597042,35.5868031 L102.1633,36.1530613 L101.977921,36.338441 M100.473835,36.338441 L100.17917,36.0437763 C100.217218,35.9587768 100.256075,35.8737774 100.295741,35.7899922 L100.659215,36.1530613 L100.473835,36.338441" id="Fill-86" fill="#776250"></path>
            <path d="M107.526765,53.4905193 C107.172196,53.4334482 106.821675,53.3630201 106.47682,53.2796397 C106.198345,53.2124497 105.923514,53.1367597 105.65192,53.0529745 L105.65192,52.4964306 C106.258655,52.6935483 106.884817,52.8485711 107.526765,52.9570466 L107.526765,53.4905193 M98.9701546,36.338441 L98.4038964,35.7725876 L98.5896809,35.5868031 L99.1555343,36.1530613 L98.9701546,36.338441 M97.4664739,36.338441 L96.9006205,35.7725876 L97.0860002,35.5868031 L97.6518537,36.1530613 L97.4664739,36.338441 M100.17917,36.0437763 L99.907577,35.771778 L100.092552,35.5868031 L100.295741,35.7899922 C100.256075,35.8737774 100.217218,35.9587768 100.17917,36.0437763" id="Fill-90" fill="#625246"></path>
            <path d="M106.245702,36.839533 C106.178917,36.839533 106.122655,36.820914 106.082989,36.7812476 C105.947799,36.646058 106.054251,36.3202268 106.320987,36.0534905 C106.364701,36.0097765 106.410034,35.9705148 106.455772,35.9357055 L106.858912,36.338441 L107.085982,36.1117758 C107.045911,36.2477749 106.949983,36.4036073 106.810341,36.5432492 C106.622533,36.7314622 106.404773,36.839533 106.245702,36.839533" id="Fill-91" fill="#C5BBB1"></path>
            <path d="M106.245297,45.0820505 C106.178917,45.0820505 106.122655,45.0634316 106.082989,45.0233604 C105.947799,44.8881708 106.054251,44.5627444 106.320987,44.296008 C106.5092,44.107795 106.726961,43.9993195 106.886436,43.9993195 C106.952817,43.9993195 107.008673,44.0179384 107.04834,44.0580096 C107.183529,44.1931992 107.077482,44.5190304 106.810341,44.7853619 C106.622533,44.9739798 106.404773,45.0820505 106.245297,45.0820505" id="Fill-92" fill="#C5BBB1"></path>
            <path d="M104.984472,36.338441 L104.232025,35.5868031 L103.480792,36.338441 L102.729154,35.5868031 L101.977921,36.338441 L101.225473,35.5868031 L100.473835,36.338441 L99.722602,35.5868031 L98.9701546,36.338441 L98.2181119,35.5868031 L97.4664739,36.338441 L96.714836,35.5868031 L95.9627933,36.338441 L95.2111553,35.5868031 L94.4599222,36.338441 L93.7082842,35.5868031 L92.9558368,36.338441 L92.2033893,35.5868031 L91.4521561,36.338441 L90.7009229,35.5868031 L89.9484755,36.338441 L89.1968375,35.5868031 L88.4447948,36.338441 L87.6931569,35.5868031 L86.9411142,36.338441 L86.1894763,35.5868031 L85.4382431,36.338441 L84.6862004,35.5868031 L83.9341577,36.338441 L83.182115,35.5868031 L82.430477,36.338441 L81.6788391,35.5868031 L80.9272012,36.338441 L80.1751585,35.5868031 L79.4231158,36.338441 L78.6718826,35.5868031 L77.9198399,36.338441 L77.1677972,35.5868031 L76.416564,36.338441 L75.6645213,35.5868031 L74.9128834,36.338441 L74.1604359,35.5868031 L73.4092027,36.338441 L72.6575648,35.5868031 L71.9059268,36.338441 L71.1538841,35.5868031 L70.4034605,36.338441 L69.6538463,35.5868031 L68.9026131,36.338441 L68.15138,35.5868031 L67.399742,36.338441 L66.6485088,35.5868031 L65.8960614,36.338441 L65.1444234,35.5868031 L64.3927855,36.338441 L63.6415523,35.5868031 L62.8891049,36.338441 L62.1370622,35.5868031 L61.385829,36.338441 L60.6337863,35.5868031 L59.8817436,36.338441 L59.1301056,35.5868031 L58.3784677,36.338441 L57.6268298,35.5868031 L56.8747871,36.338441 L56.1227444,35.5868031 L55.3711064,36.338441 L54.6194685,35.5868031 L53.8678305,36.338441 L53.1157878,35.5868031 L52.3637451,36.338441 L51.612512,35.5868031 L50.8604693,36.338441 L50.1084266,35.5868031 L49.3567886,36.338441 L48.6055554,35.5868031 L47.8535127,36.338441 L47.10147,35.5868031 L46.3498321,36.338441 L45.5981942,35.5868031 L44.8461515,36.338441 L44.0941088,35.5868031 L43.3424708,36.338441 L42.5912376,35.5868031 L41.8391949,36.338441 L41.0867475,35.5868031 L40.3355143,36.338441 L39.5838763,35.5868031 L38.8322384,36.338441 L38.0797909,35.5868031 L37.328153,36.338441 L36.5769198,35.5868031 L35.8244724,36.338441 L35.0724297,35.5868031 L34.3211965,36.338441 L33.5695585,35.5868031 L32.8175158,36.338441 L32.0476637,35.5681841 C32.0476637,35.6386123 32.0476637,36.3570599 32.0476637,37.2264828 L32.0476637,89.4242366 C32.0476637,90.334945 32.7924208,91.0792972 33.7027243,91.0792972 L103.99686,91.0792972 C104.907568,91.0792972 105.65192,90.334945 105.65192,89.4242366 L105.65192,37.2394351 C105.65192,36.5226065 105.65192,35.9085867 105.65192,35.670993 L104.984472,36.338441" id="Fill-93" fill="#CDCED3"></path>
            <path d="M101.303187,38.6382831 L100.551549,39.389921 L99.799911,38.6382831 L99.0486779,39.389921 L98.2962304,38.6382831 L97.5449972,39.389921 L96.7933593,38.6382831 L96.0413166,39.389921 L95.2888691,38.6382831 L94.5372312,39.389921 L93.785998,38.6382831 L93.0335505,39.389921 L92.2823174,38.6382831 L91.5302747,39.389921 L90.7790415,38.6382831 L90.026594,39.389921 L89.2745513,38.6382831 L88.5233181,39.389921 L87.7716802,38.6382831 L87.0192327,39.389921 L86.26719,38.6382831 L85.5159569,39.389921 L84.7643189,38.6382831 L84.0122762,39.389921 L83.2606383,38.6382831 L82.5085956,39.389921 L81.7569576,38.6382831 L81.0049149,39.389921 L80.253277,38.6382831 L79.5016391,39.389921 L78.7495964,38.6382831 L77.9979584,39.389921 L77.2459157,38.6382831 L76.4942778,39.389921 L75.7426398,38.6382831 L74.9910019,39.389921 L74.2385544,38.6382831 L73.4869165,39.389921 L72.7356833,38.6382831 L71.9836406,39.389921 L71.2315979,38.6382831 L70.47996,39.389921 L69.728322,38.6382831 L68.9766841,39.389921 L68.2242366,38.6382831 L67.4730034,39.389921 L66.7213655,38.6382831 L65.9693228,39.389921 L65.2172801,38.6382831 L64.4656422,39.389921 L63.714409,38.6382831 L62.9619615,39.389921 L62.2099188,38.6382831 L61.4586856,39.389921 L60.7070477,38.6382831 L59.955005,39.389921 L59.2029623,38.6382831 L58.4513244,39.389921 L57.6996864,38.6382831 L56.9476437,39.389921 L56.1960058,38.6382831 L55.4443678,39.389921 L54.6927299,38.6382831 L53.9406872,39.389921 L53.1886445,38.6382831 L52.4366018,39.389921 L51.6853686,38.6382831 L50.9337307,39.389921 L50.181688,38.6382831 L49.4296453,39.389921 L48.6784121,38.6382831 L47.9263694,39.389921 L47.1743267,38.6382831 L46.4226888,39.389921 L45.6710508,38.6382831 L44.9194129,39.389921 L44.1673702,38.6382831 L43.4153275,39.389921 L42.6640943,38.6382831 L41.9120516,39.389921 L41.1600089,38.6382831 L40.408371,39.389921 L39.656733,38.6382831 L38.9050951,39.389921 L38.1526476,38.6382831 L37.4010097,39.389921 L36.6497765,38.6382831 L35.8981386,39.389921 L35.1456911,38.6382831 L34.3940532,39.389921 L33.64282,38.6382831 L32.8903725,39.389921 L32.1383298,38.6382831 L31.3866919,39.389921 L30.6350539,38.6382831 L29.883416,39.389921 L29.1135639,38.6200689 C29.1135639,38.6900923 29.1135639,39.40854 29.1135639,40.2779629 L29.1135639,92.4708596 C29.1135639,93.3815679 29.8583209,94.1255154 30.7686245,94.1255154 L101.068022,94.1255154 C101.97873,94.1255154 102.723082,93.3815679 102.723082,92.4708596 L102.723082,40.2909152 C102.723082,39.5740865 102.723082,38.9600667 102.723082,38.722473 L102.05523,39.389921 L101.303187,38.6382831" id="Fill-94" fill="#FFFFFE"></path>
            <polygon id="Fill-96" fill="#CDCED3" points="33.293108 82.817756 67.3608851 82.817756 67.3608851 58.1335127 33.293108 58.1335127"></polygon>
            <polygon id="Fill-97" fill="#CDCED3" points="33.293108 85.8514267 67.3608851 85.8514267 67.3608851 85.023694 33.293108 85.023694"></polygon>
            <polygon id="Fill-98" fill="#CDCED3" points="33.293108 88.403029 67.3608851 88.403029 67.3608851 87.5757011 33.293108 87.5757011"></polygon>
            <polygon id="Fill-99" fill="#CDCED3" points="33.293108 90.9538219 67.3608851 90.9538219 67.3608851 90.1268987 33.293108 90.1268987"></polygon>
            <polygon id="Fill-100" fill="#CDCED3" points="70.9923852 85.8514267 99.3000334 85.8514267 99.3000334 85.023694 70.9923852 85.023694"></polygon>
            <polygon id="Fill-101" fill="#CDCED3" points="70.9923852 88.403029 99.3000334 88.403029 99.3000334 87.5757011 70.9923852 87.5757011"></polygon>
            <polygon id="Fill-102" fill="#CDCED3" points="70.9923852 90.9538219 99.3000334 90.9538219 99.3000334 90.1268987 70.9923852 90.1268987"></polygon>
            <polygon id="Fill-103" fill="#33383C" points="70.9923852 75.5770177 87.1637318 75.5770177 87.1637318 74.749285 70.9923852 74.749285"></polygon>
            <polygon id="Fill-104" fill="#CDCED3" points="70.9923852 78.1290248 99.3000334 78.1290248 99.3000334 77.3012921 70.9923852 77.3012921"></polygon>
            <polygon id="Fill-105" fill="#CDCED3" points="70.9923852 80.6798176 99.3000334 80.6798176 99.3000334 79.8524897 70.9923852 79.8524897"></polygon>
            <polygon id="Fill-106" fill="#CDCED3" points="70.9923852 83.2306105 99.3000334 83.2306105 99.3000334 82.4032826 70.9923852 82.4032826"></polygon>
            <polygon id="Fill-107" fill="#CDCED3" points="70.9923852 67.6481886 99.3000334 67.6481886 99.3000334 66.8204559 70.9923852 66.8204559"></polygon>
            <polygon id="Fill-108" fill="#CDCED3" points="70.9923852 70.1989814 99.3000334 70.1989814 99.3000334 69.3716535 70.9923852 69.3716535"></polygon>
            <polygon id="Fill-109" fill="#CDCED3" points="70.9923852 72.750179 99.3000334 72.750179 99.3000334 71.9228511 70.9923852 71.9228511"></polygon>
            <polygon id="Fill-110" fill="#E98853" points="70.9923852 59.9739531 93.7147604 59.9739531 93.7147604 59.1466252 70.9923852 59.1466252"></polygon>
            <polygon id="Fill-111" fill="#E98853" points="70.9923852 62.5247459 87.7162282 62.5247459 87.7162282 61.697418 70.9923852 61.697418"></polygon>
            <polygon id="Fill-112" fill="#CDCED3" points="70.9923852 65.0759435 99.3000334 65.0759435 99.3000334 64.2482108 70.9923852 64.2482108"></polygon>
            <path d="M43.9301813,45.0140509 L43.9301813,46.9451573 L43.7804203,46.9451573 C43.5998977,46.4173513 43.3291138,46.0162348 42.9684733,45.7414033 C42.6078328,45.4665718 42.2127877,45.3293584 41.7845524,45.3293584 C41.3753408,45.3293584 41.0345335,45.44431 40.7625353,45.674618 C40.4905371,45.9049261 40.2978717,46.2263049 40.1845391,46.6383498 C40.0716113,47.0503948 40.014945,47.4733682 40.014945,47.9068653 C40.014945,48.4322429 40.0768731,48.8924541 40.2007295,49.2887134 C40.3249905,49.684568 40.5249416,49.9755899 40.8009874,50.1613744 C41.0766285,50.3471589 41.4048882,50.4402535 41.7845524,50.4402535 C41.9169087,50.4402535 42.0520983,50.426087 42.190526,50.3977538 C42.3293584,50.3694207 42.4714289,50.3281352 42.6171422,50.2743022 L42.6171422,49.1353097 C42.6171422,48.919573 42.6021661,48.7803358 42.5726187,48.7167886 C42.5430713,48.6536462 42.4815479,48.5965751 42.388858,48.5451707 C42.2957634,48.494171 42.1832403,48.4686712 42.0512888,48.4686712 L41.9100278,48.4686712 L41.9100278,48.3189103 L44.5725342,48.3189103 L44.5725342,48.4686712 C44.3705593,48.4816235 44.2297031,48.5095519 44.1503703,48.5512421 C44.0706327,48.5929323 44.0095141,48.6625509 43.9666096,48.7592883 C43.942324,48.8106928 43.9301813,48.9357634 43.9301813,49.1353097 L43.9301813,50.2743022 C43.5796597,50.4309441 43.2157812,50.5483243 42.8373313,50.6280618 C42.4584766,50.7073946 42.0662649,50.747061 41.6594818,50.747061 C41.1393662,50.747061 40.7078928,50.6766329 40.364657,50.5349672 C40.0210163,50.3937062 39.7182564,50.2079217 39.4555677,49.9776137 C39.1928789,49.7473057 38.987666,49.487855 38.8395241,49.1996664 C38.6505015,48.8280974 38.5565974,48.4120049 38.5565974,47.9513889 C38.5565974,47.127299 38.846405,46.4311131 39.4252107,45.8624263 C40.0044212,45.2941443 40.7329879,45.0100033 41.6109107,45.0100033 C41.8829089,45.0100033 42.128193,45.0314556 42.3463583,45.0747648 C42.464548,45.0962171 42.6564039,45.1577405 42.9219259,45.2585255 C43.187448,45.3597153 43.3440898,45.4103102 43.392661,45.4103102 C43.4683509,45.4103102 43.5383743,45.3827866 43.602731,45.3273346 C43.6674925,45.2718826 43.7265873,45.1674547 43.7804203,45.0140509 L43.9301813,45.0140509" id="Fill-113" fill="#33383C"></path>
            <path d="M46.7339486,47.0139664 C46.5967352,47.0139664 46.4785455,47.0657756 46.3805938,47.1697987 C46.2822373,47.2734171 46.2174758,47.4778205 46.1867141,47.7838185 C46.1551429,48.0894118 46.1401668,48.5140042 46.1401668,49.0584054 C46.1401668,49.346594 46.1591905,49.6161637 46.1964283,49.8663049 C46.2259758,50.0573513 46.289523,50.2030646 46.3866652,50.3026354 C46.4834026,50.4026109 46.5934972,50.4519915 46.7177583,50.4519915 C46.8387813,50.4519915 46.9399711,50.4188013 47.0209229,50.3512065 C47.1257556,50.2593261 47.1957789,50.131827 47.230993,49.9674947 C47.2844212,49.7116869 47.3115401,49.1948093 47.3115401,48.4160525 C47.3115401,47.9582698 47.2860403,47.6433671 47.2350406,47.4725587 C47.1836362,47.3017503 47.1083509,47.1766796 47.0087802,47.0989659 C46.9387568,47.0422996 46.8468765,47.0139664 46.7339486,47.0139664 Z M46.7177583,46.7269921 C47.0464228,46.7269921 47.352016,46.8119915 47.6349427,46.9815857 C47.9174647,47.1515846 48.1327966,47.3924163 48.2793195,47.7048905 C48.4258423,48.0169599 48.4995085,48.3593862 48.4995085,48.7313599 C48.4995085,49.2672612 48.3631046,49.7157345 48.0915112,50.076375 C47.7628467,50.5127054 47.3087068,50.7308707 46.729901,50.7308707 C46.161619,50.7308707 45.7236695,50.5317291 45.416862,50.1330413 C45.1096497,49.7343534 44.956246,49.2725231 44.956246,48.7471456 C44.956246,48.2059824 45.1128878,47.7340331 45.426981,47.3312977 C45.7406694,46.9285622 46.1709285,46.7269921 46.7177583,46.7269921 Z" id="Fill-114" fill="#33383C"></path>
            <path d="M50.870993,47.0139664 C50.7337796,47.0139664 50.6155899,47.0657756 50.5176382,47.1697987 C50.4192817,47.2734171 50.3545202,47.4778205 50.3237585,47.7838185 C50.292592,48.0894118 50.2772112,48.5140042 50.2772112,49.0584054 C50.2772112,49.346594 50.2962348,49.6161637 50.3338775,49.8663049 C50.3630201,50.0573513 50.4265673,50.2030646 50.5237096,50.3026354 C50.620447,50.4026109 50.7309463,50.4519915 50.8548026,50.4519915 C50.9762304,50.4519915 51.0770155,50.4188013 51.1579673,50.3512065 C51.2632047,50.2593261 51.3328233,50.131827 51.3680374,49.9674947 C51.4218703,49.7116869 51.4485845,49.1948093 51.4485845,48.4160525 C51.4485845,47.9582698 51.4234894,47.6433671 51.372085,47.4725587 C51.3206805,47.3017503 51.2458001,47.1766796 51.1458245,47.0989659 C51.0758012,47.0422996 50.9843256,47.0139664 50.870993,47.0139664 Z M50.8548026,46.7269921 C51.1834671,46.7269921 51.4894651,46.8119915 51.7719871,46.9815857 C52.0549138,47.1515846 52.269841,47.3924163 52.4163638,47.7048905 C52.5628867,48.0169599 52.6365529,48.3593862 52.6365529,48.7313599 C52.6365529,49.2672612 52.5005538,49.7157345 52.2285555,50.076375 C51.9002958,50.5127054 51.4461559,50.7308707 50.8669454,50.7308707 C50.2986634,50.7308707 49.8611186,50.5317291 49.5539064,50.1330413 C49.2470989,49.7343534 49.0932903,49.2725231 49.0932903,48.7471456 C49.0932903,48.2059824 49.2499322,47.7340331 49.5640254,47.3312977 C49.8781185,46.9285622 50.3083776,46.7269921 50.8548026,46.7269921 Z" id="Fill-115" fill="#33383C"></path>
            <path d="M55.7515801,47.7008429 C55.5524386,47.3183454 55.3083687,47.127299 55.0201801,47.127299 C54.9206094,47.127299 54.8384432,47.1544179 54.7736818,47.2078461 C54.674111,47.2916313 54.5931591,47.4381541 54.5296119,47.6482242 C54.4660647,47.8582942 54.4344935,48.1804826 54.4344935,48.6139798 C54.4344935,49.0907862 54.4697076,49.4433315 54.5397309,49.6724252 C54.6093495,49.901519 54.7052774,50.0670655 54.8263005,50.1694696 C54.8882286,50.220874 54.9732281,50.2463738 55.080894,50.2463738 C55.318083,50.2463738 55.5415101,50.0601846 55.7515801,49.6886156 L55.7515801,47.7008429 Z M56.8828822,45.1395263 L56.8828822,49.4866407 C56.8828822,49.7804959 56.8909774,49.9541377 56.9071678,50.0079706 C56.92862,50.0966129 56.9699055,50.1625887 57.0306194,50.2058979 C57.0909285,50.2492072 57.1969754,50.2755165 57.3475459,50.286445 L57.3475459,50.4200156 L55.7515801,50.7308707 L55.7515801,50.1330413 C55.5605337,50.3645635 55.3901301,50.5220149 55.2403692,50.6058001 C55.091013,50.6891805 54.9222284,50.7308707 54.7336106,50.7308707 C54.2515423,50.7308707 53.8698543,50.5155388 53.5901657,50.0844701 C53.3639053,49.7343534 53.2509774,49.3049038 53.2509774,48.7957167 C53.2509774,48.3889336 53.320596,48.0246503 53.4610475,47.7028667 C53.6010942,47.3810831 53.7929501,47.1378228 54.0366151,46.9734905 C54.2802802,46.8091582 54.5425642,46.7269921 54.8222529,46.7269921 C55.0027755,46.7269921 55.1630602,46.7622062 55.3031069,46.8322295 C55.4435583,46.9018481 55.5929145,47.0248949 55.7515801,47.1997509 L55.7515801,46.0603536 C55.7515801,45.7725698 55.7394373,45.5989281 55.7151518,45.5394284 C55.682771,45.4613099 55.6346047,45.4030246 55.5698432,45.3657867 C55.5050817,45.3281441 55.3840587,45.3091204 55.2063694,45.3091204 L55.2063694,45.1395263 L56.8828822,45.1395263 Z" id="Fill-116" fill="#33383C"></path>
            <path d="M63.5452196,48.7511932 L65.0319004,45.1395263 L67.2621239,45.1395263 L67.2621239,45.2888825 L67.0844346,45.2888825 C66.9225309,45.2888825 66.7934127,45.3172156 66.6966752,45.3738819 C66.6290804,45.4111198 66.5752474,45.474667 66.5347715,45.563714 C66.5052241,45.6280707 66.4906527,45.7968553 66.4906527,46.0684488 L66.4906527,49.6805204 C66.4906527,49.9606138 66.5052241,50.1358746 66.5347715,50.2058979 C66.5643189,50.2755165 66.6250328,50.3370399 66.7169132,50.3896586 C66.8083887,50.4422773 66.930626,50.4685867 67.0844346,50.4685867 L67.2621239,50.4685867 L67.2621239,50.6179428 L64.4016902,50.6179428 L64.4016902,50.4685867 L64.5793795,50.4685867 C64.7408785,50.4685867 64.8704014,50.4402535 64.9671389,50.3835872 C65.0347337,50.3459446 65.0885667,50.2815879 65.1290426,50.1897076 C65.15859,50.1249461 65.1735661,49.9553519 65.1735661,49.6805204 L65.1735661,45.6199755 L63.0724608,50.6179428 L62.9757233,50.6179428 L60.8422373,45.6564039 L60.8422373,49.5149739 C60.8422373,49.7845435 60.8491182,49.9500901 60.8624753,50.0120182 C60.8976893,50.1463983 60.9737841,50.2564928 61.0907595,50.3410875 C61.2077349,50.426087 61.3914956,50.4685867 61.6424463,50.4685867 L61.6424463,50.6179428 L59.7676015,50.6179428 L59.7676015,50.4685867 L59.8242678,50.4685867 C59.9452908,50.4710152 60.0582186,50.4515868 60.163456,50.4098966 C60.2686934,50.3682064 60.3480262,50.3119448 60.4018592,50.2419215 C60.4556922,50.1723029 60.4973824,50.0735416 60.5273346,49.9472568 C60.5321917,49.9177093 60.535025,49.7804959 60.535025,49.5352118 L60.535025,46.0684488 C60.535025,45.7911887 60.5204537,45.6183565 60.4909063,45.5495474 C60.4613588,45.4807384 60.4006449,45.4200245 60.3091694,45.3674058 C60.217289,45.3151918 60.0946469,45.2888825 59.9412432,45.2888825 L59.7676015,45.2888825 L59.7676015,45.1395263 L62.0059202,45.1395263 L63.5452196,48.7511932" id="Fill-117" fill="#33383C"></path>
            <path d="M69.487895,47.0139664 C69.3510864,47.0139664 69.2328967,47.0657756 69.134945,47.1697987 C69.0361837,47.2734171 68.971827,47.4778205 68.9410653,47.7838185 C68.9094941,48.0894118 68.894518,48.5140042 68.894518,49.0584054 C68.894518,49.346594 68.9135416,49.6161637 68.9507795,49.8663049 C68.9803269,50.0573513 69.0438741,50.2030646 69.1406116,50.3026354 C69.237349,50.4026109 69.3486578,50.4519915 69.4717047,50.4519915 C69.5931324,50.4519915 69.6939175,50.4188013 69.7748693,50.3512065 C69.8801067,50.2593261 69.9501301,50.131827 69.9849394,49.9674947 C70.0391771,49.7116869 70.0658912,49.1948093 70.0658912,48.4160525 C70.0658912,47.9582698 70.0407962,47.6433671 69.9893917,47.4725587 C69.9383921,47.3017503 69.8631069,47.1766796 69.7627266,47.0989659 C69.693108,47.0422996 69.6012276,47.0139664 69.487895,47.0139664 Z M69.4717047,46.7269921 C69.8007739,46.7269921 70.1063672,46.8119915 70.3888891,46.9815857 C70.6718159,47.1515846 70.886743,47.3924163 71.0340754,47.7048905 C71.1801935,48.0169599 71.2538597,48.3593862 71.2538597,48.7313599 C71.2538597,49.2672612 71.1178606,49.7157345 70.8458623,50.076375 C70.5176026,50.5127054 70.0634627,50.7308707 69.4842522,50.7308707 C68.9159702,50.7308707 68.4784254,50.5317291 68.1712132,50.1330413 C67.8640009,49.7343534 67.7105971,49.2725231 67.7105971,48.7471456 C67.7105971,48.2059824 67.867239,47.7340331 68.1813321,47.3312977 C68.4950206,46.9285622 68.9256844,46.7269921 69.4717047,46.7269921 Z" id="Fill-118" fill="#33383C"></path>
            <path d="M73.3950361,46.8403247 L73.3950361,47.6967953 C73.6455821,47.3062026 73.8653664,47.0471567 74.0535795,46.9192528 C74.242602,46.7909441 74.4247437,46.7269921 74.5987902,46.7269921 C74.7497654,46.7269921 74.8703836,46.7735394 74.9610497,46.866634 C75.0509063,46.9597287 75.0958345,47.0908707 75.0958345,47.2604648 C75.0958345,47.4409874 75.0521205,47.5810341 74.9650973,47.6806049 C74.8768598,47.7805805 74.7720271,47.8299611 74.6473613,47.8299611 C74.5052908,47.8299611 74.3806249,47.784628 74.2753875,47.6927477 C74.1709596,47.6012721 74.1090315,47.5502724 74.0900078,47.5393439 L73.9969132,47.5150584 C73.9196041,47.5150584 73.8451284,47.5446058 73.7747003,47.6037007 C73.6650106,47.695581 73.5808206,47.8263182 73.5241543,47.9959124 C73.4387501,48.2573869 73.3950361,48.5451707 73.3950361,48.8604781 L73.3950361,49.7290915 L73.398679,49.9553519 C73.398679,50.1087557 73.408798,50.2071122 73.4274169,50.2504214 C73.4597976,50.3228733 73.5071545,50.3763016 73.5711064,50.4098966 C73.6342489,50.4430868 73.7415101,50.4645391 73.8916757,50.4726343 L73.8916757,50.6179428 L71.8516891,50.6179428 L71.8516891,50.4726343 C72.0164261,50.4592772 72.1273301,50.4139442 72.1852107,50.3370399 C72.2426865,50.2601357 72.2718292,50.0573513 72.2718292,49.7290915 L72.2718292,47.640129 C72.2718292,47.4252018 72.2613055,47.2875837 72.2394485,47.2280841 C72.2127343,47.1527988 72.1738775,47.0977516 72.1220683,47.0625375 C72.0714734,47.0273235 71.9812121,47.0030379 71.8516891,46.9896809 L71.8516891,46.8403247 L73.3950361,46.8403247" id="Fill-119" fill="#33383C"></path>
            <path d="M77.0431313,46.8403247 L77.0431313,47.3292739 C77.2374158,47.1192038 77.4232003,46.9662048 77.6008896,46.8706816 C77.7785789,46.7747537 77.97003,46.7269921 78.1744334,46.7269921 C78.4201223,46.7269921 78.6233115,46.7949917 78.7844056,46.9313955 C78.9463094,47.0673946 79.0543801,47.2361793 79.1078083,47.4381541 C79.1511175,47.5919626 79.1725698,47.8866274 79.1725698,48.3229579 L79.1725698,49.793853 C79.1725698,50.0844701 79.1992839,50.2658023 79.2514978,50.3370399 C79.3041165,50.4086823 79.4142111,50.4532058 79.5805671,50.4726343 L79.5805671,50.6179428 L77.6692939,50.6179428 L77.6692939,50.4726343 C77.8125787,50.4532058 77.9153875,50.3945157 77.9765062,50.2945402 C78.0198154,50.2273502 78.0412677,50.0601846 78.0412677,49.793853 L78.0412677,48.1128878 C78.0412677,47.803247 78.0291249,47.608153 78.0048393,47.5272012 C77.9805538,47.4462493 77.9392683,47.3839164 77.8821973,47.3393929 C77.8239119,47.2948693 77.75996,47.2726076 77.6895319,47.2726076 C77.4588191,47.2726076 77.2430824,47.4381541 77.0431313,47.769652 L77.0431313,49.793853 C77.0431313,50.076375 77.0698454,50.2556833 77.1224641,50.3309685 C77.1750828,50.4066585 77.2730346,50.4532058 77.4147003,50.4726343 L77.4147003,50.6179428 L75.5042366,50.6179428 L75.5042366,50.4726343 C75.6629023,50.4564439 75.7766396,50.4050395 75.8434249,50.3188258 C75.8895674,50.2593261 75.9118292,50.0844701 75.9118292,49.793853 L75.9118292,47.660367 C75.9118292,47.3746069 75.8863294,47.1969176 75.8337107,47.127299 C75.781092,47.0572757 75.6714022,47.0111331 75.5042366,46.9896809 L75.5042366,46.8403247 L77.0431313,46.8403247" id="Fill-120" fill="#33383C"></path>
            <path d="M81.0105816,45.0100033 C81.1862471,45.0100033 81.3339842,45.0715267 81.455412,45.193764 C81.576435,45.3164061 81.6371489,45.4637385 81.6371489,45.6365707 C81.6371489,45.8089981 81.5756255,45.955521 81.4533882,46.076544 C81.3307461,46.1979718 81.1838185,46.2586856 81.0105816,46.2586856 C80.8385589,46.2586856 80.6916313,46.1979718 80.5702035,46.076544 C80.4491805,45.955521 80.3884666,45.8089981 80.3884666,45.6365707 C80.3884666,45.4637385 80.4491805,45.3164061 80.5702035,45.193764 C80.6916313,45.0715267 80.8385589,45.0100033 81.0105816,45.0100033 Z M81.576435,46.8403247 L81.576435,49.8343289 C81.576435,50.1006605 81.6080062,50.2710642 81.6691249,50.3451351 C81.7314578,50.419206 81.8524808,50.461301 82.0330034,50.4726343 L82.0330034,50.6179428 L79.992612,50.6179428 L79.992612,50.4726343 C80.1601824,50.4673724 80.2832292,50.4188013 80.364181,50.3269209 C80.4184188,50.2653975 80.4451329,50.1006605 80.4451329,49.8343289 L80.4451329,47.628391 C80.4451329,47.3616546 80.4143712,47.1908462 80.3520383,47.11718 C80.2909196,47.0431091 80.1703013,47.0006094 79.992612,46.9896809 L79.992612,46.8403247 L81.576435,46.8403247 Z" id="Fill-121" fill="#33383C"></path>
            <path d="M83.9438719,46.8403247 L83.9438719,47.3292739 C84.1381563,47.1192038 84.3239408,46.9662048 84.5012254,46.8706816 C84.6793195,46.7747537 84.8707706,46.7269921 85.075174,46.7269921 C85.3208629,46.7269921 85.5236473,46.7949917 85.6851462,46.9313955 C85.8466452,47.0673946 85.9551206,47.2361793 86.0085489,47.4381541 C86.0518581,47.5919626 86.0733104,47.8866274 86.0733104,48.3229579 L86.0733104,49.793853 C86.0733104,50.0844701 86.0996197,50.2658023 86.1522384,50.3370399 C86.2048571,50.4086823 86.3149516,50.4532058 86.4813077,50.4726343 L86.4813077,50.6179428 L84.5700345,50.6179428 L84.5700345,50.4726343 C84.7133192,50.4532058 84.8161281,50.3945157 84.8772467,50.2945402 C84.920556,50.2273502 84.9420082,50.0601846 84.9420082,49.793853 L84.9420082,48.1128878 C84.9420082,47.803247 84.9298655,47.608153 84.9055799,47.5272012 C84.8812943,47.4462493 84.8400089,47.3839164 84.7825331,47.3393929 C84.7246525,47.2948693 84.6607005,47.2726076 84.5902724,47.2726076 C84.3595597,47.2726076 84.1434182,47.4381541 83.9438719,47.769652 L83.9438719,49.793853 C83.9438719,50.076375 83.970586,50.2556833 84.0232047,50.3309685 C84.0754187,50.4066585 84.1737752,50.4532058 84.3154409,50.4726343 L84.3154409,50.6179428 L82.4045724,50.6179428 L82.4045724,50.4726343 C82.5636428,50.4564439 82.6769754,50.4050395 82.7437607,50.3188258 C82.790308,50.2593261 82.8125698,50.0844701 82.8125698,49.793853 L82.8125698,47.660367 C82.8125698,47.3746069 82.7870699,47.1969176 82.7344512,47.127299 C82.6818325,47.0572757 82.5721428,47.0111331 82.4045724,46.9896809 L82.4045724,46.8403247 L83.9438719,46.8403247" id="Fill-122" fill="#33383C"></path>
            <path d="M88.7277216,46.9775381 C88.5714845,46.9775381 88.4399377,47.0564661 88.3314622,47.2139175 C88.2237963,47.3717736 88.1699633,47.6980096 88.1699633,48.1938397 C88.1699633,48.5949561 88.2229868,48.8705971 88.3298432,49.0199533 C88.4358901,49.1697142 88.5617703,49.2441899 88.7074836,49.2441899 C88.8689825,49.2441899 89.0037674,49.170119 89.1114333,49.0219771 C89.2195041,48.8738352 89.2729323,48.5856466 89.2729323,48.1574113 C89.2729323,47.675343 89.2126232,47.3466785 89.0911954,47.1714178 C89.0053864,47.0422996 88.8843634,46.9775381 88.7277216,46.9775381 Z M88.4893184,51.1752963 C88.2144868,51.1752963 88.0327499,51.1983676 87.9437029,51.2441054 C87.7902991,51.3278906 87.7133949,51.4408184 87.7133949,51.5832937 C87.7133949,51.7209118 87.7935372,51.8451729 87.9517981,51.9572912 C88.1108685,52.0690048 88.4099855,52.1248616 88.8487446,52.1248616 C89.2235517,52.1248616 89.5178116,52.0750762 89.7319293,51.9755054 C89.9460469,51.8755299 90.0529034,51.7358879 90.0529034,51.5553653 C90.0529034,51.4877705 90.0322606,51.4311042 89.9921895,51.3857712 C89.9193328,51.3048193 89.8092383,51.2493673 89.6631202,51.2198199 C89.5161926,51.1902724 89.1251952,51.1752963 88.4893184,51.1752963 Z M89.426336,46.8844435 L90.6993039,46.8844435 L90.6993039,47.3292739 L89.9759991,47.3292739 C90.1087601,47.4612254 90.199831,47.5810341 90.2504259,47.6887001 C90.3151874,47.8340087 90.3479729,47.9866029 90.3479729,48.1452685 C90.3479729,48.4148382 90.2734972,48.6483843 90.1237362,48.8463116 C89.9743801,49.0442389 89.7707862,49.1988569 89.513764,49.3109752 C89.2559324,49.4226888 89.0280529,49.4785455 88.8285066,49.4785455 C88.812721,49.4785455 88.6508173,49.4716646 88.343605,49.4583076 C88.222582,49.4583076 88.1209874,49.497974 88.0388213,49.5773068 C87.9566552,49.6570444 87.9153697,49.7521628 87.9153697,49.8622573 C87.9153697,49.9593995 87.9526076,50.0387323 88.0270833,50.1006605 C88.1007495,50.1625887 88.2217725,50.1937551 88.3881285,50.1937551 L89.0871478,50.18566 C89.6530012,50.18566 90.0423796,50.2475881 90.2548782,50.3714445 C90.5592572,50.5438719 90.7114467,50.8089892 90.7114467,51.1676059 C90.7114467,51.3966997 90.6418281,51.6047459 90.5009719,51.7917447 C90.3613299,51.9787435 90.1771645,52.1167664 89.947666,52.2054087 C89.6003825,52.3377649 89.2004804,52.4037407 88.7475548,52.4037407 C88.4083665,52.4037407 88.0987257,52.3705504 87.8182275,52.3045747 C87.5389436,52.2390037 87.3377783,52.1471233 87.2163505,52.0301479 C87.0953275,51.9127677 87.0346136,51.7897209 87.0346136,51.6601979 C87.0346136,51.5363416 87.0815657,51.4250328 87.1746603,51.3270811 C87.2673502,51.2287246 87.4401824,51.1457489 87.6931569,51.0785589 C87.3434449,50.9061314 87.1681841,50.666514 87.1681841,50.3593017 C87.1681841,50.1735172 87.2398265,49.9929946 87.381897,49.8181386 C87.5251818,49.6432826 87.7514422,49.4906883 88.0606783,49.3615701 C87.7004426,49.2292138 87.4385633,49.0555721 87.2774691,48.8402402 C87.1155654,48.6249083 87.0346136,48.3755766 87.0346136,48.0926498 C87.0346136,47.7239142 87.1855888,47.4037496 87.4871344,47.1333704 C87.7894896,46.8625865 88.177249,46.7269921 88.6508173,46.7269921 C88.9009585,46.7269921 89.1600044,46.7796108 89.426336,46.8844435 Z" id="Fill-123" fill="#33383C"></path>
            <path d="M92.2466985,49.4141888 C92.4276259,49.4141888 92.5810297,49.477736 92.7093384,49.6060447 C92.8372423,49.7339486 92.9011943,49.8893762 92.9011943,50.0727321 C92.9011943,50.25285 92.8372423,50.4070633 92.7093384,50.5349672 C92.5810297,50.6632759 92.4276259,50.7268231 92.2466985,50.7268231 C92.0665807,50.7268231 91.9119626,50.6632759 91.7840587,50.5349672 C91.65575,50.4070633 91.5922028,50.25285 91.5922028,50.0727321 C91.5922028,49.8918047 91.65575,49.7371867 91.7816302,49.6080685 C91.9087246,49.4785455 92.0641521,49.4141888 92.2466985,49.4141888 Z M92.3312932,48.8361926 L92.1536039,48.8361926 C92.1353897,48.5293851 92.0726521,48.1574113 91.9674147,47.7210808 L91.7577494,46.8403247 C91.6314645,46.3121139 91.5675125,45.9340687 91.5675125,45.704975 C91.5675125,45.4977382 91.6298454,45.3305727 91.7537018,45.203883 C91.8783676,45.0775981 92.0394618,45.0140509 92.2381986,45.0140509 C92.432483,45.0140509 92.5931725,45.0780029 92.7218859,45.2063116 C92.8493851,45.3342155 92.9129323,45.4961192 92.9129323,45.6928322 C92.9129323,45.8976404 92.8457422,46.2797331 92.7109574,46.8403247 L92.4968398,47.7210808 C92.4219593,48.0331502 92.366912,48.405124 92.3312932,48.8361926 Z" id="Fill-124" fill="#33383C"></path>
            <path d="M21.9744201,50.723585 C21.586256,50.723585 21.1976871,50.7086089 20.8099277,50.6790615 C23.7687179,50.4528011 26.6732703,49.3607606 29.1135639,47.4045591 L29.1135639,48.94143 C26.8894118,50.1298032 24.4321183,50.723585 21.9744201,50.723585" id="Fill-125" fill="#7BB4A6"></path>
            <path d="M29.1135639,48.94143 L29.1135639,47.4045591 C29.1811587,47.3503214 29.2483487,47.2956789 29.315134,47.2398221 L29.4770377,47.3665117 L30.4411742,48.1416257 C30.0097009,48.4330524 29.5664895,48.6997887 29.1135639,48.94143" id="Fill-126" fill="#CDCED3"></path>
            <path d="M36.0118759,36.1514422 L35.4472367,35.5868031 L35.2598332,35.7742066 L35.0724297,35.5868031 L34.8016457,35.8579918 C34.8429312,33.7075058 34.4288624,31.5505438 33.5598443,29.5429378 L35.8888291,29.5429378 C36.7457044,31.5226154 37.1601779,33.6480062 37.1322495,35.76854 L36.9505126,35.5868031 L36.7635138,35.7738018 L36.5769198,35.5868031 L36.0118759,36.1514422 M35.7066874,29.1381786 L33.3777027,29.1381786 C32.6511598,27.5871411 31.6473568,26.1336506 30.365889,24.8521828 C28.7338997,23.2201935 26.8214122,22.0378917 24.7842589,21.3056822 L27.1132436,21.3056822 C29.150397,22.0378917 31.0628845,23.2201935 32.6948738,24.8521828 C33.9763416,26.1336506 34.9801446,27.5871411 35.7066874,29.1381786 M25.8022284,20.9009229 L23.4736484,20.9009229 C22.5989636,20.673853 21.708898,20.5261159 20.8135706,20.4577116 C21.2009252,20.4277594 21.5898988,20.413188 21.9780629,20.413188 C23.2639831,20.413188 24.5499033,20.5759013 25.8022284,20.9009229" id="Fill-127" fill="#7BB4A6"></path>
            <path d="M35.8244724,36.338441 L35.2598332,35.7742066 L35.4472367,35.5868031 L36.0118759,36.1514422 L35.8244724,36.338441 M37.1229401,36.1332281 L36.7635138,35.7738018 L36.9505126,35.5868031 L37.1322495,35.76854 C37.1306305,35.8899678 37.1273924,36.0118003 37.1229401,36.1332281" id="Fill-130" fill="#6D9994"></path>
            <path d="M35.8981386,39.389921 L35.1456911,38.6382831 L34.3940532,39.389921 L34.3329345,39.3288024 C34.6231469,38.1906194 34.779384,37.0249127 34.8016457,35.8579918 L35.0724297,35.5868031 L35.8244724,36.338441 L36.5769198,35.5868031 L37.1229401,36.1332281 C37.0901546,37.0212699 36.9792505,37.9072879 36.7910375,38.7799488 L36.6497765,38.6382831 L35.8981386,39.389921" id="Fill-131" fill="#A9ACB8"></path>
            <path d="M34.989454,49.4943311 C34.6535038,49.4943311 34.3155299,49.3846414 34.0350317,49.1587857 L33.8087713,48.9770488 C33.8233426,48.9604537 33.8375092,48.9438586 33.8508662,48.9268587 L35.2327143,47.2090604 C35.7589014,46.5549694 35.653664,45.5900234 34.999573,45.0634316 L32.7260403,43.2355388 C33.4517736,41.9998087 33.9872701,40.6835316 34.3329345,39.3288024 L34.3940532,39.389921 L35.1456911,38.6382831 L35.8981386,39.389921 L36.6497765,38.6382831 L36.7910375,38.7799488 C36.4571111,40.3277482 35.8783053,41.8338574 35.055025,43.2355388 L37.3285578,45.0634316 C37.9830535,45.5900234 38.0878861,46.5549694 37.5616991,47.2090604 L36.179851,48.9268587 C35.8799244,49.3000467 35.4363082,49.4943311 34.989454,49.4943311" id="Fill-132" fill="#CDCED3"></path>
            <path d="M34.999573,45.0634316 L32.7260403,43.2355388 C36.136137,37.4276482 35.3504993,29.8367931 30.365889,24.8521828 C24.4470944,18.9333882 14.8506572,18.9333882 8.93226732,24.8521828 C3.0134727,30.7709774 3.0134727,40.3674147 8.93226732,46.2858045 C14.5126832,51.8666252 23.3611253,52.1827421 29.315134,47.2398221 L29.4770377,47.3665117 L31.7060469,49.1587857 C32.3601379,49.6849728 33.3254887,49.5805449 33.8508662,48.9268587 L35.2327143,47.2090604 C35.7589014,46.5549694 35.653664,45.5900234 34.999573,45.0634316" id="Fill-133" fill="#FFFFFE"></path>
            <path d="M29.0823974,45.0027177 C23.872741,50.2127788 15.4254153,50.2131836 10.2149494,45.0027177 C5.00569776,39.7930613 5.00569776,31.3453308 10.2153542,26.1356744 C15.4254153,20.926018 23.8731458,20.9256133 29.0823974,26.1352697 C34.2928633,31.3453308 34.2924586,39.7930613 29.0823974,45.0027177" id="Fill-134" fill="#CDCED3"></path>
            <path d="M28.5715912,44.491102 C23.644052,49.4190459 15.6545091,49.4194507 10.7261603,44.4915067 C5.79862115,39.5639675 5.79902591,31.5740198 10.7269699,26.6468854 C15.6545091,21.7189414 23.644052,21.7189414 28.5715912,26.6468854 C33.4991304,31.5744246 33.4991304,39.5639675 28.5715912,44.491102" id="Fill-135" fill="#8D755B"></path>
            <path d="M27.4285511,43.6560836 C23.1603647,47.9246747 16.2406005,47.92427 11.9728189,43.6568931 C7.70463249,39.3891115 7.70463249,32.4689425 11.9732236,28.2011609 C16.2410052,23.9333793 23.1603647,23.9333793 27.4285511,28.2011609 C31.6963327,32.4685378 31.6963327,39.3891115 27.4285511,43.6560836" id="Fill-136" fill="#4E2F1D"></path>
            <path d="M19.793982,46.8569198 C22.559702,46.8334438 25.3181363,45.7669031 27.4285511,43.6560836 C31.1106461,39.9743934 31.6157856,34.3170733 28.9439698,30.0934104 C30.0153675,31.780447 30.6358634,33.781172 30.6358634,35.9288246 C30.6358634,41.9366663 25.7896809,46.8107773 19.793982,46.8569198" id="Fill-137" fill="#776250"></path>
            <path d="M19.708173,46.8573246 C17.4237118,46.8573246 15.3056066,46.1550673 13.5517847,44.9569799 C13.3198577,44.7983142 13.0968353,44.6283154 12.8782653,44.4530546 C12.8025753,44.3923407 12.7276949,44.3324363 12.6540287,44.2705082 C12.4378872,44.0863427 12.2270077,43.8973201 12.0262471,43.6985833 C11.9736284,43.6471789 11.9242477,43.5921317 11.8736528,43.5391082 C11.7032492,43.3654665 11.540536,43.1849438 11.3830846,42.9995641 C11.3300612,42.9380407 11.2762282,42.8773268 11.2252285,42.8141844 C11.0426821,42.5907573 10.8714689,42.3596397 10.7067319,42.122046 C10.6601846,42.0544512 10.6168753,41.9844279 10.5711376,41.9164283 C10.4189481,41.684906 10.2724252,41.4485266 10.1388547,41.2052663 L10.0890693,41.1198621 C9.94416546,40.8523162 9.81504726,40.5762704 9.6924052,40.2969865 C9.66245302,40.2269632 9.63169132,40.1565351 9.60214389,40.0857022 C9.48638274,39.8043945 9.37993106,39.5182297 9.28724119,39.2243745 C9.27064606,39.1737796 9.25769376,39.1211609 9.24231291,39.0693517 C9.16055154,38.7977583 9.09052819,38.5229267 9.03021906,38.2444524 C9.01807628,38.1885956 9.00431447,38.1335483 8.99217169,38.0776915 C8.9314578,37.7684555 8.88329145,37.4539575 8.84929167,37.1362215 C8.84241076,37.0670077 8.83593462,36.9973891 8.82945847,36.9277705 C8.79950628,36.5982965 8.77926832,36.2667986 8.77926832,35.9288246 C8.77926832,29.8930546 13.6715935,25.0003247 19.708173,25.0003247 C20.0465518,25.0003247 20.3788591,25.0201579 20.7087379,25.0505148 C20.7682375,25.0565862 20.8285466,25.0598243 20.8872367,25.0658957 C21.1681397,25.0970622 21.4458045,25.1415857 21.7206361,25.1929901 C21.8396353,25.2156566 21.957825,25.2391327 22.0743956,25.2646325 C22.295799,25.3140131 22.5151785,25.3706794 22.7301056,25.4322028 C22.9057712,25.4827977 23.0777938,25.5402735 23.249007,25.5973446 L23.3441254,25.6321539 C25.6727054,26.4554342 27.6414545,28.0429 28.9439698,30.0934104 C31.6157856,34.3170733 31.1106461,39.9743934 27.4285511,43.6560836 C25.3181363,45.7669031 22.559702,46.8334438 19.793982,46.8569198 C19.7652441,46.8573246 19.7369109,46.8573246 19.708173,46.8573246 M22.9822707,25.9628422 C16.4409563,25.9628422 11.13861,31.2651885 11.13861,37.8069076 C11.13861,40.0051551 11.7522251,42.0536417 12.7989325,43.8159635 C14.645849,45.4350006 17.0594284,46.4242322 19.708173,46.4242322 C25.5047303,46.4242322 30.2031758,41.725382 30.2031758,35.9288246 C30.2031758,31.2789503 27.1759813,27.341857 22.9875325,25.9640565 L22.9822707,25.9628422" id="Fill-138" fill="#40281A"></path>
            <path d="M60.6366196,33.5322451 C58.0445413,33.5322451 55.8082464,32.0322073 54.7315868,29.8558167 L42.7523318,29.8566263 L42.7523318,29.5429378 L85.6422417,29.5429378 L85.6422417,29.853793 L81.9095519,29.853793 L66.5420572,29.8550072 C65.4658023,32.0318025 63.2295074,33.5322451 60.6366196,33.5322451 Z M85.6422417,29.1381786 L85.1755543,29.1381786 L85.1755543,27.0969776 L82.2629067,27.0969776 L82.2629067,29.1381786 L42.7523318,29.1381786 L42.7523318,23.7795708 L54.8538241,23.7783565 C55.4111776,22.7611965 56.229196,21.9071545 57.2176181,21.3056822 L64.055621,21.3056822 C65.0436384,21.9067497 65.8612521,22.7607917 66.4186056,23.7771422 L81.7978383,23.7759279 L85.6422417,23.7759279 L85.6422417,29.1381786 Z M82.2629067,26.6310997 L85.1755543,26.6310997 L85.1755543,24.2426154 L82.2629067,24.2426154 L82.2629067,26.6310997 Z M63.2780785,20.9009229 L57.9955654,20.9009229 C58.8042744,20.5467586 59.6975781,20.3500456 60.6366196,20.3500456 C61.5760658,20.3500456 62.4693695,20.5467586 63.2780785,20.9009229 Z" id="Fill-139" fill="#7BB4A6"></path>
            <polyline id="Fill-142" fill="#33383C" points="39.7008518 29.8566263 78.8633337 29.853793 78.8629289 23.7759279 39.7008518 23.7795708 39.7008518 29.8566263"></polyline>
            <path d="M79.2166885,26.6310997 L82.1297409,26.6310997 L82.1297409,24.2426154 L79.2166885,24.2426154 L79.2166885,26.6310997 Z M79.2166885,29.3867008 L82.1297409,29.3867008 L82.1297409,27.0969776 L79.2166885,27.0969776 L79.2166885,29.3867008 Z M78.7520249,29.853793 L82.5960236,29.853793 L82.5960236,23.7759279 L78.7520249,23.7759279 L78.7520249,29.853793 Z" id="Fill-143" fill="#33383C"></path>
            <path d="M57.5851396,33.5322451 C53.9451396,33.5322451 50.9940398,30.5819549 50.9940398,26.9411453 C50.9940398,23.3007406 53.9451396,20.3500456 57.5851396,20.3500456 C61.2251396,20.3500456 64.1758345,23.3007406 64.1758345,26.9411453 C64.1758345,30.5819549 61.2251396,33.5322451 57.5851396,33.5322451" id="Fill-144" fill="#CDCED3"></path>
            <path d="M57.5912109,32.849821 C60.8418325,32.849821 63.4764105,30.2148382 63.4764105,26.9646214 C63.4764105,23.7144045 60.8418325,21.0794218 57.5912109,21.0794218 C54.3409941,21.0794218 51.7056066,23.7144045 51.7056066,26.9646214 C51.7056066,30.2148382 54.3409941,32.849821 57.5912109,32.849821" id="Fill-145" fill="#33383C"></path>
            <polyline id="Fill-150" fill="#E98853" points="62.3770844 29.7926743 62.4414411 29.6813655 61.01426 28.860109 60.9507128 28.9714178 62.3770844 29.7926743"></polyline>
            <polyline id="Fill-151" fill="#E98853" points="54.2317091 24.9574202 52.8053375 24.1369732 52.7413855 24.2478772 54.1681619 25.068729 54.2317091 24.9574202"></polyline>
            <polyline id="Fill-152" fill="#E98853" points="59.5028889 30.3787657 60.3310264 31.8014945 60.4415256 31.736733 59.6141977 30.314409 59.5028889 30.3787657"></polyline>
            <polyline id="Fill-153" fill="#E98853" points="55.679533 23.5508818 54.852205 22.1273435 54.7404915 22.1925097 55.5690337 23.614429 55.679533 23.5508818"></polyline>
            <polyline id="Fill-154" fill="#E98853" points="60.9802602 25.0092294 62.3924653 24.1628778 62.3268943 24.0527833 60.9146892 24.8991349 60.9802602 25.0092294"></polyline>
            <polyline id="Fill-155" fill="#E98853" points="54.2017569 28.9204181 52.7895519 29.7659602 52.8555276 29.8760547 54.2681374 29.0301079 54.2017569 28.9204181"></polyline>
            <polyline id="Fill-156" fill="#E98853" points="60.3791927 22.1548671 59.5372935 23.5695007 59.6469832 23.6354765 60.489692 22.2212476 60.3791927 22.1548671"></polyline>
            <polyline id="Fill-157" fill="#E98853" points="55.5354387 30.2937663 54.6931347 31.7083999 54.8028244 31.7735661 55.6451284 30.3593373 55.5354387 30.2937663"></polyline>
            <g id="Group-163" transform="translate(120.325253, 68.996442)">
                <mask id="mask-4" fill="white">
                    <use xlink:href="#path-3"></use>
                </mask>
                <g id="Clip-162"></g>
                <polygon id="Fill-161" fill="#7BB4A6" mask="url(#mask-4)" points="0.0841899255 22.0140465 8.29756477 22.0140465 8.29756477 0.216141443 0.0841899255 0.216141443"></polygon>
            </g>
            <path d="M117.039822,91.0104882 L115.091716,91.0104882 C114.306078,91.0104882 113.669797,90.3738018 113.669797,89.5881641 L113.669797,84.7929812 L117.039822,84.7929812 L117.039822,91.0104882 Z M113.669797,84.388222 L117.039822,84.388222 L117.039822,76.9001757 L113.669797,76.9001757 L113.669797,84.388222 Z M117.039822,76.4954164 L113.669797,76.4954164 L113.669797,70.6340976 C113.669797,69.8488647 114.306078,69.2125831 115.091716,69.2125831 L117.039822,69.2125831 L117.039822,76.4954164 Z" id="Fill-166" fill="#7BB4A6"></path>
            <path d="M117.039822,91.0104882 L120.409443,91.0104882 L120.409443,84.7929812 L117.039822,84.7929812 L117.039822,91.0104882 Z M117.039822,84.388222 L120.409443,84.388222 L120.409443,76.9001757 L117.039822,76.9001757 L117.039822,84.388222 Z M117.039822,76.4954164 L120.409443,76.4954164 L120.409443,69.2125831 L117.039822,69.2125831 L117.039822,76.4954164 Z" id="Fill-169" fill="#7BB4A6"></path>
            <path d="M124.27206,91.0104882 C125.056889,91.0104882 125.69398,90.3738018 125.69398,89.5881641 L125.69398,70.6340976 C125.69398,69.8492694 125.056889,69.2125831 124.27206,69.2125831 L117.480605,69.2125831 L117.480605,91.0104882 L124.27206,91.0104882" id="Fill-172" fill="#F9DA39"></path>
            <path d="M112.162878,69.2125831 C111.37724,69.2125831 110.740554,69.8488647 110.740554,70.6340976 L110.740554,89.5881641 C110.740554,90.3738018 111.37724,91.0104882 112.162878,91.0104882 L114.110579,91.0104882 L114.110579,69.2125831 L112.162878,69.2125831" id="Fill-173" fill="#F9DA39"></path>
            <polygon id="Fill-174" fill="#E98853" points="114.110579 91.0104882 117.480605 91.0104882 117.480605 69.2125831 114.110579 69.2125831"></polygon>
            <path d="M126.388142,102.951696 L122.903974,102.951696 L84.7501523,102.950077 L79.4356633,101.415634 L79.4356633,101.314445 L78.3881463,101.030304 L78.3877416,100.922233 L128.395749,100.922233 C128.395748,100.927899 128.395748,100.933566 128.395748,100.939233 C128.396557,101.753204 127.738824,102.413771 126.928495,102.413771 C126.927686,102.413771 126.926876,102.413771 126.926472,102.413771 C126.927281,102.551389 126.873043,102.689412 126.766997,102.793435 C126.663378,102.899887 126.52657,102.951696 126.388142,102.951696 M128.335034,100.517474 L79.4356633,100.517474 L79.4356633,100.461212 L84.7493428,98.9271745 L122.903165,98.9287935 L126.388142,98.9287935 C126.52657,98.9287935 126.663378,98.9789837 126.766997,99.0874591 C126.873448,99.190268 126.927281,99.3274814 126.927281,99.4667186 C127.591086,99.4667186 128.153702,99.9111442 128.335034,100.517474" id="Fill-175" fill="#7BB4A6"></path>
            <path d="M124.646463,100.939233 C124.647272,101.754013 123.987919,102.414985 123.177187,102.413771 C122.359573,102.414175 121.70022,101.754418 121.700625,100.939233 C121.700625,100.128095 122.359573,99.4667186 123.177996,99.4667186 C123.987919,99.4667186 124.647677,100.1285 124.646463,100.939233" id="Fill-177" fill="#33383C"></path>
            <polyline id="Fill-178" fill="#33383C" points="81.0012721 102.950077 81.0004626 98.9271745 119.153475 98.9287935 119.154284 102.951696 81.0012721 102.950077"></polyline>
            <path d="M119.154284,102.951696 L119.153475,98.9287935 L122.638857,98.9287935 C122.777689,98.9287935 122.914093,98.9789837 123.017712,99.0874591 C123.124163,99.190268 123.177996,99.3274814 123.177996,99.4667186 L123.177187,102.413771 C123.177996,102.551389 123.123758,102.689412 123.017712,102.793435 C122.914093,102.899887 122.777689,102.951696 122.638857,102.951696 L119.154284,102.951696" id="Fill-179" fill="#CDCED3"></path>
            <polyline id="Fill-180" fill="#FFFFFE" points="75.6863783 101.415634 75.6863783 100.461212 81.0004626 98.9271745 81.0012721 102.950077 75.6863783 101.415634"></polyline>
            <polyline id="Fill-181" fill="#33383C" points="74.6384566 101.030304 74.6380518 100.850186 75.6863783 100.560783 75.6863783 101.314445 74.6384566 101.030304"></polyline>
        </g>
    </g>
</svg>