<svg xmlns="http://www.w3.org/2000/svg" xmlns:xlink="http://www.w3.org/1999/xlink" viewBox="0 0 577.17 273.7"><defs><style>.cls-1,.cls-10,.cls-12,.cls-8{fill:none;}.cls-2{fill:#168787;}.cls-3{fill:#919191;}.cls-4{fill:#a0a0a0;}.cls-5{fill:#666;}.cls-6{fill:#aed1cf;}.cls-7{fill:#232323;}.cls-8{stroke:#dd694a;stroke-width:0.61px;}.cls-10,.cls-12,.cls-8{stroke-miterlimit:10;}.cls-9{fill:#fad589;}.cls-10{stroke:#fcf7e6;stroke-width:1.08px;}.cls-11{fill:#f4bc4a;}.cls-12{stroke:#f4bc4a;stroke-width:7.3px;}.cls-13{clip-path:url(#clip-path);}.cls-14{fill:#cfe5e3;}.cls-15{fill:#c6e0de;}.cls-16{fill:#37a09d;}.cls-17{fill:#dd694a;}.cls-18{fill:#fcf5e8;}.cls-19,.cls-20{font-size:17.33px;font-family:Montserrat-SemiBold, Montserrat;font-weight:700;}.cls-19,.cls-20,.cls-21{fill:#474645;}.cls-19{letter-spacing:0.05em;}.cls-20{letter-spacing:0.05em;}.cls-21{font-size:9.38px;font-family:Montserrat-Light, Montserrat;letter-spacing:0.05em;}</style><clipPath id="clip-path"><rect class="cls-1" x="45.57" y="56.26" width="236.79" height="125.4"/></clipPath></defs><title>Asset 51</title><g id="Layer_2" data-name="Layer 2"><g id="Layer_1-2" data-name="Layer 1"><rect class="cls-2" x="24.21" y="255.7" width="552.96" height="18.01" rx="9" ry="9"/><rect class="cls-3" x="131.46" y="214.39" width="65" height="36.16"/><rect class="cls-4" x="112.4" y="250.55" width="103.12" height="8.06" rx="4.03" ry="4.03"/><path class="cls-5" d="M40.48,49.69h247a2.23,2.23,0,0,1,2.23,2.23V189.45a0,0,0,0,1,0,0H38.25a0,0,0,0,1,0,0V51.92A2.23,2.23,0,0,1,40.48,49.69Z"/><path class="cls-4" d="M49.88,189.45H278a11.64,11.64,0,0,1,11.64,11.64V218.3a0,0,0,0,1,0,0H38.25a0,0,0,0,1,0,0V201.09A11.64,11.64,0,0,1,49.88,189.45Z" transform="translate(327.92 407.75) rotate(180)"/><rect class="cls-6" x="45.57" y="56.53" width="236.79" height="125.4"/><circle class="cls-7" cx="163.96" cy="203.87" r="6.6"/><circle class="cls-2" cx="352.5" cy="94.47" r="36.22"/><circle class="cls-6" cx="352.5" cy="94.47" r="30.55"/><circle class="cls-2" cx="352.5" cy="94.47" r="3.29"/><path class="cls-2" d="M368.37,110.13,351.45,95.9a1.54,1.54,0,0,1-.19-2.17h0a1.54,1.54,0,0,1,2.17-.19l16.92,14.23a1.54,1.54,0,0,1,.19,2.17h0A1.54,1.54,0,0,1,368.37,110.13Z"/><path class="cls-2" d="M354,77l0,17.29a1.54,1.54,0,0,1-1.54,1.54h0a1.54,1.54,0,0,1-1.54-1.54L351,77a1.54,1.54,0,0,1,1.54-1.54h0A1.54,1.54,0,0,1,354,77Z"/><line class="cls-8" x1="352.49" y1="94.47" x2="341.22" y2="109.91"/><rect class="cls-9" x="65.95" y="198.46" width="40.41" height="40.41" rx="1.4" ry="1.4"/><line class="cls-10" x1="71.72" y1="206.75" x2="100.57" y2="206.75"/><line class="cls-10" x1="71.72" y1="211.8" x2="100.57" y2="211.8"/><line class="cls-10" x1="71.72" y1="216.85" x2="100.57" y2="216.85"/><line class="cls-10" x1="81.68" y1="230.67" x2="99.61" y2="225.18"/><line class="cls-10" x1="82.57" y1="233.56" x2="100.49" y2="228.06"/><rect class="cls-11" x="307.01" y="189.61" width="51.13" height="69.07" rx="5.06" ry="5.06"/><circle class="cls-12" cx="358.14" cy="222.93" r="18.76"/><path class="cls-9" d="M317.66,189.61h8.22a0,0,0,0,1,0,0v10.18a4.11,4.11,0,0,1-4.11,4.11h0a4.11,4.11,0,0,1-4.11-4.11V189.61A0,0,0,0,1,317.66,189.61Z"/><path class="cls-9" d="M333.49,189.61h8.22a0,0,0,0,1,0,0v15.51a4.11,4.11,0,0,1-4.11,4.11h0a4.11,4.11,0,0,1-4.11-4.11V189.61A0,0,0,0,1,333.49,189.61Z"/><path class="cls-9" d="M325.27,189.61h8.22a0,0,0,0,1,0,0v26.26a4.11,4.11,0,0,1-4.11,4.11h0a4.11,4.11,0,0,1-4.11-4.11V189.61a0,0,0,0,1,0,0Z"/><path class="cls-2" d="M495.37,191.25a4.19,4.19,0,0,1-3-1.23l-19.13-19.13a4.21,4.21,0,0,1,5.95-5.95l19.13,19.13a4.21,4.21,0,0,1-3,7.18Z"/><path class="cls-2" d="M475.91,172.26H416.46a4.21,4.21,0,1,1,0-8.41h59.45a4.21,4.21,0,0,1,0,8.41Z"/><rect class="cls-6" x="401.56" y="183.6" width="125.4" height="75.22" rx="11.12" ry="11.12"/><path class="cls-6" d="M549.09,245.86l-26.31-9V205.53l26.31-9a3.82,3.82,0,0,1,5.05,3.61v42.09A3.82,3.82,0,0,1,549.09,245.86Z"/><g class="cls-13"><rect class="cls-14" x="158.85" y="16.49" width="63.92" height="253.41" transform="translate(157.14 -92.98) rotate(45)"/><rect class="cls-14" x="229.82" y="45.47" width="10.55" height="253.41" transform="translate(190.6 -115.8) rotate(45)"/><rect class="cls-14" x="86.46" y="-29.53" width="21.44" height="253.41" transform="translate(97.18 -40.25) rotate(45)"/></g><rect class="cls-2" x="407.71" y="161.15" width="34.09" height="13.8" rx="6.9" ry="6.9"/><rect class="cls-15" x="416.46" y="206.51" width="61.79" height="39.56" rx="3.11" ry="3.11"/><rect class="cls-2" x="420.42" y="209.74" width="53.57" height="33.1" rx="2.65" ry="2.65"/><path class="cls-16" d="M420.42,215.87v-3.59a2.65,2.65,0,0,1,2.7-2.61h48.17a2.65,2.65,0,0,1,2.7,2.61v3.59"/><circle class="cls-17" cx="507.5" cy="197.4" r="4.56"/><rect class="cls-15" x="416.46" y="198.32" width="61.86" height="4.8" rx="2.4" ry="2.4"/><circle class="cls-15" cx="435.09" cy="229.83" r="10.33"/><circle class="cls-15" cx="459.99" cy="229.83" r="10.33"/><circle class="cls-2" cx="435.09" cy="229.83" r="3.16"/><circle class="cls-2" cx="459.99" cy="229.83" r="3.16"/><path class="cls-4" d="M226.41,258.61h0a10,10,0,0,1,10-10h26.68a10,10,0,0,1,10,10h0"/><path class="cls-18" d="M419,43.14H552.58a4.92,4.92,0,0,1,4.92,4.92v88.61a2.54,2.54,0,0,1-2.54,2.54H416.65a2.54,2.54,0,0,1-2.54-2.54V48.07A4.92,4.92,0,0,1,419,43.14Z"/><path class="cls-17" d="M418.2,43.14H553.41a4.09,4.09,0,0,1,4.09,4.09v16a0,0,0,0,1,0,0H414.1a0,0,0,0,1,0,0v-16A4.09,4.09,0,0,1,418.2,43.14Z"/><text class="cls-19" transform="translate(437.09 80.54)">M</text><text class="cls-19" transform="translate(460.61 80.54)">T</text><text class="cls-19" transform="translate(478.02 80.54)">W</text><text class="cls-19" transform="translate(503.65 80.54)">T</text><text class="cls-20" transform="translate(522.75 80.54)">F</text><text class="cls-19" transform="translate(540.24 80.54)">S</text><text class="cls-19" transform="translate(419.51 80.54)">S</text><text class="cls-21" transform="translate(422.68 92.93)">1</text><text class="cls-21" transform="translate(442.2 92.93)">2</text><text class="cls-21" transform="translate(462.95 92.93)">3</text><text class="cls-21" transform="translate(483.21 92.93)">4</text><text class="cls-21" transform="translate(503.77 92.93)">5</text><text class="cls-21" transform="translate(524.08 92.93)">6</text><text class="cls-21" transform="translate(544.81 92.93)">7</text><text class="cls-21" transform="translate(421.53 106.36)">8</text><text class="cls-21" transform="translate(442.09 106.36)">9</text><text class="cls-21" transform="translate(460.24 106.36)">10</text><text class="cls-21" transform="translate(482.2 106.36)">11</text><text class="cls-21" transform="translate(501.72 106.36)">12</text><text class="cls-21" transform="translate(522.47 106.36)">13</text><text class="cls-21" transform="translate(542.73 106.36)">14</text><text class="cls-21" transform="translate(419.8 118.82)">15</text><text class="cls-21" transform="translate(440.12 118.82)">16</text><text class="cls-21" transform="translate(460.85 118.82)">17</text><text class="cls-21" transform="translate(481.05 118.82)">18</text><text class="cls-21" transform="translate(501.61 118.82)">19</text><text class="cls-21" transform="translate(520.75 118.82)">20</text><text class="cls-21" transform="translate(542.71 118.82)">21</text><text class="cls-21" transform="translate(418.74 133.03)">22</text><text class="cls-21" transform="translate(439.49 133.03)">23</text><text class="cls-21" transform="translate(459.75 133.03)">24</text><text class="cls-21" transform="translate(480.31 133.03)">25</text><text class="cls-21" transform="translate(500.63 133.03)">26</text><text class="cls-21" transform="translate(521.36 133.03)">27</text><text class="cls-21" transform="translate(541.56 133.03)">28</text></g></g></svg>