<svg xmlns="http://www.w3.org/2000/svg" viewBox="0 0 199.63 199.63"><defs><style>.cls-1{fill:#ffa599;}.cls-2{fill:#f9745a;}.cls-3,.cls-7{fill:#eb5e39;}.cls-12,.cls-16,.cls-4{fill:none;stroke-miterlimit:10;}.cls-4{stroke:#f9745a;}.cls-5{fill:#9bbfbc;}.cls-6{fill:#aed1cf;}.cls-13,.cls-17,.cls-7{font-size:20.16px;font-family:BrandonGrotesque-Black, Brandon Grotesque;letter-spacing:0.05em;}.cls-8{fill:#ffeae6;}.cls-9{fill:#f49184;}.cls-10,.cls-17{fill:#ea826e;}.cls-11,.cls-13{fill:#dd694a;}.cls-12{stroke:#ea826e;}.cls-14{fill:#f29c97;}.cls-15{fill:#ed8b7e;}.cls-16{stroke:#dd694a;}</style></defs><title>Asset 4</title><g id="Layer_2" data-name="Layer 2"><g id="Layer_1-2" data-name="Layer 1"><rect class="cls-1" x="34.13" y="73.55" width="145.44" height="64.38" rx="1.18" ry="1.18"/><rect class="cls-2" x="28.13" y="67.86" width="145.44" height="64.38" rx="1.18" ry="1.18"/><rect class="cls-3" x="22.06" y="61.97" width="145.44" height="64.38" rx="1.18" ry="1.18"/><rect class="cls-4" x="26.53" y="65.41" width="136.5" height="57.5" rx="1.18" ry="1.18"/><path class="cls-5" d="M116.46,139.55H81.41a1.18,1.18,0,0,1-1-1L75,126.35h37l5.15,11.58C117.41,138.69,117,139.55,116.46,139.55Z"/><circle class="cls-2" cx="93.06" cy="93.21" r="32.19"/><circle class="cls-2" cx="144.23" cy="81.15" r="13.01"/><circle class="cls-2" cx="42.84" cy="107.17" r="13.01"/><path class="cls-6" d="M76.39,60.08h34.33a1.34,1.34,0,0,1,1.34,1.34v64.93a0,0,0,0,1,0,0H75a0,0,0,0,1,0,0V61.42A1.34,1.34,0,0,1,76.39,60.08Z"/><text class="cls-7" transform="translate(37.53 113.6)">$</text><text class="cls-7" transform="translate(138.93 87.1)">$</text><rect class="cls-2" x="31.31" y="70.47" width="29.56" height="5"/><rect class="cls-2" x="31.31" y="78.55" width="21.31" height="5"/><rect class="cls-2" x="128.78" y="113.65" width="29.56" height="5" transform="translate(287.12 232.3) rotate(180)"/><rect class="cls-2" x="137.03" y="105.56" width="21.31" height="5" transform="translate(295.36 216.13) rotate(180)"/><circle class="cls-8" cx="99.81" cy="99.81" r="99.81"/><rect class="cls-9" x="34.13" y="73.55" width="145.44" height="64.38" rx="1.18" ry="1.18"/><rect class="cls-10" x="28.13" y="67.86" width="145.44" height="64.38" rx="1.18" ry="1.18"/><rect class="cls-11" x="22.06" y="61.97" width="145.44" height="64.38" rx="1.18" ry="1.18"/><rect class="cls-12" x="26.53" y="65.41" width="136.5" height="57.5" rx="1.18" ry="1.18"/><path class="cls-11" d="M116.46,139.55H81.41a1.18,1.18,0,0,1-1-1L75,126.35h37l5.15,11.58C117.41,138.69,117,139.55,116.46,139.55Z"/><circle class="cls-10" cx="93.06" cy="93.21" r="32.19"/><circle class="cls-10" cx="144.23" cy="81.15" r="13.01"/><circle class="cls-10" cx="42.84" cy="107.17" r="13.01"/><path class="cls-11" d="M76.39,60.08h34.33a1.34,1.34,0,0,1,1.34,1.34v64.93a0,0,0,0,1,0,0H75a0,0,0,0,1,0,0V61.42A1.34,1.34,0,0,1,76.39,60.08Z"/><text class="cls-13" transform="translate(37.53 113.6)">$</text><text class="cls-13" transform="translate(138.93 87.1)">$</text><rect class="cls-10" x="31.31" y="70.47" width="29.56" height="5"/><rect class="cls-10" x="31.31" y="78.55" width="21.31" height="5"/><rect class="cls-10" x="128.78" y="113.65" width="29.56" height="5" transform="translate(287.12 232.3) rotate(180)"/><rect class="cls-10" x="137.03" y="105.56" width="21.31" height="5" transform="translate(295.36 216.13) rotate(180)"/><rect class="cls-14" x="34.17" y="73.55" width="145.44" height="64.38" rx="1.18" ry="1.18"/><rect class="cls-15" x="28.17" y="67.86" width="145.44" height="64.38" rx="1.18" ry="1.18"/><rect class="cls-10" x="22.1" y="61.97" width="145.44" height="64.38" rx="1.18" ry="1.18"/><rect class="cls-16" x="26.57" y="65.41" width="136.5" height="57.5" rx="1.18" ry="1.18"/><path class="cls-10" d="M116.5,139.55H81.44a1.18,1.18,0,0,1-1-1l-5.35-12.24h37l5.15,11.58C117.45,138.69,117.07,139.55,116.5,139.55Z"/><circle class="cls-11" cx="93.1" cy="93.21" r="32.19"/><circle class="cls-11" cx="144.27" cy="81.15" r="13.01"/><circle class="cls-11" cx="42.87" cy="107.17" r="13.01"/><path class="cls-10" d="M76.42,60.08h34.33a1.34,1.34,0,0,1,1.34,1.34v64.93a0,0,0,0,1,0,0h-37a0,0,0,0,1,0,0V61.42A1.34,1.34,0,0,1,76.42,60.08Z"/><text class="cls-17" transform="translate(37.57 113.6)">$</text><text class="cls-17" transform="translate(138.96 87.1)">$</text><rect class="cls-11" x="31.35" y="70.47" width="29.56" height="5"/><rect class="cls-11" x="31.35" y="78.55" width="21.31" height="5"/><rect class="cls-11" x="128.82" y="113.65" width="29.56" height="5" transform="translate(287.19 232.3) rotate(180)"/><rect class="cls-11" x="137.06" y="105.56" width="21.31" height="5" transform="translate(295.44 216.13) rotate(180)"/></g></g></svg>