<svg xmlns="http://www.w3.org/2000/svg" viewBox="0 0 564.15 467.83"><defs><style>.cls-1{fill:#aed1cf;}.cls-2,.cls-8{fill:none;stroke-linecap:round;stroke-miterlimit:10;}.cls-2{stroke:#197269;stroke-width:8.4px;}.cls-3{fill:#f4bc4a;}.cls-4{fill:#dd694a;}.cls-5{fill:#2d9693;}.cls-6{fill:#168787;}.cls-7{fill:#b6d3cc;}.cls-8{stroke:#b6d3cc;stroke-width:6.46px;}</style></defs><title>Asset 15</title><g id="Layer_2" data-name="Layer 2"><g id="Layer_1-2" data-name="Layer 1"><ellipse class="cls-1" cx="167.39" cy="447.8" rx="156.79" ry="20.03"/><path class="cls-2" d="M294.05,287.52a18.73,18.73,0,0,1,37.45,0"/><circle class="cls-3" cx="164.58" cy="123.88" r="20.47"/><path class="cls-4" d="M564.15,0H170.46l.06.05h-.08l0-.05H66.9A16.62,16.62,0,0,0,50.28,16.62h0A16.62,16.62,0,0,0,66.9,33.24l9.38-1.75a16.56,16.56,0,0,0-5.62,12.44h0A16.62,16.62,0,0,0,87.28,60.55l10.89-3.21a66,66,0,0,0-.71,9.6,66.69,66.69,0,0,0,24.13,51.42,15.37,15.37,0,1,0,19.66-23.64,36.1,36.1,0,1,1,46.71-.5,15.37,15.37,0,0,0,20.15,23.22,66.87,66.87,0,0,0,15.6-19.86H564.15Z"/><path class="cls-5" d="M213.59,233.17H117.2A92.16,92.16,0,0,0,27,306.38H9.17A9.17,9.17,0,0,0,0,315.55v31.07a9.17,9.17,0,0,0,9.17,9.17H30.25a92.35,92.35,0,0,0,59.32,57.41v21.22q0,.33,0,.66a9.47,9.47,0,0,0,12.17,8.21l10.34-3a9.55,9.55,0,0,1,5.33,0l10.34,3a9.47,9.47,0,0,0,12.17-8.21q0-.33,0-.66v-17h50.87v17q0,.33,0,.66A9.47,9.47,0,0,0,203,443.29l10.34-3a9.55,9.55,0,0,1,5.33,0l10.34,3a9.47,9.47,0,0,0,12.17-8.21q0-.33,0-.66V413.21a92.16,92.16,0,0,0,64.49-87.91h0A92.13,92.13,0,0,0,213.59,233.17Z"/><path class="cls-6" d="M9.17,306.38H10.4a0,0,0,0,1,0,0V355.8a0,0,0,0,1,0,0H9.17A9.17,9.17,0,0,1,0,346.63V315.55A9.17,9.17,0,0,1,9.17,306.38Z"/><path class="cls-6" d="M57.44,225c3.77,11.37,6.9,22.85,5.48,35.15a4.81,4.81,0,0,0,5.63,5.28l37.63-6.78a4.82,4.82,0,0,0,2.91-7.75,96.54,96.54,0,0,0-45.55-32A4.82,4.82,0,0,0,57.44,225Z"/><path class="cls-6" d="M147.63,233.17H200a0,0,0,0,1,0,0v4a4.9,4.9,0,0,1-4.9,4.9H152.53a4.9,4.9,0,0,1-4.9-4.9v-4A0,0,0,0,1,147.63,233.17Z"/><circle class="cls-7" cx="83.67" cy="298.63" r="7.75"/><path class="cls-8" d="M232.48,253.67s32.43,3.93,42,36.71"/></g></g></svg>