<svg xmlns="http://www.w3.org/2000/svg" viewBox="0 0 119.58 119.58"><defs><style>.cls-1{fill:#e6f4f2;}.cls-2{fill:#7bc6c1;}.cls-3{fill:#229390;}</style></defs><title>Asset 20</title><g id="Layer_2" data-name="Layer 2"><g id="Layer_1-2" data-name="Layer 1"><circle class="cls-1" cx="59.79" cy="59.79" r="59.79"/><path class="cls-2" d="M60.3,106.16a46.37,46.37,0,1,1,46.37-46.37A46.43,46.43,0,0,1,60.3,106.16Zm0-90a43.61,43.61,0,1,0,43.61,43.61A43.66,43.66,0,0,0,60.3,16.18Z"/><path class="cls-3" d="M80.27,69C80.27,77.07,74.33,82,66,83.4a1.45,1.45,0,0,0-1.23,1.42v7.79A1.43,1.43,0,0,1,63.31,94H57.75a1.43,1.43,0,0,1-1.43-1.43v-8a1.44,1.44,0,0,0-1.2-1.41A34.59,34.59,0,0,1,40.2,76.71,1.42,1.42,0,0,1,39.81,75l3.13-6.4a1.43,1.43,0,0,1,2.16-.5C50,71.9,56.41,74.3,61.16,74.3c4.57,0,7.31-1.69,7.31-4.71,0-9.27-26.2-3.86-26.2-21.29,0-7.17,5-12.23,12.88-13.9A1.45,1.45,0,0,0,56.31,33V25.44A1.43,1.43,0,0,1,57.75,24h5.56a1.43,1.43,0,0,1,1.43,1.43v7.2A1.44,1.44,0,0,0,66,34.06a35.17,35.17,0,0,1,12.85,4.35,1.45,1.45,0,0,1,.59,1.86l-3.09,6.63a1.44,1.44,0,0,1-2,.67c-4.89-2.66-10.39-4.31-14-4.31s-6.25,1.33-6.25,4C54.14,56.32,80.34,51.26,80.27,69Z"/></g></g></svg>