<svg xmlns="http://www.w3.org/2000/svg" viewBox="0 0 119.58 119.58"><defs><style>.cls-1{fill:#fcf5e8;}.cls-2{fill:#fad589;}.cls-3{fill:#ebb835;}</style></defs><title>Asset 21</title><g id="Layer_2" data-name="Layer 2"><g id="Layer_1-2" data-name="Layer 1"><circle class="cls-1" cx="59.79" cy="59.79" r="59.79"/><path class="cls-2" d="M28.59,32.07c5.27-.18,21.58-1.21,31.24-7.29a1.91,1.91,0,0,1,2,0c3,1.75,12.77,6.59,30.82,7.31a1.91,1.91,0,0,1,1.81,1.61c1.32,8.29,5.34,47.65-32.85,67.9a1.91,1.91,0,0,1-1.62.08c-5.61-2.3-37.1-17.47-33.23-67.8A1.91,1.91,0,0,1,28.59,32.07Z"/><path class="cls-3" d="M60.7,106.65a3.11,3.11,0,0,1-1.18-.23c-7-2.85-41.45-19.87-37.17-75.58a3.1,3.1,0,0,1,3-2.87c5.29-.18,23.38-1.27,33.87-7.86A3.09,3.09,0,0,1,62.42,20c11.16,6.55,28.41,7.7,33.43,7.9a3.1,3.1,0,0,1,2.94,2.61c1.38,8.67,6.09,53.06-36.65,75.73A3.08,3.08,0,0,1,60.7,106.65ZM25.4,30a1.11,1.11,0,0,0-1.06,1c-4.17,54.33,29.21,70.83,35.94,73.58a1.1,1.1,0,0,0,.93,0c41.54-22,37-65.22,35.61-73.66a1.1,1.1,0,0,0-1-.93C76,29.16,65.16,24,61.41,21.77a1.1,1.1,0,0,0-1.15,0c-10.91,6.86-29.45,8-34.87,8.17Z"/><path class="cls-3" d="M60.83,101.78a1.92,1.92,0,0,1-.85-.14c-5.61-2.3-37.1-17.47-33.23-67.8a1.91,1.91,0,0,1,1.84-1.77c5.27-.18,21.58-1.21,31.24-7.29a1.93,1.93,0,0,1,1-.3"/></g></g></svg>