<?xml version="1.0" encoding="UTF-8"?>
<svg width="500px" height="104px" viewBox="0 0 500 104" version="1.1" xmlns="http://www.w3.org/2000/svg" xmlns:xlink="http://www.w3.org/1999/xlink">
    <!-- Generator: Sketch 48.2 (47327) - http://www.bohemiancoding.com/sketch -->
    <title>Subchannel_RGB</title>
    <desc>Created with Sketch.</desc>
    <defs></defs>
    <g id="Page-1" stroke="none" stroke-width="1" fill="none" fill-rule="evenodd">
        <g id="Subchannel_RGB" fill-rule="nonzero">
            <g id="Group" transform="translate(122.770199, 21.773347)" fill="#484C4C">
                <path d="M25.1573977,16.0283316 L22.5865687,21.2224554 C19.7271773,19.4386149 16.1070304,18.363064 13.247639,18.363064 C10.4931794,18.363064 8.47324239,19.2812172 8.47324239,21.5897167 C8.47324239,27.570829 25.7607555,24.3441763 25.7082896,36.1227702 C25.7082896,42.7859391 19.7796432,45.7764953 13.247639,45.7764953 C8.47324239,45.7764953 3.41028332,44.1762854 0.18363064,41.2644281 L2.7019937,36.2539349 C5.5089192,38.772298 10.0209864,40.293809 13.5886674,40.293809 C16.5792235,40.293809 18.9139559,39.2444911 18.9139559,36.8048269 C18.9139559,30.1416579 1.81007345,33.8667366 1.86253935,22.1406086 C1.86253935,15.5299056 7.60755509,12.7229801 13.8509969,12.7229801 C17.8908709,12.7229801 22.2193075,13.9559286 25.1573977,16.0283316 Z" id="Shape"></path>
                <path d="M65.3725079,45.5403987 L58.3420776,45.5403987 L58.3420776,39.1920252 C56.13851,43.7040923 52.04617,45.7240294 46.7208814,45.8027282 C39.270724,45.8027282 34.8111228,41.0283316 34.8111228,33.2633788 L34.8111228,13.0377754 L41.841553,13.0377754 L41.841553,31.2959077 C41.841553,36.1752361 44.7009444,39.1657922 49.4228751,39.1657922 C55.0367261,39.0346275 58.3420776,34.706191 58.3420776,29.0136411 L58.3420776,13.0115425 L65.3725079,13.0115425 L65.3725079,45.5403987 Z" id="Shape"></path>
                <path d="M113.037775,29.4071354 C113.037775,39.1133263 106.925498,45.7764953 97.6390346,45.7764953 C92.4449108,45.7764953 88.5362015,43.7040923 86.1490031,39.9003148 L86.1490031,45.5141658 L79.1185729,45.5141658 L79.1185729,0.209863589 L86.1490031,0.209863589 L86.1490031,18.6516264 C88.5362015,14.8740818 92.4449108,12.775446 97.5078699,12.775446 C106.741868,12.8016789 113.037775,19.5173137 113.037775,29.4071354 Z M105.954879,29.1710388 C105.954879,23.1112277 101.862539,18.6516264 96.0650577,18.6516264 C90.2675761,18.6516264 86.1752361,23.0587618 86.1752361,29.1710388 C86.1752361,35.4669465 90.2675761,39.795383 96.0650577,39.795383 C101.862539,39.795383 105.954879,35.4144806 105.954879,29.1710388 Z" id="Shape"></path>
                <path d="M150.183631,18.1007345 L146.327387,22.6128017 C144.071354,20.2780693 140.949633,18.887723 137.040923,18.9401889 C131.427072,18.9401889 127.387198,23.1636936 127.387198,29.3284365 C127.387198,35.4931794 131.427072,39.7166842 137.040923,39.7166842 C141.133263,39.7166842 144.438615,38.3788038 146.642183,35.8079748 L150.550892,39.7166842 C147.612802,43.5729276 142.917104,45.7764953 136.752361,45.7764953 C127.098636,45.7764953 120.383001,39.1133263 120.383001,29.3284365 C120.383001,19.4910808 127.098636,12.775446 136.752361,12.775446 C142.628541,12.8016789 147.193075,14.6904512 150.183631,18.1007345 Z" id="Shape"></path>
                <path d="M192.418678,25.3147954 L192.418678,45.5403987 L185.388248,45.5403987 L185.388248,27.2822665 C185.388248,22.4029381 182.450157,19.412382 177.570829,19.412382 C171.773347,19.4648478 168.284365,23.8195173 168.284365,29.5645331 L168.284365,45.5666317 L161.253935,45.5666317 L161.253935,0.209863589 L168.284365,0.209863589 L168.284365,19.386149 C170.592865,14.795383 174.763903,12.775446 180.325289,12.775446 C187.906611,12.8016789 192.418678,17.5498426 192.418678,25.3147954 Z" id="Shape"></path>
                <path d="M224.396642,41.5792235 C222.06191,44.4386149 218.336831,45.8551941 213.641133,45.8551941 C206.610703,45.8551941 202.203568,41.5267576 202.203568,35.7817419 C202.203568,29.8530955 206.663169,26.0755509 214.480588,25.996852 L224.317943,25.996852 L224.317943,25.0262329 C224.317943,20.933893 221.694648,18.4942288 216.552991,18.4942288 C213.43127,18.4942288 210.204617,19.5960126 206.951731,21.7995803 L204.09234,16.9202518 C208.604407,14.2444911 211.909759,12.8279119 218.074502,12.8279119 C226.442812,12.8279119 231.13851,17.1038825 231.217209,24.2654774 L231.269675,45.5928646 L224.370409,45.5928646 L224.370409,41.5792235 L224.396642,41.5792235 Z M224.317943,34.1290661 L224.317943,31.13851 L215.529906,31.13851 C210.93914,31.13851 208.814271,32.3714586 208.814271,35.4669465 C208.814271,38.4050367 211.201469,40.293809 215.110178,40.293809 C220.120672,40.293809 223.950682,37.6705142 224.317943,34.1290661 Z" id="Shape"></path>
                <path d="M274.868835,25.3147954 L274.868835,45.5403987 L267.838405,45.5403987 L267.838405,27.2822665 C267.838405,22.4029381 264.900315,19.412382 260.020986,19.412382 C254.643232,19.4648478 251.285414,23.1899265 250.786988,28.2791186 L250.786988,45.5666317 L243.756558,45.5666317 L243.756558,13.0377754 L250.786988,13.0377754 L250.786988,19.2812172 C253.095488,14.7691501 257.266527,12.8016789 262.775446,12.8016789 C270.356768,12.8016789 274.868835,17.5498426 274.868835,25.3147954 Z" id="Shape"></path>
                <path d="M318.441763,25.3147954 L318.441763,45.5403987 L311.411333,45.5403987 L311.411333,27.2822665 C311.411333,22.4029381 308.473242,19.412382 303.593914,19.412382 C298.216159,19.4648478 294.858342,23.1899265 294.359916,28.2791186 L294.359916,45.5666317 L287.329486,45.5666317 L287.329486,13.0377754 L294.359916,13.0377754 L294.359916,19.2812172 C296.668416,14.7691501 300.839454,12.8016789 306.348374,12.8016789 C313.929696,12.8016789 318.441763,17.5498426 318.441763,25.3147954 Z" id="Shape"></path>
                <path d="M359.496327,31.9779643 L334.942288,31.9779643 C336.044071,36.9884575 339.900315,40.1101784 345.01574,40.1101784 C348.557188,40.1101784 351.810073,38.772298 354.171039,36.3326338 L357.896118,40.293809 C354.721931,43.7827912 350.078699,45.8027282 344.464848,45.8027282 C334.443861,45.8027282 327.833158,39.1395593 327.833158,29.3546695 C327.833158,19.5173137 334.627492,12.8541448 344.281217,12.8016789 C355.718783,12.8016789 360.362015,20.2518363 359.496327,31.9779643 Z M353.410283,26.8363064 C353.174187,21.5897167 349.685205,18.4155299 344.359916,18.4155299 C339.218258,18.4155299 335.624344,21.6421826 334.837356,26.8363064 L353.410283,26.8363064 Z" id="Shape"></path>
                <polygon id="Shape" points="370.19937 45.5403987 370.19937 0.209863589 377.229801 0.209863589 377.229801 45.5403987"></polygon>
            </g>
            <g id="Group">
                <circle id="Oval" fill="#168787" cx="51.6264428" cy="51.8363064" r="51.6264428"></circle>
                <polygon id="Shape" fill="#FFFFFF" points="24.6852046 78.4365163 24.6852046 56.2172088 53.0167891 78.4365163"></polygon>
                <polygon id="Shape" fill="#FFFFFF" points="75.7607555 46.7995803 49.5278069 25.2623295 75.7607555 25.2623295"></polygon>
                <g transform="translate(24.134313, 25.445960)" fill="#FFFFFF" id="Shape">
                    <path d="M54.7219307,37.0409234 C54.7219307,34.4176285 54.1185729,32.0304302 52.9380902,29.9055614 C51.7576076,27.8069255 49.8426023,25.6820567 47.1406086,23.5309549 L18.6253935,0.157397692 C16.6841553,0.18363064 15.1364113,0.288562434 13.9296957,0.472193075 C12.7229801,0.682056663 11.4900315,1.02308499 10.2570829,1.49527807 C8.15844701,2.33473242 6.40083945,3.48898216 4.93179433,4.87932844 L52.1773347,45.5928646 C53.8562434,43.0220357 54.7219307,40.1888772 54.7219307,37.0409234 Z"></path>
                    <path d="M0.236096537,16.1070304 C0.236096537,17.339979 0.419727177,18.6778594 0.786988458,20.0944386 C1.12801679,21.5110178 1.60020986,22.8226653 2.20356768,24.003148 C2.96432319,25.4459601 4.24973767,27.1248688 6.05981112,29.0136411 C7.86988458,31.0073452 10.3357817,33.2896118 13.4312697,35.8604407 C16.6054565,38.5624344 19.884575,41.1594963 23.2686254,43.6516264 C25.3672613,45.1731375 27.1773347,46.4847849 28.6988458,47.5603358 C30.2203568,48.6358867 32.8174187,50.4459601 36.4637985,52.9905561 C37.8279119,52.9380902 39.0083945,52.8856243 39.9790136,52.7806925 C40.8447009,52.7019937 41.6841553,52.544596 42.5498426,52.3347324 C43.1532004,52.2035677 43.887723,51.9412382 44.7534103,51.6002099 C46.4585519,50.8919203 47.95383,49.9737671 49.2654774,48.8719832 L2.20356768,8.34207765 C0.9181532,10.5981112 0.236096537,13.1689402 0.236096537,16.1070304 Z"></path>
                </g>
            </g>
        </g>
    </g>
</svg>