<?xml version="1.0" encoding="UTF-8"?>
<svg width="104px" height="104px" viewBox="0 0 104 104" version="1.1" xmlns="http://www.w3.org/2000/svg" xmlns:xlink="http://www.w3.org/1999/xlink">
    <!-- Generator: Sketch 48.2 (47327) - http://www.bohemiancoding.com/sketch -->
    <title>Group</title>
    <desc>Created with Sketch.</desc>
    <defs></defs>
    <g id="Icons/Logo" stroke="none" stroke-width="1" fill="none" fill-rule="evenodd" transform="translate(-64.000000, -400.000000)">
        <g id="Group-2" transform="translate(33.000000, 375.000000)" fill-rule="nonzero">
            <g id="Group" transform="translate(31.000000, 25.000000)">
                <circle id="Oval" fill="#168787" cx="51.6264428" cy="51.8363064" r="51.6264428"></circle>
                <polygon id="Shape" fill="#FFFFFF" points="24.6852046 78.4365163 24.6852046 56.2172088 53.0167891 78.4365163"></polygon>
                <polygon id="Shape" fill="#FFFFFF" points="75.7607555 46.7995803 49.5278069 25.2623295 75.7607555 25.2623295"></polygon>
                <g transform="translate(24.134313, 25.445960)" fill="#FFFFFF" id="Shape">
                    <path d="M54.7219307,37.0409234 C54.7219307,34.4176285 54.1185729,32.0304302 52.9380902,29.9055614 C51.7576076,27.8069255 49.8426023,25.6820567 47.1406086,23.5309549 L18.6253935,0.157397692 C16.6841553,0.18363064 15.1364113,0.288562434 13.9296957,0.472193075 C12.7229801,0.682056663 11.4900315,1.02308499 10.2570829,1.49527807 C8.15844701,2.33473242 6.40083945,3.48898216 4.93179433,4.87932844 L52.1773347,45.5928646 C53.8562434,43.0220357 54.7219307,40.1888772 54.7219307,37.0409234 Z"></path>
                    <path d="M0.236096537,16.1070304 C0.236096537,17.339979 0.419727177,18.6778594 0.786988458,20.0944386 C1.12801679,21.5110178 1.60020986,22.8226653 2.20356768,24.003148 C2.96432319,25.4459601 4.24973767,27.1248688 6.05981112,29.0136411 C7.86988458,31.0073452 10.3357817,33.2896118 13.4312697,35.8604407 C16.6054565,38.5624344 19.884575,41.1594963 23.2686254,43.6516264 C25.3672613,45.1731375 27.1773347,46.4847849 28.6988458,47.5603358 C30.2203568,48.6358867 32.8174187,50.4459601 36.4637985,52.9905561 C37.8279119,52.9380902 39.0083945,52.8856243 39.9790136,52.7806925 C40.8447009,52.7019937 41.6841553,52.544596 42.5498426,52.3347324 C43.1532004,52.2035677 43.887723,51.9412382 44.7534103,51.6002099 C46.4585519,50.8919203 47.95383,49.9737671 49.2654774,48.8719832 L2.20356768,8.34207765 C0.9181532,10.5981112 0.236096537,13.1689402 0.236096537,16.1070304 Z"></path>
                </g>
            </g>
        </g>
    </g>
</svg>