<?xml version="1.0" encoding="UTF-8"?>
<svg width="1006px" height="876px" viewBox="0 0 1006 876" version="1.1" xmlns="http://www.w3.org/2000/svg" xmlns:xlink="http://www.w3.org/1999/xlink">
    <!-- Generator: Sketch 49.1 (51147) - http://www.bohemiancoding.com/sketch -->
    <title>team</title>
    <desc>Created with Sketch.</desc>
    <defs></defs>
    <g id="Page-1" stroke="none" stroke-width="1" fill="none" fill-rule="evenodd">
        <g id="team">
            <path d="M97.433,467.307 C97.433,454.312 107.967,443.777 120.962,443.777 C121.324,443.777 121.683,443.788 122.041,443.804 C122.398,443.82 122.752,443.847 123.105,443.879 C123.142,443.882 123.18,443.883 123.217,443.887 C123.547,443.918 123.875,443.959 124.201,444.004 C124.26,444.013 124.319,444.018 124.378,444.027 C124.686,444.072 124.992,444.126 125.296,444.182 C125.371,444.196 125.447,444.208 125.522,444.223 C125.813,444.28 126.1,444.345 126.387,444.413 C126.473,444.433 126.56,444.451 126.646,444.473 C126.923,444.541 127.196,444.617 127.468,444.695 C127.562,444.722 127.656,444.747 127.75,444.776 C128.013,444.855 128.274,444.941 128.533,445.029 C128.632,445.063 128.732,445.095 128.831,445.13 C129.083,445.219 129.332,445.315 129.58,445.413 C129.683,445.454 129.787,445.493 129.889,445.535 C130.128,445.633 130.365,445.737 130.601,445.843 C130.708,445.892 130.817,445.939 130.924,445.989 C131.152,446.096 131.377,446.208 131.6,446.321 C131.711,446.377 131.822,446.433 131.931,446.491 C132.148,446.605 132.363,446.725 132.577,446.846 C132.688,446.91 132.8,446.973 132.911,447.039 C133.117,447.161 133.321,447.287 133.523,447.415 C133.637,447.486 133.75,447.558 133.862,447.632 C134.058,447.76 134.251,447.892 134.443,448.027 C134.557,448.107 134.67,448.187 134.783,448.268 C134.968,448.403 135.151,448.541 135.332,448.681 C135.446,448.769 135.559,448.857 135.671,448.947 C135.845,449.087 136.018,449.23 136.189,449.375 C136.302,449.472 136.415,449.569 136.526,449.667 C136.69,449.813 136.853,449.96 137.013,450.109 C137.125,450.214 137.236,450.32 137.346,450.427 C137.501,450.577 137.653,450.728 137.803,450.881 C137.913,450.994 138.021,451.109 138.129,451.224 C138.274,451.378 138.417,451.533 138.557,451.691 C138.664,451.812 138.77,451.935 138.875,452.059 C139.009,452.216 139.142,452.374 139.272,452.535 C139.376,452.664 139.479,452.796 139.581,452.928 C139.705,453.089 139.829,453.25 139.949,453.414 C140.05,453.551 140.147,453.691 140.245,453.83 C140.36,453.994 140.474,454.159 140.585,454.326 C140.681,454.471 140.774,454.618 140.867,454.765 C140.972,454.932 141.077,455.099 141.179,455.269 C141.27,455.421 141.357,455.576 141.445,455.731 C141.541,455.901 141.637,456.07 141.729,456.241 C141.814,456.402 141.896,456.566 141.978,456.729 C142.064,456.899 142.151,457.069 142.233,457.242 C142.313,457.411 142.388,457.583 142.465,457.755 C142.541,457.926 142.619,458.097 142.691,458.271 C142.764,458.447 142.832,458.626 142.901,458.805 C142.969,458.978 143.037,459.15 143.101,459.326 C143.167,459.51 143.228,459.697 143.289,459.883 C143.347,460.057 143.407,460.229 143.46,460.404 C143.52,460.597 143.572,460.792 143.626,460.987 C143.674,461.16 143.725,461.331 143.769,461.506 C143.82,461.708 143.864,461.912 143.91,462.116 C143.948,462.287 143.99,462.456 144.025,462.629 C144.068,462.841 144.103,463.056 144.14,463.271 C144.169,463.438 144.201,463.604 144.227,463.772 C144.261,463.999 144.286,464.229 144.314,464.459 C144.333,464.617 144.357,464.774 144.372,464.934 C144.399,465.196 144.415,465.462 144.433,465.727 C144.441,465.856 144.455,465.982 144.461,466.111 C144.481,466.507 144.492,466.906 144.492,467.307 C144.492,467.707 144.481,468.106 144.461,468.502 C144.455,468.631 144.441,468.758 144.433,468.886 C144.415,469.151 144.399,469.417 144.372,469.679 C144.356,469.839 144.333,469.997 144.314,470.156 C144.286,470.385 144.261,470.614 144.227,470.841 C144.201,471.01 144.168,471.176 144.139,471.344 C144.102,471.558 144.068,471.772 144.025,471.984 C143.99,472.157 143.948,472.328 143.909,472.499 C143.864,472.702 143.82,472.906 143.769,473.107 C143.725,473.282 143.674,473.454 143.626,473.627 C143.572,473.821 143.519,474.017 143.46,474.209 C143.407,474.384 143.347,474.557 143.289,474.731 C143.227,474.917 143.167,475.103 143.101,475.287 C143.037,475.463 142.968,475.636 142.901,475.81 C142.832,475.988 142.764,476.166 142.691,476.341 C142.618,476.516 142.54,476.688 142.464,476.86 C142.388,477.031 142.313,477.202 142.233,477.37 C142.151,477.544 142.064,477.715 141.977,477.886 C141.895,478.048 141.814,478.211 141.729,478.371 C141.637,478.543 141.54,478.713 141.444,478.883 C141.357,479.038 141.27,479.192 141.179,479.344 C141.077,479.514 140.972,479.682 140.866,479.849 C140.773,479.996 140.681,480.142 140.586,480.286 C140.474,480.455 140.359,480.62 140.243,480.785 C140.146,480.924 140.05,481.062 139.95,481.197 C139.829,481.363 139.704,481.526 139.579,481.688 C139.478,481.818 139.377,481.948 139.273,482.076 C139.142,482.239 139.008,482.398 138.873,482.557 C138.769,482.679 138.664,482.801 138.558,482.921 C138.417,483.08 138.273,483.236 138.128,483.391 C138.021,483.505 137.914,483.618 137.805,483.729 C137.653,483.885 137.499,484.038 137.343,484.189 C137.235,484.294 137.126,484.398 137.016,484.501 C136.854,484.652 136.69,484.801 136.523,484.948 C136.414,485.045 136.303,485.14 136.192,485.235 C136.019,485.382 135.844,485.527 135.667,485.669 C135.558,485.756 135.447,485.843 135.337,485.928 C135.152,486.071 134.966,486.211 134.778,486.348 C134.669,486.427 134.559,486.505 134.448,486.583 C134.254,486.719 134.057,486.853 133.858,486.984 C133.749,487.055 133.639,487.125 133.528,487.195 C133.323,487.325 133.117,487.453 132.908,487.576 C132.8,487.64 132.69,487.702 132.581,487.764 C132.365,487.887 132.148,488.008 131.927,488.124 C131.822,488.18 131.714,488.234 131.607,488.288 C131.38,488.404 131.152,488.517 130.921,488.625 C130.817,488.674 130.712,488.72 130.607,488.767 C130.368,488.875 130.129,488.98 129.886,489.08 C129.787,489.12 129.687,489.158 129.587,489.197 C129.336,489.296 129.083,489.393 128.827,489.484 C128.733,489.518 128.637,489.549 128.542,489.581 C128.278,489.67 128.014,489.758 127.746,489.838 C127.657,489.865 127.567,489.889 127.478,489.915 C127.201,489.994 126.924,490.071 126.643,490.141 C126.562,490.161 126.48,490.178 126.398,490.198 C126.107,490.267 125.814,490.333 125.519,490.391 C125.449,490.404 125.379,490.415 125.309,490.428 C125,490.486 124.689,490.541 124.375,490.586 C124.322,490.594 124.269,490.599 124.216,490.607 C123.884,490.653 123.55,490.694 123.214,490.726 C123.184,490.729 123.154,490.73 123.124,490.733 C122.764,490.766 122.403,490.792 122.039,490.809 C121.682,490.825 121.323,490.836 120.962,490.836 C107.967,490.836 97.433,480.302 97.433,467.307 Z M163.721,451.747 L178.701,441.397 L172.27,430.258 L155.803,438.062 C154.103,436.038 152.23,434.165 150.207,432.465 L158.01,415.999 L146.872,409.568 L136.521,424.548 C136.365,424.491 136.206,424.443 136.049,424.388 C133.734,423.574 131.337,422.935 128.867,422.502 L127.393,404.349 L114.531,404.349 L113.057,422.502 C110.421,422.964 107.862,423.653 105.403,424.548 L95.053,409.568 L83.914,415.999 L91.717,432.465 C89.694,434.165 87.821,436.038 86.121,438.062 L69.654,430.258 L63.223,441.397 L78.203,451.747 C77.308,454.206 76.62,456.765 76.158,459.401 L58.004,460.875 L58.004,473.738 L76.158,475.212 C76.62,477.848 77.308,480.406 78.203,482.866 L63.223,493.216 L69.654,504.355 L86.121,496.551 C87.821,498.575 89.694,500.448 91.717,502.148 L83.914,518.614 L95.053,525.045 L105.403,510.065 C107.862,510.96 110.421,511.649 113.057,512.111 L114.531,530.264 L127.393,530.264 L128.867,512.111 C131.504,511.649 134.062,510.96 136.521,510.065 L146.872,525.045 L158.01,518.614 L150.207,502.148 C152.23,500.448 154.103,498.575 155.803,496.551 L172.27,504.355 L178.701,493.216 L163.721,482.866 C164.616,480.406 165.304,477.848 165.766,475.212 L183.92,473.738 L183.92,460.875 L165.766,459.401 C165.304,456.765 164.616,454.206 163.721,451.747 Z" id="Fill-9" fill="#E0DFD9"></path>
            <path d="M339.176,685.644 C324.668,685.644 312.907,673.883 312.907,659.376 C312.907,644.868 324.668,633.107 339.176,633.107 C339.191,633.107 339.206,633.109 339.221,633.109 C346.01,633.12 352.194,635.706 356.85,639.943 C356.858,639.951 356.866,639.959 356.875,639.967 C357.486,640.525 358.072,641.111 358.629,641.724 C358.653,641.75 358.675,641.778 358.698,641.804 C358.956,642.09 359.208,642.38 359.453,642.676 C359.49,642.721 359.525,642.769 359.561,642.814 C359.79,643.095 360.016,643.379 360.232,643.669 C360.251,643.695 360.269,643.721 360.288,643.747 C360.519,644.059 360.746,644.375 360.964,644.698 C360.996,644.746 361.025,644.796 361.057,644.844 C361.258,645.146 361.456,645.451 361.645,645.762 C361.697,645.847 361.743,645.935 361.793,646.02 C361.958,646.298 362.122,646.577 362.277,646.862 C362.324,646.949 362.367,647.041 362.414,647.129 C362.565,647.415 362.716,647.702 362.857,647.995 C362.883,648.049 362.905,648.104 362.931,648.159 C363.087,648.489 363.24,648.82 363.382,649.158 C363.404,649.209 363.422,649.263 363.444,649.314 C363.586,649.656 363.724,650 363.852,650.349 C363.892,650.46 363.926,650.574 363.965,650.685 C364.068,650.978 364.171,651.271 364.264,651.569 C364.301,651.688 364.332,651.811 364.367,651.932 C364.454,652.225 364.541,652.518 364.618,652.815 C364.645,652.922 364.666,653.032 364.693,653.139 C364.769,653.453 364.846,653.767 364.911,654.085 C364.939,654.226 364.96,654.37 364.987,654.511 C365.041,654.799 365.097,655.087 365.141,655.378 C365.153,655.454 365.16,655.532 365.171,655.608 C365.348,656.839 365.444,658.096 365.444,659.376 C365.444,660.672 365.346,661.945 365.165,663.192 C365.156,663.252 365.151,663.313 365.141,663.373 C365.096,663.673 365.038,663.968 364.983,664.263 C364.957,664.397 364.938,664.533 364.911,664.667 C364.846,664.985 364.769,665.298 364.693,665.612 C364.666,665.719 364.645,665.829 364.618,665.937 C364.537,666.252 364.444,666.563 364.352,666.873 C364.322,666.976 364.296,667.08 364.264,667.183 C364.169,667.487 364.064,667.787 363.958,668.087 C363.922,668.191 363.89,668.298 363.852,668.403 C363.732,668.728 363.603,669.049 363.471,669.368 C363.44,669.443 363.413,669.52 363.382,669.594 C363.249,669.908 363.106,670.216 362.962,670.523 C362.926,670.601 362.894,670.68 362.856,670.757 C362.718,671.044 362.57,671.326 362.422,671.607 C362.372,671.701 362.327,671.797 362.277,671.89 C362.112,672.194 361.938,672.491 361.761,672.787 C361.722,672.854 361.686,672.923 361.646,672.989 C361.466,673.285 361.277,673.574 361.086,673.862 C361.044,673.926 361.005,673.991 360.963,674.054 C360.76,674.355 360.548,674.648 360.334,674.94 C360.299,674.987 360.267,675.036 360.232,675.083 C360.004,675.388 359.768,675.686 359.527,675.981 C359.502,676.012 359.479,676.044 359.453,676.075 C359.207,676.373 358.953,676.665 358.694,676.952 C358.672,676.977 358.651,677.003 358.629,677.027 C358.363,677.321 358.089,677.607 357.809,677.888 C357.793,677.905 357.777,677.922 357.761,677.939 C353.016,682.689 346.462,685.631 339.221,685.643 C339.206,685.643 339.191,685.644 339.176,685.644 Z M409.462,652.196 L389.195,650.55 C388.808,648.343 388.279,646.185 387.617,644.085 C387.397,643.385 387.161,642.692 386.911,642.005 L403.635,630.45 L396.455,618.015 L378.073,626.727 C377.598,626.162 377.111,625.608 376.613,625.065 C375.617,623.978 374.573,622.935 373.487,621.938 C372.943,621.44 372.389,620.953 371.824,620.479 L380.536,602.096 L368.101,594.916 L356.546,611.64 C355.859,611.39 355.166,611.155 354.466,610.934 C353.067,610.493 351.641,610.111 350.192,609.79 C349.467,609.63 348.737,609.485 348.001,609.356 L346.355,589.089 L331.996,589.089 L330.35,609.356 C327.407,609.872 324.551,610.641 321.805,611.64 L310.25,594.916 L297.814,602.096 L306.527,620.479 C304.268,622.377 302.177,624.468 300.278,626.727 L281.895,618.015 L274.716,630.45 L291.44,642.005 C290.44,644.751 289.672,647.607 289.156,650.55 L268.889,652.196 L268.889,666.555 L289.156,668.201 C289.672,671.144 290.44,674 291.44,676.746 L274.716,688.301 L281.895,700.737 L300.278,692.024 C302.177,694.284 304.268,696.375 306.527,698.273 L297.814,716.656 L310.25,723.836 L321.805,707.112 C324.551,708.111 327.407,708.879 330.35,709.395 L331.996,729.662 L346.355,729.662 L348.001,709.395 C348.737,709.266 349.467,709.122 350.192,708.961 C352.365,708.481 354.487,707.861 356.546,707.112 L368.101,723.836 L380.536,716.656 L371.824,698.273 C373.519,696.849 375.118,695.317 376.613,693.687 C377.111,693.144 377.598,692.589 378.073,692.025 L396.455,700.737 L403.635,688.301 L386.911,676.746 C387.411,675.373 387.853,673.973 388.234,672.548 C388.616,671.122 388.937,669.673 389.195,668.201 L399.328,667.378 L409.462,666.555 L409.462,652.196 Z" id="Fill-10" fill="#E0DFD9"></path>
            <path d="M385.866,136.342 C385.972,136.342 386.074,136.356 386.179,136.357 C391.909,136.442 397.084,138.815 400.828,142.604 C400.858,142.634 400.884,142.668 400.914,142.698 C401.348,143.143 401.766,143.604 402.159,144.085 C402.218,144.157 402.268,144.235 402.325,144.307 C402.682,144.756 403.029,145.213 403.348,145.69 C403.431,145.813 403.499,145.945 403.579,146.069 C403.859,146.508 404.136,146.949 404.384,147.408 C404.484,147.592 404.563,147.788 404.657,147.975 C404.865,148.389 405.076,148.802 405.257,149.232 C405.361,149.48 405.441,149.741 405.536,149.994 C405.68,150.377 405.833,150.756 405.955,151.149 C406.056,151.475 406.126,151.813 406.211,152.145 C406.297,152.48 406.398,152.809 406.468,153.151 C406.554,153.574 406.604,154.009 406.664,154.44 C406.701,154.704 406.757,154.961 406.783,155.227 C406.855,155.931 406.892,156.645 406.892,157.367 C406.892,158.09 406.855,158.803 406.783,159.507 C406.757,159.774 406.701,160.033 406.664,160.297 C406.604,160.727 406.553,161.161 406.468,161.583 C406.398,161.925 406.297,162.254 406.211,162.59 C406.126,162.922 406.056,163.26 405.955,163.586 C405.834,163.978 405.68,164.356 405.537,164.738 C405.442,164.992 405.362,165.253 405.257,165.503 C405.077,165.931 404.866,166.342 404.659,166.755 C404.565,166.944 404.484,167.141 404.384,167.326 C404.137,167.786 403.86,168.226 403.58,168.664 C403.5,168.789 403.431,168.921 403.348,169.044 C403.027,169.523 402.68,169.982 402.322,170.432 C402.266,170.503 402.217,170.579 402.16,170.649 C401.765,171.132 401.345,171.595 400.909,172.041 C400.881,172.07 400.856,172.102 400.828,172.13 C397.083,175.92 391.906,178.294 386.175,178.377 C386.071,178.379 385.97,178.393 385.866,178.393 C374.254,178.393 364.84,168.98 364.84,157.367 C364.84,145.755 374.254,136.342 385.866,136.342 Z M347.657,171.271 L334.271,180.52 L340.018,190.474 L354.732,183.5 C356.251,185.308 357.925,186.982 359.733,188.501 L352.759,203.216 L362.713,208.962 L371.962,195.576 C374.16,196.376 376.446,196.991 378.802,197.404 L380.119,213.626 L391.613,213.626 L392.93,197.404 C395.286,196.991 397.572,196.376 399.769,195.576 L409.018,208.962 L418.972,203.216 L411.999,188.501 C413.807,186.982 415.48,185.308 417,183.5 L431.714,190.474 L437.461,180.52 L424.075,171.271 C424.875,169.073 425.49,166.787 425.903,164.431 L442.125,163.114 L442.125,151.62 L425.903,150.303 C425.49,147.947 424.875,145.661 424.075,143.464 L437.461,134.215 L431.714,124.261 L417,131.234 C415.48,129.426 413.807,127.752 411.999,126.233 L418.972,111.519 L409.018,105.772 L399.769,119.158 C397.572,118.358 395.286,117.743 392.93,117.331 L391.613,101.108 L380.119,101.108 L378.802,117.331 C376.446,117.743 374.16,118.359 371.962,119.158 L362.713,105.772 L352.759,111.519 L359.733,126.233 C357.925,127.752 356.251,129.426 354.732,131.234 L340.018,124.261 L334.271,134.215 L347.657,143.464 C346.857,145.661 346.242,147.947 345.829,150.303 L329.607,151.62 L329.607,163.114 L345.829,164.431 C346.242,166.787 346.857,169.073 347.657,171.271 Z" id="Fill-12" fill="#E0DFD9"></path>
            <path d="M253.664,371.392 C253.342,371.392 253.026,371.372 252.705,371.368 C210.299,370.852 176.077,336.334 176.077,293.806 C176.077,251.277 210.299,216.759 252.705,216.244 C253.026,216.24 253.342,216.219 253.664,216.219 C296.513,216.219 331.25,250.956 331.25,293.806 C331.25,336.656 296.513,371.392 253.664,371.392 Z M275.437,395.953 L285.881,393.154 L283.434,378.314 C286.491,377.237 289.475,376.004 292.37,374.614 L301.132,386.837 L310.497,381.431 L304.286,367.716 C306.947,365.89 309.506,363.924 311.949,361.829 L323.593,371.381 L331.239,363.735 L321.686,352.091 C323.782,349.648 325.748,347.089 327.574,344.428 L341.288,350.639 L346.695,341.275 L334.472,332.513 C335.861,329.617 337.095,326.634 338.172,323.576 L353.012,326.023 L355.811,315.579 L341.728,310.276 C342.312,307.135 342.737,303.938 342.984,300.69 L357.965,299.212 L357.965,288.399 L342.984,286.921 C342.737,283.674 342.312,280.477 341.728,277.336 L355.811,272.033 L353.012,261.588 L338.172,264.036 C337.095,260.978 335.861,257.995 334.472,255.099 L346.695,246.337 L341.288,236.973 L327.574,243.184 C325.748,240.522 323.782,237.964 321.686,235.52 L331.239,223.876 L323.593,216.23 L311.949,225.783 C309.506,223.687 306.947,221.722 304.286,219.896 L310.497,206.181 L301.132,200.775 L292.37,212.997 C289.475,211.608 286.491,210.375 283.434,209.297 L285.881,194.457 L275.437,191.659 L270.134,205.741 C266.992,205.157 263.796,204.732 260.548,204.486 L259.07,189.504 L248.257,189.504 L246.779,204.486 C243.532,204.732 240.335,205.157 237.194,205.741 L231.891,191.659 L221.446,194.457 L223.894,209.297 C220.836,210.375 217.852,211.608 214.957,212.997 L206.195,200.775 L196.831,206.181 L203.042,219.896 C200.38,221.722 197.822,223.687 195.378,225.783 L183.734,216.23 L176.088,223.876 L185.641,235.52 C183.545,237.964 181.58,240.522 179.753,243.184 L166.039,236.973 L160.633,246.337 L172.855,255.099 C171.466,257.995 170.232,260.978 169.155,264.036 L154.315,261.588 L151.517,272.033 L165.599,277.336 C165.015,280.477 164.59,283.674 164.343,286.921 L149.362,288.399 L149.362,299.212 L164.343,300.69 C164.59,303.938 165.015,307.135 165.599,310.276 L151.517,315.579 L154.315,326.023 L169.155,323.576 C170.232,326.634 171.466,329.617 172.855,332.513 L160.633,341.275 L166.039,350.639 L179.753,344.428 C181.58,347.089 183.545,349.648 185.641,352.091 L176.088,363.735 L183.734,371.381 L195.378,361.829 C197.822,363.924 200.38,365.89 203.042,367.716 L196.831,381.431 L206.195,386.837 L214.957,374.614 C217.852,376.004 220.836,377.237 223.894,378.314 L221.446,393.154 L231.891,395.953 L237.194,381.87 C240.335,382.454 243.532,382.879 246.779,383.126 L248.257,398.108 L259.07,398.108 L260.548,383.126 C263.796,382.879 266.992,382.454 270.134,381.87 L275.437,395.953 Z" id="Fill-14" fill="#E0DFD9"></path>
            <path d="M258.734,361.719 L258.734,311.15 C264.638,309.427 269.284,304.78 271.008,298.877 L321.577,298.877 C319.103,332.452 292.31,359.245 258.734,361.719 Z M253.664,300.42 C253.337,300.42 253.019,300.388 252.705,300.343 C249.508,299.877 247.05,297.132 247.05,293.806 C247.05,290.479 249.508,287.734 252.705,287.269 C253.019,287.223 253.337,287.192 253.664,287.192 C257.316,287.192 260.278,290.153 260.278,293.806 C260.278,297.459 257.316,300.42 253.664,300.42 Z M248.593,361.719 C215.018,359.245 188.224,332.452 185.751,298.877 L236.32,298.877 C238.043,304.78 242.69,309.427 248.593,311.15 L248.593,361.719 Z M248.593,225.893 L248.593,276.462 C242.69,278.185 238.043,282.832 236.32,288.735 L185.751,288.735 C188.224,255.16 215.018,228.366 248.593,225.893 Z M258.734,225.893 C292.31,228.366 319.103,255.16 321.577,288.735 L271.008,288.735 C269.284,282.832 264.638,278.185 258.734,276.462 L258.734,225.893 Z M253.664,218.41 C212.024,218.41 178.268,252.166 178.268,293.806 C178.268,335.446 212.024,369.202 253.664,369.202 C295.304,369.202 329.06,335.446 329.06,293.806 C329.06,252.166 295.304,218.41 253.664,218.41 Z" id="Fill-15" fill="#E0DFD9"></path>
            <path d="M733.866,664.405 C701.968,664.405 676.109,638.546 676.109,606.648 C676.109,574.75 701.968,548.892 733.866,548.892 C765.764,548.892 791.622,574.75 791.622,606.648 C791.622,638.546 765.764,664.405 733.866,664.405 Z M806.949,579.069 L823.811,567.191 L813.009,548.482 L794.283,557.15 C791.011,553.161 787.353,549.503 783.365,546.231 L792.032,527.505 L773.323,516.703 L761.445,533.565 C756.676,531.764 751.686,530.418 746.524,529.577 L744.668,509.025 L723.064,509.025 L721.207,529.577 C716.046,530.418 711.056,531.764 706.287,533.565 L694.409,516.703 L675.7,527.505 L684.367,546.231 C680.379,549.503 676.72,553.161 673.448,557.15 L654.723,548.482 L643.921,567.191 L660.783,579.069 C658.982,583.838 657.636,588.828 656.794,593.99 L636.243,595.846 L636.243,617.45 L656.794,619.307 C657.636,624.468 658.982,629.458 660.783,634.227 L643.921,646.105 L654.723,664.814 L673.448,656.147 C676.72,660.136 680.379,663.794 684.367,667.066 L675.7,685.792 L694.409,696.593 L706.287,679.732 C711.056,681.532 716.046,682.878 721.207,683.72 L723.064,704.271 L744.668,704.271 L746.524,683.72 C751.686,682.878 756.676,681.532 761.445,679.732 L773.323,696.593 L792.032,685.792 L783.364,667.066 C787.353,663.794 791.011,660.136 794.283,656.147 L813.009,664.814 L823.811,646.105 L806.949,634.227 C808.75,629.458 810.096,624.468 810.938,619.307 L831.489,617.45 L831.489,595.846 L810.938,593.99 C810.096,588.828 808.75,583.838 806.949,579.069 Z" id="Fill-16" fill="#E0DFD9"></path>
            <path d="M681.826,606.648 C681.826,577.907 705.125,554.608 733.866,554.608 C733.924,554.608 733.981,554.612 734.039,554.612 C748.369,554.659 761.335,560.497 770.719,569.909 C770.728,569.918 770.737,569.927 770.745,569.936 C771.322,570.515 771.885,571.107 772.434,571.712 C772.471,571.753 772.506,571.797 772.544,571.839 C773.062,572.414 773.571,573 774.064,573.598 C774.108,573.653 774.15,573.71 774.195,573.765 C774.675,574.354 775.146,574.95 775.601,575.559 C775.67,575.652 775.734,575.749 775.802,575.842 C776.227,576.419 776.645,577.001 777.047,577.596 C777.128,577.716 777.201,577.842 777.282,577.963 C777.661,578.536 778.037,579.113 778.394,579.702 C778.494,579.866 778.583,580.036 778.681,580.201 C779.009,580.755 779.335,581.311 779.643,581.878 C779.747,582.069 779.84,582.267 779.941,582.46 C780.23,583.008 780.519,583.557 780.788,584.117 C780.902,584.354 781.003,584.598 781.113,584.837 C781.356,585.361 781.601,585.884 781.827,586.418 C781.942,586.69 782.042,586.97 782.152,587.244 C782.357,587.754 782.567,588.261 782.756,588.779 C782.864,589.072 782.956,589.373 783.058,589.67 C783.232,590.176 783.412,590.679 783.572,591.192 C783.678,591.535 783.767,591.885 783.866,592.23 C784.003,592.705 784.148,593.177 784.271,593.658 C784.37,594.044 784.45,594.437 784.541,594.826 C784.645,595.274 784.758,595.719 784.851,596.172 C784.94,596.609 785.009,597.053 785.087,597.494 C785.16,597.907 785.244,598.315 785.307,598.731 C785.38,599.206 785.43,599.687 785.49,600.166 C785.538,600.555 785.598,600.941 785.638,601.334 C785.69,601.844 785.718,602.362 785.755,602.876 C785.781,603.242 785.82,603.605 785.838,603.974 C785.883,604.859 785.906,605.751 785.906,606.648 C785.906,607.545 785.883,608.437 785.838,609.323 C785.82,609.691 785.781,610.054 785.755,610.42 C785.718,610.935 785.69,611.452 785.638,611.963 C785.598,612.351 785.539,612.733 785.491,613.118 C785.431,613.601 785.38,614.087 785.307,614.565 C785.245,614.976 785.162,615.379 785.09,615.786 C785.011,616.232 784.941,616.682 784.851,617.124 C784.759,617.572 784.647,618.011 784.544,618.455 C784.453,618.849 784.372,619.248 784.271,619.639 C784.149,620.115 784.006,620.583 783.87,621.053 C783.77,621.403 783.68,621.758 783.572,622.104 C783.414,622.611 783.236,623.108 783.064,623.608 C782.96,623.911 782.866,624.218 782.756,624.518 C782.568,625.032 782.36,625.536 782.156,626.042 C782.045,626.32 781.943,626.603 781.827,626.878 C781.601,627.412 781.356,627.935 781.113,628.46 C781.003,628.698 780.902,628.942 780.788,629.179 C780.519,629.739 780.23,630.288 779.941,630.836 C779.84,631.029 779.747,631.227 779.643,631.418 C779.335,631.986 779.009,632.542 778.681,633.096 C778.583,633.261 778.493,633.431 778.394,633.594 C778.041,634.176 777.67,634.745 777.295,635.312 C777.211,635.44 777.132,635.573 777.046,635.701 C776.646,636.294 776.229,636.875 775.805,637.451 C775.736,637.545 775.671,637.643 775.601,637.737 C775.152,638.34 774.686,638.929 774.211,639.51 C774.161,639.572 774.114,639.637 774.063,639.699 C773.571,640.297 773.063,640.881 772.545,641.456 C772.507,641.498 772.472,641.543 772.434,641.584 C771.892,642.183 771.335,642.767 770.766,643.339 C770.75,643.355 770.735,643.372 770.719,643.388 C761.335,652.799 748.369,658.637 734.039,658.684 C733.981,658.684 733.924,658.688 733.866,658.688 C705.125,658.688 681.826,635.389 681.826,606.648 Z M776.485,641.695 C776.532,641.637 776.576,641.576 776.623,641.518 C777.133,640.894 777.633,640.261 778.116,639.615 C778.191,639.515 778.259,639.41 778.333,639.309 C778.782,638.699 779.224,638.084 779.648,637.456 C779.742,637.317 779.827,637.172 779.92,637.032 C780.315,636.434 780.706,635.834 781.078,635.221 C781.185,635.044 781.283,634.86 781.388,634.682 C781.733,634.098 782.078,633.513 782.402,632.915 C782.518,632.701 782.622,632.48 782.735,632.264 C783.035,631.693 783.336,631.122 783.617,630.539 C783.734,630.296 783.838,630.044 783.951,629.799 C784.212,629.236 784.476,628.673 784.718,628.1 C784.845,627.799 784.957,627.49 785.079,627.186 C785.29,626.658 785.507,626.134 785.703,625.599 C785.826,625.261 785.932,624.916 786.049,624.576 C786.225,624.064 786.408,623.556 786.569,623.037 C786.681,622.674 786.776,622.304 786.881,621.938 C787.026,621.434 787.179,620.933 787.31,620.423 C787.415,620.014 787.5,619.597 787.596,619.185 C787.707,618.709 787.827,618.237 787.925,617.757 C788.02,617.293 788.092,616.823 788.175,616.355 C788.253,615.918 788.342,615.484 788.409,615.043 C788.485,614.546 788.538,614.042 788.6,613.541 C788.652,613.122 788.717,612.706 788.76,612.284 C788.813,611.753 788.843,611.215 788.881,610.68 C788.91,610.281 788.952,609.886 788.972,609.484 C789.02,608.545 789.044,607.6 789.044,606.648 C789.044,605.697 789.02,604.751 788.972,603.812 C788.952,603.411 788.91,603.015 788.881,602.616 C788.843,602.081 788.813,601.543 788.76,601.013 C788.717,600.591 788.652,600.175 788.6,599.756 C788.538,599.255 788.485,598.75 788.409,598.254 C788.342,597.813 788.253,597.379 788.175,596.941 C788.092,596.474 788.02,596.003 787.925,595.54 C787.827,595.06 787.707,594.588 787.596,594.112 C787.5,593.699 787.415,593.283 787.31,592.874 C787.179,592.364 787.026,591.863 786.881,591.359 C786.776,590.993 786.681,590.622 786.569,590.259 C786.408,589.741 786.225,589.232 786.049,588.721 C785.932,588.381 785.826,588.035 785.703,587.698 C785.507,587.163 785.29,586.638 785.079,586.111 C784.957,585.807 784.845,585.498 784.718,585.197 C784.476,584.623 784.212,584.061 783.951,583.497 C783.838,583.252 783.734,583.001 783.617,582.758 C783.336,582.174 783.035,581.604 782.735,581.033 C782.622,580.817 782.518,580.596 782.402,580.381 C782.078,579.784 781.733,579.199 781.388,578.615 C781.283,578.436 781.185,578.252 781.078,578.075 C780.706,577.462 780.315,576.862 779.92,576.265 C779.827,576.125 779.742,575.98 779.648,575.841 C779.224,575.212 778.782,574.597 778.333,573.988 C778.259,573.887 778.191,573.782 778.116,573.682 C777.633,573.035 777.133,572.402 776.623,571.778 C776.576,571.72 776.532,571.66 776.485,571.602 C775.956,570.96 775.411,570.332 774.854,569.714 C774.821,569.678 774.79,569.639 774.757,569.603 C774.182,568.968 773.591,568.348 772.987,567.741 C772.97,567.724 772.954,567.706 772.938,567.689 C762.948,557.671 749.132,551.47 733.866,551.47 C703.392,551.47 678.688,576.174 678.688,606.648 C678.688,637.122 703.392,661.826 733.866,661.826 C749.132,661.826 762.948,655.626 772.938,645.607 C772.954,645.591 772.97,645.573 772.987,645.556 C773.591,644.948 774.182,644.328 774.757,643.694 C774.79,643.657 774.821,643.619 774.854,643.582 C775.411,642.965 775.956,642.337 776.485,641.695 Z" id="Fill-17" fill="#E0DFD9"></path>
            <path d="M648.826,146.918 L654.843,147.76 L692.454,169.475 C692.014,171.003 691.765,172.612 691.765,174.282 C691.765,175.952 692.014,177.562 692.454,179.09 L654.843,200.805 L649.06,201.615 C645.192,193.21 643.019,183.865 643.019,174.007 C643.019,164.351 645.106,155.188 648.826,146.918 Z M702.619,108.207 L704.962,113.997 L704.962,157.433 C701.737,158.231 698.869,159.919 696.636,162.236 L659.023,140.52 L655.262,135.7 C666.062,120.537 683.087,110.12 702.619,108.207 Z M704.962,234.568 L702.835,239.823 C683.337,237.978 666.317,227.664 655.467,212.602 L659.023,208.045 L696.636,186.329 C698.869,188.646 701.737,190.334 704.962,191.132 L704.962,234.568 Z M713.322,191.132 C716.547,190.334 719.415,188.646 721.647,186.329 L759.26,208.045 L762.816,212.602 C751.967,227.664 734.946,237.978 715.449,239.823 L713.322,234.568 L713.322,191.132 Z M713.322,113.997 L715.665,108.207 C735.196,110.12 752.222,120.537 763.022,135.7 L759.26,140.52 L721.647,162.236 C719.415,159.919 716.547,158.231 713.322,157.433 L713.322,113.997 Z M769.458,146.918 C773.178,155.188 775.265,164.351 775.265,174.007 C775.265,183.865 773.092,193.21 769.223,201.615 L763.44,200.805 L725.829,179.09 C726.269,177.562 726.518,175.952 726.518,174.282 C726.518,172.612 726.269,171.003 725.829,169.475 L763.44,147.76 L769.458,146.918 Z M631.935,189.682 L610.208,196.369 L612.42,204.622 L634.608,199.543 C635.735,202.834 637.077,206.024 638.611,209.102 L619.296,221.222 L623.568,228.622 L643.754,217.937 C645.683,220.803 647.799,223.533 650.078,226.115 L634.506,242.876 L640.548,248.918 L657.327,233.33 C659.915,235.593 662.654,237.688 665.524,239.601 L654.802,259.856 L662.202,264.129 L674.388,244.707 C677.459,246.22 680.639,247.542 683.919,248.65 L678.802,271.005 L687.056,273.216 L693.807,251.278 C697.142,251.936 700.553,252.383 704.025,252.605 L704.87,275.561 L713.414,275.561 L714.259,252.605 C717.73,252.383 721.141,251.936 724.476,251.278 L731.228,273.216 L739.482,271.005 L734.364,248.65 C737.644,247.542 740.825,246.22 743.895,244.707 L756.081,264.129 L763.481,259.856 L752.759,239.601 C755.63,237.688 758.368,235.593 760.957,233.33 L777.736,248.918 L783.778,242.876 L768.205,226.115 C770.485,223.533 772.6,220.803 774.53,217.937 L794.716,228.622 L798.988,221.222 L779.672,209.102 C781.207,206.024 782.548,202.834 783.675,199.543 L805.864,204.622 L808.075,196.369 L786.348,189.682 C787.026,186.324 787.487,182.888 787.723,179.39 L810.421,178.555 L810.421,170.01 L787.758,169.176 C787.546,165.668 787.105,162.222 786.448,158.853 L808.075,152.196 L805.864,143.943 L783.849,148.982 C782.737,145.661 781.408,142.439 779.881,139.332 L798.988,127.343 L794.716,119.943 L774.799,130.485 C772.867,127.576 770.747,124.801 768.456,122.181 L783.778,105.689 L777.736,99.647 L761.26,114.953 C758.647,112.644 755.881,110.505 752.976,108.555 L763.481,88.709 L756.081,84.436 L744.159,103.437 C741.044,101.888 737.814,100.536 734.481,99.404 L739.482,77.561 L731.228,75.349 L724.636,96.766 C721.244,96.089 717.773,95.633 714.238,95.407 L713.414,73.004 L704.87,73.004 L704.045,95.407 C700.511,95.633 697.04,96.089 693.647,96.766 L687.056,75.349 L678.802,77.561 L683.802,99.404 C680.47,100.536 677.24,101.888 674.125,103.437 L662.202,84.436 L654.802,88.709 L665.308,108.555 C662.403,110.505 659.637,112.644 657.023,114.953 L640.548,99.647 L634.506,105.689 L649.828,122.181 C647.536,124.801 645.417,127.576 643.484,130.485 L623.568,119.943 L619.296,127.343 L638.402,139.332 C636.876,142.439 635.547,145.661 634.435,148.982 L612.42,143.943 L610.208,152.196 L631.836,158.853 C631.179,162.222 630.737,165.668 630.525,169.176 L607.863,170.01 L607.863,178.555 L630.56,179.39 C630.796,182.888 631.258,186.324 631.935,189.682 Z" id="Fill-20" fill="#E0DFD9"></path>
            <path d="M551.573,769.177 C524.275,772.631 499.345,753.301 495.891,726.003 C492.437,698.704 511.766,673.774 539.065,670.32 C566.363,666.866 591.293,686.195 594.747,713.494 C598.201,740.792 578.872,765.722 551.573,769.177 Z M644.783,717.734 L641.458,691.455 L624.511,691.325 C623.102,687.387 621.412,683.597 619.469,679.976 L631.771,667.732 L615.752,646.637 L599.825,655.67 C596.923,653.204 593.856,650.936 590.647,648.881 L595.502,630.936 L571.081,620.676 L561.397,637.156 C557.869,636.469 554.272,636.007 550.623,635.781 L545.693,617.204 L519.414,620.529 L519.267,639.748 C515.79,640.877 512.421,642.22 509.175,643.764 L495.692,630.216 L474.596,646.235 L483.768,662.405 C481.172,665.194 478.766,668.155 476.57,671.267 L458.895,666.485 L448.635,690.906 L463.6,699.699 C462.619,703.69 461.927,707.781 461.543,711.946 L445.163,716.293 L448.488,742.572 L464.373,742.694 C465.618,747.106 467.21,751.353 469.109,755.414 L458.175,766.295 L474.194,787.391 L486.838,780.219 C490.338,783.6 494.123,786.672 498.148,789.4 L494.444,803.091 L518.865,813.351 L525.776,801.59 C530.649,802.755 535.668,803.495 540.787,803.765 L544.253,816.824 L570.532,813.498 L570.635,799.989 C575.526,798.452 580.202,796.485 584.632,794.143 L594.254,803.812 L615.35,787.793 L608.352,775.456 C611.571,771.811 614.471,767.892 617.019,763.747 L631.051,767.542 L641.311,743.122 L628.011,735.307 C628.839,730.902 629.323,726.392 629.429,721.809 L644.783,717.734 Z" id="Fill-21" fill="#E0DFD9"></path>
            <path d="M386.905,453.094 C386.905,395.009 433.992,347.922 492.077,347.922 C550.161,347.922 597.248,395.009 597.248,453.094 C597.248,511.179 550.161,558.266 492.077,558.266 C433.992,558.266 386.905,511.179 386.905,453.094 Z M475.914,615.517 L508.239,615.517 C509.707,605.257 512.546,590.847 517.643,581.765 C535.083,578.319 551.282,571.423 565.494,561.807 C575.557,564.572 587.861,572.821 596.208,579.079 L619.065,556.222 C612.732,547.774 604.356,535.273 601.692,525.144 C610.92,511.134 617.532,495.252 620.838,478.187 C629.843,472.755 644.893,469.771 655.503,468.253 L655.503,435.928 C644.708,434.384 629.318,431.322 620.374,425.709 C616.889,409.299 610.336,394.026 601.343,380.514 C603.528,370.148 612.42,356.823 619.065,347.959 L596.208,325.102 C587.229,331.833 573.674,340.868 563.252,342.903 C549.978,334.311 535.054,328.053 519.059,324.709 C513.062,315.934 509.838,299.837 508.239,288.664 L475.914,288.664 C474.316,299.837 471.091,315.934 465.095,324.709 C449.099,328.053 434.175,334.311 420.901,342.903 C410.479,340.868 396.924,331.833 387.945,325.102 L365.088,347.959 C371.733,356.823 380.625,370.148 382.81,380.514 C373.817,394.026 367.265,409.299 363.779,425.709 C354.835,431.322 339.445,434.384 328.65,435.928 L328.65,468.253 C339.261,469.771 354.311,472.755 363.315,478.187 C366.621,495.252 373.234,511.134 382.461,525.144 C379.797,535.273 371.421,547.774 365.088,556.222 L387.945,579.079 C396.293,572.821 408.596,564.572 418.66,561.807 C432.871,571.423 449.07,578.319 466.51,581.765 C471.607,590.847 474.446,605.257 475.914,615.517 Z" id="Fill-24" fill="#E0DFD9"></path>
            <path d="M398.495,452.091 C398.495,400.407 440.393,358.509 492.077,358.509 C543.76,358.509 585.658,400.407 585.658,452.091 C585.658,503.774 543.76,545.672 492.077,545.672 C440.393,545.672 398.495,503.774 398.495,452.091 Z M593.246,452.091 C593.246,396.216 547.951,350.921 492.077,350.921 C436.202,350.921 390.908,396.216 390.908,452.091 C390.908,507.965 436.202,553.26 492.077,553.26 C547.951,553.26 593.246,507.965 593.246,452.091 Z" id="Fill-25" fill="#E0DFD9"></path>
            <path d="M515.78,452.091 C515.78,438.999 505.168,428.387 492.077,428.387 C478.985,428.387 468.373,438.999 468.373,452.091 C468.373,465.182 478.985,475.794 492.077,475.794 C505.168,475.794 515.78,465.182 515.78,452.091" id="Fill-26" fill="#E0DFD9"></path>
            <path d="M692.786,386.409 C692.786,357.875 715.917,334.744 744.451,334.744 C744.76,334.744 745.066,334.762 745.374,334.767 C755.911,334.953 765.679,338.29 773.774,343.878 C773.783,343.884 773.791,343.89 773.799,343.896 C774.462,344.354 775.114,344.827 775.754,345.315 C775.777,345.333 775.801,345.353 775.824,345.371 C776.448,345.848 777.061,346.338 777.662,346.842 C777.701,346.875 777.738,346.909 777.776,346.942 C778.36,347.435 778.933,347.939 779.494,348.456 C779.549,348.507 779.602,348.56 779.656,348.611 C780.198,349.115 780.73,349.628 781.249,350.155 C781.319,350.225 781.385,350.299 781.455,350.371 C781.954,350.883 782.445,351.402 782.922,351.934 C783.006,352.028 783.086,352.125 783.17,352.22 C783.626,352.736 784.076,353.258 784.512,353.792 C784.609,353.911 784.7,354.034 784.796,354.153 C785.211,354.671 785.62,355.193 786.015,355.726 C786.122,355.872 786.224,356.023 786.33,356.17 C786.703,356.685 787.073,357.203 787.427,357.733 C787.544,357.908 787.653,358.088 787.767,358.264 C788.1,358.774 788.431,359.286 788.745,359.809 C788.869,360.015 788.984,360.227 789.105,360.435 C789.398,360.937 789.691,361.44 789.968,361.953 C790.095,362.19 790.212,362.433 790.335,362.671 C790.591,363.165 790.849,363.658 791.089,364.161 C791.218,364.43 791.334,364.706 791.458,364.978 C791.679,365.46 791.902,365.941 792.108,366.431 C792.234,366.732 792.347,367.04 792.468,367.344 C792.654,367.813 792.845,368.281 793.019,368.757 C793.141,369.094 793.248,369.438 793.364,369.777 C793.518,370.23 793.678,370.681 793.82,371.14 C793.933,371.508 794.031,371.883 794.136,372.254 C794.261,372.694 794.393,373.13 794.507,373.574 C794.609,373.973 794.693,374.379 794.786,374.782 C794.884,375.207 794.99,375.629 795.077,376.058 C795.166,376.494 795.235,376.937 795.313,377.377 C795.384,377.78 795.464,378.179 795.526,378.585 C795.599,379.067 795.651,379.555 795.711,380.04 C795.757,380.413 795.813,380.782 795.851,381.156 C795.907,381.707 795.94,382.264 795.978,382.819 C795.999,383.135 796.033,383.448 796.049,383.765 C796.093,384.641 796.116,385.522 796.116,386.409 C796.116,386.411 796.116,386.413 796.116,386.415 C796.115,387.299 796.093,388.179 796.049,389.052 C796.033,389.374 795.999,389.69 795.977,390.01 C795.939,390.562 795.906,391.115 795.851,391.661 C795.813,392.04 795.756,392.413 795.71,392.789 C795.65,393.271 795.599,393.755 795.526,394.232 C795.464,394.643 795.382,395.047 795.31,395.455 C795.233,395.89 795.165,396.328 795.077,396.759 C794.989,397.193 794.882,397.62 794.783,398.05 C794.691,398.448 794.608,398.849 794.507,399.243 C794.393,399.69 794.26,400.129 794.134,400.572 C794.029,400.94 793.933,401.312 793.82,401.678 C793.677,402.139 793.516,402.593 793.361,403.049 C793.246,403.386 793.14,403.726 793.019,404.06 C792.845,404.539 792.653,405.009 792.465,405.481 C792.345,405.783 792.233,406.088 792.108,406.386 C791.901,406.88 791.676,407.363 791.455,407.849 C791.332,408.117 791.217,408.39 791.09,408.656 C790.848,409.162 790.589,409.657 790.332,410.154 C790.209,410.39 790.094,410.63 789.968,410.864 C789.69,411.38 789.395,411.886 789.1,412.392 C788.981,412.596 788.868,412.805 788.746,413.008 C788.43,413.533 788.098,414.047 787.764,414.56 C787.65,414.734 787.543,414.912 787.427,415.084 C787.072,415.615 786.701,416.135 786.327,416.652 C786.222,416.798 786.122,416.947 786.015,417.091 C785.619,417.626 785.208,418.15 784.792,418.669 C784.698,418.786 784.608,418.908 784.513,419.025 C784.075,419.562 783.622,420.087 783.163,420.606 C783.082,420.697 783.005,420.791 782.924,420.882 C782.444,421.417 781.951,421.938 781.45,422.452 C781.383,422.521 781.318,422.593 781.25,422.662 C780.729,423.19 780.195,423.705 779.653,424.21 C779.599,424.26 779.548,424.311 779.495,424.361 C778.932,424.881 778.356,425.387 777.77,425.882 C777.734,425.912 777.699,425.944 777.664,425.974 C777.06,426.481 776.443,426.974 775.816,427.453 C775.796,427.469 775.776,427.485 775.756,427.501 C775.114,427.991 774.46,428.465 773.794,428.925 C773.788,428.93 773.782,428.934 773.775,428.939 C765.68,434.527 755.91,437.865 745.372,438.05 C745.064,438.056 744.76,438.074 744.451,438.074 C715.917,438.074 692.786,414.943 692.786,386.409 Z M798.468,321.282 L806.967,298.818 L789.049,288.473 L773.857,307.049 C772.733,306.633 771.599,306.24 770.454,305.871 C769.78,305.654 769.096,305.462 768.416,305.261 C767.949,305.124 767.487,304.974 767.017,304.845 C766.081,304.586 765.134,304.355 764.185,304.128 C763.969,304.076 763.755,304.016 763.538,303.966 C762.439,303.712 761.329,303.485 760.214,303.275 C760.148,303.263 760.083,303.247 760.017,303.235 C755.266,302.35 750.375,301.871 745.381,301.816 C745.378,301.816 745.375,301.816 745.372,301.816 C745.064,301.813 744.76,301.796 744.451,301.796 C734.11,301.796 724.205,303.654 715.045,307.049 L699.853,288.473 L681.935,298.818 L690.433,321.282 C675.199,333.932 664.479,351.825 661.033,372.193 L637.337,376.064 L637.337,396.754 L661.033,400.625 C664.479,420.993 675.199,438.886 690.433,451.535 L681.935,474 L699.853,484.345 L715.045,465.769 C724.204,469.164 734.11,471.022 744.451,471.022 C749.77,471.022 754.972,470.522 760.019,469.583 C760.078,469.572 760.137,469.558 760.196,469.546 C761.319,469.335 762.435,469.107 763.541,468.851 C763.744,468.804 763.944,468.748 764.146,468.7 C765.109,468.47 766.069,468.235 767.018,467.973 C767.475,467.847 767.923,467.701 768.377,467.568 C769.071,467.364 769.769,467.167 770.455,466.946 C771.561,466.59 772.656,466.209 773.741,465.809 C773.779,465.795 773.818,465.783 773.857,465.769 L789.049,484.345 L806.967,474 L798.468,451.535 C802.277,448.373 805.803,444.883 809.004,441.108 C818.608,429.784 825.284,415.901 827.869,400.625 L851.565,396.754 L851.565,376.064 L827.869,372.193 C827.007,367.101 825.691,362.164 823.963,357.424 C823.531,356.24 823.074,355.067 822.591,353.908 C820.178,348.111 817.138,342.64 813.557,337.579 C812.84,336.567 812.102,335.572 811.344,334.593 C807.549,329.7 803.229,325.235 798.468,321.282 Z" id="Fill-27" fill="#E0DFD9"></path>
            <path d="M113.629,481.503 C100.634,481.503 90.099,470.968 90.099,457.973 C90.099,444.978 100.634,434.444 113.629,434.444 C126.624,434.444 137.158,444.978 137.158,457.973 C137.158,470.968 126.624,481.503 113.629,481.503 Z M176.587,464.404 L176.587,451.542 L158.433,450.068 C157.971,447.432 157.283,444.873 156.387,442.414 L171.368,432.064 L164.936,420.925 L148.47,428.729 C146.77,426.705 144.897,424.832 142.873,423.132 L150.677,406.665 L139.538,400.234 L129.188,415.215 C126.729,414.319 124.17,413.631 121.534,413.169 L120.06,395.015 L107.198,395.015 L105.724,413.169 C103.087,413.631 100.529,414.319 98.07,415.215 L87.719,400.234 L76.58,406.665 L84.384,423.132 C82.361,424.832 80.488,426.705 78.787,428.729 L62.321,420.925 L55.89,432.064 L70.87,442.414 C69.975,444.873 69.287,447.432 68.825,450.068 L50.671,451.542 L50.671,464.404 L68.825,465.878 C69.287,468.515 69.975,471.073 70.87,473.532 L55.89,483.883 L62.321,495.022 L78.787,487.218 C80.488,489.241 82.361,491.114 84.384,492.815 L76.58,509.281 L87.719,515.712 L98.07,500.732 C100.529,501.627 103.087,502.315 105.724,502.777 L107.198,520.931 L120.06,520.931 L121.534,502.777 C124.17,502.315 126.729,501.627 129.188,500.732 L139.538,515.712 L150.677,509.281 L142.873,492.815 C144.897,491.114 146.77,489.241 148.47,487.218 L164.936,495.022 L171.368,483.883 L156.387,473.532 C157.283,471.073 157.971,468.515 158.433,465.878 L176.587,464.404 Z" id="Fill-38" fill-opacity="0.716145833" fill="#019095"></path>
            <path d="M176.587,464.404 L176.587,451.542 L158.433,450.068 C157.971,447.432 157.283,444.873 156.387,442.414 L171.368,432.064 L164.936,420.925 L148.47,428.729 C146.77,426.705 144.897,424.832 142.873,423.132 L150.677,406.665 L139.538,400.234 L129.188,415.215 C126.729,414.319 124.17,413.631 121.534,413.169 L120.06,395.015 L114.705,395.015 L114.705,434.471 C127.2,435.034 137.158,445.339 137.158,457.973 C137.158,470.607 127.2,480.912 114.705,481.475 L114.705,520.931 L120.06,520.931 L121.534,502.777 C124.17,502.315 126.729,501.627 129.188,500.732 L139.538,515.712 L150.677,509.281 L142.873,492.815 C144.897,491.114 146.77,489.241 148.47,487.218 L164.936,495.022 L171.368,483.883 L156.387,473.532 C157.283,471.073 157.971,468.515 158.433,465.878 L176.587,464.404" id="Fill-39" fill="#019095"></path>
            <path d="M331.842,676.311 C317.335,676.311 305.574,664.55 305.574,650.042 C305.574,635.535 317.335,623.774 331.842,623.774 C346.35,623.774 358.111,635.535 358.111,650.042 C358.111,664.55 346.35,676.311 331.842,676.311 Z M402.129,657.222 L402.129,642.863 L381.862,641.217 C381.346,638.274 380.577,635.418 379.578,632.672 L396.302,621.117 L389.122,608.681 L370.739,617.394 C368.841,615.135 366.75,613.044 364.491,611.145 L373.203,592.762 L360.768,585.583 L349.212,602.307 C346.467,601.307 343.611,600.539 340.667,600.023 L339.022,579.756 L324.663,579.756 L323.017,600.023 C320.074,600.539 317.217,601.307 314.472,602.307 L302.917,585.583 L290.481,592.762 L299.193,611.145 C296.934,613.044 294.843,615.135 292.945,617.394 L274.562,608.681 L267.382,621.117 L284.106,632.672 C283.107,635.418 282.339,638.274 281.823,641.217 L261.556,642.863 L261.556,657.222 L281.823,658.868 C282.339,661.811 283.107,664.667 284.106,667.413 L267.382,678.968 L274.562,691.404 L292.945,682.691 C294.843,684.95 296.934,687.041 299.193,688.94 L290.481,707.323 L302.917,714.502 L314.472,697.778 C317.217,698.778 320.074,699.546 323.017,700.062 L324.663,720.329 L339.022,720.329 L340.667,700.062 C343.611,699.546 346.467,698.778 349.212,697.778 L360.768,714.502 L373.203,707.323 L364.491,688.94 C366.75,687.041 368.841,684.95 370.739,682.691 L389.122,691.404 L396.302,678.968 L379.578,667.413 C380.577,664.667 381.346,661.811 381.862,658.868 L402.129,657.222 Z" id="Fill-40" fill="#DA745A"></path>
            <path d="M402.129,657.222 L402.129,642.863 L381.862,641.217 C381.346,638.274 380.577,635.418 379.578,632.672 L396.302,621.117 L389.122,608.681 L370.739,617.394 C368.841,615.135 366.75,613.044 364.491,611.145 L373.203,592.762 L360.768,585.583 L349.212,602.307 C346.467,601.307 343.611,600.539 340.667,600.023 L339.022,579.756 L331.877,579.756 L331.877,623.775 C346.368,623.794 358.11,635.546 358.11,650.042 C358.11,664.539 346.368,676.291 331.877,676.31 L331.877,720.329 L339.022,720.329 L340.667,700.062 C343.611,699.546 346.467,698.778 349.212,697.778 L360.768,714.502 L373.203,707.323 L364.491,688.94 C366.75,687.041 368.841,684.95 370.739,682.691 L389.122,691.404 L396.302,678.968 L379.578,667.413 C380.577,664.667 381.346,661.811 381.862,658.868 L402.129,657.222" id="Fill-41" fill="#C35E4B"></path>
            <path d="M377.73,170.976 C366.117,170.976 356.704,161.563 356.704,149.951 C356.704,138.338 366.117,128.925 377.73,128.925 C389.342,128.925 398.755,138.338 398.755,149.951 C398.755,161.563 389.342,170.976 377.73,170.976 Z M433.988,155.697 L433.988,144.204 L417.766,142.887 C417.353,140.531 416.738,138.245 415.938,136.047 L429.325,126.798 L423.578,116.844 L408.864,123.818 C407.344,122.01 405.671,120.336 403.862,118.816 L410.836,104.102 L400.882,98.356 L391.633,111.742 C389.435,110.942 387.149,110.327 384.793,109.914 L383.476,93.692 L371.983,93.692 L370.665,109.914 C368.31,110.327 366.024,110.942 363.826,111.742 L354.577,98.356 L344.623,104.102 L351.597,118.816 C349.788,120.336 348.115,122.01 346.595,123.818 L331.881,116.844 L326.134,126.798 L339.521,136.047 C338.721,138.245 338.106,140.531 337.693,142.887 L321.471,144.204 L321.471,155.697 L337.693,157.015 C338.106,159.37 338.721,161.657 339.521,163.854 L326.134,173.103 L331.881,183.057 L346.595,176.083 C348.115,177.892 349.788,179.565 351.597,181.085 L344.623,195.799 L354.577,201.546 L363.826,188.159 C366.024,188.959 368.31,189.574 370.665,189.987 L371.983,206.21 L383.476,206.21 L384.793,189.987 C387.149,189.574 389.435,188.959 391.633,188.159 L400.882,201.546 L410.836,195.799 L403.862,181.085 C405.671,179.565 407.344,177.892 408.864,176.083 L423.578,183.057 L429.325,173.103 L415.938,163.854 C416.738,161.657 417.353,159.37 417.766,157.015 L433.988,155.697 Z" id="Fill-44" fill-opacity="0.72" fill="#019095"></path>
            <path d="M433.988,155.697 L433.988,144.204 L417.766,142.887 C417.353,140.531 416.738,138.245 415.938,136.047 L429.325,126.798 L423.578,116.844 L408.864,123.818 C407.344,122.01 405.671,120.336 403.862,118.816 L410.836,104.102 L400.882,98.356 L391.633,111.742 C389.436,110.942 387.149,110.327 384.793,109.914 L383.476,93.692 L378.039,93.692 L378.039,128.941 C389.507,129.108 398.755,138.443 398.755,149.951 C398.755,161.458 389.507,170.793 378.039,170.961 L378.039,206.21 L383.476,206.21 L384.793,189.987 C387.149,189.574 389.436,188.959 391.633,188.159 L400.882,201.546 L410.836,195.799 L403.862,181.085 C405.671,179.565 407.344,177.892 408.864,176.083 L423.578,183.057 L429.325,173.103 L415.938,163.854 C416.738,161.657 417.353,159.37 417.766,157.015 L433.988,155.697" id="Fill-45" fill="#019095"></path>
            <path d="M246.33,362.059 C203.481,362.059 168.744,327.322 168.744,284.473 C168.744,241.623 203.481,206.886 246.33,206.886 C289.18,206.886 323.917,241.623 323.917,284.473 C323.917,327.322 289.18,362.059 246.33,362.059 Z M350.632,289.879 L350.632,279.066 L335.651,277.588 C335.404,274.341 334.979,271.144 334.395,268.003 L348.477,262.7 L345.679,252.255 L330.839,254.703 C329.762,251.645 328.528,248.661 327.139,245.766 L339.362,237.004 L333.955,227.64 L320.241,233.851 C318.414,231.189 316.449,228.631 314.353,226.187 L323.906,214.543 L316.26,206.897 L304.616,216.45 C302.172,214.354 299.614,212.389 296.952,210.562 L303.163,196.848 L293.799,191.441 L285.037,203.664 C282.142,202.275 279.158,201.041 276.1,199.964 L278.548,185.124 L268.103,182.326 L262.8,196.408 C259.659,195.824 256.462,195.399 253.215,195.152 L251.737,180.171 L240.924,180.171 L239.446,195.152 C236.199,195.399 233.002,195.824 229.86,196.408 L224.557,182.326 L214.113,185.124 L216.56,199.964 C213.503,201.041 210.519,202.275 207.624,203.664 L198.862,191.441 L189.497,196.848 L195.708,210.562 C193.047,212.389 190.488,214.354 188.045,216.45 L176.401,206.897 L168.755,214.543 L178.308,226.187 C176.212,228.631 174.246,231.189 172.42,233.851 L158.706,227.64 L153.299,237.004 L165.522,245.766 C164.133,248.661 162.899,251.645 161.822,254.703 L146.982,252.255 L144.184,262.7 L158.266,268.003 C157.682,271.144 157.257,274.341 157.01,277.588 L142.029,279.066 L142.029,289.879 L157.01,291.357 C157.257,294.604 157.682,297.801 158.266,300.943 L144.184,306.246 L146.982,316.69 L161.822,314.243 C162.899,317.3 164.133,320.284 165.522,323.179 L153.299,331.941 L158.706,341.306 L172.42,335.095 C174.247,337.756 176.212,340.314 178.308,342.758 L168.755,354.402 L176.401,362.048 L188.045,352.495 C190.488,354.591 193.047,356.556 195.708,358.383 L189.497,372.097 L198.862,377.504 L207.624,365.281 C210.519,366.67 213.503,367.904 216.56,368.981 L214.113,383.821 L224.557,386.62 L229.86,372.537 C233.002,373.121 236.199,373.546 239.446,373.793 L240.924,388.774 L251.737,388.774 L253.215,373.793 C256.462,373.546 259.659,373.121 262.8,372.537 L268.103,386.62 L278.548,383.821 L276.1,368.981 C279.158,367.904 282.142,366.67 285.037,365.281 L293.799,377.504 L303.163,372.097 L296.952,358.383 C299.614,356.556 302.172,354.591 304.616,352.495 L316.26,362.048 L323.906,354.402 L314.353,342.758 C316.449,340.314 318.414,337.756 320.241,335.095 L333.955,341.306 L339.362,331.941 L327.139,323.179 C328.528,320.284 329.762,317.3 330.839,314.243 L345.679,316.69 L348.477,306.246 L334.395,300.943 C334.979,297.801 335.404,294.604 335.651,291.357 L350.632,289.879 Z" id="Fill-48" fill-opacity="0.72" fill="#E1AF32"></path>
            <rect id="Rectangle" fill="#F9F9F9" x="0" y="0" width="1006" height="876" rx="4"></rect>
            <path d="M251.401,352.386 L251.401,301.817 C257.305,300.093 261.951,295.447 263.674,289.543 L314.243,289.543 C311.77,323.118 284.976,349.912 251.401,352.386 Z M178.417,289.543 L228.986,289.543 C230.71,295.447 235.356,300.093 241.26,301.817 L241.26,352.386 C207.685,349.912 180.891,323.118 178.417,289.543 Z M241.26,216.56 L241.26,267.129 C235.356,268.852 230.71,273.499 228.986,279.402 L178.417,279.402 C180.891,245.827 207.685,219.033 241.26,216.56 Z M246.33,291.087 C242.678,291.087 239.716,288.125 239.716,284.473 C239.716,280.82 242.678,277.859 246.33,277.859 C249.983,277.859 252.944,280.82 252.944,284.473 C252.944,288.125 249.983,291.087 246.33,291.087 Z M314.243,279.402 L263.674,279.402 C261.951,273.499 257.305,268.852 251.401,267.129 L251.401,216.56 C284.976,219.033 311.77,245.827 314.243,279.402 Z M246.33,209.077 C204.69,209.077 170.934,242.832 170.934,284.473 C170.934,326.113 204.69,359.869 246.33,359.869 C287.971,359.869 321.727,326.113 321.727,284.473 C321.727,242.832 287.971,209.077 246.33,209.077 Z" id="Fill-49" fill="#F0AB36"></path>
            <path d="M350.632,289.879 L350.632,279.066 L335.651,277.588 C335.404,274.341 334.979,271.144 334.395,268.003 L348.477,262.7 L345.679,252.255 L330.839,254.703 C329.762,251.645 328.528,248.661 327.139,245.766 L339.362,237.004 L333.955,227.64 L320.241,233.851 C318.414,231.189 316.449,228.631 314.353,226.187 L323.906,214.543 L316.26,206.897 L304.616,216.45 C302.172,214.354 299.614,212.389 296.952,210.562 L303.163,196.848 L293.799,191.441 L285.037,203.664 C282.142,202.275 279.158,201.041 276.1,199.964 L278.548,185.124 L268.103,182.326 L262.8,196.408 C259.659,195.824 256.462,195.399 253.215,195.152 L251.737,180.171 L245.372,180.171 L245.372,206.91 C245.693,206.906 246.009,206.886 246.33,206.886 C289.18,206.886 323.917,241.623 323.917,284.473 C323.917,327.322 289.18,362.059 246.33,362.059 C246.009,362.059 245.693,362.039 245.372,362.035 L245.372,388.774 L251.737,388.774 L253.215,373.793 C256.462,373.546 259.659,373.121 262.8,372.537 L268.103,386.62 L278.548,383.821 L276.1,368.981 C279.158,367.904 282.142,366.67 285.037,365.281 L293.799,377.504 L303.163,372.097 L296.952,358.383 C299.614,356.556 302.172,354.591 304.616,352.495 L316.26,362.048 L323.906,354.402 L314.353,342.758 C316.449,340.314 318.414,337.756 320.241,335.095 L333.955,341.306 L339.362,331.941 L327.139,323.179 C328.528,320.284 329.762,317.3 330.839,314.243 L345.679,316.69 L348.477,306.246 L334.395,300.943 C334.979,297.801 335.404,294.604 335.651,291.357 L350.632,289.879" id="Fill-50" fill="#E1AF32"></path>
            <path d="M251.401,352.386 L251.401,301.817 C257.305,300.093 261.951,295.447 263.674,289.543 L314.243,289.543 C311.77,323.118 284.976,349.912 251.401,352.386 Z M251.401,267.129 L251.401,216.56 C284.976,219.033 311.77,245.827 314.243,279.402 L263.674,279.402 C261.951,273.499 257.305,268.852 251.401,267.129 Z M246.33,209.077 C246.009,209.077 245.693,209.097 245.372,209.101 L245.372,277.936 C245.686,277.89 246.004,277.859 246.33,277.859 C249.983,277.859 252.944,280.82 252.944,284.473 C252.944,288.125 249.983,291.087 246.33,291.087 C246.004,291.087 245.686,291.055 245.372,291.009 L245.372,359.845 C245.693,359.849 246.009,359.869 246.33,359.869 C287.971,359.869 321.727,326.113 321.727,284.473 C321.727,242.832 287.971,209.077 246.33,209.077 Z" id="Fill-51" fill="#DD952F"></path>
            <path d="M784.289,597.315 C784.289,629.213 758.431,655.071 726.532,655.071 C694.634,655.071 668.776,629.213 668.776,597.315 C668.776,565.417 694.634,539.558 726.532,539.558 C758.431,539.558 784.289,565.417 784.289,597.315 Z M824.156,608.117 L824.156,586.513 L803.604,584.657 C802.763,579.495 801.417,574.505 799.616,569.736 L816.478,557.858 L805.676,539.149 L786.95,547.816 C783.678,543.828 780.02,540.169 776.031,536.898 L784.699,518.172 L765.99,507.37 L754.112,524.232 C749.342,522.431 744.352,521.085 739.191,520.243 L737.334,499.692 L715.731,499.692 L713.874,520.243 C708.713,521.085 703.723,522.431 698.953,524.232 L687.076,507.37 L668.366,518.172 L677.034,536.898 C673.045,540.169 669.387,543.828 666.115,547.816 L647.389,539.149 L636.587,557.858 L653.449,569.736 C651.649,574.505 650.302,579.495 649.461,584.657 L628.909,586.513 L628.909,608.117 L649.461,609.973 C650.302,615.135 651.649,620.125 653.449,624.894 L636.587,636.772 L647.389,655.481 L666.115,646.813 C669.387,650.802 673.045,654.461 677.034,657.732 L668.366,676.458 L687.076,687.26 L698.953,670.398 C703.723,672.199 708.713,673.545 713.874,674.387 L715.731,694.938 L737.334,694.938 L739.191,674.387 C744.352,673.545 749.342,672.199 754.112,670.398 L765.99,687.26 L784.699,676.458 L776.031,657.732 C780.02,654.461 783.678,650.802 786.95,646.813 L805.676,655.481 L816.478,636.772 L799.616,624.894 C801.417,620.125 802.763,615.135 803.604,609.973 L824.156,608.117 Z" id="Fill-52" fill-opacity="0.72" fill="#E1AF32"></path>
            <path d="M726.532,649.355 C697.792,649.355 674.492,626.056 674.492,597.315 C674.492,568.574 697.792,545.275 726.532,545.275 C755.273,545.275 778.573,568.574 778.573,597.315 C778.573,626.056 755.273,649.355 726.532,649.355 Z M726.532,542.137 C696.058,542.137 671.354,566.841 671.354,597.315 C671.354,627.789 696.058,652.493 726.532,652.493 C757.006,652.493 781.711,627.789 781.711,597.315 C781.711,566.841 757.006,542.137 726.532,542.137 Z" id="Fill-53" fill="#F0AB36"></path>
            <path d="M824.156,608.117 L824.156,586.513 L803.604,584.657 C802.763,579.495 801.417,574.505 799.616,569.736 L816.478,557.858 L805.676,539.149 L786.95,547.816 C783.678,543.828 780.02,540.169 776.031,536.898 L784.699,518.172 L765.99,507.37 L754.112,524.232 C749.342,522.431 744.352,521.085 739.191,520.243 L737.334,499.692 L726.706,499.692 L726.706,539.563 C758.524,539.657 784.289,565.475 784.289,597.315 C784.289,629.155 758.524,654.973 726.706,655.067 L726.706,694.938 L737.334,694.938 L739.191,674.387 C744.352,673.545 749.342,672.199 754.112,670.398 L765.99,687.26 L784.699,676.458 L776.031,657.732 C780.02,654.461 783.678,650.802 786.95,646.813 L805.676,655.481 L816.478,636.772 L799.616,624.894 C801.417,620.125 802.763,615.135 803.604,609.973 L824.156,608.117" id="Fill-54" fill="#E1AF32"></path>
            <path d="M726.706,542.141 L726.706,545.279 C755.366,545.373 778.573,568.632 778.573,597.315 C778.573,625.998 755.366,649.257 726.706,649.351 L726.706,652.489 C757.1,652.395 781.711,627.731 781.711,597.315 C781.711,566.899 757.1,542.235 726.706,542.141" id="Fill-55" fill="#DD952F"></path>
            <path d="M761.89,192.281 L756.107,191.472 L718.496,169.757 C718.936,168.229 719.185,166.619 719.185,164.949 C719.185,163.279 718.936,161.67 718.496,160.141 L756.107,138.427 L762.125,137.584 C765.845,145.854 767.932,155.017 767.932,164.673 C767.932,174.532 765.758,183.877 761.89,192.281 Z M708.115,230.49 L705.989,225.234 L705.989,181.798 C709.213,181 712.082,179.313 714.314,176.996 L751.927,198.712 L755.483,203.269 C744.633,218.331 727.613,228.644 708.115,230.49 Z M648.134,203.269 L651.69,198.712 L689.303,176.996 C691.535,179.313 694.404,181 697.628,181.798 L697.628,225.234 L695.502,230.49 C676.004,228.644 658.984,218.331 648.134,203.269 Z M635.685,164.673 C635.685,155.017 637.772,145.854 641.492,137.584 L647.51,138.427 L685.121,160.141 C684.681,161.67 684.432,163.279 684.432,164.949 C684.432,166.619 684.681,168.229 685.121,169.757 L647.51,191.472 L641.727,192.281 C637.858,183.877 635.685,174.532 635.685,164.673 Z M695.285,98.874 L697.628,104.664 L697.628,148.1 C694.404,148.898 691.535,150.586 689.303,152.902 L651.69,131.186 L647.929,126.367 C658.728,111.204 675.754,100.787 695.285,98.874 Z M755.688,126.367 L751.927,131.186 L714.314,152.902 C712.081,150.586 709.213,148.898 705.989,148.1 L705.989,104.664 L708.332,98.874 C727.863,100.787 744.888,111.204 755.688,126.367 Z M803.087,169.221 L803.087,160.677 L780.425,159.843 C780.213,156.335 779.771,152.889 779.115,149.519 L800.742,142.863 L798.53,134.609 L776.516,139.649 C775.404,136.327 774.074,133.106 772.548,129.999 L791.655,118.01 L787.382,110.61 L767.466,121.152 C765.533,118.242 763.414,115.468 761.122,112.848 L776.444,96.355 L770.402,90.313 L753.927,105.619 C751.313,103.311 748.548,101.171 745.643,99.222 L756.148,79.375 L748.748,75.103 L736.826,94.104 C733.71,92.555 730.48,91.202 727.148,90.071 L732.148,68.227 L723.895,66.016 L717.303,87.433 C713.911,86.756 710.439,86.299 706.905,86.074 L706.081,63.67 L697.536,63.67 L696.712,86.074 C693.178,86.299 689.706,86.756 686.314,87.433 L679.722,66.016 L671.469,68.227 L676.469,90.071 C673.136,91.202 669.907,92.555 666.791,94.104 L654.869,75.103 L647.469,79.375 L657.974,99.222 C655.069,101.171 652.303,103.311 649.69,105.619 L633.214,90.313 L627.172,96.355 L642.495,112.848 C640.203,115.468 638.084,118.242 636.151,121.152 L616.235,110.61 L611.962,118.01 L631.069,129.999 C629.543,133.106 628.213,136.327 627.101,139.649 L605.086,134.609 L602.875,142.863 L624.502,149.519 C623.846,152.889 623.404,156.335 623.192,159.843 L600.53,160.677 L600.53,169.221 L623.227,170.056 C623.463,173.554 623.924,176.99 624.602,180.348 L602.875,187.035 L605.086,195.289 L627.275,190.21 C628.402,193.5 629.743,196.691 631.278,199.769 L611.962,211.889 L616.235,219.289 L636.42,208.604 C638.35,211.47 640.465,214.2 642.745,216.781 L627.172,233.543 L633.214,239.585 L649.993,223.997 C652.582,226.26 655.32,228.355 658.191,230.267 L647.469,250.523 L654.869,254.795 L667.055,235.374 C670.125,236.886 673.306,238.208 676.586,239.316 L671.469,261.671 L679.722,263.883 L686.474,241.945 C689.809,242.603 693.22,243.049 696.692,243.272 L697.536,266.228 L706.081,266.228 L706.925,243.272 C710.397,243.049 713.808,242.603 717.143,241.945 L723.895,263.883 L732.148,261.671 L727.031,239.316 C730.311,238.208 733.491,236.886 736.562,235.374 L748.748,254.795 L756.148,250.523 L745.426,230.267 C748.297,228.355 751.035,226.26 753.623,223.997 L770.402,239.585 L776.444,233.543 L760.872,216.781 C763.152,214.2 765.267,211.47 767.197,208.604 L787.382,219.289 L791.655,211.889 L772.339,199.769 C773.874,196.691 775.215,193.5 776.342,190.21 L798.53,195.289 L800.742,187.035 L779.015,180.348 C779.693,176.99 780.154,173.554 780.39,170.056 L803.087,169.221 Z" id="Fill-60" fill-opacity="0.72" fill="#019095"></path>
            <path d="M761.89,192.281 L756.107,191.472 L718.496,169.757 C718.936,168.229 719.185,166.619 719.185,164.949 C719.185,163.279 718.936,161.67 718.496,160.141 L756.107,138.427 L762.125,137.584 C765.845,145.854 767.932,155.017 767.932,164.673 C767.932,174.532 765.758,183.877 761.89,192.281 Z M708.115,230.49 L705.989,225.234 L705.989,181.798 C709.213,181 712.082,179.313 714.314,176.996 L751.927,198.712 L755.483,203.269 C744.633,218.331 727.613,228.644 708.115,230.49 Z M705.989,104.664 L708.332,98.874 C727.863,100.787 744.888,111.204 755.688,126.367 L751.927,131.186 L714.314,152.902 C712.081,150.586 709.213,148.898 705.989,148.1 L705.989,104.664 Z M803.087,169.221 L803.087,160.677 L780.425,159.843 C780.213,156.335 779.771,152.889 779.115,149.519 L800.742,142.863 L798.53,134.609 L776.516,139.649 C775.404,136.327 774.074,133.106 772.548,129.999 L791.655,118.01 L787.382,110.61 L767.466,121.152 C765.533,118.242 763.414,115.468 761.122,112.848 L776.444,96.355 L770.402,90.313 L753.927,105.619 C751.313,103.311 748.548,101.171 745.643,99.222 L756.148,79.375 L748.748,75.103 L736.826,94.104 C733.71,92.555 730.48,91.202 727.148,90.071 L732.148,68.227 L723.895,66.016 L717.303,87.433 C713.911,86.756 710.439,86.299 706.905,86.074 L706.081,63.67 L701.372,63.67 L701.372,266.228 L706.081,266.228 L706.925,243.272 C710.397,243.049 713.808,242.603 717.143,241.945 L723.895,263.883 L732.148,261.671 L727.031,239.316 C730.311,238.208 733.491,236.886 736.562,235.374 L748.748,254.795 L756.148,250.523 L745.426,230.267 C748.297,228.355 751.035,226.26 753.623,223.997 L770.402,239.585 L776.444,233.543 L760.872,216.781 C763.152,214.2 765.267,211.47 767.197,208.604 L787.382,219.289 L791.655,211.889 L772.339,199.769 C773.874,196.691 775.215,193.5 776.342,190.21 L798.53,195.289 L800.742,187.035 L779.015,180.348 C779.693,176.99 780.154,173.554 780.39,170.056 L803.087,169.221 Z" id="Fill-61" fill="#019095"></path>
            <path d="M587.414,704.161 C590.868,731.459 571.539,756.389 544.24,759.843 C516.942,763.298 492.012,743.968 488.557,716.67 C485.103,689.371 504.433,664.441 531.731,660.987 C559.03,657.533 583.96,676.862 587.414,704.161 Z M637.45,708.401 L634.124,682.122 L617.178,681.992 C615.768,678.054 614.079,674.264 612.135,670.643 L624.438,658.399 L608.419,637.304 L592.492,646.337 C589.59,643.87 586.523,641.602 583.314,639.548 L588.168,621.603 L563.748,611.343 L554.064,627.822 C550.536,627.136 546.939,626.674 543.29,626.447 L538.36,607.87 L512.081,611.196 L511.934,630.415 C508.456,631.543 505.088,632.887 501.841,634.43 L488.358,620.882 L467.263,636.901 L476.434,653.072 C473.838,655.861 471.432,658.821 469.237,661.933 L451.562,657.152 L441.302,681.572 L456.266,690.365 C455.286,694.357 454.594,698.448 454.21,702.613 L437.83,706.96 L441.155,733.239 L457.04,733.361 C458.284,737.773 459.876,742.02 461.775,746.08 L450.841,756.962 L466.861,778.057 L479.505,770.886 C483.005,774.266 486.789,777.339 490.815,780.067 L487.111,793.758 L511.532,804.018 L518.443,792.257 C523.316,793.422 528.335,794.162 533.454,794.432 L536.919,807.49 L563.198,804.165 L563.302,790.655 C568.192,789.118 572.868,787.152 577.298,784.81 L586.921,794.479 L608.016,778.459 L601.019,766.122 C604.238,762.477 607.138,758.559 609.686,754.413 L623.717,758.209 L633.977,733.788 L620.678,725.973 C621.505,721.568 621.989,717.058 622.096,712.475 L637.45,708.401 Z" id="Fill-62" fill="#4D666A"></path>
            <path d="M622.096,712.475 L637.45,708.401 L634.124,682.122 L617.178,681.992 C615.768,678.054 614.079,674.264 612.135,670.642 L624.438,658.399 L608.419,637.304 L592.492,646.337 C589.59,643.87 586.523,641.602 583.314,639.547 L588.168,621.602 L563.748,611.343 L554.064,627.822 C550.536,627.136 546.939,626.674 543.29,626.447 L538.36,607.87 L525.194,609.536 L531.234,661.063 C531.401,661.04 531.564,661.008 531.731,660.987 C559.03,657.533 583.96,676.862 587.414,704.161 C590.868,731.459 571.539,756.389 544.24,759.843 C543.769,759.903 543.3,759.939 542.831,759.985 L548.232,806.059 L563.198,804.165 L563.302,790.655 C568.192,789.118 572.868,787.152 577.298,784.81 L586.921,794.478 L608.016,778.459 L601.019,766.122 C604.238,762.477 607.138,758.559 609.686,754.413 L623.717,758.209 L633.977,733.788 L620.678,725.973 C621.505,721.568 621.989,717.058 622.096,712.475" id="Fill-63" fill="#3B5254"></path>
            <path d="M379.572,443.761 C379.572,385.676 426.659,338.589 484.743,338.589 C542.828,338.589 589.915,385.676 589.915,443.761 C589.915,501.846 542.828,548.932 484.743,548.932 C426.659,548.932 379.572,501.846 379.572,443.761 Z M648.17,458.92 L648.17,426.595 C637.375,425.05 621.985,421.989 613.041,416.376 C609.555,399.966 603.003,384.692 594.01,371.18 C596.195,360.814 605.087,347.489 611.732,338.626 L588.875,315.769 C579.896,322.5 566.341,331.534 555.919,333.57 C542.645,324.978 527.721,318.72 511.725,315.375 C505.729,306.6 502.504,290.504 500.906,279.331 L468.581,279.331 C466.982,290.504 463.758,306.6 457.761,315.375 C441.766,318.72 426.842,324.978 413.568,333.57 C403.146,331.534 389.591,322.5 380.612,315.769 L357.755,338.626 C364.4,347.489 373.292,360.814 375.477,371.18 C366.483,384.692 359.931,399.966 356.446,416.376 C347.502,421.989 332.112,425.05 321.317,426.595 L321.317,458.92 C331.927,460.438 346.977,463.422 355.982,468.854 C359.288,485.918 365.9,501.8 375.128,515.811 C372.464,525.94 364.088,538.441 357.755,546.889 L380.612,569.746 C388.96,563.488 401.263,555.239 411.326,552.474 C425.538,562.09 441.737,568.986 459.177,572.432 C464.274,581.514 467.113,595.924 468.581,606.184 L500.906,606.184 C502.374,595.924 505.213,581.514 510.31,572.432 C527.75,568.986 543.949,562.09 558.16,552.474 C568.224,555.239 580.527,563.488 588.875,569.746 L611.732,546.889 C605.399,538.441 597.023,525.94 594.359,515.811 C603.586,501.8 610.199,485.918 613.505,468.854 C622.509,463.422 637.559,460.438 648.17,458.92 Z" id="Fill-68" fill-opacity="0.72" fill="#019095"></path>
            <path d="M484.743,536.339 C433.06,536.339 391.162,494.441 391.162,442.757 C391.162,391.074 433.06,349.176 484.743,349.176 C536.427,349.176 578.325,391.074 578.325,442.757 C578.325,494.441 536.427,536.339 484.743,536.339 Z M484.743,341.588 C428.869,341.588 383.574,386.883 383.574,442.757 C383.574,498.631 428.869,543.926 484.743,543.926 C540.617,543.926 585.912,498.631 585.912,442.757 C585.912,386.883 540.617,341.588 484.743,341.588 Z" id="Fill-69" fill="#61B3CD"></path>
            <path d="M508.447,442.757 C508.447,429.666 497.834,419.053 484.743,419.053 C471.652,419.053 461.04,429.666 461.04,442.757 C461.04,455.848 471.652,466.461 484.743,466.461 C497.834,466.461 508.447,455.848 508.447,442.757" id="Fill-70" fill-opacity="0.72" fill="#019095"></path>
            <path d="M613.041,416.376 C609.555,399.966 603.003,384.692 594.01,371.18 C596.195,360.814 605.087,347.489 611.732,338.626 L588.875,315.769 C579.896,322.5 566.341,331.534 555.919,333.57 C542.645,324.978 527.721,318.72 511.725,315.375 C505.729,306.6 502.504,290.504 500.906,279.331 L485.039,279.331 L485.039,338.593 C542.987,338.752 589.915,385.775 589.915,443.761 C589.915,501.747 542.987,548.769 485.039,548.929 L485.039,606.184 L500.906,606.184 C502.374,595.924 505.213,581.514 510.31,572.432 C527.75,568.986 543.949,562.09 558.16,552.474 C568.224,555.239 580.527,563.488 588.875,569.746 L611.732,546.889 C605.399,538.441 597.023,525.94 594.359,515.811 C603.586,501.8 610.199,485.918 613.505,468.854 C622.509,463.422 637.559,460.438 648.17,458.92 L648.17,426.595 C637.375,425.05 621.985,421.989 613.041,416.376" id="Fill-71" fill="#019095"></path>
            <path d="M485.039,341.592 L485.039,349.179 C536.586,349.339 578.325,391.172 578.325,442.757 C578.325,494.342 536.586,536.175 485.039,536.335 L485.039,543.923 C540.777,543.763 585.912,498.532 585.912,442.757 C585.912,386.982 540.777,341.752 485.039,341.592" id="Fill-72" fill="#4895A6"></path>
            <path d="M485.039,419.061 L485.039,466.453 C497.993,466.294 508.447,455.749 508.447,442.757 C508.447,429.765 497.993,419.22 485.039,419.061" id="Fill-73" fill="#019095"></path>
            <path d="M685.453,377.076 C685.453,348.542 708.584,325.411 737.117,325.411 C765.651,325.411 788.782,348.542 788.782,377.076 C788.782,405.609 765.651,428.74 737.117,428.74 C708.584,428.74 685.453,405.609 685.453,377.076 Z M820.535,391.292 L844.232,387.42 L844.232,366.731 L820.535,362.86 C817.089,342.492 806.369,324.599 791.135,311.949 L799.634,289.484 L781.716,279.139 L766.523,297.716 C757.364,294.32 747.458,292.462 737.117,292.462 C726.777,292.462 716.871,294.32 707.712,297.716 L692.519,279.139 L674.602,289.484 L683.1,311.949 C667.866,324.599 657.146,342.492 653.7,362.86 L630.003,366.731 L630.003,387.42 L653.7,391.292 C657.146,411.659 667.866,429.552 683.1,442.202 L674.602,464.667 L692.519,475.012 L707.712,456.435 C716.871,459.831 726.777,461.689 737.117,461.689 C747.458,461.689 757.364,459.831 766.523,456.435 L781.716,475.012 L799.634,464.667 L791.135,442.202 C806.369,429.552 817.089,411.659 820.535,391.292 Z" id="Fill-74" fill="#DC725A"></path>
            <path d="M820.535,362.86 C817.089,342.492 806.369,324.599 791.135,311.949 L799.633,289.484 L781.716,279.139 L766.523,297.716 C757.637,294.422 748.045,292.59 738.039,292.483 L738.039,325.434 C766.146,325.927 788.782,348.851 788.782,377.076 C788.782,405.3 766.146,428.224 738.039,428.717 L738.039,461.668 C748.045,461.561 757.637,459.729 766.523,456.435 L781.716,475.012 L799.633,464.667 L791.135,442.202 C806.369,429.552 817.089,411.659 820.535,391.292 L844.232,387.42 L844.232,366.731 L820.535,362.86" id="Fill-75" fill="#C35E4B"></path>
            <path d="M243.196,496.651 C262.796,496.651 278.685,480.762 278.685,461.161 C278.685,441.561 262.796,425.672 243.196,425.672 C223.595,425.672 207.706,441.561 207.706,461.161 C207.706,480.762 223.595,496.651 243.196,496.651" id="Fill-76" fill="#4D666A"></path>
            <path d="M352.64,488.683 C347.227,483.095 338.311,482.955 332.725,488.367 L286.075,533.559 L209.569,492.021 C207.345,490.813 204.94,490.277 202.578,490.325 L202.567,490.314 C202.567,490.314 188.166,489.836 177.874,508.905 C167.771,527.624 142.908,591.304 133.494,615.694 C132.96,616.59 132.507,617.551 132.172,618.585 L131.065,622.006 C130.25,624.129 129.798,625.315 129.798,625.315 L129.976,625.371 L105.656,700.539 L44.723,749.445 C38.658,754.313 37.687,763.178 42.556,769.244 C45.338,772.711 49.424,774.513 53.548,774.513 C56.641,774.513 59.755,773.499 62.355,771.412 L126.574,719.868 C128.718,718.146 130.312,715.836 131.158,713.22 L156.273,635.596 L201.744,697.319 L194.172,766.501 C193.325,774.233 198.907,781.187 206.639,782.033 C207.16,782.091 207.677,782.118 208.189,782.118 C215.28,782.117 221.383,776.777 222.172,769.565 L230.342,694.921 C230.727,691.409 229.777,687.88 227.681,685.036 L190.213,634.176 L234.289,537.494 L281.725,563.249 C283.839,564.397 286.148,564.956 288.441,564.956 C292.016,564.956 295.551,563.596 298.245,560.988 L352.324,508.598 C357.91,503.186 358.052,494.269 352.64,488.683" id="Fill-77" fill="#4D666A"></path>
            <path d="M512.467,126.034 C520.666,118.556 521.25,105.848 513.773,97.649 C506.295,89.45 493.587,88.865 485.388,96.343 C477.189,103.821 476.605,116.529 484.082,124.728 C491.56,132.927 504.268,133.511 512.467,126.034" id="Fill-78" fill="#4D666A"></path>
            <path d="M582.826,133.988 L483.15,133.988 C481.922,133.988 480.764,134.273 479.725,134.769 C477.876,135.17 472.543,138.61 468.904,164.085 L459.292,214.011 L448.546,255.46 L401.935,291.103 C398.437,293.779 397.77,298.783 400.445,302.281 C402.015,304.333 404.386,305.411 406.785,305.411 C408.474,305.411 410.177,304.876 411.623,303.771 L460.418,266.457 C461.833,265.374 462.846,263.849 463.293,262.124 L480.512,226.739 C480.876,226.872 481.249,226.989 481.64,227.07 L516.039,239.726 L518.889,303.055 C519.08,307.333 522.608,310.673 526.848,310.673 C526.968,310.673 527.089,310.671 527.21,310.665 C531.609,310.469 535.016,306.744 534.82,302.345 L531.372,231.726 C531.21,228.082 528.595,225.013 525.022,224.273 L503.759,215.363 L514.538,149.935 L582.826,149.935 C587.23,149.935 590.799,146.365 590.799,141.961 C590.799,137.557 587.23,133.988 582.826,133.988" id="Fill-79" fill="#4D666A"></path>
        </g>
    </g>
</svg>