<svg xmlns="http://www.w3.org/2000/svg" viewBox="0 0 119.58 119.58"><defs><style>.cls-1{fill:#ffeae6;}.cls-2{fill:#dd694a;}</style></defs><title>Asset 23</title><g id="Layer_2" data-name="Layer 2"><g id="Layer_1-2" data-name="Layer 1"><circle class="cls-1" cx="59.79" cy="59.79" r="59.79"/><path class="cls-2" d="M59.79,18.27A41.91,41.91,0,1,0,101.7,60.18,41.91,41.91,0,0,0,59.79,18.27Zm0,75.76A33.85,33.85,0,1,1,93.64,60.18,33.85,33.85,0,0,1,59.79,94Z"/><circle class="cls-2" cx="59.79" cy="60.18" r="3.8"/><path class="cls-2" d="M78.16,78.31,58.58,61.84a1.78,1.78,0,0,1-.22-2.51h0a1.78,1.78,0,0,1,2.51-.22L80.45,75.58a1.78,1.78,0,0,1,.22,2.51h0A1.78,1.78,0,0,1,78.16,78.31Z"/><path class="cls-2" d="M61.58,40l0,20a1.78,1.78,0,0,1-1.78,1.78h0A1.78,1.78,0,0,1,58,60l0-20a1.78,1.78,0,0,1,1.78-1.78h0A1.78,1.78,0,0,1,61.58,40Z"/><line class="cls-2" x1="59.78" y1="60.18" x2="46.74" y2="78.05"/><rect class="cls-2" x="58.89" y="88.71" width="1.79" height="6.16" rx="0.9" ry="0.9"/><rect class="cls-2" x="58.89" y="25.41" width="1.79" height="6.16" rx="0.9" ry="0.9"/><rect class="cls-2" x="27.17" y="57.1" width="1.79" height="6.16" rx="0.9" ry="0.9" transform="translate(-32.11 88.25) rotate(-90)"/><rect class="cls-2" x="90.92" y="57.1" width="1.79" height="6.16" rx="0.9" ry="0.9" transform="translate(31.63 152) rotate(-90)"/><path class="cls-2" d="M58.92,107.73"/></g></g></svg>