<svg xmlns="http://www.w3.org/2000/svg" viewBox="0 0 109.18 109.18"><defs><style>.cls-1{fill:#fcf5e8;}.cls-2{fill:#ebb835;}</style></defs><title>Asset 25</title><g id="Layer_2" data-name="Layer 2"><g id="Layer_1-2" data-name="Layer 1"><circle class="cls-1" cx="54.59" cy="54.59" r="54.59"/><path class="cls-2" d="M96.07,44.18,55.27,27.82a5.14,5.14,0,0,0-3.82,0L10.5,44.18a.69.69,0,0,0,0,1.28L51,61.25a6.55,6.55,0,0,0,4.77,0L96.07,45.46A.69.69,0,0,0,96.07,44.18Z"/><rect class="cls-2" x="82.67" y="42.03" width="3.25" height="21.88"/><circle class="cls-2" cx="84.3" cy="65.86" r="3.57"/><path class="cls-2" d="M95.22,77.3Q93.75,82,87,83.81c-4.27-3.63-5.79-8.78-4.34-15.55h3.25A14.78,14.78,0,0,0,95.22,77.3Z"/><path class="cls-2" d="M74.86,70.21c-5.16,4.07-12,6.72-19.77,8.5a7.51,7.51,0,0,1-3.55-.06C44,76.69,37.23,74,31.68,70.12a4.64,4.64,0,0,1-2-3.81V57.44a.85.85,0,0,1,1.16-.8L50.39,64.1a8.36,8.36,0,0,0,6,0l19.39-7.4a1,1,0,0,1,1.32.91v8.07A5.77,5.77,0,0,1,74.86,70.21Z"/></g></g></svg>