<svg xmlns="http://www.w3.org/2000/svg" viewBox="0 0 199.63 199.63"><defs><style>.cls-1{fill:#e6f4f2;}.cls-2{fill:#168787;}.cls-3{fill:none;stroke:#7bc6c1;stroke-linecap:round;stroke-miterlimit:10;stroke-width:3.9px;}</style></defs><title>Asset 2</title><g id="Layer_2" data-name="Layer 2"><g id="Layer_1-2" data-name="Layer 1"><circle class="cls-1" cx="99.81" cy="99.81" r="99.81"/><path class="cls-2" d="M154.71,96.78h-7.53a22.75,22.75,0,0,0-35-26.07,39.89,39.89,0,1,0-74.46,27.6A24.17,24.17,0,0,0,21.91,121h0a24.18,24.18,0,0,0,24.18,24.18H154.71A24.18,24.18,0,0,0,178.89,121h0A24.18,24.18,0,0,0,154.71,96.78Z"/><line class="cls-3" x1="72.96" y1="72.38" x2="72.96" y2="116.09"/><line class="cls-3" x1="79.98" y1="78.37" x2="72.96" y2="72.38"/><line class="cls-3" x1="65.93" y1="78.37" x2="72.96" y2="72.38"/><line class="cls-3" x1="57.74" y1="124.27" x2="88.03" y2="124.27"/><line class="cls-3" x1="88.03" y1="114.39" x2="88.03" y2="124.27"/><line class="cls-3" x1="57.74" y1="114.39" x2="57.74" y2="124.27"/></g></g></svg>